<?xml version="1.0" standalone="no"?>
<!DOCTYPE svg PUBLIC "-//W3C//DTD SVG 1.1//EN" "http://www.w3.org/Graphics/SVG/1.1/DTD/svg11.dtd" >
<svg xmlns="http://www.w3.org/2000/svg" xmlns:xlink="http://www.w3.org/1999/xlink" version="1.1">
<metadata>
Created by FontForge 20170731 at Wed Mar 15 20:51:54 2023
 By Aleksey,,,
FS Thrive Elliot is a licensed version of FS Elliot Copyright (c) 2015 by Fontsmith Ltd for Alight. All rights reserved. This font may not be altered in any way without prior permission of Fontsmith Ltd.
</metadata>
<defs>
<font id="FSThriveElliot-Light" horiz-adv-x="1171" >
  <font-face 
    font-family="FS Thrive Elliot Light"
    font-weight="300"
    font-stretch="normal"
    units-per-em="2048"
    panose-1="2 6 4 3 3 2 2 2 2 4"
    ascent="1536"
    descent="-512"
    x-height="989"
    cap-height="1376"
    bbox="-537 -551 2437 1888"
    underline-thickness="81"
    underline-position="-285"
    unicode-range="U+000D-FB04"
  />
<missing-glyph horiz-adv-x="1024" 
d="M25 0v1376h974v-1376h-974zM512 778l332 500h-664zM123 188l332 500l-332 500v-1000zM901 188v1000l-332 -500zM180 98h664l-332 500z" />
    <glyph glyph-name="f_f.liga" unicode="ff" horiz-adv-x="1351" 
d="M276 0v909h-217v80h217v209q0 118 76.5 193t196.5 75q94 0 182 -26l-16 -80q-73 22 -148 22q-85 0 -138.5 -52.5t-53.5 -137.5v-203h516v209q0 118 76 193t196 75q92 0 183 -26l-17 -80q-73 22 -147 22q-86 0 -139.5 -52.5t-53.5 -137.5v-203h303v-80h-303v-909h-98v909
h-516v-909h-99z" />
    <glyph glyph-name="fi" unicode="fi" horiz-adv-x="1134" 
d="M276 0v909h-217v80h217v166q0 136 94.5 223.5t237.5 87.5q131 0 285 -51l-21 -78q-149 47 -254 47t-174 -65t-69 -166v-164h581v-989h-98v909h-483v-909h-99z" />
    <glyph glyph-name="fl" unicode="fl" horiz-adv-x="1232" 
d="M1073 -25q-98 0 -156.5 57t-58.5 152v1176q-141 24 -242 24q-108 0 -174.5 -63.5t-66.5 -167.5v-164h305v-80h-305v-909h-99v909h-217v80h217v166q0 139 93.5 225t240.5 86q114 0 346 -36v-1237q0 -63 36 -98.5t98 -35.5q44 0 102 15l14 -80q-78 -19 -133 -19z" />
    <glyph glyph-name="f_f_i.liga" unicode="ffi" horiz-adv-x="1748" 
d="M276 0v909h-217v80h217v209q0 118 76.5 193t196.5 75q94 0 182 -26l-16 -80q-73 22 -148 22q-85 0 -138.5 -52.5t-53.5 -137.5v-203h516v166q0 136 93.5 223.5t236.5 87.5q132 0 286 -51l-22 -78q-146 47 -252 47t-175 -65t-69 -166v-164h580v-989h-99v909h-481v-909h-98
v909h-516v-909h-99z" />
    <glyph glyph-name="f_f_l.liga" unicode="ffl" horiz-adv-x="1847" 
d="M1686 -25q-97 0 -156.5 57t-59.5 152v1176q-137 24 -239 24q-108 0 -175 -63.5t-67 -167.5v-164h303v-80h-303v-909h-98v909h-516v-909h-99v909h-217v80h217v209q0 118 76.5 193t196.5 75q94 0 182 -26l-16 -80q-73 22 -148 22q-85 0 -138.5 -52.5t-53.5 -137.5v-203h516
v166q0 139 93 225t241 86q115 0 344 -36v-1237q0 -63 36.5 -98.5t98.5 -35.5q44 0 102 15l15 -80q-81 -19 -135 -19z" />
    <glyph glyph-name="f_b.liga" unicode="fb" horiz-adv-x="1851" 
d="M1305 -25q-118 0 -210 55.5t-145 157.5l-12 -188h-80v1360q-141 24 -242 24q-108 0 -174.5 -63.5t-66.5 -167.5v-164h305v-80h-305v-909h-99v909h-217v80h217v166q0 139 93.5 225t240.5 86q114 0 346 -36v-625q51 100 141.5 154.5t207.5 54.5q194 0 318 -146t124 -374
q0 -227 -124 -373t-318 -146zM1286 57q158 0 259.5 123t101.5 314q0 192 -101.5 315t-259.5 123q-146 0 -239 -98t-93 -250v-178q0 -153 93 -251t239 -98z" />
    <glyph glyph-name="f_f_b.liga" unicode="ffb" horiz-adv-x="2461" 
d="M1919 -25q-118 0 -210.5 55.5t-145.5 157.5l-13 -188h-80v1360q-137 24 -239 24q-108 0 -175 -63.5t-67 -167.5v-164h303v-80h-303v-909h-98v909h-516v-909h-99v909h-217v80h217v209q0 118 76.5 193t196.5 75q94 0 182 -26l-16 -80q-73 22 -148 22q-86 0 -139 -51.5
t-53 -138.5v-203h516v166q0 139 93 225t241 86q115 0 344 -36v-625q80 141 223 184q71 24 152 21q150 -7 257.5 -109.5t141.5 -267.5q17 -73 14 -166q-6 -215 -129 -353.5t-309 -138.5zM1901 57q157 0 258.5 123.5t101.5 313.5q0 192 -101.5 315t-258.5 123
q-147 0 -239.5 -97.5t-92.5 -250.5v-178q0 -153 92.5 -251t239.5 -98z" />
    <glyph glyph-name="f_f_h.liga" unicode="ffh" horiz-adv-x="2463" 
d="M276 0v909h-217v80h217v209q0 118 76.5 193t196.5 75q94 0 182 -26l-16 -80q-73 22 -148 22q-86 0 -139 -51.5t-53 -138.5v-203h516v166q0 139 93 225t241 86q115 0 344 -36v-642q50 106 145.5 166t216.5 60q161 0 265 -101.5t104 -259.5v-653h-96v641q0 127 -83.5 208
t-211.5 81q-147 0 -243.5 -101.5t-96.5 -261.5v-567h-99v1360q-137 24 -239 24q-108 0 -175 -63.5t-67 -167.5v-164h303v-80h-303v-909h-98v909h-516v-909h-99z" />
    <glyph glyph-name="f_f_j.liga" unicode="ffj" horiz-adv-x="1748" 
d="M1296 -451q-88 0 -180 27l14 80q76 -23 150 -23q85 0 137.5 53t52.5 138v1085h-481v-909h-98v909h-516v-909h-99v909h-217v80h217v209q0 118 76.5 193t196.5 75q94 0 182 -26l-16 -80q-73 22 -148 22q-85 0 -138.5 -52.5t-53.5 -137.5v-203h516v166q0 136 93.5 223.5
t236.5 87.5q132 0 286 -51l-22 -78q-146 47 -252 47t-175 -65t-69 -166v-164h580v-1171q0 -118 -76.5 -193.5t-196.5 -75.5z" />
    <glyph glyph-name="f_f_k.liga" unicode="ffk" horiz-adv-x="2304" 
d="M276 0v909h-217v80h217v209q0 118 76.5 193t196.5 75q94 0 182 -26l-16 -80q-73 22 -148 22q-85 0 -138.5 -52.5t-53.5 -137.5v-203h516v166q0 139 93 225t241 86q143 0 342 -36v-975l532 534h119l-461 -463l477 -526h-118l-422 467l-127 -125v-342h-97v1360
q-137 24 -239 24q-108 0 -175 -63.5t-67 -167.5v-164h303v-80h-303v-909h-98v909h-516v-909h-99z" />
    <glyph glyph-name="f_h.liga" unicode="fh" horiz-adv-x="1851" 
d="M276 0v909h-217v80h217v166q0 139 93.5 225t240.5 86q114 0 346 -36v-642q47 106 144 166t219 60q160 0 264.5 -101.5t104.5 -259.5v-653h-99v641q0 127 -83 208t-212 81q-146 0 -242 -101.5t-96 -261.5v-567h-98v1360q-141 24 -242 24q-108 0 -174.5 -63.5t-66.5 -167.5
v-164h305v-80h-305v-909h-99z" />
    <glyph glyph-name="f_j.liga" unicode="fj" horiz-adv-x="1134" 
d="M684 -451q-90 0 -182 27l16 80q76 -23 148 -23q85 0 138.5 53t53.5 138v1085h-483v-909h-99v909h-217v80h217v166q0 136 94.5 223.5t237.5 87.5q131 0 285 -51l-21 -78q-149 47 -254 47t-174 -65t-69 -166v-164h581v-1171q0 -119 -76 -194t-196 -75z" />
    <glyph glyph-name="f_k.liga" unicode="fk" horiz-adv-x="1689" 
d="M276 0v909h-217v80h217v166q0 139 93.5 225t240.5 86q143 0 342 -36v-975l533 534h119l-459 -463l475 -526h-119l-422 467l-127 -125v-342h-94v1360q-141 24 -242 24q-108 0 -174.5 -63.5t-66.5 -167.5v-164h305v-80h-305v-909h-99z" />
    <glyph glyph-name=".notdef" horiz-adv-x="1024" 
d="M25 0v1376h974v-1376h-974zM512 778l332 500h-664zM123 188l332 500l-332 500v-1000zM901 188v1000l-332 -500zM180 98h664l-332 500z" />
    <glyph glyph-name=".null" horiz-adv-x="0" 
 />
    <glyph glyph-name="nonmarkingreturn" horiz-adv-x="682" 
 />
    <glyph glyph-name="CR" unicode="&#xd;" horiz-adv-x="491" 
 />
    <glyph glyph-name="space" unicode=" " horiz-adv-x="491" 
 />
    <glyph glyph-name="exclam" unicode="!" horiz-adv-x="516" 
d="M217 412l-10 964h102l-10 -964h-82zM258 -18q-35 0 -56.5 21.5t-21.5 55.5t22 55t56 21t55 -21t21 -55t-21 -55.5t-55 -21.5z" />
    <glyph glyph-name="quotedbl" unicode="&#x22;" horiz-adv-x="774" 
d="M170 954l-10 422h96l-8 -422h-78zM526 954l-10 422h96l-8 -422h-78z" />
    <glyph glyph-name="numbersign" unicode="#" horiz-adv-x="1323" 
d="M1196 901h-242v-426h242v-78h-242v-397h-82v397h-421v-397h-82v397h-242v78h242v426h-242v78h242v397h82v-397h421v397h82v-397h242v-78zM872 475v426h-421v-426h421z" />
    <glyph glyph-name="dollar" unicode="$" horiz-adv-x="1179" 
d="M547 -262v338q-160 6 -363 88l27 80q199 -81 338 -86v504q-46 14 -76 24t-71.5 27t-68 33.5t-56 42t-46 54t-27.5 67.5t-11 85q0 129 96.5 211.5t257.5 91.5v340h86v-338q141 -9 321 -81l-26 -80q-176 73 -297 78v-486q47 -14 77.5 -24t72.5 -27t69.5 -34.5t57.5 -43.5
t47 -55.5t28.5 -70t11.5 -87.5q0 -134 -99 -219t-263 -92v-340h-86zM549 756v461q-118 -10 -188 -70.5t-70 -151.5q0 -52 19.5 -91t58.5 -66.5t79.5 -45t100.5 -36.5zM631 158q123 11 194.5 72.5t71.5 158.5q0 53 -20 93.5t-60.5 69.5t-82 47.5t-103.5 37.5v-479z" />
    <glyph glyph-name="percent" unicode="%" horiz-adv-x="1769" 
d="M428 664q-143 0 -234.5 103t-91.5 265q0 161 92 265t234 104q143 0 235.5 -104t92.5 -265q0 -162 -92.5 -265t-235.5 -103zM324 0l1032 1376h90l-1032 -1376h-90zM428 731q110 0 179 83t69 218q0 134 -69 217.5t-179 83.5q-109 0 -177.5 -84t-68.5 -217q0 -135 68.5 -218
t177.5 -83zM1341 -25q-145 0 -236 103t-91 266q0 162 91.5 265.5t235.5 103.5q142 0 234 -104t92 -265q0 -162 -91.5 -265.5t-234.5 -103.5zM1341 43q109 0 177.5 83t68.5 218q0 133 -68.5 217t-177.5 84q-110 0 -178.5 -83.5t-68.5 -217.5q0 -135 68.5 -218t178.5 -83z" />
    <glyph glyph-name="ampersand" unicode="&#x26;" horiz-adv-x="1296" 
d="M543 -25q-194 0 -318.5 110t-124.5 282q0 237 336 417q-96 98 -142 170.5t-46 157.5q0 128 90 208.5t233 80.5q134 0 221 -76.5t87 -194.5q0 -102 -70.5 -185t-241.5 -179l406 -436q90 149 90 332h86q0 -219 -115 -398l244 -264h-115l-190 205q-90 -111 -201 -170.5
t-229 -59.5zM516 823q148 81 210 150t62 151q0 86 -61 141.5t-156 55.5q-104 0 -168.5 -58.5t-64.5 -152.5q0 -69 44 -134t134 -153zM549 55q103 0 199 54.5t170 154.5l-433 467q-292 -165 -292 -358q0 -139 101 -228.5t255 -89.5z" />
    <glyph glyph-name="quotesingle" unicode="'" horiz-adv-x="417" 
d="M170 954l-10 422h96l-8 -422h-78z" />
    <glyph glyph-name="parenleft" unicode="(" horiz-adv-x="673" 
d="M522 -297q-168 182 -256 409t-88 478q0 250 88 477t256 410l70 -52q-158 -167 -240 -381.5t-82 -453.5t82 -454t240 -382z" />
    <glyph glyph-name="parenright" unicode=")" horiz-adv-x="673" 
d="M152 -297l-72 51q158 167 239.5 382t81.5 454t-81.5 453.5t-239.5 381.5l72 52q167 -181 254.5 -408t87.5 -479q0 -251 -87.5 -477.5t-254.5 -409.5z" />
    <glyph glyph-name="asterisk" unicode="*" horiz-adv-x="995" 
d="M289 621l-60 43l209 286l-338 111l25 72l336 -111v354h74v-354l335 111l25 -72l-340 -111l209 -286l-59 -43l-207 288z" />
    <glyph glyph-name="plus" unicode="+" horiz-adv-x="1179" 
d="M547 119v428h-428v86h428v428h86v-428h428v-86h-428v-428h-86z" />
    <glyph glyph-name="comma" unicode="," horiz-adv-x="483" 
d="M133 -328l-35 47q152 116 152 269q-37 -5 -63.5 17.5t-26.5 57.5q0 36 23 59t59 23q42 0 67 -34.5t25 -92.5q0 -102 -52.5 -192.5t-148.5 -153.5z" />
    <glyph glyph-name="hyphen" unicode="-" horiz-adv-x="655" 
d="M59 467v80h537v-80h-537z" />
    <glyph glyph-name="period" unicode="." horiz-adv-x="483" 
d="M242 -18q-35 0 -58.5 23t-23.5 58t23.5 58.5t58.5 23.5t58.5 -23.5t23.5 -58.5t-23.5 -58t-58.5 -23z" />
    <glyph glyph-name="slash" unicode="/" horiz-adv-x="786" 
d="M37 -266l620 1708h93l-623 -1708h-90z" />
    <glyph glyph-name="zero" unicode="0" horiz-adv-x="1179" 
d="M590 -25q-224 0 -357 193.5t-133 519.5t133 519.5t357 193.5t356.5 -193.5t132.5 -519.5t-132.5 -519.5t-356.5 -193.5zM590 59q180 0 288.5 171.5t108.5 457.5q0 287 -108.5 458t-288.5 171t-288.5 -171t-108.5 -458q0 -286 108.5 -457.5t288.5 -171.5z" />
    <glyph glyph-name="one" unicode="1" horiz-adv-x="1179" 
d="M653 0v1274l-383 -221l-37 71l435 252h82v-1376h-97z" />
    <glyph glyph-name="two" unicode="2" horiz-adv-x="1179" 
d="M123 0v66l569 569q176 173 176 362q0 141 -90 229.5t-235 88.5q-160 0 -359 -123l-41 76q217 133 414 133q180 0 294 -110t114 -283q0 -221 -193 -414l-512 -510h721v-84h-858z" />
    <glyph glyph-name="three" unicode="3" horiz-adv-x="1179" 
d="M559 -25q-216 0 -432 101l33 78q207 -95 387 -95q149 0 243.5 83.5t94.5 215.5q0 136 -111 222t-289 86h-73v77h73q162 0 265.5 81.5t103.5 209.5q0 126 -85 204.5t-220 78.5q-171 0 -356 -86l-33 78q197 92 399 92q173 0 283 -100.5t110 -258.5q0 -122 -74.5 -211
t-199.5 -122q140 -37 223.5 -134t83.5 -225q0 -166 -119 -270.5t-307 -104.5z" />
    <glyph glyph-name="four" unicode="4" horiz-adv-x="1179" 
d="M760 0v342h-686v72l686 962h92v-954h227v-80h-227v-342h-92zM174 422h586v821z" />
    <glyph glyph-name="five" unicode="5" horiz-adv-x="1179" 
d="M551 -25q-205 0 -406 117l41 76q185 -109 359 -109q168 0 269 92.5t101 243.5q0 156 -100.5 247t-277.5 91q-137 0 -306 -39v682h732v-84h-644v-510q126 27 240 27q210 0 331.5 -113t121.5 -303q0 -185 -127.5 -301.5t-333.5 -116.5z" />
    <glyph glyph-name="six" unicode="6" horiz-adv-x="1179" 
d="M623 -25q-223 0 -351.5 161.5t-128.5 461.5q0 385 141 594t404 209q166 0 316 -78l-35 -76q-147 72 -279 72q-222 0 -338.5 -181.5t-113.5 -527.5q38 114 148 185t249 71q193 0 312.5 -121.5t119.5 -316.5q0 -193 -127.5 -323t-316.5 -130zM621 57q150 0 252 106.5
t102 262.5q0 161 -97 259.5t-257 98.5q-154 0 -260.5 -93.5t-106.5 -229.5q0 -178 103 -291t264 -113z" />
    <glyph glyph-name="seven" unicode="7" horiz-adv-x="1179" 
d="M315 0l559 1292h-724v84h835v-65l-567 -1311h-103z" />
    <glyph glyph-name="eight" unicode="8" horiz-adv-x="1179" 
d="M590 -25q-206 0 -334.5 102.5t-128.5 266.5q0 136 91.5 232.5t254.5 128.5q-139 30 -226 122.5t-87 221.5q0 153 121.5 252.5t308.5 99.5t308.5 -99.5t121.5 -252.5q0 -129 -87 -221.5t-226 -122.5q163 -32 254.5 -128.5t91.5 -232.5q0 -164 -128.5 -266.5t-334.5 -102.5
zM590 743q150 23 243 100.5t93 198.5q0 120 -95.5 199.5t-240.5 79.5t-240.5 -79.5t-95.5 -199.5q0 -121 93 -198.5t243 -100.5zM590 55q162 0 263 81.5t101 213.5q0 126 -97 208.5t-267 107.5q-170 -25 -267.5 -107.5t-97.5 -208.5q0 -132 101.5 -213.5t263.5 -81.5z" />
    <glyph glyph-name="nine" unicode="9" horiz-adv-x="1179" 
d="M492 -25q-166 0 -316 78l35 76q147 -72 278 -72q222 0 339 181.5t114 527.5q-38 -114 -148 -185t-249 -71q-193 0 -312.5 121.5t-119.5 316.5q0 193 127.5 323t316.5 130q223 0 351 -161.5t128 -461.5q0 -385 -140.5 -594t-403.5 -209zM559 592q154 0 260.5 93.5
t106.5 229.5q0 178 -103 291t-264 113q-150 0 -252 -106.5t-102 -262.5q0 -161 97 -259.5t257 -98.5z" />
    <glyph glyph-name="colon" unicode=":" horiz-adv-x="516" 
d="M258 842q-35 0 -58.5 23.5t-23.5 58.5t23.5 58.5t58.5 23.5t58.5 -23.5t23.5 -58.5t-23.5 -58.5t-58.5 -23.5zM258 -18q-35 0 -58.5 23t-23.5 58t23.5 58.5t58.5 23.5t58.5 -23.5t23.5 -58.5t-23.5 -58t-58.5 -23z" />
    <glyph glyph-name="semicolon" unicode=";" horiz-adv-x="516" 
d="M258 842q-35 0 -58.5 23.5t-23.5 58.5t23.5 58.5t58.5 23.5t58.5 -23.5t23.5 -58.5t-23.5 -58.5t-58.5 -23.5zM150 -328l-35 47q151 115 151 269q-37 -5 -63.5 17.5t-26.5 57.5q0 36 23 59t59 23q42 0 67 -34.5t25 -92.5q0 -103 -52.5 -193t-147.5 -153z" />
    <glyph glyph-name="less" unicode="&#x3c;" horiz-adv-x="1179" 
d="M1034 121l-915 426v86l915 426l35 -82l-833 -387l833 -387z" />
    <glyph glyph-name="equal" unicode="=" horiz-adv-x="1179" 
d="M119 756v86h942v-86h-942zM119 338v86h942v-86h-942z" />
    <glyph glyph-name="greater" unicode="&#x3e;" horiz-adv-x="1179" 
d="M145 121l-34 82l833 387l-833 387l34 82l916 -426v-86z" />
    <glyph glyph-name="question" unicode="?" horiz-adv-x="929" 
d="M391 412v22q0 70 34.5 134.5t83.5 115.5t98 101t83.5 114t34.5 133q0 124 -81.5 203.5t-209.5 79.5q-153 0 -319 -113l-41 74q175 125 370 125q167 0 273 -101t106 -258q0 -60 -19 -114.5t-49.5 -97t-67.5 -82.5t-74 -77t-68 -74t-51 -80.5t-21 -88.5v-16h-82zM432 -18
q-34 0 -56 22.5t-22 56.5q0 33 22 53.5t56 20.5t55 -20t21 -54t-21.5 -56.5t-54.5 -22.5z" />
    <glyph glyph-name="at" unicode="@" horiz-adv-x="1978" 
d="M1014 -418q-194 0 -361 67.5t-284.5 187t-184.5 289.5t-67 368q0 264 114.5 472.5t319 324.5t463.5 116q244 0 437.5 -103t302 -288.5t108.5 -419.5q0 -245 -102.5 -397t-268.5 -152q-87 0 -145.5 51t-67.5 133q-46 -88 -126.5 -136t-186.5 -48q-167 0 -276 126.5
t-109 320.5q0 195 108.5 320.5t276.5 125.5q102 0 179 -46t120 -130l10 156h82v-631q0 -74 38 -119t105 -45q125 0 201 128t76 337q0 214 -98 382.5t-271.5 261.5t-392.5 93q-176 0 -327 -62t-257 -171t-166.5 -264t-60.5 -336q0 -241 103 -431t288 -296.5t420 -106.5
q236 0 510 152l41 -70q-303 -160 -551 -160zM983 129q124 0 200.5 83t76.5 210v145q0 128 -76.5 210.5t-200.5 82.5q-134 0 -220.5 -102.5t-86.5 -263.5q0 -160 86.5 -262.5t220.5 -102.5z" />
    <glyph glyph-name="A" unicode="A" horiz-adv-x="1357" 
d="M61 0l570 1376h96l569 -1376h-104l-168 410h-690l-168 -410h-105zM365 489h628l-313 766z" />
    <glyph glyph-name="B" unicode="B" horiz-adv-x="1323" 
d="M225 0v1376h529q169 0 278 -98.5t109 -251.5q0 -107 -60 -192t-163 -123q127 -32 199.5 -124.5t72.5 -219.5q0 -164 -113.5 -265.5t-290.5 -101.5h-561zM324 741h419q131 0 215 78t84 199q0 123 -84 200.5t-215 77.5h-419v-555zM324 80h450q140 0 228 82.5t88 212.5
q0 129 -88.5 211t-227.5 82h-450v-588z" />
    <glyph glyph-name="C" unicode="C" horiz-adv-x="1316" 
d="M774 -25q-291 0 -474 199t-183 514q0 156 48.5 289t134 226t208 145.5t266.5 52.5q234 0 447 -148l-45 -71q-187 133 -392 133q-252 0 -408.5 -173.5t-156.5 -453.5t156.5 -453.5t408.5 -173.5q203 0 392 134l45 -72q-213 -148 -447 -148z" />
    <glyph glyph-name="D" unicode="D" horiz-adv-x="1456" 
d="M225 0v1376h422q309 0 500.5 -190.5t191.5 -497.5q0 -305 -192 -496.5t-500 -191.5h-422zM326 84h311q265 0 432.5 168.5t167.5 435.5t-167.5 435.5t-432.5 168.5h-311v-1208z" />
    <glyph glyph-name="E" unicode="E" horiz-adv-x="1218" 
d="M225 0v1376h842v-82h-741v-549h675v-81h-675v-582h774v-82h-875z" />
    <glyph glyph-name="F" unicode="F" horiz-adv-x="1185" 
d="M225 0v1376h842v-84h-741v-596h675v-84h-675v-612h-101z" />
    <glyph glyph-name="G" unicode="G" horiz-adv-x="1423" 
d="M807 -25q-201 0 -358.5 90.5t-244.5 253t-87 369.5q0 155 49.5 287.5t137.5 226t213.5 146.5t273.5 53q224 0 462 -133l-41 -74q-217 123 -411 123q-259 0 -422.5 -175.5t-163.5 -453.5q0 -182 75.5 -325.5t212 -223.5t310.5 -80q194 0 365 80v465h-371v80h465v-600
q-237 -109 -465 -109z" />
    <glyph glyph-name="H" unicode="H" horiz-adv-x="1554" 
d="M225 0v1376h101v-631h903v631h100v-1376h-100v664h-903v-664h-101z" />
    <glyph glyph-name="I" unicode="I" horiz-adv-x="550" 
d="M225 0v1376h101v-1376h-101z" />
    <glyph glyph-name="J" unicode="J" horiz-adv-x="897" 
d="M309 -25q-118 0 -252 35l17 82q118 -31 217 -31q123 0 201.5 78t78.5 201v1036h101v-1042q0 -158 -101.5 -258.5t-261.5 -100.5z" />
    <glyph glyph-name="K" unicode="K" horiz-adv-x="1335" 
d="M225 0v1376h99v-774l772 774h123l-641 -643l671 -733h-125l-616 670l-184 -183v-487h-99z" />
    <glyph glyph-name="L" unicode="L" horiz-adv-x="1087" 
d="M225 0v1376h101v-1292h702v-84h-803z" />
    <glyph glyph-name="M" unicode="M" horiz-adv-x="1734" 
d="M225 0v1376h101l542 -733l541 733h100v-1376h-94v1235l-516 -703h-63l-517 703v-1235h-94z" />
    <glyph glyph-name="N" unicode="N" horiz-adv-x="1554" 
d="M225 0v1376h101l909 -1235v1235h94v-1376h-100l-910 1235v-1235h-94z" />
    <glyph glyph-name="O" unicode="O" horiz-adv-x="1554" 
d="M778 -25q-192 0 -343 90.5t-234.5 253t-83.5 369.5t83.5 369.5t234.5 253t343 90.5q191 0 341.5 -90.5t234.5 -253t84 -369.5t-84 -369.5t-234.5 -253t-341.5 -90.5zM778 59q244 0 400.5 177t156.5 452t-156.5 452t-400.5 177q-162 0 -289.5 -80.5t-198.5 -224
t-71 -324.5t71 -324.5t198.5 -224t289.5 -80.5z" />
    <glyph glyph-name="P" unicode="P" horiz-adv-x="1257" 
d="M225 0v1376h488q195 0 319.5 -116t124.5 -299t-124.5 -299.5t-319.5 -116.5h-389v-545h-99zM324 627h378q156 0 255.5 93.5t99.5 240.5q0 146 -99.5 238.5t-255.5 92.5h-378v-665z" />
    <glyph glyph-name="Q" unicode="Q" horiz-adv-x="1554" 
d="M1413 -268l-393 288q-115 -45 -242 -45q-192 0 -343 90.5t-234.5 253t-83.5 369.5t83.5 369.5t234.5 253t343 90.5q191 0 341.5 -90.5t234.5 -253t84 -369.5q0 -213 -88 -377t-244 -250l360 -264zM778 59q244 0 400.5 177t156.5 452t-156.5 452t-400.5 177
q-162 0 -289.5 -80.5t-198.5 -224t-71 -324.5t71 -324.5t198.5 -224t289.5 -80.5z" />
    <glyph glyph-name="R" unicode="R" horiz-adv-x="1323" 
d="M225 0v1376h492q187 0 306.5 -112t119.5 -287q0 -160 -100.5 -267t-264.5 -122l418 -588h-115l-405 578h-352v-578h-99zM324 659h381q150 0 244.5 88t94.5 230q0 139 -95 227t-244 88h-381v-633z" />
    <glyph glyph-name="S" unicode="S" horiz-adv-x="1175" 
d="M588 -25q-211 0 -471 109l26 80q272 -105 439 -105q169 0 272.5 76.5t103.5 200.5q0 68 -28.5 119.5t-76.5 84.5t-110.5 58t-132 45t-138.5 41t-131.5 51t-110.5 69.5t-76.5 101.5t-28.5 143q0 157 128.5 254.5t334.5 97.5q194 0 420 -92l-27 -80q-215 88 -387 88
q-165 0 -267 -74.5t-102 -193.5q0 -84 46 -143t119.5 -92t162 -58.5t177 -55.5t162 -70.5t119.5 -115t46 -178.5q0 -161 -129.5 -261t-339.5 -100z" />
    <glyph glyph-name="T" unicode="T" horiz-adv-x="1218" 
d="M559 0v1292h-500v84h1100v-84h-500v-1292h-100z" />
    <glyph glyph-name="U" unicode="U" horiz-adv-x="1554" 
d="M778 -25q-247 0 -408 152t-161 389v860h100v-856q0 -202 133 -331.5t336 -129.5q202 0 334.5 129.5t132.5 331.5v856h101v-860q0 -156 -73.5 -280t-203.5 -192.5t-291 -68.5z" />
    <glyph glyph-name="V" unicode="V" horiz-adv-x="1357" 
d="M631 0l-570 1376h107l512 -1247l510 1247h106l-569 -1376h-96z" />
    <glyph glyph-name="W" unicode="W" horiz-adv-x="2045" 
d="M528 0l-442 1376h102l394 -1247l393 1247h98l391 -1247l394 1247h102l-442 -1376h-103l-391 1247l-393 -1247h-103z" />
    <glyph glyph-name="X" unicode="X" horiz-adv-x="1374" 
d="M88 0l535 705l-510 671h114l461 -604l459 604h115l-510 -671l534 -705h-117l-481 637l-483 -637h-117z" />
    <glyph glyph-name="Y" unicode="Y" horiz-adv-x="1204" 
d="M551 0v604l-506 772h113l444 -680l442 680h115l-508 -772v-604h-100z" />
    <glyph glyph-name="Z" unicode="Z" horiz-adv-x="1273" 
d="M117 0v61l880 1231h-856v84h989v-61l-878 -1231h903v-84h-1038z" />
    <glyph glyph-name="bracketleft" unicode="[" horiz-adv-x="673" 
d="M238 -268v1716h348v-84h-256v-1548h256v-84h-348z" />
    <glyph glyph-name="backslash" unicode="\" horiz-adv-x="786" 
d="M659 -266l-622 1708h92l621 -1708h-91z" />
    <glyph glyph-name="bracketright" unicode="]" horiz-adv-x="673" 
d="M86 -268v84h256v1548h-256v84h348v-1716h-348z" />
    <glyph glyph-name="asciicircum" unicode="^" horiz-adv-x="1179" 
d="M203 422l-82 33l426 921h86l426 -921l-82 -33l-387 838z" />
    <glyph glyph-name="underscore" unicode="_" horiz-adv-x="983" 
d="M0 -303v82h983v-82h-983z" />
    <glyph glyph-name="grave" unicode="`" horiz-adv-x="491" 
d="M317 1153l-335 215l49 68l325 -226z" />
    <glyph glyph-name="a" unicode="a" 
d="M545 -25q-194 0 -318.5 146t-124.5 373q0 228 124.5 374t318.5 146q118 0 211 -56t143 -155l12 186h80v-989h-80l-12 188q-53 -102 -144.5 -157.5t-209.5 -55.5zM563 57q147 0 239.5 98t92.5 251v178q0 153 -92.5 250.5t-239.5 97.5q-158 0 -259 -123t-101 -315
q0 -191 101 -314t259 -123z" />
    <glyph glyph-name="b" unicode="b" 
d="M627 -25q-119 0 -211.5 55.5t-145.5 157.5l-12 -188h-80v1442h98v-637q53 100 143.5 154.5t207.5 54.5q192 0 316 -146t124 -374q0 -227 -124 -373t-316 -146zM606 57q158 0 260.5 123t102.5 314q0 192 -102.5 315t-260.5 123q-146 0 -239 -98t-93 -250v-178
q0 -153 93 -251t239 -98z" />
    <glyph glyph-name="c" unicode="c" horiz-adv-x="995" 
d="M582 -25q-211 0 -345.5 146t-134.5 373q0 229 134.5 374.5t345.5 145.5q175 0 331 -111l-43 -69q-134 96 -278 96q-171 0 -280 -121.5t-109 -314.5q0 -192 109 -313.5t280 -121.5q143 0 278 97l43 -72q-157 -109 -331 -109z" />
    <glyph glyph-name="d" unicode="d" 
d="M545 -25q-194 0 -318.5 146t-124.5 373q0 228 124.5 374t318.5 146q117 0 207 -54.5t141 -154.5v637h98v-1442h-80l-12 188q-53 -102 -144.5 -157.5t-209.5 -55.5zM563 57q147 0 239.5 98t92.5 251v178q0 153 -92.5 250.5t-239.5 97.5q-158 0 -259 -123t-101 -315
q0 -191 101 -314t259 -123z" />
    <glyph glyph-name="e" unicode="e" horiz-adv-x="1083" 
d="M598 -25q-217 0 -356.5 146t-139.5 373q0 229 129.5 374.5t333.5 145.5q190 0 310 -139.5t120 -360.5v-41h-794q6 -186 119 -303t288 -117q141 0 305 86l33 -71q-179 -93 -348 -93zM201 541h700q-3 175 -96 284t-240 109q-154 0 -253.5 -108t-110.5 -285z" />
    <glyph glyph-name="f" unicode="f" horiz-adv-x="739" 
d="M276 0v909h-217v80h217v209q0 120 76.5 194t204.5 74q86 0 174 -26l-16 -80q-73 22 -140 22q-93 0 -146.5 -51t-53.5 -139v-203h305v-80h-305v-909h-99z" />
    <glyph glyph-name="g" unicode="g" 
d="M532 -451q-170 0 -366 84l31 78q186 -80 329 -80q161 0 264 91t103 233v229q-51 -100 -141 -154.5t-207 -54.5q-194 0 -318.5 146t-124.5 373q0 228 124.5 374t318.5 146q118 0 209.5 -56t144.5 -159l12 190h80v-1030q0 -180 -129 -295t-330 -115zM563 57q147 0 239.5 98
t92.5 251v178q0 153 -92.5 250.5t-239.5 97.5q-158 0 -259 -123t-101 -315q0 -191 101 -314t259 -123z" />
    <glyph glyph-name="h" unicode="h" 
d="M178 0v1442h98v-654q50 106 146 166t217 60q161 0 265 -101.5t104 -259.5v-653h-99v641q0 127 -82.5 208t-210.5 81q-147 0 -243.5 -101.5t-96.5 -261.5v-567h-98z" />
    <glyph glyph-name="i" unicode="i" horiz-adv-x="454" 
d="M227 1229q-34 0 -54.5 21t-20.5 55t20.5 55.5t54.5 21.5t56 -21.5t22 -55.5t-22 -55t-56 -21zM178 0v989h98v-989h-98z" />
    <glyph glyph-name="j" unicode="j" horiz-adv-x="471" 
d="M244 1229q-34 0 -55 21t-21 55t21 55.5t55 21.5t56 -21.5t22 -55.5t-22 -55t-56 -21zM20 -451q-88 0 -182 27l17 80q76 -23 147 -23q86 0 139.5 53t53.5 138v1165h98v-1171q0 -118 -76.5 -193.5t-196.5 -75.5z" />
    <glyph glyph-name="k" unicode="k" horiz-adv-x="1011" 
d="M178 0v1442h96v-987l533 534h119l-461 -463l477 -526h-119l-424 467l-125 -125v-342h-96z" />
    <glyph glyph-name="l" unicode="l" horiz-adv-x="552" 
d="M393 -25q-99 0 -157 56.5t-58 152.5v1258h98v-1249q0 -62 37 -98t99 -36q44 0 100 15l14 -80q-78 -19 -133 -19z" />
    <glyph glyph-name="m" unicode="m" horiz-adv-x="1837" 
d="M178 0v989h80l12 -198q47 105 140.5 164t212.5 59q121 0 211 -65.5t122 -174.5q50 113 146 176.5t219 63.5q155 0 253.5 -97t98.5 -247v-670h-96v657q0 119 -79 196t-200 77q-141 0 -232 -97t-91 -249v-584h-98v657q0 119 -78 196t-199 77q-141 0 -232.5 -97t-91.5 -249
v-584h-98z" />
    <glyph glyph-name="n" unicode="n" 
d="M178 0v989h80l12 -207q49 109 147.5 170.5t221.5 61.5q161 0 265 -101.5t104 -259.5v-653h-99v641q0 127 -82.5 208t-210.5 81q-147 0 -243.5 -101.5t-96.5 -261.5v-567h-98z" />
    <glyph glyph-name="o" unicode="o" 
d="M586 -25q-212 0 -348 146t-136 373q0 229 136 374.5t348 145.5t346.5 -145.5t134.5 -374.5q0 -228 -134.5 -373.5t-346.5 -145.5zM586 57q167 0 275 122.5t108 314.5q0 193 -107.5 315.5t-275.5 122.5q-169 0 -276 -122.5t-107 -315.5q0 -192 107 -314.5t276 -122.5z" />
    <glyph glyph-name="p" unicode="p" 
d="M178 -426v1415h80l12 -190q53 103 145 159t212 56q192 0 316 -146t124 -374q0 -227 -124 -373t-316 -146q-117 0 -207.5 54.5t-143.5 154.5v-610h-98zM606 57q158 0 260.5 123t102.5 314q0 192 -102.5 315t-260.5 123q-146 0 -239 -98t-93 -250v-178q0 -153 93 -251
t239 -98z" />
    <glyph glyph-name="q" unicode="q" 
d="M893 -426v610q-51 -100 -141 -154.5t-207 -54.5q-194 0 -318.5 146t-124.5 373q0 228 124.5 374t318.5 146q118 0 209.5 -56t144.5 -159l12 190h80v-1415h-98zM563 57q147 0 239.5 98t92.5 251v178q0 153 -92.5 250.5t-239.5 97.5q-158 0 -259 -123t-101 -315
q0 -191 101 -314t259 -123z" />
    <glyph glyph-name="r" unicode="r" horiz-adv-x="761" 
d="M178 0v989h80l12 -209q35 105 120.5 165.5t199.5 60.5q59 0 127 -19l-15 -82q-66 17 -118 17q-136 0 -222 -103.5t-86 -267.5v-551h-98z" />
    <glyph glyph-name="s" unicode="s" horiz-adv-x="903" 
d="M451 -25q-163 0 -349 76l25 76q174 -74 317 -74q117 0 187.5 53t70.5 140q0 47 -20 82.5t-54.5 58t-79 40t-93.5 31.5t-97.5 29t-93 36.5t-79 50.5t-54.5 74t-20 104q0 116 94.5 189t245.5 73q147 0 315 -68l-25 -76q-149 64 -284 64q-111 0 -180.5 -50.5t-69.5 -131.5
q0 -58 32.5 -98t85 -62.5t115.5 -40.5t126 -39.5t115.5 -51t85 -84t32.5 -130.5q0 -120 -96.5 -195.5t-251.5 -75.5z" />
    <glyph glyph-name="t" unicode="t" horiz-adv-x="804" 
d="M549 -25q-120 0 -196.5 75.5t-76.5 193.5v665h-217v80h217v295h99v-295h338v-80h-338v-659q0 -85 53.5 -138t138.5 -53q72 0 148 23l16 -80q-91 -27 -182 -27z" />
    <glyph glyph-name="u" unicode="u" 
d="M532 -25q-161 0 -265.5 101.5t-104.5 259.5v653h98v-641q0 -127 83 -208t212 -81q147 0 242.5 101.5t95.5 261.5v567h98v-989h-80l-12 205q-47 -108 -145 -169t-222 -61z" />
    <glyph glyph-name="v" unicode="v" horiz-adv-x="1040" 
d="M473 0l-410 989h103l354 -872l352 872h103l-410 -989h-92z" />
    <glyph glyph-name="w" unicode="w" horiz-adv-x="1564" 
d="M406 0l-326 989h100l277 -868l276 868h96l277 -868l278 868h99l-326 -989h-98l-277 868l-276 -868h-100z" />
    <glyph glyph-name="x" unicode="x" horiz-adv-x="1040" 
d="M74 0l383 506l-367 483h113l317 -418l316 418h112l-366 -483l383 -506h-113l-332 440l-332 -440h-114z" />
    <glyph glyph-name="y" unicode="y" horiz-adv-x="1040" 
d="M195 -451q-47 0 -127 17l16 82q59 -15 104 -15q79 0 130.5 49t97.5 166l63 158l-416 983h103l360 -872l346 872h103l-471 -1161q-59 -148 -130.5 -213.5t-178.5 -65.5z" />
    <glyph glyph-name="z" unicode="z" horiz-adv-x="968" 
d="M102 0v59l617 850h-600v80h729v-59l-615 -850h631v-80h-762z" />
    <glyph glyph-name="braceleft" unicode="{" horiz-adv-x="673" 
d="M537 -268q-116 0 -192.5 76.5t-76.5 195.5q0 59 15.5 176.5t15.5 173.5q0 84 -52 139.5t-134 55.5h-33v82h33q82 0 134 54.5t52 139.5q0 53 -15.5 172t-15.5 179q0 119 76.5 195.5t192.5 76.5h49v-84h-33q-83 0 -137 -56t-54 -147q0 -52 13.5 -168.5t13.5 -173.5
q0 -82 -38.5 -143.5t-110.5 -85.5q72 -24 110.5 -86t38.5 -144q0 -57 -13.5 -172.5t-13.5 -169.5q0 -91 54 -146.5t137 -55.5h33v-84h-49z" />
    <glyph glyph-name="bar" unicode="|" horiz-adv-x="491" 
d="M203 -459v1966h86v-1966h-86z" />
    <glyph glyph-name="braceright" unicode="}" horiz-adv-x="673" 
d="M86 -268v84h33q84 0 138 55.5t54 146.5q0 52 -14 168.5t-14 173.5q0 81 39.5 143.5t111.5 86.5q-72 24 -111.5 86t-39.5 143q0 57 14 172.5t14 169.5q0 91 -54 147t-138 56h-33v84h51q115 0 192 -76.5t77 -195.5q0 -59 -15.5 -177t-15.5 -174q0 -84 51.5 -139t132.5 -55
h33v-82h-33q-80 0 -132 -55t-52 -140q0 -54 15.5 -172t15.5 -178q0 -119 -77 -195.5t-192 -76.5h-51z" />
    <glyph glyph-name="asciitilde" unicode="~" horiz-adv-x="1179" 
d="M793 498q-71 0 -139.5 24.5t-134.5 49t-132 24.5q-127 0 -229 -92l-52 69q124 109 281 109q71 0 139.5 -24.5t135 -49t131.5 -24.5q127 0 229 92l51 -70q-123 -108 -280 -108z" />
    <glyph glyph-name="uni00A0" unicode="&#xa0;" horiz-adv-x="491" 
 />
    <glyph glyph-name="exclamdown" unicode="&#xa1;" horiz-adv-x="516" 
d="M258 852q-34 0 -56 22t-22 56t22 56t56 22q35 0 55.5 -22t20.5 -56t-21 -56t-55 -22zM207 -387l10 965h82l10 -965h-102z" />
    <glyph glyph-name="cent" unicode="&#xa2;" horiz-adv-x="1179" 
d="M612 -131v305q-187 20 -302 161.5t-115 352.5t115 352.5t302 161.5v305h86v-303q163 -3 310 -106l-45 -72q-131 95 -267 98v-872q136 3 267 98l45 -71q-147 -103 -310 -109v-301h-86zM614 258v860q-145 -25 -232 -142t-87 -288t87 -288t232 -142z" />
    <glyph glyph-name="sterling" unicode="&#xa3;" horiz-adv-x="1179" 
d="M152 0v82h217v582h-185v81h185v299q0 158 107.5 257.5t277.5 99.5q128 0 282 -60l-26 -77q-127 53 -242 53q-132 0 -214.5 -77.5t-82.5 -201.5v-293h406v-81h-406v-582h590v-82h-909z" />
    <glyph glyph-name="currency" unicode="&#xa4;" horiz-adv-x="1179" 
d="M195 233l-60 60l166 168q-76 92 -76 227t76 227l-166 168l60 60l165 -168q90 78 230 78q137 0 227 -78l168 168l59 -60l-167 -168q77 -89 77 -227q0 -134 -77 -227l167 -168l-59 -60l-168 166q-92 -73 -227 -73q-136 0 -228 73zM590 406q125 0 204.5 79t79.5 203
q0 125 -80 205t-204 80t-204.5 -80.5t-80.5 -204.5t80 -203t205 -79z" />
    <glyph glyph-name="yen" unicode="&#xa5;" horiz-adv-x="1179" 
d="M539 0v344h-355v74h355v227h-355v74h328l-430 657h111l397 -620l397 620h111l-430 -657h327v-74h-354v-227h354v-74h-354v-344h-102z" />
    <glyph glyph-name="brokenbar" unicode="&#xa6;" horiz-adv-x="491" 
d="M203 623v786h86v-786h-86zM203 -360v786h86v-786h-86z" />
    <glyph glyph-name="section" unicode="&#xa7;" horiz-adv-x="1067" 
d="M516 -352q-186 0 -407 90l24 80q214 -86 377 -86q146 0 231.5 62.5t85.5 170.5q0 72 -39 122t-102 78.5t-138.5 51t-151 48t-138.5 60.5t-102 97.5t-39 150.5t49 157t139 104q-155 83 -155 258q0 138 110.5 223.5t288.5 85.5q170 0 373 -84l-27 -80q-193 80 -340 80
q-139 0 -223 -62t-84 -163q0 -56 24.5 -98t65.5 -68.5t94 -47.5t112 -38t118 -35.5t112 -45t94 -61.5t65.5 -89.5t24.5 -125.5q0 -87 -46.5 -155.5t-131.5 -106.5q146 -89 146 -256q0 -145 -112 -231t-298 -86zM686 262q80 28 127 85.5t47 131.5q0 53 -21 95t-52 68t-82 49
t-93.5 36t-105 31.5t-100.5 32.5q-88 -23 -139.5 -80t-51.5 -133q0 -54 22 -96t55.5 -68t85 -48.5t98 -36t108.5 -32.5t102 -35z" />
    <glyph glyph-name="dieresis" unicode="&#xa8;" horiz-adv-x="491" 
d="M41 1233q-32 0 -53 20t-21 52t20.5 51.5t53.5 19.5q32 0 52 -19.5t20 -51.5t-20 -52t-52 -20zM451 1233q-32 0 -52 20t-20 52t20 51.5t52 19.5t52.5 -19.5t20.5 -51.5t-20.5 -52t-52.5 -20z" />
    <glyph glyph-name="copyright" unicode="&#xa9;" horiz-adv-x="1703" 
d="M852 -66q-218 0 -390 96t-268 268t-96 390t96 390t268 268t390 96t390 -96t268 -268t96 -390t-96 -390t-268 -268t-390 -96zM852 -4q304 0 498 194t194 498t-194 498t-498 194t-498 -194t-194 -498t194 -498t498 -194zM877 246q-184 0 -299 123.5t-115 318.5t115 318.5
t299 123.5q144 0 280 -92l-39 -57q-112 80 -233 80q-152 0 -246 -103.5t-94 -269.5t94 -269.5t246 -103.5q121 0 233 80l39 -57q-136 -92 -280 -92z" />
    <glyph glyph-name="ordfeminine" unicode="&#xaa;" horiz-adv-x="831" 
d="M406 705q-130 0 -215 97t-85 247q0 151 85 248.5t215 97.5q80 0 141 -37t92 -101l8 121h53v-657h-53l-8 125q-33 -67 -92.5 -104t-140.5 -37zM418 1335q-104 0 -168 -79.5t-64 -206.5q0 -126 64 -205.5t168 -79.5q93 0 152 67.5t59 169.5v97q0 102 -59 169.5t-152 67.5z
M86 553h655v-64h-655v64z" />
    <glyph glyph-name="guillemotleft" unicode="&#xab;" horiz-adv-x="1042" 
d="M467 33l-404 448v51l404 449l59 -49l-364 -426l364 -424zM895 33l-403 448v51l403 449l59 -49l-364 -426l364 -424z" />
    <glyph glyph-name="logicalnot" unicode="&#xac;" horiz-adv-x="1179" 
d="M975 119v428h-856v86h942v-514h-86z" />
    <glyph glyph-name="uni00AD" unicode="&#xad;" horiz-adv-x="655" 
d="M113 467v80h536v-80h-536z" />
    <glyph glyph-name="registered" unicode="&#xae;" horiz-adv-x="1703" 
d="M852 -66q-218 0 -390 96t-268 268t-96 390t96 390t268 268t390 96t390 -96t268 -268t96 -390t-96 -390t-268 -268t-390 -96zM852 -4q304 0 498 194t194 498t-194 498t-498 194t-498 -194t-194 -498t194 -498t498 -194zM586 262v852h313q117 0 193.5 -70t76.5 -180
q0 -99 -61 -165.5t-160 -77.5l250 -359h-90l-236 350h-210v-350h-76zM662 676h229q90 0 145.5 51t55.5 135q0 83 -56 135t-145 52h-229v-373z" />
    <glyph glyph-name="macron" unicode="&#xaf;" horiz-adv-x="491" 
d="M-45 1268v73h582v-73h-582z" />
    <glyph glyph-name="degree" unicode="&#xb0;" horiz-adv-x="667" 
d="M334 936q-101 0 -165.5 64t-64.5 165q0 100 64.5 165t165.5 65q100 0 164.5 -65t64.5 -165q0 -101 -64.5 -165t-164.5 -64zM334 999q74 0 120 46.5t46 119.5q0 72 -46.5 119t-119.5 47t-119.5 -47t-46.5 -119q0 -73 46 -119.5t120 -46.5z" />
    <glyph glyph-name="plusminus" unicode="&#xb1;" horiz-adv-x="1179" 
d="M547 258v428h-428v86h428v428h86v-428h428v-86h-428v-428h-86zM119 0v86h942v-86h-942z" />
    <glyph glyph-name="uni00B2" unicode="&#xb2;" horiz-adv-x="696" 
d="M53 786v52l346 348q105 102 105 211q0 85 -51.5 136.5t-137.5 51.5q-102 0 -219 -74l-35 60q137 84 265 84q114 0 185 -69.5t71 -178.5q0 -138 -119 -254l-297 -299h428v-68h-541z" />
    <glyph glyph-name="uni00B3" unicode="&#xb3;" horiz-adv-x="696" 
d="M328 770q-134 0 -269 66l31 61q116 -61 227 -61q89 0 144 49t55 127q0 80 -64.5 130t-168.5 50h-52v61h52q95 0 155 47.5t60 122.5q0 74 -50 120t-131 46q-105 0 -215 -55l-28 61q126 60 254 60q110 0 178.5 -63t68.5 -162q0 -74 -42.5 -129.5t-114.5 -75.5
q80 -24 129 -83t49 -136q0 -105 -74 -170.5t-194 -65.5z" />
    <glyph glyph-name="acute" unicode="&#xb4;" horiz-adv-x="491" 
d="M180 1153l-41 57l328 226l49 -68z" />
    <glyph glyph-name="uni00B5" unicode="&#xb5;" horiz-adv-x="1220" 
d="M178 -426v1415h98v-641q0 -128 82.5 -208.5t212.5 -80.5q147 0 242.5 101.5t95.5 261.5v567h99v-829q0 -46 27 -73.5t71 -27.5q26 0 57 7l13 -80q-50 -11 -86 -11q-78 0 -126.5 46t-48.5 122v43q-48 -99 -139 -155t-207 -56q-100 0 -176 38t-117 110v-549h-98z" />
    <glyph glyph-name="paragraph" unicode="&#xb6;" 
d="M860 -328v1618h-223v-729h-94q-193 0 -318 114.5t-125 293.5q0 178 125 292.5t318 114.5h403v-1704h-86z" />
    <glyph glyph-name="periodcentered" unicode="&#xb7;" horiz-adv-x="483" 
d="M242 424q-35 0 -58.5 23.5t-23.5 58.5t23.5 58.5t58.5 23.5t58.5 -23.5t23.5 -58.5t-23.5 -58.5t-58.5 -23.5z" />
    <glyph glyph-name="cedilla" unicode="&#xb8;" horiz-adv-x="491" 
d="M223 -451q-91 0 -176 33l23 64q82 -29 145 -29q58 0 95.5 28t37.5 74q0 44 -38.5 72.5t-98.5 28.5h-18l32 180h74l-23 -131q66 -6 110 -51t44 -107q0 -71 -58.5 -116.5t-148.5 -45.5z" />
    <glyph glyph-name="uni00B9" unicode="&#xb9;" horiz-adv-x="544" 
d="M301 786v770l-227 -131l-31 56l270 157h66v-852h-78z" />
    <glyph glyph-name="ordmasculine" unicode="&#xba;" horiz-adv-x="823" 
d="M412 705q-143 0 -234.5 96.5t-91.5 249.5q0 152 91.5 248t234.5 96t234 -96t91 -248q0 -153 -91 -249.5t-234 -96.5zM412 772q108 0 176.5 77.5t68.5 201.5q0 123 -68.5 200.5t-176.5 77.5q-109 0 -177.5 -77.5t-68.5 -200.5q0 -124 68.5 -201.5t177.5 -77.5zM92 489v64
h637v-64h-637z" />
    <glyph glyph-name="guillemotright" unicode="&#xbb;" horiz-adv-x="1042" 
d="M145 33l-59 49l367 424l-367 426l59 49l406 -449v-51zM573 33l-59 49l367 424l-367 426l59 49l406 -449v-51z" />
    <glyph glyph-name="onequarter" unicode="&#xbc;" horiz-adv-x="1966" 
d="M422 524v770l-227 -131l-31 56l270 157h66v-852h-78zM422 0l1032 1376h90l-1032 -1376h-90zM1630 0v205h-420v55l418 592h74v-584h139v-63h-139v-205h-72zM1290 268h340v482z" />
    <glyph glyph-name="onehalf" unicode="&#xbd;" horiz-adv-x="1966" 
d="M422 524v770l-227 -131l-31 56l270 157h66v-852h-78zM422 0l1032 1376h90l-1032 -1376h-90zM1278 0v51l346 348q105 102 105 211q0 85 -51.5 137t-137.5 52q-102 0 -219 -74l-35 59q137 84 264 84q114 0 185 -69t71 -178q0 -139 -118 -254l-297 -299h428v-68h-541z" />
    <glyph glyph-name="threequarters" unicode="&#xbe;" horiz-adv-x="1966" 
d="M373 508q-136 0 -269 65l31 62q118 -62 227 -62q89 0 144 49.5t55 127.5q0 80 -64.5 130t-168.5 50h-52v61h52q95 0 155 47.5t60 122.5q0 74 -50 120t-131 46q-105 0 -215 -55l-28 61q126 60 254 60q110 0 179 -63.5t69 -162.5q0 -73 -43 -128.5t-115 -75.5
q80 -23 129 -83t49 -137q0 -104 -74 -169.5t-194 -65.5zM422 0l1032 1376h90l-1032 -1376h-90zM1630 0v205h-420v55l418 592h74v-584h139v-63h-139v-205h-72zM1290 268h340v482z" />
    <glyph glyph-name="questiondown" unicode="&#xbf;" horiz-adv-x="798" 
d="M481 852q-34 0 -56 22t-22 56t22 56t56 22t55 -22t21 -56t-21 -56t-55 -22zM467 -412q-165 0 -271 101t-106 258q0 82 35.5 154.5t86 126t101 104t87 109.5t38.5 120l2 17h82v-23q0 -70 -34.5 -134.5t-83.5 -115.5t-98 -101t-83.5 -114t-34.5 -133q0 -125 81 -204
t210 -79q154 0 320 113l41 -74q-178 -125 -373 -125z" />
    <glyph glyph-name="Agrave" unicode="&#xc0;" horiz-adv-x="1357" 
d="M752 1540l-336 215l49 68l326 -226zM61 0l570 1376h96l569 -1376h-104l-168 410h-690l-168 -410h-105zM365 489h628l-313 766z" />
    <glyph glyph-name="Aacute" unicode="&#xc1;" horiz-adv-x="1357" 
d="M614 1540l-41 57l328 226l49 -68zM61 0l570 1376h96l569 -1376h-104l-168 410h-690l-168 -410h-105zM365 489h628l-313 766z" />
    <glyph glyph-name="Acircumflex" unicode="&#xc2;" horiz-adv-x="1357" 
d="M444 1542l-47 51l248 242h70l248 -242l-48 -51l-235 219zM61 0l570 1376h96l569 -1376h-104l-168 410h-690l-168 -410h-105zM365 489h628l-313 766z" />
    <glyph glyph-name="Atilde" unicode="&#xc3;" horiz-adv-x="1357" 
d="M463 1616l-70 20q15 59 57.5 96t98.5 37q46 0 134.5 -39.5t121.5 -39.5q67 0 92 79l70 -22q-15 -59 -57.5 -95t-98.5 -36q-46 0 -134.5 39t-121.5 39q-32 0 -57 -20.5t-35 -57.5zM61 0l570 1376h96l569 -1376h-104l-168 410h-690l-168 -410h-105zM365 489h628l-313 766z
" />
    <glyph glyph-name="Adieresis" unicode="&#xc4;" horiz-adv-x="1357" 
d="M475 1620q-32 0 -53 20t-21 52t20.5 51.5t53.5 19.5q32 0 52 -19.5t20 -51.5t-20 -52t-52 -20zM885 1620q-32 0 -52 20t-20 52t20 51.5t52 19.5t52.5 -19.5t20.5 -51.5t-20.5 -52t-52.5 -20zM61 0l570 1376h96l569 -1376h-104l-168 410h-690l-168 -410h-105zM365 489h628
l-313 766z" />
    <glyph glyph-name="Aring" unicode="&#xc5;" horiz-adv-x="1357" 
d="M684 1503q-86 0 -141.5 53t-55.5 136q0 84 54 136t139 52t138.5 -52t53.5 -136t-52 -136.5t-136 -52.5zM684 1559q57 0 93 36.5t36 96.5t-37 96.5t-96 36.5q-60 0 -96.5 -36.5t-36.5 -96.5t38.5 -96.5t98.5 -36.5zM61 0l570 1376h96l569 -1376h-104l-168 410h-690
l-168 -410h-105zM365 489h628l-313 766z" />
    <glyph glyph-name="AE" unicode="&#xc6;" horiz-adv-x="1978" 
d="M8 0l932 1376h887v-82h-742v-549h676v-81h-676v-582h775v-82h-873v410h-584l-278 -410h-117zM451 489h536v795z" />
    <glyph glyph-name="Ccedilla" unicode="&#xc7;" horiz-adv-x="1316" 
d="M1221 123q-197 -139 -416 -148l-19 -106q66 -6 110 -51t44 -107q0 -71 -58.5 -116.5t-148.5 -45.5q-91 0 -176 33l23 64q82 -29 145 -29q58 0 95.5 28t37.5 74q0 44 -38.5 72.5t-98.5 28.5h-19l29 157q-275 15 -444.5 211.5t-169.5 499.5q0 156 48.5 289t134 226
t208 145.5t266.5 52.5q234 0 447 -148l-45 -71q-187 133 -392 133q-252 0 -408.5 -173.5t-156.5 -453.5t156.5 -453.5t408.5 -173.5q203 0 392 134z" />
    <glyph glyph-name="Egrave" unicode="&#xc8;" horiz-adv-x="1218" 
d="M719 1540l-336 215l49 68l326 -226zM225 0v1376h842v-82h-741v-549h675v-81h-675v-582h774v-82h-875z" />
    <glyph glyph-name="Eacute" unicode="&#xc9;" horiz-adv-x="1218" 
d="M582 1540l-41 57l327 226l50 -68zM225 0v1376h842v-82h-741v-549h675v-81h-675v-582h774v-82h-875z" />
    <glyph glyph-name="Ecircumflex" unicode="&#xca;" horiz-adv-x="1218" 
d="M412 1542l-47 51l247 242h70l248 -242l-47 -51l-236 219zM225 0v1376h842v-82h-741v-549h675v-81h-675v-582h774v-82h-875z" />
    <glyph glyph-name="Edieresis" unicode="&#xcb;" horiz-adv-x="1218" 
d="M442 1620q-32 0 -52.5 20t-20.5 52t20.5 51.5t52.5 19.5t52 -19.5t20 -51.5t-20 -52t-52 -20zM852 1620q-32 0 -52 20t-20 52t20 51.5t52 19.5q33 0 53.5 -19.5t20.5 -51.5t-21 -52t-53 -20zM225 0v1376h842v-82h-741v-549h675v-81h-675v-582h774v-82h-875z" />
    <glyph glyph-name="Igrave" unicode="&#xcc;" horiz-adv-x="550" 
d="M348 1540l-336 215l49 68l326 -226zM225 0v1376h101v-1376h-101z" />
    <glyph glyph-name="Iacute" unicode="&#xcd;" horiz-adv-x="550" 
d="M211 1540l-41 57l328 226l49 -68zM225 0v1376h101v-1376h-101z" />
    <glyph glyph-name="Icircumflex" unicode="&#xce;" horiz-adv-x="550" 
d="M41 1542l-47 51l248 242h69l248 -242l-47 -51l-236 219zM225 0v1376h101v-1376h-101z" />
    <glyph glyph-name="Idieresis" unicode="&#xcf;" horiz-adv-x="550" 
d="M72 1620q-32 0 -53 20t-21 52t20.5 51.5t53.5 19.5q32 0 51.5 -19.5t19.5 -51.5t-19.5 -52t-51.5 -20zM481 1620q-32 0 -51.5 20t-19.5 52t19.5 51.5t51.5 19.5q33 0 53.5 -19.5t20.5 -51.5t-21 -52t-53 -20zM225 0v1376h101v-1376h-101z" />
    <glyph glyph-name="Eth" unicode="&#xd0;" horiz-adv-x="1488" 
d="M258 0v664h-199v81h199v631h422q309 0 500.5 -190.5t191.5 -497.5q0 -305 -192 -496.5t-500 -191.5h-422zM356 84h318q265 0 432.5 168.5t167.5 435.5t-167.5 435.5t-432.5 168.5h-318v-547h383v-81h-383v-580z" />
    <glyph glyph-name="Ntilde" unicode="&#xd1;" horiz-adv-x="1554" 
d="M561 1616l-69 20q15 60 57 96.5t98 36.5q46 0 134.5 -39.5t121.5 -39.5q67 0 92 79l70 -22q-15 -59 -57.5 -95t-98.5 -36q-46 0 -134.5 39t-121.5 39q-32 0 -57 -20.5t-35 -57.5zM225 0v1376h101l909 -1235v1235h94v-1376h-100l-910 1235v-1235h-94z" />
    <glyph glyph-name="Ograve" unicode="&#xd2;" horiz-adv-x="1554" 
d="M850 1540l-336 215l49 68l326 -226zM778 -25q-192 0 -343 90.5t-234.5 253t-83.5 369.5t83.5 369.5t234.5 253t343 90.5q191 0 341.5 -90.5t234.5 -253t84 -369.5t-84 -369.5t-234.5 -253t-341.5 -90.5zM778 59q244 0 400.5 177t156.5 452t-156.5 452t-400.5 177
q-162 0 -289.5 -80.5t-198.5 -224t-71 -324.5t71 -324.5t198.5 -224t289.5 -80.5z" />
    <glyph glyph-name="Oacute" unicode="&#xd3;" horiz-adv-x="1554" 
d="M713 1540l-41 57l327 226l50 -68zM778 -25q-192 0 -343 90.5t-234.5 253t-83.5 369.5t83.5 369.5t234.5 253t343 90.5q191 0 341.5 -90.5t234.5 -253t84 -369.5t-84 -369.5t-234.5 -253t-341.5 -90.5zM778 59q244 0 400.5 177t156.5 452t-156.5 452t-400.5 177
q-162 0 -289.5 -80.5t-198.5 -224t-71 -324.5t71 -324.5t198.5 -224t289.5 -80.5z" />
    <glyph glyph-name="Ocircumflex" unicode="&#xd4;" horiz-adv-x="1554" 
d="M543 1542l-47 51l247 242h70l248 -242l-47 -51l-236 219zM778 -25q-192 0 -343 90.5t-234.5 253t-83.5 369.5t83.5 369.5t234.5 253t343 90.5q191 0 341.5 -90.5t234.5 -253t84 -369.5t-84 -369.5t-234.5 -253t-341.5 -90.5zM778 59q244 0 400.5 177t156.5 452
t-156.5 452t-400.5 177q-162 0 -289.5 -80.5t-198.5 -224t-71 -324.5t71 -324.5t198.5 -224t289.5 -80.5z" />
    <glyph glyph-name="Otilde" unicode="&#xd5;" horiz-adv-x="1554" 
d="M561 1616l-69 20q15 60 57 96.5t98 36.5q46 0 134.5 -39.5t121.5 -39.5q67 0 92 79l70 -22q-15 -59 -57.5 -95t-98.5 -36q-46 0 -134.5 39t-121.5 39q-32 0 -57 -20.5t-35 -57.5zM778 -25q-192 0 -343 90.5t-234.5 253t-83.5 369.5t83.5 369.5t234.5 253t343 90.5
q191 0 341.5 -90.5t234.5 -253t84 -369.5t-84 -369.5t-234.5 -253t-341.5 -90.5zM778 59q244 0 400.5 177t156.5 452t-156.5 452t-400.5 177q-162 0 -289.5 -80.5t-198.5 -224t-71 -324.5t71 -324.5t198.5 -224t289.5 -80.5z" />
    <glyph glyph-name="Odieresis" unicode="&#xd6;" horiz-adv-x="1554" 
d="M573 1620q-32 0 -52.5 20t-20.5 52t20.5 51.5t52.5 19.5t52 -19.5t20 -51.5t-20 -52t-52 -20zM983 1620q-32 0 -52 20t-20 52t20 51.5t52 19.5q33 0 53.5 -19.5t20.5 -51.5t-21 -52t-53 -20zM778 -25q-192 0 -343 90.5t-234.5 253t-83.5 369.5t83.5 369.5t234.5 253
t343 90.5q191 0 341.5 -90.5t234.5 -253t84 -369.5t-84 -369.5t-234.5 -253t-341.5 -90.5zM778 59q244 0 400.5 177t156.5 452t-156.5 452t-400.5 177q-162 0 -289.5 -80.5t-198.5 -224t-71 -324.5t71 -324.5t198.5 -224t289.5 -80.5z" />
    <glyph glyph-name="multiply" unicode="&#xd7;" horiz-adv-x="1179" 
d="M240 180l-60 60l350 350l-350 350l60 59l350 -350l350 350l59 -59l-350 -350l350 -350l-59 -60l-350 350z" />
    <glyph glyph-name="Oslash" unicode="&#xd8;" horiz-adv-x="1554" 
d="M778 -25q-230 0 -395 131l-86 -114h-86l117 155q-101 96 -156 235t-55 306q0 207 83.5 369.5t234.5 253t343 90.5q228 0 393 -131l86 114h84l-116 -155q102 -96 157.5 -235t55.5 -306q0 -207 -84 -369.5t-234.5 -253t-341.5 -90.5zM385 221l733 977q-140 121 -340 121
q-164 0 -293 -80.5t-200.5 -224.5t-71.5 -326q0 -143 44.5 -263t127.5 -204zM778 57q247 0 405 177t158 454q0 143 -44.5 263t-127.5 204l-733 -979q144 -119 342 -119z" />
    <glyph glyph-name="Ugrave" unicode="&#xd9;" horiz-adv-x="1554" 
d="M850 1540l-336 215l49 68l326 -226zM778 -25q-247 0 -408 152t-161 389v860h100v-856q0 -202 133 -331.5t336 -129.5q202 0 334.5 129.5t132.5 331.5v856h101v-860q0 -156 -73.5 -280t-203.5 -192.5t-291 -68.5z" />
    <glyph glyph-name="Uacute" unicode="&#xda;" horiz-adv-x="1554" 
d="M713 1540l-41 57l327 226l50 -68zM778 -25q-247 0 -408 152t-161 389v860h100v-856q0 -202 133 -331.5t336 -129.5q202 0 334.5 129.5t132.5 331.5v856h101v-860q0 -156 -73.5 -280t-203.5 -192.5t-291 -68.5z" />
    <glyph glyph-name="Ucircumflex" unicode="&#xdb;" horiz-adv-x="1554" 
d="M543 1542l-47 51l247 242h70l248 -242l-47 -51l-236 219zM778 -25q-247 0 -408 152t-161 389v860h100v-856q0 -202 133 -331.5t336 -129.5q202 0 334.5 129.5t132.5 331.5v856h101v-860q0 -156 -73.5 -280t-203.5 -192.5t-291 -68.5z" />
    <glyph glyph-name="Udieresis" unicode="&#xdc;" horiz-adv-x="1554" 
d="M573 1620q-32 0 -52.5 20t-20.5 52t20.5 51.5t52.5 19.5t52 -19.5t20 -51.5t-20 -52t-52 -20zM983 1620q-32 0 -52 20t-20 52t20 51.5t52 19.5q33 0 53.5 -19.5t20.5 -51.5t-21 -52t-53 -20zM778 -25q-247 0 -408 152t-161 389v860h100v-856q0 -202 133 -331.5
t336 -129.5q202 0 334.5 129.5t132.5 331.5v856h101v-860q0 -156 -73.5 -280t-203.5 -192.5t-291 -68.5z" />
    <glyph glyph-name="Yacute" unicode="&#xdd;" horiz-adv-x="1204" 
d="M537 1540l-41 57l327 226l49 -68zM551 0v604l-506 772h113l444 -680l442 680h115l-508 -772v-604h-100z" />
    <glyph glyph-name="Thorn" unicode="&#xde;" horiz-adv-x="1257" 
d="M225 0v1376h99v-256h389q195 0 319.5 -116t124.5 -299t-124.5 -299.5t-319.5 -116.5h-389v-289h-99zM324 371h378q156 0 255.5 93.5t99.5 240.5t-99.5 240t-255.5 93h-378v-667z" />
    <glyph glyph-name="germandbls" unicode="&#xdf;" horiz-adv-x="1236" 
d="M817 -25q-130 0 -278 68l28 76q134 -64 244 -64q109 0 176.5 51.5t67.5 139.5q0 50 -22.5 88.5t-59 64t-80.5 48.5t-88 48t-80.5 55t-59 77t-22.5 108q0 52 19 98.5t46 81.5l54 70t46 79.5t19 94.5q0 97 -72.5 162t-189.5 65q-132 0 -211.5 -81.5t-79.5 -219.5v-1085h-96
v1090q0 172 107.5 274t283.5 102q157 0 257 -87.5t100 -217.5q0 -57 -19 -106.5t-46 -85t-54.5 -69.5t-46.5 -75t-19 -86q0 -49 22.5 -87.5t58.5 -64t79.5 -48t87 -48t79.5 -56t58.5 -79t22.5 -110.5q0 -123 -92 -197t-240 -74z" />
    <glyph glyph-name="agrave" unicode="&#xe0;" 
d="M625 1153l-336 215l49 68l326 -226zM545 -25q-194 0 -318.5 146t-124.5 373q0 228 124.5 374t318.5 146q118 0 211 -56t143 -155l12 186h80v-989h-80l-12 188q-53 -102 -144.5 -157.5t-209.5 -55.5zM563 57q147 0 239.5 98t92.5 251v178q0 153 -92.5 250.5t-239.5 97.5
q-158 0 -259 -123t-101 -315q0 -191 101 -314t259 -123z" />
    <glyph glyph-name="aacute" unicode="&#xe1;" 
d="M487 1153l-41 57l328 226l49 -68zM545 -25q-194 0 -318.5 146t-124.5 373q0 228 124.5 374t318.5 146q118 0 211 -56t143 -155l12 186h80v-989h-80l-12 188q-53 -102 -144.5 -157.5t-209.5 -55.5zM563 57q147 0 239.5 98t92.5 251v178q0 153 -92.5 250.5t-239.5 97.5
q-158 0 -259 -123t-101 -315q0 -191 101 -314t259 -123z" />
    <glyph glyph-name="acircumflex" unicode="&#xe2;" 
d="M317 1155l-47 51l248 242h70l248 -242l-48 -51l-235 219zM545 -25q-194 0 -318.5 146t-124.5 373q0 228 124.5 374t318.5 146q118 0 211 -56t143 -155l12 186h80v-989h-80l-12 188q-53 -102 -144.5 -157.5t-209.5 -55.5zM563 57q147 0 239.5 98t92.5 251v178
q0 153 -92.5 250.5t-239.5 97.5q-158 0 -259 -123t-101 -315q0 -191 101 -314t259 -123z" />
    <glyph glyph-name="atilde" unicode="&#xe3;" 
d="M336 1229l-70 20q15 59 57.5 96t98.5 37q46 0 134.5 -39.5t121.5 -39.5q67 0 92 79l70 -22q-15 -59 -57.5 -95t-98.5 -36q-46 0 -134.5 39t-121.5 39q-32 0 -57 -20.5t-35 -57.5zM545 -25q-194 0 -318.5 146t-124.5 373q0 228 124.5 374t318.5 146q118 0 211 -56
t143 -155l12 186h80v-989h-80l-12 188q-53 -102 -144.5 -157.5t-209.5 -55.5zM563 57q147 0 239.5 98t92.5 251v178q0 153 -92.5 250.5t-239.5 97.5q-158 0 -259 -123t-101 -315q0 -191 101 -314t259 -123z" />
    <glyph glyph-name="adieresis" unicode="&#xe4;" 
d="M348 1233q-32 0 -53 20t-21 52t20.5 51.5t53.5 19.5q32 0 52 -19.5t20 -51.5t-20 -52t-52 -20zM758 1233q-32 0 -52 20t-20 52t20 51.5t52 19.5t52.5 -19.5t20.5 -51.5t-20.5 -52t-52.5 -20zM545 -25q-194 0 -318.5 146t-124.5 373q0 228 124.5 374t318.5 146
q118 0 211 -56t143 -155l12 186h80v-989h-80l-12 188q-53 -102 -144.5 -157.5t-209.5 -55.5zM563 57q147 0 239.5 98t92.5 251v178q0 153 -92.5 250.5t-239.5 97.5q-158 0 -259 -123t-101 -315q0 -191 101 -314t259 -123z" />
    <glyph glyph-name="aring" unicode="&#xe5;" 
d="M557 1116q-86 0 -141.5 53t-55.5 136q0 84 54 136t139 52t138.5 -52t53.5 -136t-52 -136.5t-136 -52.5zM557 1171q57 0 93 37t36 97t-37 96.5t-96 36.5q-60 0 -96.5 -36.5t-36.5 -96.5t38.5 -97t98.5 -37zM545 -25q-194 0 -318.5 146t-124.5 373q0 228 124.5 374
t318.5 146q118 0 211 -56t143 -155l12 186h80v-989h-80l-12 188q-53 -102 -144.5 -157.5t-209.5 -55.5zM563 57q147 0 239.5 98t92.5 251v178q0 153 -92.5 250.5t-239.5 97.5q-158 0 -259 -123t-101 -315q0 -191 101 -314t259 -123z" />
    <glyph glyph-name="ae" unicode="&#xe6;" horiz-adv-x="1771" 
d="M444 -25q-146 0 -244 82t-98 205q0 155 118.5 240.5t330.5 85.5q118 0 240 -29v131q0 109 -74 176.5t-193 67.5q-159 0 -331 -72l-27 74q187 78 366 78q133 0 224 -65t108 -171q51 111 153 173.5t236 62.5q190 0 310 -139.5t120 -360.5q0 -29 -2 -41h-794
q8 -187 120.5 -303.5t286.5 -116.5q145 0 305 86l35 -71q-179 -93 -348 -93q-150 0 -266.5 76.5t-175.5 212.5q-34 -132 -142.5 -210.5t-257.5 -78.5zM887 541h700q-3 175 -95.5 284t-238.5 109q-155 0 -255 -108t-111 -285zM459 51q148 0 240 95t92 247v99q-123 30 -232 30
q-169 0 -263.5 -67t-94.5 -187q0 -92 74.5 -154.5t183.5 -62.5z" />
    <glyph glyph-name="ccedilla" unicode="&#xe7;" horiz-adv-x="995" 
d="M913 84q-142 -100 -301 -109l-18 -106q66 -6 110 -51t44 -107q0 -71 -58.5 -116.5t-148.5 -45.5q-91 0 -176 33l22 64q82 -29 145 -29q58 0 96 28t38 74q0 44 -39 72.5t-99 28.5h-18l29 157q-194 15 -315.5 158.5t-121.5 358.5q0 229 134.5 374.5t345.5 145.5
q175 0 331 -111l-43 -69q-134 96 -278 96q-171 0 -280 -121.5t-109 -314.5q0 -192 109 -313.5t280 -121.5q143 0 278 97z" />
    <glyph glyph-name="egrave" unicode="&#xe8;" horiz-adv-x="1083" 
d="M637 1153l-336 215l49 68l326 -226zM598 -25q-217 0 -356.5 146t-139.5 373q0 229 129.5 374.5t333.5 145.5q190 0 310 -139.5t120 -360.5v-41h-794q6 -186 119 -303t288 -117q141 0 305 86l33 -71q-179 -93 -348 -93zM201 541h700q-3 175 -96 284t-240 109
q-154 0 -253.5 -108t-110.5 -285z" />
    <glyph glyph-name="eacute" unicode="&#xe9;" horiz-adv-x="1083" 
d="M500 1153l-41 57l327 226l50 -68zM598 -25q-217 0 -356.5 146t-139.5 373q0 229 129.5 374.5t333.5 145.5q190 0 310 -139.5t120 -360.5v-41h-794q6 -186 119 -303t288 -117q141 0 305 86l33 -71q-179 -93 -348 -93zM201 541h700q-3 175 -96 284t-240 109
q-154 0 -253.5 -108t-110.5 -285z" />
    <glyph glyph-name="ecircumflex" unicode="&#xea;" horiz-adv-x="1083" 
d="M330 1155l-47 51l247 242h70l248 -242l-47 -51l-236 219zM598 -25q-217 0 -356.5 146t-139.5 373q0 229 129.5 374.5t333.5 145.5q190 0 310 -139.5t120 -360.5v-41h-794q6 -186 119 -303t288 -117q141 0 305 86l33 -71q-179 -93 -348 -93zM201 541h700q-3 175 -96 284
t-240 109q-154 0 -253.5 -108t-110.5 -285z" />
    <glyph glyph-name="edieresis" unicode="&#xeb;" horiz-adv-x="1083" 
d="M360 1233q-32 0 -52.5 20t-20.5 52t20.5 51.5t52.5 19.5t52 -19.5t20 -51.5t-20 -52t-52 -20zM770 1233q-32 0 -52 20t-20 52t20 51.5t52 19.5q33 0 53.5 -19.5t20.5 -51.5t-21 -52t-53 -20zM598 -25q-217 0 -356.5 146t-139.5 373q0 229 129.5 374.5t333.5 145.5
q190 0 310 -139.5t120 -360.5v-41h-794q6 -186 119 -303t288 -117q141 0 305 86l33 -71q-179 -93 -348 -93zM201 541h700q-3 175 -96 284t-240 109q-154 0 -253.5 -108t-110.5 -285z" />
    <glyph glyph-name="igrave" unicode="&#xec;" horiz-adv-x="454" 
d="M299 1153l-336 215l49 68l326 -226zM178 0v989h98v-989h-98z" />
    <glyph glyph-name="iacute" unicode="&#xed;" horiz-adv-x="454" 
d="M162 1153l-41 57l328 226l49 -68zM178 0v989h98v-989h-98z" />
    <glyph glyph-name="icircumflex" unicode="&#xee;" horiz-adv-x="454" 
d="M-8 1155l-47 51l248 242h69l248 -242l-47 -51l-236 219zM178 0v989h98v-989h-98z" />
    <glyph glyph-name="idieresis" unicode="&#xef;" horiz-adv-x="454" 
d="M23 1233q-32 0 -53 20t-21 52t20.5 51.5t53.5 19.5q32 0 51.5 -19.5t19.5 -51.5t-19.5 -52t-51.5 -20zM432 1233q-32 0 -52 20t-20 52t20 51.5t52 19.5q33 0 53.5 -19.5t20.5 -51.5t-21 -52t-53 -20zM178 0v989h98v-989h-98z" />
    <glyph glyph-name="eth" unicode="&#xf0;" 
d="M565 -25q-203 0 -333 145.5t-130 373.5q0 225 128 368.5t327 143.5q106 0 187 -35.5t151 -118.5q-87 261 -307 412l-269 -134l-30 60l229 113q-89 54 -196 94l26 69q148 -48 260 -118l244 118l29 -57l-209 -104q162 -121 259 -292t116 -372q5 -55 2 -123
q-6 -241 -141 -392t-343 -151zM569 53q168 0 275.5 129.5t107.5 333.5q0 181 -107.5 295.5t-275.5 114.5q-163 0 -266.5 -122t-103.5 -315q0 -192 103.5 -314t266.5 -122z" />
    <glyph glyph-name="ntilde" unicode="&#xf1;" 
d="M397 1229l-69 20q15 60 57 96.5t98 36.5q46 0 134.5 -39.5t121.5 -39.5q67 0 92 79l70 -22q-15 -59 -57.5 -95t-98.5 -36q-46 0 -134.5 39t-121.5 39q-32 0 -57 -20.5t-35 -57.5zM178 0v989h80l12 -207q49 109 147.5 170.5t221.5 61.5q161 0 265 -101.5t104 -259.5v-653
h-99v641q0 127 -82.5 208t-210.5 81q-147 0 -243.5 -101.5t-96.5 -261.5v-567h-98z" />
    <glyph glyph-name="ograve" unicode="&#xf2;" 
d="M657 1153l-335 215l49 68l325 -226zM586 -25q-212 0 -348 146t-136 373q0 229 136 374.5t348 145.5t346.5 -145.5t134.5 -374.5q0 -228 -134.5 -373.5t-346.5 -145.5zM586 57q167 0 275 122.5t108 314.5q0 193 -107.5 315.5t-275.5 122.5q-169 0 -276 -122.5t-107 -315.5
q0 -192 107 -314.5t276 -122.5z" />
    <glyph glyph-name="oacute" unicode="&#xf3;" 
d="M520 1153l-41 57l328 226l49 -68zM586 -25q-212 0 -348 146t-136 373q0 229 136 374.5t348 145.5t346.5 -145.5t134.5 -374.5q0 -228 -134.5 -373.5t-346.5 -145.5zM586 57q167 0 275 122.5t108 314.5q0 193 -107.5 315.5t-275.5 122.5q-169 0 -276 -122.5t-107 -315.5
q0 -192 107 -314.5t276 -122.5z" />
    <glyph glyph-name="ocircumflex" unicode="&#xf4;" 
d="M350 1155l-47 51l248 242h70l247 -242l-47 -51l-235 219zM586 -25q-212 0 -348 146t-136 373q0 229 136 374.5t348 145.5t346.5 -145.5t134.5 -374.5q0 -228 -134.5 -373.5t-346.5 -145.5zM586 57q167 0 275 122.5t108 314.5q0 193 -107.5 315.5t-275.5 122.5
q-169 0 -276 -122.5t-107 -315.5q0 -192 107 -314.5t276 -122.5z" />
    <glyph glyph-name="otilde" unicode="&#xf5;" 
d="M369 1229l-70 20q15 59 57.5 96t98.5 37q46 0 134.5 -39.5t121.5 -39.5q67 0 92 79l69 -22q-15 -59 -57 -95t-98 -36q-46 0 -134.5 39t-121.5 39q-32 0 -57 -20.5t-35 -57.5zM586 -25q-212 0 -348 146t-136 373q0 229 136 374.5t348 145.5t346.5 -145.5t134.5 -374.5
q0 -228 -134.5 -373.5t-346.5 -145.5zM586 57q167 0 275 122.5t108 314.5q0 193 -107.5 315.5t-275.5 122.5q-169 0 -276 -122.5t-107 -315.5q0 -192 107 -314.5t276 -122.5z" />
    <glyph glyph-name="odieresis" unicode="&#xf6;" 
d="M381 1233q-32 0 -53 20t-21 52t20.5 51.5t53.5 19.5q32 0 52 -19.5t20 -51.5t-20 -52t-52 -20zM791 1233q-32 0 -52 20t-20 52t20 51.5t52 19.5t52.5 -19.5t20.5 -51.5t-20.5 -52t-52.5 -20zM586 -25q-212 0 -348 146t-136 373q0 229 136 374.5t348 145.5t346.5 -145.5
t134.5 -374.5q0 -228 -134.5 -373.5t-346.5 -145.5zM586 57q167 0 275 122.5t108 314.5q0 193 -107.5 315.5t-275.5 122.5q-169 0 -276 -122.5t-107 -315.5q0 -192 107 -314.5t276 -122.5z" />
    <glyph glyph-name="divide" unicode="&#xf7;" horiz-adv-x="1179" 
d="M590 918q-29 0 -47.5 18t-18.5 47t18.5 47.5t47.5 18.5q30 0 47.5 -17.5t17.5 -48.5q0 -29 -18 -47t-47 -18zM119 549v82h942v-82h-942zM590 131q-29 0 -47.5 18.5t-18.5 47.5t18.5 47t47.5 18t47 -18t18 -47t-18 -47.5t-47 -18.5z" />
    <glyph glyph-name="oslash" unicode="&#xf8;" 
d="M586 -25q-164 0 -281 93l-57 -76h-80l86 110q-152 149 -152 392q0 229 136 374.5t348 145.5q157 0 280 -92l58 75h80l-89 -114q152 -149 152 -389q0 -228 -134.5 -373.5t-346.5 -145.5zM309 176l506 678q-96 80 -229 80q-172 0 -280.5 -122.5t-108.5 -317.5
q0 -197 112 -318zM586 53q170 0 279.5 124t109.5 317q0 194 -113 317l-508 -676q98 -82 232 -82z" />
    <glyph glyph-name="ugrave" unicode="&#xf9;" 
d="M649 1153l-336 215l49 68l326 -226zM532 -25q-161 0 -265.5 101.5t-104.5 259.5v653h98v-641q0 -127 83 -208t212 -81q147 0 242.5 101.5t95.5 261.5v567h98v-989h-80l-12 205q-47 -108 -145 -169t-222 -61z" />
    <glyph glyph-name="uacute" unicode="&#xfa;" 
d="M512 1153l-41 57l328 226l49 -68zM532 -25q-161 0 -265.5 101.5t-104.5 259.5v653h98v-641q0 -127 83 -208t212 -81q147 0 242.5 101.5t95.5 261.5v567h98v-989h-80l-12 205q-47 -108 -145 -169t-222 -61z" />
    <glyph glyph-name="ucircumflex" unicode="&#xfb;" 
d="M342 1155l-47 51l248 242h69l248 -242l-47 -51l-235 219zM532 -25q-161 0 -265.5 101.5t-104.5 259.5v653h98v-641q0 -127 83 -208t212 -81q147 0 242.5 101.5t95.5 261.5v567h98v-989h-80l-12 205q-47 -108 -145 -169t-222 -61z" />
    <glyph glyph-name="udieresis" unicode="&#xfc;" 
d="M373 1233q-32 0 -53 20t-21 52t20.5 51.5t53.5 19.5q32 0 51.5 -19.5t19.5 -51.5t-19.5 -52t-51.5 -20zM782 1233q-32 0 -51.5 20t-19.5 52t19.5 51.5t51.5 19.5q33 0 53.5 -19.5t20.5 -51.5t-21 -52t-53 -20zM532 -25q-161 0 -265.5 101.5t-104.5 259.5v653h98v-641
q0 -127 83 -208t212 -81q147 0 242.5 101.5t95.5 261.5v567h98v-989h-80l-12 205q-47 -108 -145 -169t-222 -61z" />
    <glyph glyph-name="yacute" unicode="&#xfd;" horiz-adv-x="1040" 
d="M455 1153l-41 57l327 226l50 -68zM195 -451q-47 0 -127 17l16 82q59 -15 104 -15q79 0 130.5 49t97.5 166l63 158l-416 983h103l360 -872l346 872h103l-471 -1161q-59 -148 -130.5 -213.5t-178.5 -65.5z" />
    <glyph glyph-name="thorn" unicode="&#xfe;" 
d="M178 -426v1868h98v-637q53 100 143.5 154.5t207.5 54.5q192 0 316 -146t124 -374q0 -227 -124 -373t-316 -146q-117 0 -207.5 54.5t-143.5 154.5v-610h-98zM606 57q158 0 260.5 123t102.5 314q0 192 -102.5 315t-260.5 123q-146 0 -239 -98t-93 -250v-178q0 -153 93 -251
t239 -98z" />
    <glyph glyph-name="ydieresis" unicode="&#xff;" horiz-adv-x="1040" 
d="M315 1233q-32 0 -52.5 20t-20.5 52t20.5 51.5t52.5 19.5t52 -19.5t20 -51.5t-20 -52t-52 -20zM725 1233q-32 0 -52 20t-20 52t20 51.5t52 19.5q33 0 53.5 -19.5t20.5 -51.5t-21 -52t-53 -20zM195 -451q-47 0 -127 17l16 82q59 -15 104 -15q79 0 130.5 49t97.5 166l63 158
l-416 983h103l360 -872l346 872h103l-471 -1161q-59 -148 -130.5 -213.5t-178.5 -65.5z" />
    <glyph glyph-name="Amacron" unicode="&#x100;" horiz-adv-x="1357" 
d="M389 1655v74h582v-74h-582zM61 0l570 1376h96l569 -1376h-104l-168 410h-690l-168 -410h-105zM365 489h628l-313 766z" />
    <glyph glyph-name="amacron" unicode="&#x101;" 
d="M262 1268v73h582v-73h-582zM545 -25q-194 0 -318.5 146t-124.5 373q0 228 124.5 374t318.5 146q118 0 211 -56t143 -155l12 186h80v-989h-80l-12 188q-53 -102 -144.5 -157.5t-209.5 -55.5zM563 57q147 0 239.5 98t92.5 251v178q0 153 -92.5 250.5t-239.5 97.5
q-158 0 -259 -123t-101 -315q0 -191 101 -314t259 -123z" />
    <glyph glyph-name="Abreve" unicode="&#x102;" horiz-adv-x="1357" 
d="M680 1532q-120 0 -199.5 75t-83.5 195h72q4 -86 63.5 -140t147.5 -54t147.5 54t63.5 140h72q-4 -120 -83.5 -195t-199.5 -75zM61 0l570 1376h96l569 -1376h-104l-168 410h-690l-168 -410h-105zM365 489h628l-313 766z" />
    <glyph glyph-name="abreve" unicode="&#x103;" 
d="M553 1145q-120 0 -199.5 75t-83.5 195h72q4 -86 63.5 -140t147.5 -54t147.5 54t63.5 140h72q-4 -120 -83.5 -195t-199.5 -75zM545 -25q-194 0 -318.5 146t-124.5 373q0 228 124.5 374t318.5 146q118 0 211 -56t143 -155l12 186h80v-989h-80l-12 188
q-53 -102 -144.5 -157.5t-209.5 -55.5zM563 57q147 0 239.5 98t92.5 251v178q0 153 -92.5 250.5t-239.5 97.5q-158 0 -259 -123t-101 -315q0 -191 101 -314t259 -123z" />
    <glyph glyph-name="Aogonek" unicode="&#x104;" horiz-adv-x="1372" 
d="M1190 -451q-74 0 -123 43.5t-49 116.5q0 141 190 291h-16l-168 410h-690l-168 -410h-105l570 1376h96l569 -1376q-200 -155 -200 -276q0 -49 32 -78t78 -29q48 0 92 21l17 -64q-64 -25 -125 -25zM365 489h628l-313 766z" />
    <glyph glyph-name="aogonek" unicode="&#x105;" 
d="M885 -451q-74 0 -123 43.5t-49 116.5q0 146 198 307l-12 172q-53 -102 -144.5 -157.5t-209.5 -55.5q-194 0 -318.5 146t-124.5 373q0 228 124.5 374t318.5 146q118 0 211 -56t143 -155l12 186h80v-989q-200 -155 -200 -276q0 -49 32 -78t78 -29q49 0 92 21l17 -64
q-64 -25 -125 -25zM563 57q147 0 239.5 98t92.5 251v178q0 153 -92.5 250.5t-239.5 97.5q-158 0 -259 -123t-101 -315q0 -191 101 -314t259 -123z" />
    <glyph glyph-name="Cacute" unicode="&#x106;" horiz-adv-x="1316" 
d="M690 1540l-41 57l328 226l49 -68zM774 -25q-291 0 -474 199t-183 514q0 156 48.5 289t134 226t208 145.5t266.5 52.5q234 0 447 -148l-45 -71q-187 133 -392 133q-252 0 -408.5 -173.5t-156.5 -453.5t156.5 -453.5t408.5 -173.5q203 0 392 134l45 -72
q-213 -148 -447 -148z" />
    <glyph glyph-name="cacute" unicode="&#x107;" horiz-adv-x="995" 
d="M498 1153l-41 57l327 226l50 -68zM582 -25q-211 0 -345.5 146t-134.5 373q0 229 134.5 374.5t345.5 145.5q175 0 331 -111l-43 -69q-134 96 -278 96q-171 0 -280 -121.5t-109 -314.5q0 -192 109 -313.5t280 -121.5q143 0 278 97l43 -72q-157 -109 -331 -109z" />
    <glyph glyph-name="Ccircumflex" unicode="&#x108;" horiz-adv-x="1316" 
d="M520 1542l-47 51l248 242h70l247 -242l-47 -51l-235 219zM774 -25q-291 0 -474 199t-183 514q0 156 48.5 289t134 226t208 145.5t266.5 52.5q234 0 447 -148l-45 -71q-187 133 -392 133q-252 0 -408.5 -173.5t-156.5 -453.5t156.5 -453.5t408.5 -173.5q203 0 392 134
l45 -72q-213 -148 -447 -148z" />
    <glyph glyph-name="ccircumflex" unicode="&#x109;" horiz-adv-x="995" 
d="M328 1155l-47 51l247 242h70l248 -242l-47 -51l-236 219zM582 -25q-211 0 -345.5 146t-134.5 373q0 229 134.5 374.5t345.5 145.5q175 0 331 -111l-43 -69q-134 96 -278 96q-171 0 -280 -121.5t-109 -314.5q0 -192 109 -313.5t280 -121.5q143 0 278 97l43 -72
q-157 -109 -331 -109z" />
    <glyph glyph-name="Cdotaccent" unicode="&#x10a;" horiz-adv-x="1316" 
d="M756 1616q-34 0 -55 21t-21 55t21 54.5t55 20.5t54.5 -20.5t20.5 -54.5t-20.5 -55t-54.5 -21zM774 -25q-291 0 -474 199t-183 514q0 156 48.5 289t134 226t208 145.5t266.5 52.5q234 0 447 -148l-45 -71q-187 133 -392 133q-252 0 -408.5 -173.5t-156.5 -453.5
t156.5 -453.5t408.5 -173.5q203 0 392 134l45 -72q-213 -148 -447 -148z" />
    <glyph glyph-name="cdotaccent" unicode="&#x10b;" horiz-adv-x="995" 
d="M563 1229q-34 0 -55 21t-21 55t21 54.5t55 20.5t55 -20.5t21 -54.5t-21 -55t-55 -21zM582 -25q-211 0 -345.5 146t-134.5 373q0 229 134.5 374.5t345.5 145.5q175 0 331 -111l-43 -69q-134 96 -278 96q-171 0 -280 -121.5t-109 -314.5q0 -192 109 -313.5t280 -121.5
q143 0 278 97l43 -72q-157 -109 -331 -109z" />
    <glyph glyph-name="Ccaron" unicode="&#x10c;" horiz-adv-x="1316" 
d="M721 1548l-248 244l47 49l236 -217l235 217l47 -49l-247 -244h-70zM774 -25q-291 0 -474 199t-183 514q0 156 48.5 289t134 226t208 145.5t266.5 52.5q234 0 447 -148l-45 -71q-187 133 -392 133q-252 0 -408.5 -173.5t-156.5 -453.5t156.5 -453.5t408.5 -173.5
q203 0 392 134l45 -72q-213 -148 -447 -148z" />
    <glyph glyph-name="ccaron" unicode="&#x10d;" horiz-adv-x="995" 
d="M528 1161l-247 244l47 49l235 -217l236 217l47 -49l-248 -244h-70zM582 -25q-211 0 -345.5 146t-134.5 373q0 229 134.5 374.5t345.5 145.5q175 0 331 -111l-43 -69q-134 96 -278 96q-171 0 -280 -121.5t-109 -314.5q0 -192 109 -313.5t280 -121.5q143 0 278 97l43 -72
q-157 -109 -331 -109z" />
    <glyph glyph-name="Dcaron" unicode="&#x10e;" horiz-adv-x="1456" 
d="M662 1548l-248 244l47 49l235 -217l236 217l47 -49l-248 -244h-69zM225 0v1376h422q309 0 500.5 -190.5t191.5 -497.5q0 -305 -192 -496.5t-500 -191.5h-422zM326 84h311q265 0 432.5 168.5t167.5 435.5t-167.5 435.5t-432.5 168.5h-311v-1208z" />
    <glyph glyph-name="dcaron" unicode="&#x10f;" horiz-adv-x="1318" 
d="M1210 1130l-69 25l131 334l78 -29zM545 -25q-194 0 -318.5 146t-124.5 373q0 228 124.5 374t318.5 146q117 0 207 -54.5t141 -154.5v637h98v-1442h-80l-12 188q-53 -102 -144.5 -157.5t-209.5 -55.5zM563 57q147 0 239.5 98t92.5 251v178q0 153 -92.5 250.5t-239.5 97.5
q-158 0 -259 -123t-101 -315q0 -191 101 -314t259 -123z" />
    <glyph glyph-name="Dcroat" unicode="&#x110;" horiz-adv-x="1488" 
d="M258 0v664h-199v81h199v631h422q309 0 500.5 -190.5t191.5 -497.5q0 -305 -192 -496.5t-500 -191.5h-422zM356 84h318q265 0 432.5 168.5t167.5 435.5t-167.5 435.5t-432.5 168.5h-318v-547h383v-81h-383v-580z" />
    <glyph glyph-name="dcroat" unicode="&#x111;" 
d="M545 -25q-194 0 -318.5 146t-124.5 373q0 228 124.5 374t318.5 146q117 0 207 -54.5t141 -154.5v383h-375v76h375v178h98v-178h152v-76h-152v-1188h-80l-12 188q-53 -102 -144.5 -157.5t-209.5 -55.5zM563 57q147 0 239.5 98t92.5 251v178q0 153 -92.5 250.5t-239.5 97.5
q-158 0 -259 -123t-101 -315q0 -191 101 -314t259 -123z" />
    <glyph glyph-name="Emacron" unicode="&#x112;" horiz-adv-x="1218" 
d="M356 1655v74h582v-74h-582zM225 0v1376h842v-82h-741v-549h675v-81h-675v-582h774v-82h-875z" />
    <glyph glyph-name="emacron" unicode="&#x113;" horiz-adv-x="1083" 
d="M274 1268v73h582v-73h-582zM598 -25q-217 0 -356.5 146t-139.5 373q0 229 129.5 374.5t333.5 145.5q190 0 310 -139.5t120 -360.5v-41h-794q6 -186 119 -303t288 -117q141 0 305 86l33 -71q-179 -93 -348 -93zM201 541h700q-3 175 -96 284t-240 109q-154 0 -253.5 -108
t-110.5 -285z" />
    <glyph glyph-name="Ebreve" unicode="&#x114;" horiz-adv-x="1218" 
d="M647 1532q-119 0 -198.5 74.5t-83.5 195.5h71q4 -86 63.5 -140t147.5 -54t147.5 54t63.5 140h72q-4 -120 -83.5 -195t-199.5 -75zM225 0v1376h842v-82h-741v-549h675v-81h-675v-582h774v-82h-875z" />
    <glyph glyph-name="ebreve" unicode="&#x115;" horiz-adv-x="1083" 
d="M565 1145q-119 0 -198.5 74.5t-83.5 195.5h71q4 -86 63.5 -140t147.5 -54t147.5 54t63.5 140h72q-4 -120 -83.5 -195t-199.5 -75zM598 -25q-217 0 -356.5 146t-139.5 373q0 229 129.5 374.5t333.5 145.5q190 0 310 -139.5t120 -360.5v-41h-794q6 -186 119 -303t288 -117
q141 0 305 86l33 -71q-179 -93 -348 -93zM201 541h700q-3 175 -96 284t-240 109q-154 0 -253.5 -108t-110.5 -285z" />
    <glyph glyph-name="Edotaccent" unicode="&#x116;" horiz-adv-x="1218" 
d="M647 1616q-34 0 -55 21t-21 55t21 54.5t55 20.5t55 -20.5t21 -54.5t-21 -55t-55 -21zM225 0v1376h842v-82h-741v-549h675v-81h-675v-582h774v-82h-875z" />
    <glyph glyph-name="edotaccent" unicode="&#x117;" horiz-adv-x="1083" 
d="M565 1229q-34 0 -55 21t-21 55t21 54.5t55 20.5t55 -20.5t21 -54.5t-21 -55t-55 -21zM598 -25q-217 0 -356.5 146t-139.5 373q0 229 129.5 374.5t333.5 145.5q190 0 310 -139.5t120 -360.5v-41h-794q6 -186 119 -303t288 -117q141 0 305 86l33 -71q-179 -93 -348 -93z
M201 541h700q-3 175 -96 284t-240 109q-154 0 -253.5 -108t-110.5 -285z" />
    <glyph glyph-name="Eogonek" unicode="&#x118;" horiz-adv-x="1218" 
d="M993 -451q-74 0 -123 43.5t-49 116.5q0 140 191 291h-787v1376h842v-82h-741v-549h675v-81h-675v-582h774v-82q-201 -156 -201 -276q0 -49 32.5 -78t78.5 -29q48 0 92 21l16 -64q-64 -25 -125 -25z" />
    <glyph glyph-name="eogonek" unicode="&#x119;" horiz-adv-x="1083" 
d="M825 -451q-74 0 -125 48t-51 127q0 142 160 286q-116 -35 -211 -35q-217 0 -356.5 146t-139.5 373q0 229 129.5 374.5t333.5 145.5q190 0 310 -139.5t120 -360.5v-41h-794q6 -186 119 -303t288 -117q141 0 305 86l33 -71q-217 -184 -217 -328q0 -57 32.5 -90t80.5 -33
q42 0 86 21l18 -64q-67 -25 -121 -25zM201 541h700q-3 175 -96 284t-240 109q-154 0 -253.5 -108t-110.5 -285z" />
    <glyph glyph-name="Ecaron" unicode="&#x11a;" horiz-adv-x="1218" 
d="M612 1548l-247 244l47 49l235 -217l236 217l47 -49l-248 -244h-70zM225 0v1376h842v-82h-741v-549h675v-81h-675v-582h774v-82h-875z" />
    <glyph glyph-name="ecaron" unicode="&#x11b;" horiz-adv-x="1083" 
d="M530 1161l-247 244l47 49l235 -217l236 217l47 -49l-248 -244h-70zM598 -25q-217 0 -356.5 146t-139.5 373q0 229 129.5 374.5t333.5 145.5q190 0 310 -139.5t120 -360.5v-41h-794q6 -186 119 -303t288 -117q141 0 305 86l33 -71q-179 -93 -348 -93zM201 541h700
q-3 175 -96 284t-240 109q-154 0 -253.5 -108t-110.5 -285z" />
    <glyph glyph-name="Gcircumflex" unicode="&#x11c;" horiz-adv-x="1423" 
d="M541 1542l-47 51l247 242h70l248 -242l-47 -51l-236 219zM807 -25q-201 0 -358.5 90.5t-244.5 253t-87 369.5q0 155 49.5 287.5t137.5 226t213.5 146.5t273.5 53q224 0 462 -133l-41 -74q-217 123 -411 123q-259 0 -422.5 -175.5t-163.5 -453.5q0 -182 75.5 -325.5
t212 -223.5t310.5 -80q194 0 365 80v465h-371v80h465v-600q-237 -109 -465 -109z" />
    <glyph glyph-name="gcircumflex" unicode="&#x11d;" 
d="M340 1155l-47 51l248 242h69l248 -242l-47 -51l-236 219zM532 -451q-170 0 -366 84l31 78q186 -80 329 -80q161 0 264 91t103 233v229q-51 -100 -141 -154.5t-207 -54.5q-194 0 -318.5 146t-124.5 373q0 228 124.5 374t318.5 146q118 0 209.5 -56t144.5 -159l12 190h80
v-1030q0 -180 -129 -295t-330 -115zM563 57q147 0 239.5 98t92.5 251v178q0 153 -92.5 250.5t-239.5 97.5q-158 0 -259 -123t-101 -315q0 -191 101 -314t259 -123z" />
    <glyph glyph-name="Gbreve" unicode="&#x11e;" horiz-adv-x="1423" 
d="M776 1532q-119 0 -198.5 74.5t-83.5 195.5h71q4 -86 63.5 -140t147.5 -54t147.5 54t63.5 140h72q-4 -120 -83.5 -195t-199.5 -75zM807 -25q-201 0 -358.5 90.5t-244.5 253t-87 369.5q0 155 49.5 287.5t137.5 226t213.5 146.5t273.5 53q224 0 462 -133l-41 -74
q-217 123 -411 123q-259 0 -422.5 -175.5t-163.5 -453.5q0 -182 75.5 -325.5t212 -223.5t310.5 -80q194 0 365 80v465h-371v80h465v-600q-237 -109 -465 -109z" />
    <glyph glyph-name="gbreve" unicode="&#x11f;" 
d="M575 1145q-119 0 -198.5 74.5t-83.5 195.5h72q4 -86 63 -140t147 -54t147.5 54t63.5 140h72q-4 -120 -83.5 -195t-199.5 -75zM532 -451q-170 0 -366 84l31 78q186 -80 329 -80q161 0 264 91t103 233v229q-51 -100 -141 -154.5t-207 -54.5q-194 0 -318.5 146t-124.5 373
q0 228 124.5 374t318.5 146q118 0 209.5 -56t144.5 -159l12 190h80v-1030q0 -180 -129 -295t-330 -115zM563 57q147 0 239.5 98t92.5 251v178q0 153 -92.5 250.5t-239.5 97.5q-158 0 -259 -123t-101 -315q0 -191 101 -314t259 -123z" />
    <glyph glyph-name="Gdotaccent" unicode="&#x120;" horiz-adv-x="1423" 
d="M776 1616q-34 0 -55 21t-21 55t21 54.5t55 20.5t55 -20.5t21 -54.5t-21 -55t-55 -21zM807 -25q-201 0 -358.5 90.5t-244.5 253t-87 369.5q0 155 49.5 287.5t137.5 226t213.5 146.5t273.5 53q224 0 462 -133l-41 -74q-217 123 -411 123q-259 0 -422.5 -175.5
t-163.5 -453.5q0 -182 75.5 -325.5t212 -223.5t310.5 -80q194 0 365 80v465h-371v80h465v-600q-237 -109 -465 -109z" />
    <glyph glyph-name="gdotaccent" unicode="&#x121;" 
d="M575 1229q-34 0 -54.5 21t-20.5 55t20.5 54.5t54.5 20.5t55 -20.5t21 -54.5t-21 -55t-55 -21zM532 -451q-170 0 -366 84l31 78q186 -80 329 -80q161 0 264 91t103 233v229q-51 -100 -141 -154.5t-207 -54.5q-194 0 -318.5 146t-124.5 373q0 228 124.5 374t318.5 146
q118 0 209.5 -56t144.5 -159l12 190h80v-1030q0 -180 -129 -295t-330 -115zM563 57q147 0 239.5 98t92.5 251v178q0 153 -92.5 250.5t-239.5 97.5q-158 0 -259 -123t-101 -315q0 -191 101 -314t259 -123z" />
    <glyph glyph-name="Gcommaaccent" unicode="&#x122;" horiz-adv-x="1423" 
d="M807 -25q-201 0 -358.5 90.5t-244.5 253t-87 369.5q0 155 49.5 287.5t137.5 226t213.5 146.5t273.5 53q224 0 462 -133l-41 -74q-217 123 -411 123q-259 0 -422.5 -175.5t-163.5 -453.5q0 -182 75.5 -325.5t212 -223.5t310.5 -80q194 0 365 80v465h-371v80h465v-600
q-237 -109 -465 -109zM684 -551l-31 43q127 98 127 225q-31 -4 -53 16t-22 52t19.5 52t51.5 20q37 0 59.5 -29.5t22.5 -81.5q0 -90 -45 -166.5t-129 -130.5z" />
    <glyph glyph-name="gcommaaccent" unicode="&#x123;" 
d="M586 1133q-37 0 -59.5 29t-22.5 81q0 90 45 166.5t129 130.5l31 -43q-127 -98 -127 -225q31 3 53 -17t22 -51q0 -32 -19.5 -51.5t-51.5 -19.5zM532 -451q-170 0 -366 84l31 78q186 -80 329 -80q161 0 264 91t103 233v229q-51 -100 -141 -154.5t-207 -54.5
q-194 0 -318.5 146t-124.5 373q0 228 124.5 374t318.5 146q118 0 209.5 -56t144.5 -159l12 190h80v-1030q0 -180 -129 -295t-330 -115zM563 57q147 0 239.5 98t92.5 251v178q0 153 -92.5 250.5t-239.5 97.5q-158 0 -259 -123t-101 -315q0 -191 101 -314t259 -123z" />
    <glyph glyph-name="Hcircumflex" unicode="&#x124;" horiz-adv-x="1554" 
d="M543 1542l-47 51l247 242h70l248 -242l-47 -51l-236 219zM225 0v1376h101v-631h903v631h100v-1376h-100v664h-903v-664h-101z" />
    <glyph glyph-name="hcircumflex" unicode="&#x125;" 
d="M-8 1505l-47 51l248 242h69l248 -242l-47 -51l-236 219zM178 0v1442h98v-654q50 106 146 166t217 60q161 0 265 -101.5t104 -259.5v-653h-99v641q0 127 -82.5 208t-210.5 81q-147 0 -243.5 -101.5t-96.5 -261.5v-567h-98z" />
    <glyph glyph-name="Hbar" unicode="&#x126;" horiz-adv-x="1554" 
d="M225 0v1090h-166v75h166v211h101v-211h903v211h100v-211h166v-75h-166v-1090h-100v664h-903v-664h-101zM326 745h903v345h-903v-345z" />
    <glyph glyph-name="hbar" unicode="&#x127;" 
d="M178 0v1188h-151v76h151v178h98v-178h375v-76h-375v-400q50 106 146 166t217 60q161 0 265 -101.5t104 -259.5v-653h-99v641q0 127 -82.5 208t-210.5 81q-147 0 -243.5 -101.5t-96.5 -261.5v-567h-98z" />
    <glyph glyph-name="Itilde" unicode="&#x128;" horiz-adv-x="550" 
d="M59 1616l-69 20q15 60 57 96.5t98 36.5q46 0 134.5 -39.5t121.5 -39.5q68 0 93 79l69 -22q-15 -59 -57 -95t-98 -36q-46 0 -134.5 39t-121.5 39t-58 -21t-35 -57zM225 0v1376h101v-1376h-101z" />
    <glyph glyph-name="itilde" unicode="&#x129;" horiz-adv-x="454" 
d="M10 1229l-69 20q15 60 57 96.5t98 36.5q46 0 134.5 -39.5t121.5 -39.5q67 0 92 79l70 -22q-15 -59 -57.5 -95t-98.5 -36q-46 0 -134.5 39t-121.5 39q-32 0 -57 -20.5t-35 -57.5zM178 0v989h98v-989h-98z" />
    <glyph glyph-name="Imacron" unicode="&#x12a;" horiz-adv-x="550" 
d="M-14 1655v74h581v-74h-581zM225 0v1376h101v-1376h-101z" />
    <glyph glyph-name="imacron" unicode="&#x12b;" horiz-adv-x="454" 
d="M-63 1268v73h581v-73h-581zM178 0v989h98v-989h-98z" />
    <glyph glyph-name="Ibreve" unicode="&#x12c;" horiz-adv-x="550" 
d="M276 1532q-119 0 -198.5 74.5t-83.5 195.5h72q4 -86 63 -140t147 -54t147.5 54t63.5 140h72q-4 -120 -83.5 -195t-199.5 -75zM225 0v1376h101v-1376h-101z" />
    <glyph glyph-name="ibreve" unicode="&#x12d;" horiz-adv-x="454" 
d="M227 1145q-119 0 -198.5 74.5t-83.5 195.5h71q4 -86 63.5 -140t147.5 -54t147.5 54t63.5 140h72q-4 -120 -83.5 -195t-199.5 -75zM178 0v989h98v-989h-98z" />
    <glyph glyph-name="Iogonek" unicode="&#x12e;" horiz-adv-x="550" 
d="M219 -451q-74 0 -123 43.5t-49 116.5q0 146 178 291v1376h101v-1376q-201 -156 -201 -276q0 -49 32.5 -78t78.5 -29q48 0 92 21l16 -64q-64 -25 -125 -25z" />
    <glyph glyph-name="iogonek" unicode="&#x12f;" horiz-adv-x="454" 
d="M227 1229q-34 0 -54.5 21t-20.5 55t20.5 55.5t54.5 21.5t56 -21.5t22 -55.5t-22 -55t-56 -21zM170 -451q-74 0 -123 43.5t-49 116.5q0 141 180 291v989h98v-989q-200 -155 -200 -276q0 -49 32 -78t78 -29q50 0 93 21l16 -64q-64 -25 -125 -25z" />
    <glyph glyph-name="Idotaccent" unicode="&#x130;" horiz-adv-x="550" 
d="M276 1616q-34 0 -54.5 21t-20.5 55t20.5 54.5t54.5 20.5t55 -20.5t21 -54.5t-21 -55t-55 -21zM225 0v1376h101v-1376h-101z" />
    <glyph glyph-name="dotlessi" unicode="&#x131;" horiz-adv-x="454" 
d="M178 0v989h98v-989h-98z" />
    <glyph glyph-name="IJ" unicode="&#x132;" horiz-adv-x="1447" 
d="M225 0v1376h101v-1376h-101zM860 -25q-118 0 -252 35l17 82q118 -31 217 -31q123 0 201.5 78t78.5 201v1036h101v-1042q0 -158 -101.5 -258.5t-261.5 -100.5z" />
    <glyph glyph-name="ij" unicode="&#x133;" horiz-adv-x="925" 
d="M227 1229q-34 0 -54.5 21t-20.5 55t20.5 55.5t54.5 21.5t56 -21.5t22 -55.5t-22 -55t-56 -21zM698 1229q-34 0 -54.5 21t-20.5 55t20.5 55.5t54.5 21.5t56 -21.5t22 -55.5t-22 -55t-56 -21zM178 0v989h98v-989h-98zM475 -451q-87 0 -182 27l16 80q76 -23 148 -23
q86 0 139 53t53 138v1165h99v-1171q0 -118 -76.5 -193.5t-196.5 -75.5z" />
    <glyph glyph-name="Jcircumflex" unicode="&#x134;" horiz-adv-x="897" 
d="M385 1542l-47 51l248 242h69l248 -242l-47 -51l-235 219zM309 -25q-118 0 -252 35l17 82q118 -31 217 -31q123 0 201.5 78t78.5 201v1036h101v-1042q0 -158 -101.5 -258.5t-261.5 -100.5z" />
    <glyph glyph-name="jcircumflex" unicode="&#x135;" horiz-adv-x="471" 
d="M8 1155l-47 51l248 242h70l247 -242l-47 -51l-235 219zM20 -451q-88 0 -182 27l17 80q76 -23 147 -23q86 0 139.5 53t53.5 138v1165h98v-1171q0 -118 -76.5 -193.5t-196.5 -75.5z" />
    <glyph glyph-name="Kcommaaccent" unicode="&#x136;" horiz-adv-x="1335" 
d="M225 0v1376h99v-774l772 774h123l-641 -643l671 -733h-125l-616 670l-184 -183v-487h-99zM592 -551l-31 43q127 98 127 225q-31 -5 -53.5 15.5t-22.5 52.5t20 52t52 20q37 0 59.5 -29.5t22.5 -81.5q0 -90 -45 -166.5t-129 -130.5z" />
    <glyph glyph-name="kcommaaccent" unicode="&#x137;" horiz-adv-x="1011" 
d="M178 0v1442h96v-987l533 534h119l-461 -463l477 -526h-119l-424 467l-125 -125v-342h-96zM414 -551l-31 43q127 98 127 225q-31 -5 -53.5 15.5t-22.5 52.5t20 52t52 20q37 0 59.5 -29.5t22.5 -81.5q0 -90 -45 -166.5t-129 -130.5z" />
    <glyph glyph-name="kgreenlandic" unicode="&#x138;" horiz-adv-x="1011" 
d="M178 0v989h96v-534l533 534h119l-461 -463l477 -526h-119l-424 467l-125 -125v-342h-96z" />
    <glyph glyph-name="Lacute" unicode="&#x139;" horiz-adv-x="1087" 
d="M211 1540l-41 57l328 226l49 -68zM225 0v1376h101v-1292h702v-84h-803z" />
    <glyph glyph-name="lacute" unicode="&#x13a;" horiz-adv-x="552" 
d="M162 1606l-41 57l328 225l49 -67zM393 -25q-99 0 -157 56.5t-58 152.5v1258h98v-1249q0 -62 37 -98t99 -36q44 0 100 15l14 -80q-78 -19 -133 -19z" />
    <glyph glyph-name="Lcommaaccent" unicode="&#x13b;" horiz-adv-x="1087" 
d="M225 0v1376h101v-1292h702v-84h-803zM516 -551l-31 43q127 98 127 225q-31 -4 -53 16t-22 52t19.5 52t51.5 20q37 0 59.5 -29.5t22.5 -81.5q0 -90 -45 -166.5t-129 -130.5z" />
    <glyph glyph-name="lcommaaccent" unicode="&#x13c;" horiz-adv-x="552" 
d="M393 -25q-99 0 -157 56.5t-58 152.5v1258h98v-1249q0 -62 37 -98t99 -36q44 0 100 15l14 -80q-78 -19 -133 -19zM244 -551l-31 43q127 98 127 225q-31 -5 -53.5 15.5t-22.5 52.5t20 52t52 20q37 0 59.5 -29.5t22.5 -81.5q0 -90 -45 -166.5t-129 -130.5z" />
    <glyph glyph-name="Lcaron" unicode="&#x13d;" horiz-adv-x="1087" 
d="M594 1065l-70 25l131 333l78 -28zM225 0v1376h101v-1292h702v-84h-803z" />
    <glyph glyph-name="lcaron" unicode="&#x13e;" horiz-adv-x="548" 
d="M512 1130l-70 25l131 334l78 -29zM393 -25q-99 0 -157 56.5t-58 152.5v1258h98v-1249q0 -62 37 -98t99 -36q44 0 100 15l14 -80q-78 -19 -133 -19z" />
    <glyph glyph-name="Ldot" unicode="&#x13f;" horiz-adv-x="1120" 
d="M225 0v1376h101v-1292h702v-84h-803zM836 647q-34 0 -55 21t-21 55t21 55t55 21t54.5 -21t20.5 -55t-20.5 -55t-54.5 -21z" />
    <glyph glyph-name="ldot" unicode="&#x140;" horiz-adv-x="649" 
d="M393 -25q-99 0 -157 56.5t-58 152.5v1258h98v-1249q0 -62 37 -98t99 -36q44 0 100 15l14 -80q-78 -19 -133 -19zM553 629q-34 0 -55 21t-21 55t21 54.5t55 20.5t55 -20.5t21 -54.5t-21 -55t-55 -21z" />
    <glyph glyph-name="Lslash" unicode="&#x141;" horiz-adv-x="1120" 
d="M258 0v618l-174 -86l-35 66l209 104v674h100v-622l312 155l37 -65l-349 -174v-586h703v-84h-803z" />
    <glyph glyph-name="lslash" unicode="&#x142;" horiz-adv-x="618" 
d="M410 -25q-98 0 -156.5 57t-58.5 152v480l-195 -99l-35 66l230 114v697h98v-647l227 114l37 -65l-264 -131v-520q0 -63 36.5 -98.5t98.5 -35.5q44 0 100 15l15 -80q-78 -19 -133 -19z" />
    <glyph glyph-name="Nacute" unicode="&#x143;" horiz-adv-x="1554" 
d="M713 1540l-41 57l327 226l50 -68zM225 0v1376h101l909 -1235v1235h94v-1376h-100l-910 1235v-1235h-94z" />
    <glyph glyph-name="nacute" unicode="&#x144;" 
d="M549 1153l-41 57l328 226l49 -68zM178 0v989h80l12 -207q49 109 147.5 170.5t221.5 61.5q161 0 265 -101.5t104 -259.5v-653h-99v641q0 127 -82.5 208t-210.5 81q-147 0 -243.5 -101.5t-96.5 -261.5v-567h-98z" />
    <glyph glyph-name="Ncommaaccent" unicode="&#x145;" horiz-adv-x="1554" 
d="M225 0v1376h101l909 -1235v1235h94v-1376h-100l-910 1235v-1235h-94zM686 -551l-31 43q127 98 127 225q-31 -4 -53 16t-22 52t19.5 52t51.5 20q37 0 59.5 -29.5t22.5 -81.5q0 -90 -45 -166.5t-129 -130.5z" />
    <glyph glyph-name="ncommaaccent" unicode="&#x146;" 
d="M178 0v989h80l12 -207q49 109 147.5 170.5t221.5 61.5q161 0 265 -101.5t104 -259.5v-653h-99v641q0 127 -82.5 208t-210.5 81q-147 0 -243.5 -101.5t-96.5 -261.5v-567h-98zM502 -551l-31 43q127 98 127 225q-31 -5 -53.5 15.5t-22.5 52.5t20 52t52 20q37 0 59.5 -29.5
t22.5 -81.5q0 -90 -45 -166.5t-129 -130.5z" />
    <glyph glyph-name="Ncaron" unicode="&#x147;" horiz-adv-x="1554" 
d="M743 1548l-247 244l47 49l235 -217l236 217l47 -49l-248 -244h-70zM225 0v1376h101l909 -1235v1235h94v-1376h-100l-910 1235v-1235h-94z" />
    <glyph glyph-name="ncaron" unicode="&#x148;" 
d="M580 1161l-248 244l47 49l235 -217l236 217l47 -49l-248 -244h-69zM178 0v989h80l12 -207q49 109 147.5 170.5t221.5 61.5q161 0 265 -101.5t104 -259.5v-653h-99v641q0 127 -82.5 208t-210.5 81q-147 0 -243.5 -101.5t-96.5 -261.5v-567h-98z" />
    <glyph glyph-name="Eng" unicode="&#x14a;" horiz-adv-x="1554" 
d="M967 -451q-118 0 -252 35l18 82q121 -31 221 -31q121 0 200 76t79 193v92l-914 1239v-1235h-94v1376h101l909 -1235v1235h94v-1468q0 -158 -101 -258.5t-261 -100.5z" />
    <glyph glyph-name="eng" unicode="&#x14b;" 
d="M735 -451q-89 0 -180 27l14 80q76 -23 150 -23q85 0 137.5 53t52.5 138v809q0 132 -82 214.5t-211 82.5q-149 0 -244.5 -100t-95.5 -255v-575h-98v989h80l12 -207q50 109 147 170.5t222 61.5q163 0 266 -103t103 -266v-827q0 -118 -76.5 -193.5t-196.5 -75.5z" />
    <glyph glyph-name="Omacron" unicode="&#x14c;" horiz-adv-x="1554" 
d="M487 1655v74h582v-74h-582zM778 -25q-192 0 -343 90.5t-234.5 253t-83.5 369.5t83.5 369.5t234.5 253t343 90.5q191 0 341.5 -90.5t234.5 -253t84 -369.5t-84 -369.5t-234.5 -253t-341.5 -90.5zM778 59q244 0 400.5 177t156.5 452t-156.5 452t-400.5 177
q-162 0 -289.5 -80.5t-198.5 -224t-71 -324.5t71 -324.5t198.5 -224t289.5 -80.5z" />
    <glyph glyph-name="omacron" unicode="&#x14d;" 
d="M295 1268v73h582v-73h-582zM586 -25q-212 0 -348 146t-136 373q0 229 136 374.5t348 145.5t346.5 -145.5t134.5 -374.5q0 -228 -134.5 -373.5t-346.5 -145.5zM586 57q167 0 275 122.5t108 314.5q0 193 -107.5 315.5t-275.5 122.5q-169 0 -276 -122.5t-107 -315.5
q0 -192 107 -314.5t276 -122.5z" />
    <glyph glyph-name="Obreve" unicode="&#x14e;" horiz-adv-x="1554" 
d="M778 1532q-119 0 -198.5 74.5t-83.5 195.5h71q4 -86 63.5 -140t147.5 -54t147.5 54t63.5 140h72q-4 -120 -83.5 -195t-199.5 -75zM778 -25q-192 0 -343 90.5t-234.5 253t-83.5 369.5t83.5 369.5t234.5 253t343 90.5q191 0 341.5 -90.5t234.5 -253t84 -369.5t-84 -369.5
t-234.5 -253t-341.5 -90.5zM778 59q244 0 400.5 177t156.5 452t-156.5 452t-400.5 177q-162 0 -289.5 -80.5t-198.5 -224t-71 -324.5t71 -324.5t198.5 -224t289.5 -80.5z" />
    <glyph glyph-name="obreve" unicode="&#x14f;" 
d="M586 1145q-120 0 -199.5 75t-83.5 195h72q4 -86 63.5 -140t147.5 -54t147.5 54t63.5 140h71q-4 -121 -83.5 -195.5t-198.5 -74.5zM586 -25q-212 0 -348 146t-136 373q0 229 136 374.5t348 145.5t346.5 -145.5t134.5 -374.5q0 -228 -134.5 -373.5t-346.5 -145.5zM586 57
q167 0 275 122.5t108 314.5q0 193 -107.5 315.5t-275.5 122.5q-169 0 -276 -122.5t-107 -315.5q0 -192 107 -314.5t276 -122.5z" />
    <glyph glyph-name="Ohungarumlaut" unicode="&#x150;" horiz-adv-x="1554" 
d="M569 1530l-51 51l283 291l59 -60zM934 1530l-53 51l282 291l60 -60zM778 -25q-192 0 -343 90.5t-234.5 253t-83.5 369.5t83.5 369.5t234.5 253t343 90.5q191 0 341.5 -90.5t234.5 -253t84 -369.5t-84 -369.5t-234.5 -253t-341.5 -90.5zM778 59q244 0 400.5 177t156.5 452
t-156.5 452t-400.5 177q-162 0 -289.5 -80.5t-198.5 -224t-71 -324.5t71 -324.5t198.5 -224t289.5 -80.5z" />
    <glyph glyph-name="ohungarumlaut" unicode="&#x151;" 
d="M377 1143l-51 51l282 291l60 -60zM741 1143l-53 51l283 291l59 -60zM586 -25q-212 0 -348 146t-136 373q0 229 136 374.5t348 145.5t346.5 -145.5t134.5 -374.5q0 -228 -134.5 -373.5t-346.5 -145.5zM586 57q167 0 275 122.5t108 314.5q0 193 -107.5 315.5t-275.5 122.5
q-169 0 -276 -122.5t-107 -315.5q0 -192 107 -314.5t276 -122.5z" />
    <glyph glyph-name="OE" unicode="&#x152;" horiz-adv-x="2064" 
d="M807 0q-204 0 -361 86t-243 242.5t-86 359.5q0 305 191 496.5t499 191.5h1106v-82h-742v-549h676v-81h-676v-582h775v-82h-1139zM817 84h254v1208h-254q-264 0 -431 -168.5t-167 -435.5t167 -435.5t431 -168.5z" />
    <glyph glyph-name="oe" unicode="&#x153;" horiz-adv-x="1949" 
d="M586 -25q-212 0 -348 146t-136 373q0 229 136 374.5t348 145.5q154 0 271 -87.5t161 -234.5q45 148 155.5 235t260.5 87q190 0 310 -139.5t120 -360.5q0 -29 -2 -41h-795q8 -186 121 -303t287 -117q146 0 303 86l37 -71q-182 -93 -349 -93q-161 0 -281 87t-167 237
q-45 -149 -160.5 -236.5t-271.5 -87.5zM1067 541h700q-3 175 -95 284t-238 109q-154 0 -254.5 -108.5t-112.5 -284.5zM586 57q167 0 275 122.5t108 314.5q0 193 -107.5 315.5t-275.5 122.5q-169 0 -276 -122.5t-107 -315.5q0 -192 107 -314.5t276 -122.5z" />
    <glyph glyph-name="Racute" unicode="&#x154;" horiz-adv-x="1323" 
d="M612 1540l-41 57l328 226l49 -68zM225 0v1376h492q187 0 306.5 -112t119.5 -287q0 -160 -100.5 -267t-264.5 -122l418 -588h-115l-405 578h-352v-578h-99zM324 659h381q150 0 244.5 88t94.5 230q0 139 -95 227t-244 88h-381v-633z" />
    <glyph glyph-name="racute" unicode="&#x155;" horiz-adv-x="761" 
d="M352 1153l-41 57l328 226l49 -68zM178 0v989h80l12 -209q35 105 120.5 165.5t199.5 60.5q59 0 127 -19l-15 -82q-66 17 -118 17q-136 0 -222 -103.5t-86 -267.5v-551h-98z" />
    <glyph glyph-name="Rcommaaccent" unicode="&#x156;" horiz-adv-x="1323" 
d="M225 0v1376h492q187 0 306.5 -112t119.5 -287q0 -160 -100.5 -267t-264.5 -122l418 -588h-115l-405 578h-352v-578h-99zM324 659h381q150 0 244.5 88t94.5 230q0 139 -95 227t-244 88h-381v-633zM586 -551l-31 43q127 98 127 225q-31 -5 -53.5 15.5t-22.5 52.5t20 52
t52 20q37 0 59.5 -29.5t22.5 -81.5q0 -90 -45 -166.5t-129 -130.5z" />
    <glyph glyph-name="rcommaaccent" unicode="&#x157;" horiz-adv-x="761" 
d="M178 0v989h80l12 -209q35 105 120.5 165.5t199.5 60.5q59 0 127 -19l-15 -82q-66 17 -118 17q-136 0 -222 -103.5t-86 -267.5v-551h-98zM135 -551l-31 43q127 98 127 225q-31 -4 -53 16t-22 52t19.5 52t51.5 20q37 0 59.5 -29.5t22.5 -81.5q0 -90 -45 -166.5t-129 -130.5
z" />
    <glyph glyph-name="Rcaron" unicode="&#x158;" horiz-adv-x="1323" 
d="M643 1548l-248 244l47 49l236 -217l235 217l48 -49l-248 -244h-70zM225 0v1376h492q187 0 306.5 -112t119.5 -287q0 -160 -100.5 -267t-264.5 -122l418 -588h-115l-405 578h-352v-578h-99zM324 659h381q150 0 244.5 88t94.5 230q0 139 -95 227t-244 88h-381v-633z" />
    <glyph glyph-name="rcaron" unicode="&#x159;" horiz-adv-x="761" 
d="M383 1161l-248 244l47 49l236 -217l235 217l47 -49l-247 -244h-70zM178 0v989h80l12 -209q35 105 120.5 165.5t199.5 60.5q59 0 127 -19l-15 -82q-66 17 -118 17q-136 0 -222 -103.5t-86 -267.5v-551h-98z" />
    <glyph glyph-name="Sacute" unicode="&#x15a;" horiz-adv-x="1175" 
d="M522 1540l-41 57l328 226l49 -68zM588 -25q-211 0 -471 109l26 80q272 -105 439 -105q169 0 272.5 76.5t103.5 200.5q0 68 -28.5 119.5t-76.5 84.5t-110.5 58t-132 45t-138.5 41t-131.5 51t-110.5 69.5t-76.5 101.5t-28.5 143q0 157 128.5 254.5t334.5 97.5
q194 0 420 -92l-27 -80q-215 88 -387 88q-165 0 -267 -74.5t-102 -193.5q0 -84 46 -143t119.5 -92t162 -58.5t177 -55.5t162 -70.5t119.5 -115t46 -178.5q0 -161 -129.5 -261t-339.5 -100z" />
    <glyph glyph-name="sacute" unicode="&#x15b;" horiz-adv-x="903" 
d="M385 1153l-41 57l328 226l49 -68zM451 -25q-163 0 -349 76l25 76q174 -74 317 -74q117 0 187.5 53t70.5 140q0 47 -20 82.5t-54.5 58t-79 40t-93.5 31.5t-97.5 29t-93 36.5t-79 50.5t-54.5 74t-20 104q0 116 94.5 189t245.5 73q147 0 315 -68l-25 -76q-149 64 -284 64
q-111 0 -180.5 -50.5t-69.5 -131.5q0 -58 32.5 -98t85 -62.5t115.5 -40.5t126 -39.5t115.5 -51t85 -84t32.5 -130.5q0 -120 -96.5 -195.5t-251.5 -75.5z" />
    <glyph glyph-name="Scircumflex" unicode="&#x15c;" horiz-adv-x="1175" 
d="M352 1542l-47 51l248 242h70l247 -242l-47 -51l-235 219zM588 -25q-211 0 -471 109l26 80q272 -105 439 -105q169 0 272.5 76.5t103.5 200.5q0 68 -28.5 119.5t-76.5 84.5t-110.5 58t-132 45t-138.5 41t-131.5 51t-110.5 69.5t-76.5 101.5t-28.5 143q0 157 128.5 254.5
t334.5 97.5q194 0 420 -92l-27 -80q-215 88 -387 88q-165 0 -267 -74.5t-102 -193.5q0 -84 46 -143t119.5 -92t162 -58.5t177 -55.5t162 -70.5t119.5 -115t46 -178.5q0 -161 -129.5 -261t-339.5 -100z" />
    <glyph glyph-name="scircumflex" unicode="&#x15d;" horiz-adv-x="903" 
d="M215 1155l-47 51l248 242h69l248 -242l-47 -51l-235 219zM451 -25q-163 0 -349 76l25 76q174 -74 317 -74q117 0 187.5 53t70.5 140q0 47 -20 82.5t-54.5 58t-79 40t-93.5 31.5t-97.5 29t-93 36.5t-79 50.5t-54.5 74t-20 104q0 116 94.5 189t245.5 73q147 0 315 -68
l-25 -76q-149 64 -284 64q-111 0 -180.5 -50.5t-69.5 -131.5q0 -58 32.5 -98t85 -62.5t115.5 -40.5t126 -39.5t115.5 -51t85 -84t32.5 -130.5q0 -120 -96.5 -195.5t-251.5 -75.5z" />
    <glyph glyph-name="Scedilla" unicode="&#x15e;" horiz-adv-x="1175" 
d="M1057 336q0 -152 -114.5 -249.5t-305.5 -109.5l-19 -108q66 -6 110 -51t44 -107q0 -71 -58.5 -116.5t-148.5 -45.5q-91 0 -176 33l23 64q82 -29 145 -29q58 0 95.5 28t37.5 74q0 44 -38.5 72.5t-98.5 28.5h-18l28 155q-201 6 -446 109l26 80q272 -105 439 -105
q169 0 272.5 76.5t103.5 200.5q0 68 -28.5 119.5t-76.5 84.5t-110.5 58t-132 45t-138.5 41t-131.5 51t-110.5 69.5t-76.5 101.5t-28.5 143q0 157 128.5 254.5t334.5 97.5q194 0 420 -92l-27 -80q-215 88 -387 88q-165 0 -267 -74.5t-102 -193.5q0 -84 46 -143t119.5 -92
t162 -58.5t177 -55.5t162 -70.5t119.5 -115t46 -178.5z" />
    <glyph glyph-name="scedilla" unicode="&#x15f;" horiz-adv-x="903" 
d="M799 246q0 -110 -82 -183.5t-217 -85.5l-19 -108q66 -6 110 -51t44 -107q0 -71 -58.5 -116.5t-148.5 -45.5q-91 0 -176 33l22 64q82 -29 146 -29q58 0 95.5 28t37.5 74q0 44 -38.5 72.5t-98.5 28.5h-19l29 155q-153 6 -324 76l25 76q174 -74 317 -74q117 0 187.5 53
t70.5 140q0 47 -20 82.5t-54.5 58t-79 40t-93.5 31.5t-97.5 29t-93 36.5t-79 50.5t-54.5 74t-20 104q0 116 94.5 189t245.5 73q147 0 315 -68l-25 -76q-149 64 -284 64q-111 0 -180.5 -50.5t-69.5 -131.5q0 -58 32.5 -98t85 -62.5t115.5 -40.5t126 -39.5t115.5 -51t85 -84
t32.5 -130.5z" />
    <glyph glyph-name="Scaron" unicode="&#x160;" horiz-adv-x="1175" 
d="M553 1548l-248 244l47 49l236 -217l235 217l47 -49l-247 -244h-70zM588 -25q-211 0 -471 109l26 80q272 -105 439 -105q169 0 272.5 76.5t103.5 200.5q0 68 -28.5 119.5t-76.5 84.5t-110.5 58t-132 45t-138.5 41t-131.5 51t-110.5 69.5t-76.5 101.5t-28.5 143
q0 157 128.5 254.5t334.5 97.5q194 0 420 -92l-27 -80q-215 88 -387 88q-165 0 -267 -74.5t-102 -193.5q0 -84 46 -143t119.5 -92t162 -58.5t177 -55.5t162 -70.5t119.5 -115t46 -178.5q0 -161 -129.5 -261t-339.5 -100z" />
    <glyph glyph-name="scaron" unicode="&#x161;" horiz-adv-x="903" 
d="M416 1161l-248 244l47 49l236 -217l235 217l47 -49l-248 -244h-69zM451 -25q-163 0 -349 76l25 76q174 -74 317 -74q117 0 187.5 53t70.5 140q0 47 -20 82.5t-54.5 58t-79 40t-93.5 31.5t-97.5 29t-93 36.5t-79 50.5t-54.5 74t-20 104q0 116 94.5 189t245.5 73
q147 0 315 -68l-25 -76q-149 64 -284 64q-111 0 -180.5 -50.5t-69.5 -131.5q0 -58 32.5 -98t85 -62.5t115.5 -40.5t126 -39.5t115.5 -51t85 -84t32.5 -130.5q0 -120 -96.5 -195.5t-251.5 -75.5z" />
    <glyph glyph-name="uni0162" unicode="&#x162;" horiz-adv-x="1218" 
d="M559 0v1292h-500v84h1100v-84h-500v-1292h-100zM516 -551l-31 43q127 98 127 225q-31 -4 -53 16t-22 52t19.5 52t51.5 20q37 0 59.5 -29.5t22.5 -81.5q0 -90 -45 -166.5t-129 -130.5z" />
    <glyph glyph-name="uni0163" unicode="&#x163;" horiz-adv-x="804" 
d="M549 -25q-120 0 -196.5 75.5t-76.5 193.5v665h-217v80h217v295h99v-295h338v-80h-338v-659q0 -85 53.5 -138t138.5 -53q72 0 148 23l16 -80q-91 -27 -182 -27zM389 -551l-31 43q127 98 127 225q-31 -4 -53 16t-22 52t19.5 52t51.5 20q37 0 59.5 -29.5t22.5 -81.5
q0 -90 -45 -166.5t-129 -130.5z" />
    <glyph glyph-name="Tcaron" unicode="&#x164;" horiz-adv-x="1218" 
d="M575 1548l-247 244l47 49l235 -217l236 217l47 -49l-248 -244h-70zM559 0v1292h-500v84h1100v-84h-500v-1292h-100z" />
    <glyph glyph-name="tcaron" unicode="&#x165;" horiz-adv-x="804" 
d="M594 1130l-70 25l131 334l78 -29zM549 -25q-120 0 -196.5 75.5t-76.5 193.5v665h-217v80h217v295h99v-295h338v-80h-338v-659q0 -85 53.5 -138t138.5 -53q72 0 148 23l16 -80q-91 -27 -182 -27z" />
    <glyph glyph-name="Tbar" unicode="&#x166;" horiz-adv-x="1218" 
d="M559 0v614h-309v80h309v598h-500v84h1100v-84h-500v-598h310v-80h-310v-614h-100z" />
    <glyph glyph-name="tbar" unicode="&#x167;" horiz-adv-x="804" 
d="M549 -25q-120 0 -196.5 75.5t-76.5 193.5v225h-200v74h200v366h-217v80h217v295h99v-295h338v-80h-338v-366h305v-74h-305v-219q0 -85 53 -138t139 -53q72 0 148 23l16 -80q-91 -27 -182 -27z" />
    <glyph glyph-name="Utilde" unicode="&#x168;" horiz-adv-x="1554" 
d="M561 1616l-69 20q15 60 57 96.5t98 36.5q46 0 134.5 -39.5t121.5 -39.5q67 0 92 79l70 -22q-15 -59 -57.5 -95t-98.5 -36q-46 0 -134.5 39t-121.5 39q-32 0 -57 -20.5t-35 -57.5zM778 -25q-247 0 -408 152t-161 389v860h100v-856q0 -202 133 -331.5t336 -129.5
q202 0 334.5 129.5t132.5 331.5v856h101v-860q0 -156 -73.5 -280t-203.5 -192.5t-291 -68.5z" />
    <glyph glyph-name="utilde" unicode="&#x169;" 
d="M360 1229l-69 20q15 60 57 96.5t98 36.5q46 0 134.5 -39.5t121.5 -39.5q68 0 93 79l69 -22q-15 -59 -57 -95t-98 -36q-46 0 -134.5 39t-121.5 39t-58 -21t-35 -57zM532 -25q-161 0 -265.5 101.5t-104.5 259.5v653h98v-641q0 -127 83 -208t212 -81q147 0 242.5 101.5
t95.5 261.5v567h98v-989h-80l-12 205q-47 -108 -145 -169t-222 -61z" />
    <glyph glyph-name="Umacron" unicode="&#x16a;" horiz-adv-x="1554" 
d="M487 1655v74h582v-74h-582zM778 -25q-247 0 -408 152t-161 389v860h100v-856q0 -202 133 -331.5t336 -129.5q202 0 334.5 129.5t132.5 331.5v856h101v-860q0 -156 -73.5 -280t-203.5 -192.5t-291 -68.5z" />
    <glyph glyph-name="umacron" unicode="&#x16b;" 
d="M287 1268v73h581v-73h-581zM532 -25q-161 0 -265.5 101.5t-104.5 259.5v653h98v-641q0 -127 83 -208t212 -81q147 0 242.5 101.5t95.5 261.5v567h98v-989h-80l-12 205q-47 -108 -145 -169t-222 -61z" />
    <glyph glyph-name="Ubreve" unicode="&#x16c;" horiz-adv-x="1554" 
d="M778 1532q-119 0 -198.5 74.5t-83.5 195.5h71q4 -86 63.5 -140t147.5 -54t147.5 54t63.5 140h72q-4 -120 -83.5 -195t-199.5 -75zM778 -25q-247 0 -408 152t-161 389v860h100v-856q0 -202 133 -331.5t336 -129.5q202 0 334.5 129.5t132.5 331.5v856h101v-860
q0 -156 -73.5 -280t-203.5 -192.5t-291 -68.5z" />
    <glyph glyph-name="ubreve" unicode="&#x16d;" 
d="M578 1145q-120 0 -199.5 75t-83.5 195h72q4 -86 63.5 -140t147.5 -54t147 54t63 140h72q-4 -121 -83.5 -195.5t-198.5 -74.5zM532 -25q-161 0 -265.5 101.5t-104.5 259.5v653h98v-641q0 -127 83 -208t212 -81q147 0 242.5 101.5t95.5 261.5v567h98v-989h-80l-12 205
q-47 -108 -145 -169t-222 -61z" />
    <glyph glyph-name="Uring" unicode="&#x16e;" horiz-adv-x="1554" 
d="M782 1503q-86 0 -141 53t-55 136q0 84 53.5 136t138.5 52t139 -52t54 -136t-52.5 -136.5t-136.5 -52.5zM782 1559q57 0 93 36.5t36 96.5t-37 96.5t-96 36.5q-60 0 -96.5 -36.5t-36.5 -96.5t38.5 -96.5t98.5 -36.5zM778 -25q-247 0 -408 152t-161 389v860h100v-856
q0 -202 133 -331.5t336 -129.5q202 0 334.5 129.5t132.5 331.5v856h101v-860q0 -156 -73.5 -280t-203.5 -192.5t-291 -68.5z" />
    <glyph glyph-name="uring" unicode="&#x16f;" 
d="M582 1116q-86 0 -141.5 53t-55.5 136q0 84 54 136t139 52t138.5 -52t53.5 -136t-52 -136.5t-136 -52.5zM582 1171q57 0 93 37t36 97t-37 96.5t-96 36.5q-60 0 -97 -36.5t-37 -96.5t39 -97t99 -37zM532 -25q-161 0 -265.5 101.5t-104.5 259.5v653h98v-641q0 -127 83 -208
t212 -81q147 0 242.5 101.5t95.5 261.5v567h98v-989h-80l-12 205q-47 -108 -145 -169t-222 -61z" />
    <glyph glyph-name="Uhungarumlaut" unicode="&#x170;" horiz-adv-x="1554" 
d="M569 1530l-51 51l283 291l59 -60zM934 1530l-53 51l282 291l60 -60zM778 -25q-247 0 -408 152t-161 389v860h100v-856q0 -202 133 -331.5t336 -129.5q202 0 334.5 129.5t132.5 331.5v856h101v-860q0 -156 -73.5 -280t-203.5 -192.5t-291 -68.5z" />
    <glyph glyph-name="uhungarumlaut" unicode="&#x171;" 
d="M369 1143l-52 51l283 291l59 -60zM733 1143l-53 51l283 291l59 -60zM532 -25q-161 0 -265.5 101.5t-104.5 259.5v653h98v-641q0 -127 83 -208t212 -81q147 0 242.5 101.5t95.5 261.5v567h98v-989h-80l-12 205q-47 -108 -145 -169t-222 -61z" />
    <glyph glyph-name="Uogonek" unicode="&#x172;" horiz-adv-x="1554" 
d="M831 -451q-74 0 -123 43.5t-49 116.5q0 141 201 273q-68 -7 -110 -5q-231 6 -386 158t-155 381v860h100v-856q0 -202 133 -331.5t336 -129.5q201 0 334 131.5t133 329.5v856h101v-854q0 -119 -40.5 -213.5t-112 -164t-185.5 -134.5q-269 -154 -269 -286q0 -49 32 -78
t79 -29q48 0 88 21l20 -64q-67 -25 -127 -25z" />
    <glyph glyph-name="uogonek" unicode="&#x173;" 
d="M885 -451q-74 0 -123 43.5t-49 116.5q0 146 198 295l-12 201q-47 -108 -145 -169t-222 -61q-161 0 -265.5 101.5t-104.5 259.5v653h98v-641q0 -127 83 -208t212 -81q147 0 242.5 101.5t95.5 261.5v567h98v-989q-200 -155 -200 -276q0 -49 32 -78t78 -29q49 0 92 21
l17 -64q-64 -25 -125 -25z" />
    <glyph glyph-name="Wcircumflex" unicode="&#x174;" horiz-adv-x="2045" 
d="M788 1542l-47 51l248 242h70l248 -242l-47 -51l-236 219zM528 0l-442 1376h102l394 -1247l393 1247h98l391 -1247l394 1247h102l-442 -1376h-103l-391 1247l-393 -1247h-103z" />
    <glyph glyph-name="wcircumflex" unicode="&#x175;" horiz-adv-x="1564" 
d="M547 1155l-47 51l248 242h69l248 -242l-47 -51l-236 219zM406 0l-326 989h100l277 -868l276 868h96l277 -868l278 868h99l-326 -989h-98l-277 868l-276 -868h-100z" />
    <glyph glyph-name="Ycircumflex" unicode="&#x176;" horiz-adv-x="1204" 
d="M367 1542l-48 51l248 242h70l248 -242l-47 -51l-236 219zM551 0v604l-506 772h113l444 -680l442 680h115l-508 -772v-604h-100z" />
    <glyph glyph-name="ycircumflex" unicode="&#x177;" horiz-adv-x="1040" 
d="M285 1155l-47 51l247 242h70l248 -242l-47 -51l-236 219zM195 -451q-47 0 -127 17l16 82q59 -15 104 -15q79 0 130.5 49t97.5 166l63 158l-416 983h103l360 -872l346 872h103l-471 -1161q-59 -148 -130.5 -213.5t-178.5 -65.5z" />
    <glyph glyph-name="Ydieresis" unicode="&#x178;" horiz-adv-x="1204" 
d="M397 1620q-32 0 -52.5 20t-20.5 52t20.5 51.5t52.5 19.5t52 -19.5t20 -51.5t-20 -52t-52 -20zM807 1620q-32 0 -52 20t-20 52t20 51.5t52 19.5q33 0 53.5 -19.5t20.5 -51.5t-21 -52t-53 -20zM551 0v604l-506 772h113l444 -680l442 680h115l-508 -772v-604h-100z" />
    <glyph glyph-name="Zacute" unicode="&#x179;" horiz-adv-x="1273" 
d="M571 1540l-41 57l328 226l49 -68zM117 0v61l880 1231h-856v84h989v-61l-878 -1231h903v-84h-1038z" />
    <glyph glyph-name="zacute" unicode="&#x17a;" horiz-adv-x="968" 
d="M418 1153l-41 57l328 226l49 -68zM102 0v59l617 850h-600v80h729v-59l-615 -850h631v-80h-762z" />
    <glyph glyph-name="Zdotaccent" unicode="&#x17b;" horiz-adv-x="1273" 
d="M637 1616q-34 0 -55 21t-21 55t21 54.5t55 20.5t55 -20.5t21 -54.5t-21 -55t-55 -21zM117 0v61l880 1231h-856v84h989v-61l-878 -1231h903v-84h-1038z" />
    <glyph glyph-name="zdotaccent" unicode="&#x17c;" horiz-adv-x="968" 
d="M483 1229q-34 0 -54.5 21t-20.5 55t20.5 54.5t54.5 20.5t55 -20.5t21 -54.5t-21 -55t-55 -21zM102 0v59l617 850h-600v80h729v-59l-615 -850h631v-80h-762z" />
    <glyph glyph-name="Zcaron" unicode="&#x17d;" horiz-adv-x="1273" 
d="M602 1548l-248 244l47 49l236 -217l235 217l48 -49l-248 -244h-70zM117 0v61l880 1231h-856v84h989v-61l-878 -1231h903v-84h-1038z" />
    <glyph glyph-name="zcaron" unicode="&#x17e;" horiz-adv-x="968" 
d="M449 1161l-248 244l47 49l235 -217l236 217l47 -49l-248 -244h-69zM102 0v59l617 850h-600v80h729v-59l-615 -850h631v-80h-762z" />
    <glyph glyph-name="florin" unicode="&#x192;" horiz-adv-x="1179" 
d="M387 -25q-77 0 -172 25l14 82q84 -23 140 -23q68 0 111.5 43.5t43.5 112.5v569h-215v80h215v303q0 103 68 168.5t172 65.5q74 0 172 -25l-16 -82q-80 23 -138 23q-68 0 -112.5 -43.5t-44.5 -112.5v-297h272v-80h-272v-575q0 -103 -67 -168.5t-171 -65.5z" />
    <glyph glyph-name="uni01CD" unicode="&#x1cd;" horiz-adv-x="1357" 
d="M645 1548l-248 244l47 49l236 -217l235 217l48 -49l-248 -244h-70zM61 0l570 1376h96l569 -1376h-104l-168 410h-690l-168 -410h-105zM365 489h628l-313 766z" />
    <glyph glyph-name="uni01CE" unicode="&#x1ce;" 
d="M518 1161l-248 244l47 49l236 -217l235 217l48 -49l-248 -244h-70zM545 -25q-194 0 -318.5 146t-124.5 373q0 228 124.5 374t318.5 146q118 0 211 -56t143 -155l12 186h80v-989h-80l-12 188q-53 -102 -144.5 -157.5t-209.5 -55.5zM563 57q147 0 239.5 98t92.5 251v178
q0 153 -92.5 250.5t-239.5 97.5q-158 0 -259 -123t-101 -315q0 -191 101 -314t259 -123z" />
    <glyph glyph-name="AEacute" unicode="&#x1fc;" horiz-adv-x="1978" 
d="M1104 1540l-41 57l328 226l49 -68zM8 0l932 1376h887v-82h-742v-549h676v-81h-676v-582h775v-82h-873v410h-584l-278 -410h-117zM451 489h536v795z" />
    <glyph glyph-name="aeacute" unicode="&#x1fd;" horiz-adv-x="1771" 
d="M819 1153l-41 57l328 226l49 -68zM444 -25q-146 0 -244 82t-98 205q0 155 118.5 240.5t330.5 85.5q118 0 240 -29v131q0 109 -74 176.5t-193 67.5q-159 0 -331 -72l-27 74q187 78 366 78q133 0 224 -65t108 -171q51 111 153 173.5t236 62.5q190 0 310 -139.5t120 -360.5
q0 -29 -2 -41h-794q8 -187 120.5 -303.5t286.5 -116.5q145 0 305 86l35 -71q-179 -93 -348 -93q-150 0 -266.5 76.5t-175.5 212.5q-34 -132 -142.5 -210.5t-257.5 -78.5zM887 541h700q-3 175 -95.5 284t-238.5 109q-155 0 -255 -108t-111 -285zM459 51q148 0 240 95t92 247
v99q-123 30 -232 30q-169 0 -263.5 -67t-94.5 -187q0 -92 74.5 -154.5t183.5 -62.5z" />
    <glyph glyph-name="Oslashacute" unicode="&#x1fe;" horiz-adv-x="1554" 
d="M713 1540l-41 57l327 226l50 -68zM778 -25q-230 0 -395 131l-86 -114h-86l117 155q-101 96 -156 235t-55 306q0 207 83.5 369.5t234.5 253t343 90.5q228 0 393 -131l86 114h84l-116 -155q102 -96 157.5 -235t55.5 -306q0 -207 -84 -369.5t-234.5 -253t-341.5 -90.5z
M385 221l733 977q-140 121 -340 121q-164 0 -293 -80.5t-200.5 -224.5t-71.5 -326q0 -143 44.5 -263t127.5 -204zM778 57q247 0 405 177t158 454q0 143 -44.5 263t-127.5 204l-733 -979q144 -119 342 -119z" />
    <glyph glyph-name="oslashacute" unicode="&#x1ff;" 
d="M520 1153l-41 57l328 226l49 -68zM586 -25q-164 0 -281 93l-57 -76h-80l86 110q-152 149 -152 392q0 229 136 374.5t348 145.5q157 0 280 -92l58 75h80l-89 -114q152 -149 152 -389q0 -228 -134.5 -373.5t-346.5 -145.5zM309 176l506 678q-96 80 -229 80
q-172 0 -280.5 -122.5t-108.5 -317.5q0 -197 112 -318zM586 53q170 0 279.5 124t109.5 317q0 194 -113 317l-508 -676q98 -82 232 -82z" />
    <glyph glyph-name="Scommaaccent" unicode="&#x218;" horiz-adv-x="1175" 
d="M588 -25q-211 0 -471 109l26 80q272 -105 439 -105q169 0 272.5 76.5t103.5 200.5q0 68 -28.5 119.5t-76.5 84.5t-110.5 58t-132 45t-138.5 41t-131.5 51t-110.5 69.5t-76.5 101.5t-28.5 143q0 157 128.5 254.5t334.5 97.5q194 0 420 -92l-27 -80q-215 88 -387 88
q-165 0 -267 -74.5t-102 -193.5q0 -84 46 -143t119.5 -92t162 -58.5t177 -55.5t162 -70.5t119.5 -115t46 -178.5q0 -161 -129.5 -261t-339.5 -100zM496 -551l-31 43q127 98 127 225q-31 -5 -53.5 15.5t-22.5 52.5t20 52t52 20q37 0 59.5 -29.5t22.5 -81.5q0 -90 -45 -166.5
t-129 -130.5z" />
    <glyph glyph-name="scommaaccent" unicode="&#x219;" horiz-adv-x="903" 
d="M451 -25q-163 0 -349 76l25 76q174 -74 317 -74q117 0 187.5 53t70.5 140q0 47 -20 82.5t-54.5 58t-79 40t-93.5 31.5t-97.5 29t-93 36.5t-79 50.5t-54.5 74t-20 104q0 116 94.5 189t245.5 73q147 0 315 -68l-25 -76q-149 64 -284 64q-111 0 -180.5 -50.5t-69.5 -131.5
q0 -58 32.5 -98t85 -62.5t115.5 -40.5t126 -39.5t115.5 -51t85 -84t32.5 -130.5q0 -120 -96.5 -195.5t-251.5 -75.5zM358 -551l-30 43q127 98 127 225q-31 -5 -53.5 15.5t-22.5 52.5t20 52t52 20q37 0 59 -29.5t22 -81.5q0 -90 -45 -166.5t-129 -130.5z" />
    <glyph glyph-name="uni021A" unicode="&#x21a;" horiz-adv-x="1218" 
d="M559 0v1292h-500v84h1100v-84h-500v-1292h-100zM516 -551l-31 43q127 98 127 225q-31 -4 -53 16t-22 52t19.5 52t51.5 20q37 0 59.5 -29.5t22.5 -81.5q0 -90 -45 -166.5t-129 -130.5z" />
    <glyph glyph-name="uni021B" unicode="&#x21b;" horiz-adv-x="804" 
d="M549 -25q-120 0 -196.5 75.5t-76.5 193.5v665h-217v80h217v295h99v-295h338v-80h-338v-659q0 -85 53.5 -138t138.5 -53q72 0 148 23l16 -80q-91 -27 -182 -27zM389 -551l-31 43q127 98 127 225q-31 -4 -53 16t-22 52t19.5 52t51.5 20q37 0 59.5 -29.5t22.5 -81.5
q0 -90 -45 -166.5t-129 -130.5z" />
    <glyph glyph-name="uni0237" unicode="&#x237;" horiz-adv-x="471" 
d="M20 -451q-88 0 -182 27l17 80q76 -23 147 -23q86 0 139.5 53t53.5 138v1165h98v-1171q0 -118 -76.5 -193.5t-196.5 -75.5z" />
    <glyph glyph-name="circumflex" unicode="&#x2c6;" horiz-adv-x="491" 
d="M10 1155l-47 51l248 242h70l247 -242l-47 -51l-235 219z" />
    <glyph glyph-name="caron" unicode="&#x2c7;" horiz-adv-x="491" 
d="M211 1161l-248 244l47 49l236 -217l235 217l47 -49l-247 -244h-70z" />
    <glyph glyph-name="breve" unicode="&#x2d8;" horiz-adv-x="491" 
d="M246 1145q-120 0 -199.5 75t-83.5 195h72q4 -86 63.5 -140t147.5 -54t147.5 54t63.5 140h71q-4 -121 -83.5 -195.5t-198.5 -74.5z" />
    <glyph glyph-name="dotaccent" unicode="&#x2d9;" horiz-adv-x="491" 
d="M246 1229q-34 0 -55 21t-21 55t21 54.5t55 20.5t55 -20.5t21 -54.5t-21 -55t-55 -21z" />
    <glyph glyph-name="ring" unicode="&#x2da;" horiz-adv-x="491" 
d="M250 1116q-86 0 -141.5 53t-55.5 136q0 84 54 136t139 52t138.5 -52t53.5 -136t-52 -136.5t-136 -52.5zM250 1171q57 0 93 37t36 97t-37 96.5t-96 36.5q-60 0 -96.5 -36.5t-36.5 -96.5t38.5 -97t98.5 -37z" />
    <glyph glyph-name="ogonek" unicode="&#x2db;" horiz-adv-x="491" 
d="M188 -451q-74 0 -123 43.5t-49 116.5q0 153 228 318l51 -27q-201 -156 -201 -276q0 -49 32.5 -78t78.5 -29q49 0 92 21l16 -64q-64 -25 -125 -25z" />
    <glyph glyph-name="tilde" unicode="&#x2dc;" horiz-adv-x="491" 
d="M29 1229l-70 20q15 59 57.5 96t98.5 37q46 0 134.5 -39.5t121.5 -39.5q67 0 92 79l69 -22q-15 -59 -57 -95t-98 -36q-46 0 -134.5 39t-121.5 39q-32 0 -57 -20.5t-35 -57.5z" />
    <glyph glyph-name="hungarumlaut" unicode="&#x2dd;" horiz-adv-x="491" 
d="M37 1143l-51 51l282 291l60 -60zM401 1143l-53 51l283 291l59 -60z" />
    <glyph glyph-name="gravecomb" unicode="&#x300;" horiz-adv-x="0" 
d="M-174 1153l-336 215l49 68l326 -226z" />
    <glyph glyph-name="acutecomb" unicode="&#x301;" horiz-adv-x="0" 
d="M-311 1153l-41 57l327 226l50 -68z" />
    <glyph glyph-name="uni0302" unicode="&#x302;" horiz-adv-x="0" 
d="M-481 1155l-47 51l247 242h70l248 -242l-47 -51l-236 219z" />
    <glyph glyph-name="tildecomb" unicode="&#x303;" horiz-adv-x="0" 
d="M-463 1229l-69 20q15 60 57 96.5t98 36.5q46 0 134.5 -39.5t121.5 -39.5q67 0 92 79l70 -22q-15 -59 -57.5 -95t-98.5 -36q-46 0 -134.5 39t-121.5 39q-32 0 -57 -20.5t-35 -57.5z" />
    <glyph glyph-name="uni0304" unicode="&#x304;" horiz-adv-x="0" 
d="M-537 1268v73h582v-73h-582z" />
    <glyph glyph-name="uni0306" unicode="&#x306;" horiz-adv-x="0" 
d="M-246 1145q-119 0 -198.5 74.5t-83.5 195.5h71q4 -86 63.5 -140t147.5 -54t147.5 54t63.5 140h72q-4 -120 -83.5 -195t-199.5 -75z" />
    <glyph glyph-name="uni0307" unicode="&#x307;" horiz-adv-x="0" 
d="M-246 1229q-34 0 -55 21t-21 55t21 54.5t55 20.5t55 -20.5t21 -54.5t-21 -55t-55 -21z" />
    <glyph glyph-name="uni0308" unicode="&#x308;" horiz-adv-x="0" 
d="M-451 1233q-32 0 -52.5 20t-20.5 52t20.5 51.5t52.5 19.5t52 -19.5t20 -51.5t-20 -52t-52 -20zM-41 1233q-32 0 -52 20t-20 52t20 51.5t52 19.5q33 0 53.5 -19.5t20.5 -51.5t-21 -52t-53 -20z" />
    <glyph glyph-name="uni030A" unicode="&#x30a;" horiz-adv-x="0" 
d="M-242 1116q-86 0 -141 53t-55 136q0 84 53.5 136t138.5 52t139 -52t54 -136t-52.5 -136.5t-136.5 -52.5zM-242 1171q57 0 93 37t36 97t-37 96.5t-96 36.5q-60 0 -96.5 -36.5t-36.5 -96.5t38.5 -97t98.5 -37z" />
    <glyph glyph-name="uni030B" unicode="&#x30b;" horiz-adv-x="0" 
d="M-455 1143l-51 51l283 291l59 -60zM-90 1143l-53 51l282 291l60 -60z" />
    <glyph glyph-name="uni030C" unicode="&#x30c;" horiz-adv-x="0" 
d="M-281 1161l-247 244l47 49l235 -217l236 217l47 -49l-248 -244h-70z" />
    <glyph glyph-name="uni0326" unicode="&#x326;" horiz-adv-x="0" 
d="M-338 -551l-31 43q127 98 127 225q-31 -4 -53 16t-22 52t19.5 52t51.5 20q37 0 59.5 -29.5t22.5 -81.5q0 -90 -45 -166.5t-129 -130.5z" />
    <glyph glyph-name="uni0327" unicode="&#x327;" horiz-adv-x="0" 
d="M-268 -451q-91 0 -176 33l22 64q82 -29 146 -29q58 0 95.5 28t37.5 74q0 44 -39 72.5t-99 28.5h-18l33 180h73l-22 -131q66 -6 110 -51t44 -107q0 -71 -58.5 -116.5t-148.5 -45.5z" />
    <glyph glyph-name="uni0328" unicode="&#x328;" horiz-adv-x="0" 
d="M-303 -451q-74 0 -123 43.5t-49 116.5q0 154 227 318l51 -27q-200 -155 -200 -276q0 -49 32 -78t78 -29q49 0 92 21l17 -64q-64 -25 -125 -25z" />
    <glyph glyph-name="uni0394" unicode="&#x394;" horiz-adv-x="1357" 
d="M80 0v57l551 1319h96l551 -1319v-57h-1198zM190 84h977l-487 1171z" />
    <glyph glyph-name="uni03A9" unicode="&#x3a9;" horiz-adv-x="1591" 
d="M119 0v84h403q-179 117 -272.5 284.5t-93.5 370.5q0 292 178.5 477t460.5 185q186 0 332.5 -84t227.5 -235t81 -343q0 -203 -94.5 -370.5t-274.5 -284.5h403v-84h-538v72q403 251 403 663q0 257 -150.5 419.5t-389.5 162.5q-238 0 -388.5 -162.5t-150.5 -419.5
q0 -414 403 -663v-72h-540z" />
    <glyph glyph-name="uni03BC" unicode="&#x3bc;" horiz-adv-x="1220" 
d="M178 -426v1415h98v-641q0 -128 82.5 -208.5t212.5 -80.5q147 0 242.5 101.5t95.5 261.5v567h99v-829q0 -46 27 -73.5t71 -27.5q26 0 57 7l13 -80q-50 -11 -86 -11q-78 0 -126.5 46t-48.5 122v43q-48 -99 -139 -155t-207 -56q-100 0 -176 38t-117 110v-549h-98z" />
    <glyph glyph-name="pi" unicode="&#x3c0;" horiz-adv-x="1302" 
d="M1090 -25q-87 0 -140 53t-53 140v741h-524v-909h-97v909h-217v80h1149v-80h-217v-735q0 -53 31.5 -84t83.5 -31q38 0 72 9l12 -80q-54 -13 -100 -13z" />
    <glyph glyph-name="Wgrave" unicode="&#x1e80;" horiz-adv-x="2045" 
d="M1096 1540l-336 215l49 68l326 -226zM528 0l-442 1376h102l394 -1247l393 1247h98l391 -1247l394 1247h102l-442 -1376h-103l-391 1247l-393 -1247h-103z" />
    <glyph glyph-name="wgrave" unicode="&#x1e81;" horiz-adv-x="1564" 
d="M854 1153l-336 215l49 68l326 -226zM406 0l-326 989h100l277 -868l276 868h96l277 -868l278 868h99l-326 -989h-98l-277 868l-276 -868h-100z" />
    <glyph glyph-name="Wacute" unicode="&#x1e82;" horiz-adv-x="2045" 
d="M958 1540l-40 57l327 226l49 -68zM528 0l-442 1376h102l394 -1247l393 1247h98l391 -1247l394 1247h102l-442 -1376h-103l-391 1247l-393 -1247h-103z" />
    <glyph glyph-name="wacute" unicode="&#x1e83;" horiz-adv-x="1564" 
d="M717 1153l-41 57l328 226l49 -68zM406 0l-326 989h100l277 -868l276 868h96l277 -868l278 868h99l-326 -989h-98l-277 868l-276 -868h-100z" />
    <glyph glyph-name="Wdieresis" unicode="&#x1e84;" horiz-adv-x="2045" 
d="M819 1620q-32 0 -53 20t-21 52t20.5 51.5t53.5 19.5q32 0 52 -19.5t20 -51.5t-20 -52t-52 -20zM1229 1620q-32 0 -52 20t-20 52t20 51.5t52 19.5q33 0 53.5 -19.5t20.5 -51.5t-21 -52t-53 -20zM528 0l-442 1376h102l394 -1247l393 1247h98l391 -1247l394 1247h102
l-442 -1376h-103l-391 1247l-393 -1247h-103z" />
    <glyph glyph-name="wdieresis" unicode="&#x1e85;" horiz-adv-x="1564" 
d="M578 1233q-32 0 -53 20t-21 52t20.5 51.5t53.5 19.5q32 0 51.5 -19.5t19.5 -51.5t-19.5 -52t-51.5 -20zM987 1233q-32 0 -52 20t-20 52t20 51.5t52 19.5q33 0 53.5 -19.5t20.5 -51.5t-21 -52t-53 -20zM406 0l-326 989h100l277 -868l276 868h96l277 -868l278 868h99
l-326 -989h-98l-277 868l-276 -868h-100z" />
    <glyph glyph-name="uni1E9E" unicode="&#x1e9e;" horiz-adv-x="1554" 
d="M975 -25q-200 0 -385 109l39 80q176 -105 340 -105q155 0 254.5 92.5t99.5 237.5q0 149 -107.5 243.5t-279.5 94.5h-41l-18 53l376 512h-929v-1292h-99v1376h1147v-61l-377 -514q192 -12 309 -125.5t117 -286.5q0 -181 -125.5 -297.5t-320.5 -116.5z" />
    <glyph glyph-name="Ygrave" unicode="&#x1ef2;" horiz-adv-x="1204" 
d="M674 1540l-336 215l49 68l326 -226zM551 0v604l-506 772h113l444 -680l442 680h115l-508 -772v-604h-100z" />
    <glyph glyph-name="ygrave" unicode="&#x1ef3;" horiz-adv-x="1040" 
d="M592 1153l-336 215l49 68l326 -226zM195 -451q-47 0 -127 17l16 82q59 -15 104 -15q79 0 130.5 49t97.5 166l63 158l-416 983h103l360 -872l346 872h103l-471 -1161q-59 -148 -130.5 -213.5t-178.5 -65.5z" />
    <glyph glyph-name="uni2002" unicode="&#x2002;" horiz-adv-x="983" 
 />
    <glyph glyph-name="uni2003" unicode="&#x2003;" horiz-adv-x="1966" 
 />
    <glyph glyph-name="uni2009" unicode="&#x2009;" horiz-adv-x="393" 
 />
    <glyph glyph-name="uni200A" unicode="&#x200a;" horiz-adv-x="122" 
 />
    <glyph glyph-name="endash" unicode="&#x2013;" horiz-adv-x="983" 
d="M59 467v80h865v-80h-865z" />
    <glyph glyph-name="emdash" unicode="&#x2014;" horiz-adv-x="1966" 
d="M59 467v80h1848v-80h-1848z" />
    <glyph glyph-name="quoteleft" unicode="&#x2018;" horiz-adv-x="483" 
d="M242 926q-43 0 -67.5 34t-24.5 93q0 103 52 193t148 153l35 -47q-152 -116 -152 -269q36 5 63.5 -17.5t27.5 -57.5t-23.5 -58.5t-58.5 -23.5z" />
    <glyph glyph-name="quoteright" unicode="&#x2019;" horiz-adv-x="483" 
d="M133 922l-35 47q152 116 152 268q-37 -4 -63.5 18.5t-26.5 57.5q0 36 23 59t59 23q42 0 67 -34.5t25 -92.5q0 -102 -52.5 -192.5t-148.5 -153.5z" />
    <glyph glyph-name="quotesinglbase" unicode="&#x201a;" horiz-adv-x="417" 
d="M133 -328l-35 47q152 116 152 269q-37 -5 -63.5 17.5t-26.5 57.5q0 36 23 59t59 23q42 0 67 -34.5t25 -92.5q0 -102 -52.5 -192.5t-148.5 -153.5z" />
    <glyph glyph-name="quotedblleft" unicode="&#x201c;" horiz-adv-x="845" 
d="M242 926q-43 0 -67.5 34t-24.5 93q0 103 52 193t148 153l35 -47q-152 -116 -152 -269q36 5 63.5 -17.5t27.5 -57.5t-23.5 -58.5t-58.5 -23.5zM606 926q-43 0 -67.5 34t-24.5 93q0 103 52 193t149 153l35 -47q-152 -116 -152 -269q36 5 63 -17.5t27 -57.5t-23.5 -58.5
t-58.5 -23.5z" />
    <glyph glyph-name="quotedblright" unicode="&#x201d;" horiz-adv-x="845" 
d="M133 922l-35 47q152 116 152 268q-37 -4 -63.5 18.5t-26.5 57.5q0 36 23 59t59 23q42 0 67 -34.5t25 -92.5q0 -102 -52.5 -192.5t-148.5 -153.5zM496 922l-35 47q151 115 151 268q-37 -4 -63.5 18.5t-26.5 57.5q0 36 23 59t59 23q42 0 67 -34.5t25 -92.5
q0 -103 -52.5 -193t-147.5 -153z" />
    <glyph glyph-name="quotedblbase" unicode="&#x201e;" horiz-adv-x="845" 
d="M133 -328l-35 47q152 116 152 269q-37 -5 -63.5 17.5t-26.5 57.5q0 36 23 59t59 23q42 0 67 -34.5t25 -92.5q0 -102 -52.5 -192.5t-148.5 -153.5zM496 -328l-35 47q151 115 151 269q-37 -5 -63.5 17.5t-26.5 57.5q0 36 23 59t59 23q42 0 67 -34.5t25 -92.5
q0 -103 -52.5 -193t-147.5 -153z" />
    <glyph glyph-name="dagger" unicode="&#x2020;" horiz-adv-x="995" 
d="M457 0v932h-365v80h365v364h80v-364h366v-80h-366v-932h-80z" />
    <glyph glyph-name="daggerdbl" unicode="&#x2021;" horiz-adv-x="995" 
d="M457 0v365h-365v79h365v488h-365v80h365v364h80v-364h366v-80h-366v-488h366v-79h-366v-365h-80z" />
    <glyph glyph-name="bullet" unicode="&#x2022;" horiz-adv-x="983" 
d="M492 295q-123 0 -209 86t-86 209t86 209t209 86t208.5 -86t85.5 -209t-85.5 -209t-208.5 -86z" />
    <glyph glyph-name="ellipsis" unicode="&#x2026;" horiz-adv-x="1966" 
d="M328 -18q-35 0 -58.5 23t-23.5 58t23.5 58.5t58.5 23.5t58.5 -23.5t23.5 -58.5t-23.5 -58t-58.5 -23zM983 -18q-35 0 -58.5 23t-23.5 58t23.5 58.5t58.5 23.5t58.5 -23.5t23.5 -58.5t-23.5 -58t-58.5 -23zM1638 -18q-35 0 -58.5 23t-23.5 58t23.5 58.5t58.5 23.5
t58.5 -23.5t23.5 -58.5t-23.5 -58t-58.5 -23z" />
    <glyph glyph-name="perthousand" unicode="&#x2030;" horiz-adv-x="2541" 
d="M428 664q-143 0 -234.5 103t-91.5 265q0 161 92 265t234 104q143 0 235.5 -104t92.5 -265q0 -162 -92.5 -265t-235.5 -103zM324 0l1032 1376h90l-1032 -1376h-90zM428 731q110 0 179 83t69 218q0 134 -69 217.5t-179 83.5q-109 0 -177.5 -84t-68.5 -217q0 -135 68.5 -218
t177.5 -83zM1341 -25q-145 0 -236 103t-91 266q0 162 91.5 265.5t235.5 103.5q142 0 234 -104t92 -265q0 -162 -91.5 -265.5t-234.5 -103.5zM2111 -25q-143 0 -234 103t-91 266q0 161 91.5 265t233.5 104t234 -104t92 -265q0 -162 -91.5 -265.5t-234.5 -103.5zM1341 43
q109 0 177.5 83t68.5 218q0 133 -68.5 217t-177.5 84q-110 0 -178.5 -83.5t-68.5 -217.5q0 -135 68.5 -218t178.5 -83zM2111 43q109 0 178.5 83.5t69.5 217.5q0 133 -69.5 217t-178.5 84t-178 -84t-69 -217q0 -134 69 -217.5t178 -83.5z" />
    <glyph glyph-name="guilsinglleft" unicode="&#x2039;" horiz-adv-x="614" 
d="M467 33l-404 448v51l404 449l59 -49l-364 -426l364 -424z" />
    <glyph glyph-name="guilsinglright" unicode="&#x203a;" horiz-adv-x="614" 
d="M145 33l-59 49l367 424l-367 426l59 49l406 -449v-51z" />
    <glyph glyph-name="fraction" unicode="&#x2044;" horiz-adv-x="393" 
d="M-365 0l1033 1376h90l-1032 -1376h-91z" />
    <glyph glyph-name="Euro" unicode="&#x20ac;" horiz-adv-x="1179" 
d="M786 -25q-210 0 -357.5 148.5t-188.5 398.5h-164v70h157q-6 46 -6 96q0 68 9 129h-160v70h172q46 235 190.5 374.5t347.5 139.5q177 0 342 -92l-38 -72q-148 82 -295 82q-168 0 -288 -117.5t-159 -314.5h539v-70h-557q-6 -61 -6 -129q0 -34 4 -96h559v-70h-547
q34 -212 156.5 -338.5t298.5 -126.5q147 0 295 82l38 -71q-167 -93 -342 -93z" />
    <glyph glyph-name="uni2105" unicode="&#x2105;" horiz-adv-x="1716" 
d="M377 -23l-55 46l1032 1376l55 -45zM412 702q-141 0 -233.5 97.5t-92.5 247.5q0 152 92 249t234 97q106 0 221 -72l-35 -59q-88 63 -178 63q-113 0 -184.5 -77.5t-71.5 -200.5t71.5 -200t184.5 -77q92 0 178 59l35 -55q-110 -72 -221 -72zM1305 -16q-143 0 -234.5 96.5
t-91.5 249.5q0 152 91.5 248t234.5 96t234 -96t91 -248q0 -153 -91 -249.5t-234 -96.5zM1305 51q108 0 176.5 77.5t68.5 201.5q0 123 -68.5 200.5t-176.5 77.5t-177 -77.5t-69 -200.5q0 -124 69 -201.5t177 -77.5z" />
    <glyph glyph-name="uni2113" unicode="&#x2113;" horiz-adv-x="749" 
d="M451 -25q-119 0 -196 75.5t-77 193.5v917q0 136 71.5 220.5t188.5 84.5q109 0 180.5 -85.5t71.5 -215.5q0 -169 -111 -332t-309 -290v-293q0 -85 54 -138t139 -53q64 0 151 23l17 -80q-91 -27 -180 -27zM270 637q162 112 251 246t89 274q0 98 -47.5 161.5t-122.5 63.5
t-122.5 -62.5t-47.5 -160.5v-522z" />
    <glyph glyph-name="uni2116" unicode="&#x2116;" horiz-adv-x="2377" 
d="M1966 705q-143 0 -234.5 96.5t-91.5 249.5q0 152 91.5 248t234.5 96t234.5 -96t91.5 -248q0 -153 -91.5 -249.5t-234.5 -96.5zM225 0v1376h101l909 -1235v1235h94v-1376h-100l-910 1235v-1235h-94zM1966 772q108 0 177 77.5t69 201.5q0 123 -69 200.5t-177 77.5
t-177 -77.5t-69 -200.5q0 -124 69 -201.5t177 -77.5zM1647 489v64h639v-64h-639z" />
    <glyph glyph-name="uni2117" unicode="&#x2117;" horiz-adv-x="1703" 
d="M852 -66q-218 0 -390 96t-268 268t-96 390t96 390t268 268t390 96t390 -96t268 -268t96 -390t-96 -390t-268 -268t-390 -96zM852 -4q304 0 498 194t194 498t-194 498t-498 194t-498 -194t-194 -498t194 -498t498 -194zM604 262v852h311q124 0 201.5 -73t77.5 -191
q0 -117 -78 -189.5t-201 -72.5h-235v-326h-76zM680 653h229q93 0 151 54t58 143t-58 144t-151 55h-229v-396z" />
    <glyph glyph-name="uni2120" unicode="&#x2120;" horiz-adv-x="1886" 
d="M385 508q-151 0 -295 65l25 64q142 -62 266 -62q100 0 160.5 44.5t60.5 117.5q0 50 -28 85t-72 54.5t-98 35.5t-108 34t-98 43t-72 71t-28 109q0 98 79.5 161t207.5 63q127 0 270 -58l-24 -63q-133 53 -242 53q-96 0 -154.5 -44t-58.5 -112q0 -49 28 -83.5t72 -53.5
t98 -34.5t108 -34t98 -43.5t72 -71.5t28 -111.5q0 -103 -81.5 -166t-213.5 -63zM924 524v852h82l323 -438l322 438h82v-852h-76v742l-303 -414h-51l-306 414v-742h-73z" />
    <glyph glyph-name="trademark" unicode="&#x2122;" horiz-adv-x="1914" 
d="M358 524v785h-305v67h692v-67h-307v-785h-80zM952 524v852h82l322 -438l323 438h82v-852h-75v742l-306 -414h-49l-305 414v-742h-74z" />
    <glyph glyph-name="uni2126" unicode="&#x2126;" horiz-adv-x="1591" 
d="M119 0v84h403q-179 117 -272.5 284.5t-93.5 370.5q0 292 178.5 477t460.5 185q186 0 332.5 -84t227.5 -235t81 -343q0 -203 -94.5 -370.5t-274.5 -284.5h403v-84h-538v72q403 251 403 663q0 257 -150.5 419.5t-389.5 162.5q-238 0 -388.5 -162.5t-150.5 -419.5
q0 -414 403 -663v-72h-540z" />
    <glyph glyph-name="estimated" unicode="&#x212e;" horiz-adv-x="1966" 
d="M983 -33q-160 0 -305.5 57.5t-250.5 154t-167.5 230t-62.5 279.5t62.5 279.5t167.5 230t250.5 154t305.5 57.5t305.5 -57.5t250.5 -154t167.5 -230t62.5 -279.5q0 -23 -2 -33h-1275v-401q91 -104 218 -162.5t273 -58.5q147 0 276.5 60.5t221.5 168.5h135
q-110 -136 -276 -215.5t-357 -79.5zM492 721h983v401q-93 103 -221 162t-271 59q-145 0 -272.5 -59t-218.5 -162v-401z" />
    <glyph glyph-name="uni2153" unicode="&#x2153;" horiz-adv-x="1966" 
d="M422 524v770l-227 -131l-31 56l270 157h66v-852h-78zM422 0l1032 1376h90l-1032 -1376h-90zM1552 -16q-135 0 -268 65l31 62q118 -62 227 -62q89 0 144 49t55 127q0 80 -65 130.5t-169 50.5h-51v61h51q95 0 155 47.5t60 122.5q0 74 -49.5 120t-130.5 46q-105 0 -215 -55
l-29 61q123 59 254 59q110 0 179 -63t69 -162q0 -73 -43 -129t-115 -76q81 -24 130 -83t49 -136q0 -104 -74.5 -169.5t-194.5 -65.5z" />
    <glyph glyph-name="uni2154" unicode="&#x2154;" horiz-adv-x="1966" 
d="M98 524v51l346 349q105 102 105 211q0 85 -51.5 136.5t-137.5 51.5q-102 0 -219 -74l-35 60q137 84 265 84q114 0 185 -69.5t71 -178.5q0 -138 -119 -254l-297 -299h428v-68h-541zM422 0l1032 1376h90l-1032 -1376h-90zM1552 -16q-135 0 -268 65l31 62q118 -62 227 -62
q89 0 144 49t55 127q0 80 -65 130.5t-169 50.5h-51v61h51q95 0 155 47.5t60 122.5q0 74 -49.5 120t-130.5 46q-105 0 -215 -55l-29 61q123 59 254 59q110 0 179 -63t69 -162q0 -73 -43 -129t-115 -76q81 -24 130 -83t49 -136q0 -104 -74.5 -169.5t-194.5 -65.5z" />
    <glyph glyph-name="uni2155" unicode="&#x2155;" horiz-adv-x="1966" 
d="M422 524v770l-227 -131l-31 56l270 157h66v-852h-78zM422 0l1032 1376h90l-1032 -1376h-90zM1546 -16q-126 0 -254 75l33 60q106 -68 217 -68q98 0 157.5 54.5t59.5 142.5q0 91 -58.5 143.5t-162.5 52.5q-82 0 -195 -22v430h461v-66h-389v-292q77 12 141 12
q129 0 205 -70.5t76 -187.5q0 -116 -80.5 -190t-210.5 -74z" />
    <glyph glyph-name="uni2156" unicode="&#x2156;" horiz-adv-x="1966" 
d="M98 524v51l346 349q105 102 105 211q0 85 -51.5 136.5t-137.5 51.5q-102 0 -219 -74l-35 60q137 84 265 84q114 0 185 -69.5t71 -178.5q0 -138 -119 -254l-297 -299h428v-68h-541zM422 0l1032 1376h90l-1032 -1376h-90zM1546 -16q-126 0 -254 75l33 60q106 -68 217 -68
q98 0 157.5 54.5t59.5 142.5q0 91 -58.5 143.5t-162.5 52.5q-82 0 -195 -22v430h461v-66h-389v-292q77 12 141 12q129 0 205 -70.5t76 -187.5q0 -116 -80.5 -190t-210.5 -74z" />
    <glyph glyph-name="uni2157" unicode="&#x2157;" horiz-adv-x="1966" 
d="M373 508q-136 0 -269 65l31 62q118 -62 227 -62q89 0 144 49.5t55 127.5q0 80 -64.5 130t-168.5 50h-52v61h52q95 0 155 47.5t60 122.5q0 74 -50 120t-131 46q-105 0 -215 -55l-28 61q126 60 254 60q110 0 179 -63.5t69 -162.5q0 -73 -43 -128.5t-115 -75.5
q80 -23 129 -83t49 -137q0 -104 -74 -169.5t-194 -65.5zM422 0l1032 1376h90l-1032 -1376h-90zM1546 -16q-126 0 -254 75l33 60q106 -68 217 -68q98 0 157.5 54.5t59.5 142.5q0 91 -58.5 143.5t-162.5 52.5q-82 0 -195 -22v430h461v-66h-389v-292q77 12 141 12
q129 0 205 -70.5t76 -187.5q0 -116 -80.5 -190t-210.5 -74z" />
    <glyph glyph-name="uni2158" unicode="&#x2158;" horiz-adv-x="1966" 
d="M492 524v205h-420v55l417 592h74v-583h139v-64h-139v-205h-71zM422 0l1032 1376h90l-1032 -1376h-90zM152 793h340v481zM1546 -16q-126 0 -254 75l33 60q106 -68 217 -68q98 0 157.5 54.5t59.5 142.5q0 91 -58.5 143.5t-162.5 52.5q-82 0 -195 -22v430h461v-66h-389v-292
q77 12 141 12q129 0 205 -70.5t76 -187.5q0 -116 -80.5 -190t-210.5 -74z" />
    <glyph glyph-name="uni2159" unicode="&#x2159;" horiz-adv-x="1966" 
d="M422 524v770l-227 -131l-31 56l270 157h66v-852h-78zM422 0l1032 1376h90l-1032 -1376h-90zM1591 -16q-140 0 -218.5 101.5t-78.5 289.5q0 235 88 364t254 129q98 0 199 -49l-29 -59q-82 43 -168 43q-131 0 -199.5 -105.5t-70.5 -302.5q29 66 93 106t143 40
q121 0 195.5 -75.5t74.5 -199.5q0 -122 -82.5 -202t-200.5 -80zM1591 49q87 0 149 60.5t62 154.5q0 97 -58 155t-151 58q-90 0 -152.5 -56.5t-62.5 -137.5q0 -99 57.5 -166.5t155.5 -67.5z" />
    <glyph glyph-name="uni215A" unicode="&#x215a;" horiz-adv-x="1966" 
d="M367 508q-125 0 -254 76l32 59q106 -68 217 -68q98 0 158 54.5t60 142.5q0 91 -59 144t-163 53q-76 0 -194 -23v430h461v-65h-389v-293q76 12 141 12q129 0 204.5 -70.5t75.5 -187.5q0 -116 -80 -190t-210 -74zM422 0l1032 1376h90l-1032 -1376h-90zM1591 -16
q-140 0 -218.5 101.5t-78.5 289.5q0 235 88 364t254 129q98 0 199 -49l-29 -59q-82 43 -168 43q-131 0 -199.5 -105.5t-70.5 -302.5q29 66 93 106t143 40q121 0 195.5 -75.5t74.5 -199.5q0 -122 -82.5 -202t-200.5 -80zM1591 49q87 0 149 60.5t62 154.5q0 97 -58 155
t-151 58q-90 0 -152.5 -56.5t-62.5 -137.5q0 -99 57.5 -166.5t155.5 -67.5z" />
    <glyph glyph-name="oneeighth" unicode="&#x215b;" horiz-adv-x="1966" 
d="M422 524v770l-227 -131l-31 56l270 157h66v-852h-78zM422 0l1032 1376h90l-1032 -1376h-90zM1573 -16q-131 0 -213 65t-82 170q0 80 53.5 138.5t151.5 78.5q-84 19 -134.5 75.5t-50.5 133.5q0 98 77.5 160.5t197.5 62.5q121 0 197.5 -62.5t76.5 -160.5q0 -78 -50 -135
t-132 -74q96 -20 149.5 -78.5t53.5 -138.5q0 -106 -81.5 -170.5t-213.5 -64.5zM1573 467q90 12 144.5 57.5t54.5 116.5q0 72 -55.5 118t-143.5 46t-144.5 -46t-56.5 -118q0 -71 55.5 -116t145.5 -58zM1573 45q98 0 158.5 49t60.5 129q0 73 -59 121t-160 62
q-101 -14 -160 -62t-59 -121q0 -79 61 -128.5t158 -49.5z" />
    <glyph glyph-name="threeeighths" unicode="&#x215c;" horiz-adv-x="1966" 
d="M373 508q-136 0 -269 65l31 62q118 -62 227 -62q89 0 144 49.5t55 127.5q0 80 -64.5 130t-168.5 50h-52v61h52q95 0 155 47.5t60 122.5q0 74 -50 120t-131 46q-105 0 -215 -55l-28 61q126 60 254 60q110 0 179 -63.5t69 -162.5q0 -73 -43 -128.5t-115 -75.5
q80 -23 129 -83t49 -137q0 -104 -74 -169.5t-194 -65.5zM422 0l1032 1376h90l-1032 -1376h-90zM1573 -16q-131 0 -213 65t-82 170q0 80 53.5 138.5t151.5 78.5q-84 19 -134.5 75.5t-50.5 133.5q0 98 77.5 160.5t197.5 62.5q121 0 197.5 -62.5t76.5 -160.5q0 -78 -50 -135
t-132 -74q96 -20 149.5 -78.5t53.5 -138.5q0 -106 -81.5 -170.5t-213.5 -64.5zM1573 467q90 12 144.5 57.5t54.5 116.5q0 72 -55.5 118t-143.5 46t-144.5 -46t-56.5 -118q0 -71 55.5 -116t145.5 -58zM1573 45q98 0 158.5 49t60.5 129q0 73 -59 121t-160 62
q-101 -14 -160 -62t-59 -121q0 -79 61 -128.5t158 -49.5z" />
    <glyph glyph-name="fiveeighths" unicode="&#x215d;" horiz-adv-x="1966" 
d="M367 508q-125 0 -254 76l32 59q106 -68 217 -68q98 0 158 54.5t60 142.5q0 91 -59 144t-163 53q-76 0 -194 -23v430h461v-65h-389v-293q76 12 141 12q129 0 204.5 -70.5t75.5 -187.5q0 -116 -80 -190t-210 -74zM422 0l1032 1376h90l-1032 -1376h-90zM1573 -16
q-131 0 -213 65t-82 170q0 80 53.5 138.5t151.5 78.5q-84 19 -134.5 75.5t-50.5 133.5q0 98 77.5 160.5t197.5 62.5q121 0 197.5 -62.5t76.5 -160.5q0 -78 -50 -135t-132 -74q96 -20 149.5 -78.5t53.5 -138.5q0 -106 -81.5 -170.5t-213.5 -64.5zM1573 467q90 12 144.5 57.5
t54.5 116.5q0 72 -55.5 118t-143.5 46t-144.5 -46t-56.5 -118q0 -71 55.5 -116t145.5 -58zM1573 45q98 0 158.5 49t60.5 129q0 73 -59 121t-160 62q-101 -14 -160 -62t-59 -121q0 -79 61 -128.5t158 -49.5z" />
    <glyph glyph-name="seveneighths" unicode="&#x215e;" horiz-adv-x="1966" 
d="M274 524l344 785h-440v67h527v-51l-347 -801h-84zM422 0l1032 1376h90l-1032 -1376h-90zM1573 -16q-131 0 -213 65t-82 170q0 80 53.5 138.5t151.5 78.5q-84 19 -134.5 75.5t-50.5 133.5q0 98 77.5 160.5t197.5 62.5q121 0 197.5 -62.5t76.5 -160.5q0 -78 -50 -135
t-132 -74q96 -20 149.5 -78.5t53.5 -138.5q0 -106 -81.5 -170.5t-213.5 -64.5zM1573 467q90 12 144.5 57.5t54.5 116.5q0 72 -55.5 118t-143.5 46t-144.5 -46t-56.5 -118q0 -71 55.5 -116t145.5 -58zM1573 45q98 0 158.5 49t60.5 129q0 73 -59 121t-160 62
q-101 -14 -160 -62t-59 -121q0 -79 61 -128.5t158 -49.5z" />
    <glyph glyph-name="uni215F" unicode="&#x215f;" horiz-adv-x="1179" 
d="M422 524v770l-227 -131l-31 56l270 157h66v-852h-78zM422 0l1032 1376h90l-1032 -1376h-90z" />
    <glyph glyph-name="arrowleft" unicode="&#x2190;" horiz-adv-x="1966" 
d="M707 -51l-641 641l641 641l67 -66l-541 -530h1668v-90h-1668l541 -531z" />
    <glyph glyph-name="arrowup" unicode="&#x2191;" horiz-adv-x="1966" 
d="M938 -328v1667l-530 -540l-66 67l641 641l641 -641l-65 -67l-531 540v-1667h-90z" />
    <glyph glyph-name="arrowright" unicode="&#x2192;" horiz-adv-x="1966" 
d="M1260 -51l-68 65l541 531h-1667v90h1667l-541 530l68 66l641 -641z" />
    <glyph glyph-name="arrowdown" unicode="&#x2193;" horiz-adv-x="1966" 
d="M983 -328l-641 641l66 68l530 -541v1667h90v-1667l531 541l65 -68z" />
    <glyph glyph-name="partialdiff" unicode="&#x2202;" 
d="M573 -25q-206 0 -338.5 151t-132.5 388q0 218 129 359t326 141q132 0 234 -61t157 -175q-12 298 -118.5 452t-299.5 154q-142 0 -288 -77l-37 75q169 84 332 84q252 0 383 -202.5t131 -636.5q0 -302 -130 -477t-348 -175zM575 59q166 0 272.5 141t106.5 363
q0 155 -107.5 261t-271.5 106q-166 0 -271 -117.5t-105 -302.5q0 -199 105 -325t271 -126z" />
    <glyph glyph-name="uni2206" unicode="&#x2206;" horiz-adv-x="1357" 
d="M80 0v57l551 1319h96l551 -1319v-57h-1198zM190 84h977l-487 1171z" />
    <glyph glyph-name="product" unicode="&#x220f;" horiz-adv-x="1591" 
d="M225 -426v1868h1141v-1868h-100v1784h-940v-1784h-101z" />
    <glyph glyph-name="summation" unicode="&#x2211;" horiz-adv-x="1284" 
d="M100 -426v66l695 884l-662 852v66h1061v-84h-926l625 -807v-53l-657 -840h991v-84h-1127z" />
    <glyph glyph-name="minus" unicode="&#x2212;" horiz-adv-x="1179" 
d="M119 547v86h942v-86h-942z" />
    <glyph glyph-name="radical" unicode="&#x221a;" horiz-adv-x="1335" 
d="M635 -426l-252 735l-348 -110l-25 82l428 137l246 -721l512 1757l84 -22l-543 -1858h-102z" />
    <glyph glyph-name="infinity" unicode="&#x221e;" horiz-adv-x="1591" 
d="M418 213q-149 0 -240.5 105.5t-91.5 271.5q0 165 91.5 271t240.5 106q120 0 205.5 -71.5t171.5 -231.5q86 160 172 231.5t204 71.5q150 0 241 -105.5t91 -271.5q0 -165 -91 -271t-241 -106q-118 0 -204 71.5t-172 231.5q-86 -160 -171.5 -231.5t-205.5 -71.5zM428 295
q99 0 171.5 69.5t150.5 225.5q-78 156 -150.5 225.5t-171.5 69.5q-113 0 -181.5 -83t-68.5 -212q0 -130 68.5 -212.5t181.5 -82.5zM1161 295q114 0 183 83t69 212q0 130 -69 212.5t-183 82.5q-98 0 -170 -70t-149 -225q77 -155 149 -225t170 -70z" />
    <glyph glyph-name="integral" unicode="&#x222b;" horiz-adv-x="804" 
d="M338 -451q-72 0 -145 27l22 80q56 -23 111 -23q76 0 125 65.5t49 166.5q0 100 -30.5 234t-73.5 266.5t-86.5 266t-74 271t-30.5 242.5q0 141 73.5 231t188.5 90q74 0 145 -26l-24 -80q-51 22 -109 22q-76 0 -125 -65t-49 -166q0 -100 30 -234t73.5 -266.5t86.5 -266
t73 -271t30 -242.5q0 -141 -72.5 -231.5t-187.5 -90.5z" />
    <glyph glyph-name="approxequal" unicode="&#x2248;" horiz-adv-x="1179" 
d="M793 707q-71 0 -139.5 24.5t-134.5 49t-132 24.5q-123 0 -229 -92l-52 69q124 109 281 109q71 0 139.5 -24.5t135 -49t131.5 -24.5q127 0 229 92l51 -72q-124 -106 -280 -106zM793 289q-71 0 -139.5 24.5t-134.5 49t-132 24.5q-127 0 -229 -92l-52 72q124 106 281 106
q71 0 139.5 -24.5t135 -49t131.5 -24.5q123 0 229 92l51 -70q-123 -108 -280 -108z" />
    <glyph glyph-name="notequal" unicode="&#x2260;" horiz-adv-x="1179" 
d="M360 35l-77 37l135 270h-299v86h342l162 324h-504v86h547l153 309l78 -39l-137 -270h301v-86h-344l-160 -324h504v-86h-547z" />
    <glyph glyph-name="lessequal" unicode="&#x2264;" horiz-adv-x="1179" 
d="M1034 260l-915 426v86l915 426l35 -80l-833 -389l833 -387zM119 0v86h942v-86h-942z" />
    <glyph glyph-name="greaterequal" unicode="&#x2265;" horiz-adv-x="1179" 
d="M145 260l-34 82l833 387l-833 389l34 80l916 -426v-86zM119 0v86h942v-86h-942z" />
    <glyph glyph-name="dotmath" unicode="&#x22c5;" horiz-adv-x="483" 
d="M242 424q-35 0 -58.5 23.5t-23.5 58.5t23.5 58.5t58.5 23.5t58.5 -23.5t23.5 -58.5t-23.5 -58.5t-58.5 -23.5z" />
    <glyph glyph-name="lozenge" unicode="&#x25ca;" horiz-adv-x="1179" 
d="M547 0l-441 688l441 688h86l440 -688l-440 -688h-86zM590 90l379 598l-379 594l-379 -594z" />
    <glyph glyph-name="uniF8FF" unicode="&#xf8ff;" horiz-adv-x="1210" 
d="M205 0v1350h801v-133h-668v-1084h149v-133h-282zM471 414v133h401v135h-401v399h535v-133h-402v-133h402v-401h-535z" />
    <glyph glyph-name="Jacute" horiz-adv-x="897" 
d="M555 1540l-41 57l328 226l49 -68zM309 -25q-118 0 -252 35l17 82q118 -31 217 -31q123 0 201.5 78t78.5 201v1036h101v-1042q0 -158 -101.5 -258.5t-261.5 -100.5z" />
    <glyph glyph-name="Cacute.loclPLK" horiz-adv-x="1316" 
d="M760 1530l-68 24l105 289l77 -28zM774 -25q-291 0 -474 199t-183 514q0 156 48.5 289t134 226t208 145.5t266.5 52.5q234 0 447 -148l-45 -71q-187 133 -392 133q-252 0 -408.5 -173.5t-156.5 -453.5t156.5 -453.5t408.5 -173.5q203 0 392 134l45 -72
q-213 -148 -447 -148z" />
    <glyph glyph-name="Nacute.loclPLK" horiz-adv-x="1554" 
d="M782 1530l-67 24l104 289l78 -28zM225 0v1376h101l909 -1235v1235h94v-1376h-100l-910 1235v-1235h-94z" />
    <glyph glyph-name="Oacute.loclPLK" horiz-adv-x="1554" 
d="M782 1530l-67 24l104 289l78 -28zM778 -25q-192 0 -343 90.5t-234.5 253t-83.5 369.5t83.5 369.5t234.5 253t343 90.5q191 0 341.5 -90.5t234.5 -253t84 -369.5t-84 -369.5t-234.5 -253t-341.5 -90.5zM778 59q244 0 400.5 177t156.5 452t-156.5 452t-400.5 177
q-162 0 -289.5 -80.5t-198.5 -224t-71 -324.5t71 -324.5t198.5 -224t289.5 -80.5z" />
    <glyph glyph-name="Sacute.loclPLK" horiz-adv-x="1175" 
d="M592 1530l-68 24l105 289l78 -28zM588 -25q-211 0 -471 109l26 80q272 -105 439 -105q169 0 272.5 76.5t103.5 200.5q0 68 -28.5 119.5t-76.5 84.5t-110.5 58t-132 45t-138.5 41t-131.5 51t-110.5 69.5t-76.5 101.5t-28.5 143q0 157 128.5 254.5t334.5 97.5
q194 0 420 -92l-27 -80q-215 88 -387 88q-165 0 -267 -74.5t-102 -193.5q0 -84 46 -143t119.5 -92t162 -58.5t177 -55.5t162 -70.5t119.5 -115t46 -178.5q0 -161 -129.5 -261t-339.5 -100z" />
    <glyph glyph-name="Zacute.loclPLK" horiz-adv-x="1273" 
d="M641 1530l-68 24l105 289l78 -28zM117 0v61l880 1231h-856v84h989v-61l-878 -1231h903v-84h-1038z" />
    <glyph glyph-name="i.loclTRK" horiz-adv-x="454" 
d="M227 1229q-34 0 -54.5 21t-20.5 55t20.5 54.5t54.5 20.5t55 -20.5t21 -54.5t-21 -55t-55 -21zM178 0v989h98v-989h-98z" />
    <glyph glyph-name="jacute" horiz-adv-x="471" 
d="M178 1153l-41 57l328 226l49 -68zM20 -451q-88 0 -182 27l17 80q76 -23 147 -23q86 0 139.5 53t53.5 138v1165h98v-1171q0 -118 -76.5 -193.5t-196.5 -75.5z" />
    <glyph glyph-name="germandbls.calt" horiz-adv-x="1554" 
d="M975 -25q-200 0 -385 109l39 80q176 -105 340 -105q155 0 254.5 92.5t99.5 237.5q0 149 -107.5 243.5t-279.5 94.5h-41l-18 53l376 512h-929v-1292h-99v1376h1147v-61l-377 -514q192 -12 309 -125.5t117 -286.5q0 -181 -125.5 -297.5t-320.5 -116.5z" />
    <glyph glyph-name="cacute.loclPLK" horiz-adv-x="995" 
d="M567 1130l-67 25l104 289l78 -29zM582 -25q-211 0 -345.5 146t-134.5 373q0 229 134.5 374.5t345.5 145.5q175 0 331 -111l-43 -69q-134 96 -278 96q-171 0 -280 -121.5t-109 -314.5q0 -192 109 -313.5t280 -121.5q143 0 278 97l43 -72q-157 -109 -331 -109z" />
    <glyph glyph-name="nacute.loclPLK" 
d="M618 1130l-67 25l104 289l78 -29zM178 0v989h80l12 -207q49 109 147.5 170.5t221.5 61.5q161 0 265 -101.5t104 -259.5v-653h-99v641q0 127 -82.5 208t-210.5 81q-147 0 -243.5 -101.5t-96.5 -261.5v-567h-98z" />
    <glyph glyph-name="oacute.loclPLK" 
d="M590 1130l-68 25l105 289l78 -29zM586 -25q-212 0 -348 146t-136 373q0 229 136 374.5t348 145.5t346.5 -145.5t134.5 -374.5q0 -228 -134.5 -373.5t-346.5 -145.5zM586 57q167 0 275 122.5t108 314.5q0 193 -107.5 315.5t-275.5 122.5q-169 0 -276 -122.5t-107 -315.5
q0 -192 107 -314.5t276 -122.5z" />
    <glyph glyph-name="sacute.loclPLK" horiz-adv-x="903" 
d="M455 1130l-68 25l105 289l77 -29zM451 -25q-163 0 -349 76l25 76q174 -74 317 -74q117 0 187.5 53t70.5 140q0 47 -20 82.5t-54.5 58t-79 40t-93.5 31.5t-97.5 29t-93 36.5t-79 50.5t-54.5 74t-20 104q0 116 94.5 189t245.5 73q147 0 315 -68l-25 -76q-149 64 -284 64
q-111 0 -180.5 -50.5t-69.5 -131.5q0 -58 32.5 -98t85 -62.5t115.5 -40.5t126 -39.5t115.5 -51t85 -84t32.5 -130.5q0 -120 -96.5 -195.5t-251.5 -75.5z" />
    <glyph glyph-name="zacute.loclPLK" horiz-adv-x="968" 
d="M487 1130l-67 25l104 289l78 -29zM102 0v59l617 850h-600v80h729v-59l-615 -850h631v-80h-762z" />
    <glyph glyph-name="zero.lf" horiz-adv-x="1323" 
d="M662 -25q-232 0 -372 194.5t-140 518.5t140 518.5t372 194.5q231 0 371.5 -195t140.5 -518t-140.5 -518t-371.5 -195zM662 57q188 0 299.5 171t111.5 460t-111.5 460t-299.5 171q-189 0 -301.5 -171t-112.5 -460t112.5 -460t301.5 -171z" />
    <glyph glyph-name="one.lf" horiz-adv-x="804" 
d="M465 0v1274l-383 -221l-37 71l434 252h82v-1376h-96z" />
    <glyph glyph-name="two.lf" horiz-adv-x="1054" 
d="M59 0v66l570 569q176 173 176 362q0 141 -90.5 229.5t-235.5 88.5q-159 0 -358 -123l-41 76q217 133 414 133q180 0 293.5 -110t113.5 -283q0 -222 -192 -414l-512 -510h721v-84h-859z" />
    <glyph glyph-name="three.lf" horiz-adv-x="1054" 
d="M496 -25q-217 0 -433 101l33 78q207 -95 387 -95q149 0 243.5 83.5t94.5 215.5q0 136 -110.5 222t-288.5 86h-74v77h74q162 0 265.5 81.5t103.5 209.5q0 126 -85.5 204.5t-220.5 78.5q-171 0 -356 -86l-33 78q197 92 400 92q173 0 283 -100.5t110 -258.5
q0 -122 -74.5 -211t-200.5 -122q140 -37 224 -134t84 -225q0 -166 -119 -270.5t-307 -104.5z" />
    <glyph glyph-name="four.lf" horiz-adv-x="1159" 
d="M750 0v342h-687v72l687 962h92v-954h227v-80h-227v-342h-92zM164 422h586v821z" />
    <glyph glyph-name="five.lf" horiz-adv-x="1054" 
d="M487 -25q-204 0 -405 117l41 76q185 -109 358 -109q168 0 269.5 92.5t101.5 243.5q0 156 -101 247t-278 91q-136 0 -305 -39v682h731v-84h-643v-510q126 27 240 27q209 0 330.5 -113t121.5 -303q0 -185 -127.5 -301.5t-333.5 -116.5z" />
    <glyph glyph-name="six.lf" horiz-adv-x="1191" 
d="M629 -25q-223 0 -351 161.5t-128 461.5q0 385 140.5 594t403.5 209q166 0 316 -78l-35 -76q-147 72 -279 72q-222 0 -338.5 -181.5t-113.5 -527.5q38 114 148 185t249 71q193 0 312.5 -121.5t119.5 -316.5q0 -193 -127.5 -323t-316.5 -130zM627 57q150 0 252 106.5
t102 262.5q0 161 -97 259.5t-257 98.5q-154 0 -260.5 -93.5t-106.5 -229.5q0 -178 103 -291t264 -113z" />
    <glyph glyph-name="seven.lf" horiz-adv-x="962" 
d="M207 0l559 1292h-725v84h836v-65l-568 -1311h-102z" />
    <glyph glyph-name="eight.lf" horiz-adv-x="1189" 
d="M596 -25q-206 0 -334.5 102.5t-128.5 266.5q0 136 91.5 232.5t254.5 128.5q-139 30 -226 122.5t-87 221.5q0 153 121.5 252.5t308.5 99.5t308.5 -99.5t121.5 -252.5q0 -129 -87 -221.5t-226 -122.5q163 -32 254.5 -128.5t91.5 -232.5q0 -164 -128.5 -266.5t-334.5 -102.5
zM596 743q150 23 243 100.5t93 198.5q0 120 -95.5 199.5t-240.5 79.5t-240.5 -79.5t-95.5 -199.5q0 -121 93 -198.5t243 -100.5zM596 55q162 0 263.5 81.5t101.5 213.5q0 126 -97.5 208.5t-267.5 107.5q-170 -25 -267.5 -107.5t-97.5 -208.5q0 -132 101.5 -213.5
t263.5 -81.5z" />
    <glyph glyph-name="nine.lf" horiz-adv-x="1191" 
d="M498 -25q-166 0 -316 78l35 76q147 -72 279 -72q222 0 338.5 181.5t113.5 527.5q-38 -114 -148 -185t-249 -71q-193 0 -312.5 121.5t-119.5 316.5q0 193 127.5 323t316.5 130q223 0 351 -161.5t128 -461.5q0 -385 -140.5 -594t-403.5 -209zM565 592q154 0 260.5 93.5
t106.5 229.5q0 178 -103 291t-264 113q-150 0 -252 -106.5t-102 -262.5q0 -161 97 -259.5t257 -98.5z" />
    <glyph glyph-name="cent.lf" horiz-adv-x="1093" 
d="M569 -131v305q-187 20 -302 161.5t-115 352.5t115 352.5t302 161.5v305h86v-303q163 -3 310 -106l-45 -72q-131 95 -267 98v-872q136 3 267 98l45 -71q-147 -103 -310 -109v-301h-86zM571 258v860q-145 -25 -232 -142t-87 -288t87 -288t232 -142z" />
    <glyph glyph-name="dollar.lf" horiz-adv-x="1030" 
d="M473 -262v338q-159 6 -362 88l26 80q199 -81 338 -86v504q-46 14 -76 24t-71.5 27t-68 33.5t-56 42t-46 54t-27.5 67.5t-11 85q0 129 96.5 211.5t257.5 91.5v340h86v-338q142 -9 322 -81l-27 -80q-176 73 -297 78v-486q56 -16 90.5 -28.5t83 -33t78 -44.5t58 -57.5
t42 -78.5t13.5 -100q0 -133 -99.5 -218t-263.5 -93v-340h-86zM475 756v461q-118 -10 -188 -70.5t-70 -151.5q0 -52 19.5 -91t58.5 -66.5t79.5 -45t100.5 -36.5zM557 158q123 11 194.5 72.5t71.5 158.5q0 53 -20 93.5t-60.5 69.5t-82 47.5t-103.5 37.5v-479z" />
    <glyph glyph-name="Euro.lf" horiz-adv-x="1153" 
d="M772 -25q-210 0 -358 148.5t-189 398.5h-164v70h158q-6 46 -6 96q0 74 8 129h-160v70h172q46 235 191 374.5t348 139.5q177 0 342 -92l-39 -72q-148 82 -295 82q-167 0 -287 -117.5t-159 -314.5h538v-70h-557q-6 -61 -6 -129q0 -34 4 -96h559v-70h-546
q34 -212 156 -338.5t298 -126.5q147 0 295 82l39 -71q-167 -93 -342 -93z" />
    <glyph glyph-name="sterling.lf" horiz-adv-x="1153" 
d="M137 0v82h217v582h-184v81h184v299q0 158 107.5 257.5t277.5 99.5q129 0 283 -60l-27 -77q-127 53 -241 53q-132 0 -214.5 -77.5t-82.5 -201.5v-293h405v-81h-405v-582h590v-82h-910z" />
    <glyph glyph-name="yen.lf" 
d="M535 0v344h-355v74h355v227h-355v74h328l-430 657h110l398 -620l397 620h111l-430 -657h327v-74h-354v-227h354v-74h-354v-344h-102z" />
    <glyph glyph-name="uni0308.case" horiz-adv-x="0" 
d="M-451 1620q-32 0 -52.5 20t-20.5 52t20.5 51.5t52.5 19.5t52 -19.5t20 -51.5t-20 -52t-52 -20zM-41 1620q-32 0 -52 20t-20 52t20 51.5t52 19.5q33 0 53.5 -19.5t20.5 -51.5t-21 -52t-53 -20z" />
    <glyph glyph-name="uni0307.case" horiz-adv-x="0" 
d="M-246 1616q-34 0 -55 21t-21 55t21 54.5t55 20.5t55 -20.5t21 -54.5t-21 -55t-55 -21z" />
    <glyph glyph-name="gravecomb.case" horiz-adv-x="0" 
d="M-174 1540l-336 215l49 68l326 -226z" />
    <glyph glyph-name="acutecomb.case" horiz-adv-x="0" 
d="M-311 1540l-41 57l327 226l50 -68z" />
    <glyph glyph-name="uni030B.case" horiz-adv-x="0" 
d="M-455 1530l-51 51l283 291l59 -60zM-90 1530l-53 51l282 291l60 -60z" />
    <glyph glyph-name="uni0302.case" horiz-adv-x="0" 
d="M-481 1542l-47 51l247 242h70l248 -242l-47 -51l-236 219z" />
    <glyph glyph-name="uni030C.case" horiz-adv-x="0" 
d="M-281 1548l-247 244l47 49l235 -217l236 217l47 -49l-248 -244h-70z" />
    <glyph glyph-name="uni0306.case" horiz-adv-x="0" 
d="M-246 1532q-119 0 -198.5 74.5t-83.5 195.5h71q4 -86 63.5 -140t147.5 -54t147.5 54t63.5 140h72q-4 -120 -83.5 -195t-199.5 -75z" />
    <glyph glyph-name="uni030A.case" horiz-adv-x="0" 
d="M-242 1503q-86 0 -141 53t-55 136q0 84 53.5 136t138.5 52t139 -52t54 -136t-52.5 -136.5t-136.5 -52.5zM-242 1559q57 0 93 36.5t36 96.5t-37 96.5t-96 36.5q-60 0 -96.5 -36.5t-36.5 -96.5t38.5 -96.5t98.5 -36.5z" />
    <glyph glyph-name="tildecomb.case" horiz-adv-x="0" 
d="M-463 1616l-69 20q15 60 57 96.5t98 36.5q46 0 134.5 -39.5t121.5 -39.5q67 0 92 79l70 -22q-15 -59 -57.5 -95t-98.5 -36q-46 0 -134.5 39t-121.5 39q-32 0 -57 -20.5t-35 -57.5z" />
    <glyph glyph-name="uni0304.case" horiz-adv-x="0" 
d="M-537 1655v74h582v-74h-582z" />
    <glyph glyph-name="acutecomb.loclPLK" horiz-adv-x="0" 
d="M-242 1130l-67 25l104 289l78 -29z" />
    <glyph glyph-name="acutecomb.case.loclPLK" horiz-adv-x="0" 
d="M-242 1530l-67 24l104 289l78 -28z" />
    <glyph glyph-name="acute.case" horiz-adv-x="491" 
d="M180 1540l-41 57l328 226l49 -68z" />
    <glyph glyph-name="breve.case" horiz-adv-x="491" 
d="M246 1532q-120 0 -199.5 75t-83.5 195h72q4 -86 63.5 -140t147.5 -54t147.5 54t63.5 140h71q-4 -121 -83.5 -195.5t-198.5 -74.5z" />
    <glyph glyph-name="caron.case" horiz-adv-x="491" 
d="M211 1548l-248 244l47 49l236 -217l235 217l47 -49l-247 -244h-70z" />
    <glyph glyph-name="circumflex.case" horiz-adv-x="491" 
d="M10 1542l-47 51l248 242h70l247 -242l-47 -51l-235 219z" />
    <glyph glyph-name="dieresis.case" horiz-adv-x="491" 
d="M41 1620q-32 0 -53 20t-21 52t20.5 51.5t53.5 19.5q32 0 52 -19.5t20 -51.5t-20 -52t-52 -20zM451 1620q-32 0 -52 20t-20 52t20 51.5t52 19.5t52.5 -19.5t20.5 -51.5t-20.5 -52t-52.5 -20z" />
    <glyph glyph-name="dotaccent.case" horiz-adv-x="491" 
d="M246 1616q-34 0 -55 21t-21 55t21 54.5t55 20.5t55 -20.5t21 -54.5t-21 -55t-55 -21z" />
    <glyph glyph-name="grave.case" horiz-adv-x="491" 
d="M317 1540l-335 215l49 68l325 -226z" />
    <glyph glyph-name="hungarumlaut.case" horiz-adv-x="491" 
d="M37 1530l-51 51l282 291l60 -60zM401 1530l-53 51l283 291l59 -60z" />
    <glyph glyph-name="macron.case" horiz-adv-x="491" 
d="M-45 1655v74h582v-74h-582z" />
    <glyph glyph-name="ring.case" horiz-adv-x="491" 
d="M250 1503q-86 0 -141.5 53t-55.5 136q0 84 54 136t139 52t138.5 -52t53.5 -136t-52 -136.5t-136 -52.5zM250 1559q57 0 93 36.5t36 96.5t-37 96.5t-96 36.5q-60 0 -96.5 -36.5t-36.5 -96.5t38.5 -96.5t98.5 -36.5z" />
    <glyph glyph-name="tilde.case" horiz-adv-x="491" 
d="M29 1616l-70 20q15 59 57.5 96t98.5 37q46 0 134.5 -39.5t121.5 -39.5q67 0 92 79l69 -22q-15 -59 -57 -95t-98 -36q-46 0 -134.5 39t-121.5 39q-32 0 -57 -20.5t-35 -57.5z" />
    </font>
</defs>
</svg>
