<?xml version="1.0" standalone="no"?>
<!DOCTYPE svg PUBLIC "-//W3C//DTD SVG 1.1//EN" "http://www.w3.org/Graphics/SVG/1.1/DTD/svg11.dtd" >
<svg xmlns="http://www.w3.org/2000/svg" xmlns:xlink="http://www.w3.org/1999/xlink" version="1.1">
<metadata>
Created by FontForge 20170731 at Wed Mar 15 20:51:56 2023
 By Aleksey,,,
FS Thrive Elliot is a licensed version of FS Elliot Copyright (c) 2015 by Fontsmith Ltd for Alight. All rights reserved. This font may not be altered in any way without prior permission of Fontsmith Ltd.
</metadata>
<defs>
<font id="FSThriveElliot-Regular" horiz-adv-x="1193" >
  <font-face 
    font-family="FS Thrive Elliot"
    font-weight="400"
    font-stretch="normal"
    units-per-em="2048"
    panose-1="2 6 4 3 3 2 2 2 2 4"
    ascent="1536"
    descent="-512"
    x-height="995"
    cap-height="1376"
    bbox="-561 -578 2468 1909"
    underline-thickness="126"
    underline-position="-331"
    unicode-range="U+000D-FB04"
  />
<missing-glyph horiz-adv-x="1024" 
d="M25 0v1376h974v-1376h-974zM512 778l332 500h-664zM123 188l332 500l-332 500v-1000zM901 188v1000l-332 -500zM180 98h664l-332 500z" />
    <glyph glyph-name="f_f.liga" unicode="ff" horiz-adv-x="1394" 
d="M260 0v866h-207v129h207v181q0 129 83 209.5t216 80.5q98 0 199 -26l-23 -127q-85 20 -141 20q-76 0 -124 -47.5t-48 -124.5v-166h475v181q0 129 83.5 209.5t215.5 80.5q98 0 199 -26l-23 -127q-85 20 -141 20q-75 0 -122.5 -48t-47.5 -124v-166h278v-129h-278v-866h-164
v866h-475v-866h-162z" />
    <glyph glyph-name="fi" unicode="fi" horiz-adv-x="1187" 
d="M260 0v866h-207v129h207v138q0 147 103 240t262 93q143 0 311 -51l-33 -127q-149 47 -254 47q-100 0 -163.5 -58.5t-63.5 -150.5v-131h606v-995h-164v866h-442v-866h-162z" />
    <glyph glyph-name="fl" unicode="fl" horiz-adv-x="1286" 
d="M1112 -25q-112 0 -180 65.5t-68 174.5v1098q-119 22 -221 22q-98 0 -159.5 -57.5t-61.5 -151.5v-131h280v-129h-280v-866h-162v866h-207v129h207v138q0 149 103 241t268 92q151 0 397 -41v-1196q0 -55 32.5 -87.5t88.5 -32.5q35 0 96 14l21 -129q-87 -19 -154 -19z" />
    <glyph glyph-name="f_f_i.liga" unicode="ffi" horiz-adv-x="1826" 
d="M260 0v866h-207v129h207v181q0 129 83 209.5t216 80.5q98 0 199 -26l-23 -127q-85 20 -141 20q-76 0 -124 -47.5t-48 -124.5v-166h475v138q0 147 103.5 240t263.5 93q141 0 309 -51l-33 -127q-146 47 -254 47q-99 0 -162 -58.5t-63 -150.5v-131h604v-995h-164v866h-440
v-866h-164v866h-475v-866h-162z" />
    <glyph glyph-name="f_f_l.liga" unicode="ffl" horiz-adv-x="1925" 
d="M1749 -25q-112 0 -180 65.5t-68 174.5v1098q-119 22 -221 22q-98 0 -158.5 -57.5t-60.5 -151.5v-131h278v-129h-278v-866h-164v866h-475v-866h-162v866h-207v129h207v181q0 129 83 209.5t216 80.5q98 0 199 -26l-23 -127q-85 20 -141 20q-76 0 -124 -47.5t-48 -124.5
v-166h475v138q0 149 104 241t269 92q154 0 395 -41v-1196q0 -55 32.5 -87.5t88.5 -32.5q33 0 98 14l19 -129q-87 -19 -154 -19z" />
    <glyph glyph-name="f_b.liga" unicode="fb" horiz-adv-x="1896" 
d="M1358 -25q-112 0 -200 49t-142 142l-21 -166h-131v1313q-119 22 -221 22q-98 0 -159.5 -57.5t-61.5 -151.5v-131h280v-129h-280v-866h-162v866h-207v129h207v138q0 148 103.5 240.5t267.5 92.5q151 0 397 -41v-587q53 88 138 135t192 47q196 0 322 -146.5t126 -375.5
t-126 -376t-322 -147zM1319 109q140 0 230.5 109t90.5 280q0 170 -90.5 279.5t-230.5 109.5q-130 0 -212.5 -87t-82.5 -222v-160q0 -137 82.5 -223t212.5 -86z" />
    <glyph glyph-name="f_f_b.liga" unicode="ffb" horiz-adv-x="2529" 
d="M1995 -25q-112 0 -200 49t-142 142l-21 -166h-131v1313q-119 22 -221 22q-98 0 -158.5 -57.5t-60.5 -151.5v-131h278v-129h-278v-866h-164v866h-475v-866h-162v866h-207v129h207v181q0 129 83 209.5t216 80.5q98 0 199 -26l-23 -127q-85 20 -141 20q-76 0 -124 -47.5
t-48 -124.5v-166h475v138q0 147 104 240t269 93q154 0 395 -41v-587q81 124 231 163q74 19 146 13q152 -17 257.5 -127.5t131.5 -280.5q12 -80 6 -162q-14 -207 -136.5 -338t-305.5 -131zM1956 109q141 0 231 108.5t90 280.5q0 170 -90 279.5t-231 109.5q-129 0 -212 -87
t-83 -222v-160q0 -136 83 -222.5t212 -86.5z" />
    <glyph glyph-name="f_f_h.liga" unicode="ffh" horiz-adv-x="2533" 
d="M260 0v866h-207v129h207v181q0 129 83 209.5t216 80.5q98 0 199 -26l-23 -127q-85 20 -141 20q-76 0 -124 -47.5t-48 -124.5v-166h475v138q0 147 104 240t269 93q154 0 395 -41v-604q51 94 142.5 146.5t203.5 52.5q166 0 272.5 -103.5t106.5 -267.5v-649h-164v625
q0 114 -73 186t-187 72q-130 0 -215.5 -90.5t-85.5 -231.5v-561h-164v1313q-119 22 -221 22q-98 0 -158.5 -57.5t-60.5 -151.5v-131h278v-129h-278v-866h-164v866h-475v-866h-162z" />
    <glyph glyph-name="f_f_j.liga" unicode="ffj" horiz-adv-x="1826" 
d="M1366 -451q-96 0 -201 27l25 127q82 -20 139 -20q77 0 124.5 47.5t47.5 124.5v1011h-440v-866h-164v866h-475v-866h-162v866h-207v129h207v181q0 129 83 209.5t216 80.5q98 0 199 -26l-23 -127q-85 20 -141 20q-76 0 -124 -47.5t-48 -124.5v-166h475v138q0 147 103.5 240
t263.5 93q141 0 309 -51l-33 -127q-146 47 -254 47q-99 0 -162 -58.5t-63 -150.5v-131h604v-1155q0 -129 -83.5 -210t-215.5 -81z" />
    <glyph glyph-name="f_f_k.liga" unicode="ffk" horiz-adv-x="2383" 
d="M260 0v866h-207v129h207v181q0 129 83 209.5t216 80.5q98 0 199 -26l-23 -127q-85 20 -141 20q-76 0 -124 -47.5t-48 -124.5v-166h475v138q0 147 104 240t269 93q151 0 389 -41v-923l473 493h190l-448 -465l465 -530h-193l-379 432l-108 -106v-326h-158v1313
q-119 22 -221 22q-98 0 -158.5 -57.5t-60.5 -151.5v-131h278v-129h-278v-866h-164v866h-475v-866h-162z" />
    <glyph glyph-name="f_h.liga" unicode="fh" horiz-adv-x="1896" 
d="M260 0v866h-207v129h207v138q0 148 103.5 240.5t267.5 92.5q151 0 397 -41v-604q51 94 141.5 146.5t204.5 52.5q166 0 272.5 -103.5t106.5 -267.5v-649h-164v625q0 114 -73 186t-187 72q-131 0 -216 -90t-85 -232v-561h-164v1313q-119 22 -221 22q-98 0 -159.5 -57.5
t-61.5 -151.5v-131h280v-129h-280v-866h-162z" />
    <glyph glyph-name="f_j.liga" unicode="fj" horiz-adv-x="1187" 
d="M729 -451q-96 0 -201 27l23 127q85 -20 141 -20q76 0 124 47.5t48 124.5v1011h-442v-866h-162v866h-207v129h207v138q0 147 103 240t262 93q143 0 311 -51l-33 -127q-149 47 -254 47q-100 0 -163.5 -58.5t-63.5 -150.5v-131h606v-1155q0 -129 -83.5 -210t-215.5 -81z" />
    <glyph glyph-name="f_k.liga" unicode="fk" horiz-adv-x="1744" 
d="M260 0v866h-207v129h207v138q0 148 103.5 240.5t267.5 92.5q153 0 391 -41v-923l471 493h190l-448 -465l465 -530h-191l-381 432l-106 -106v-326h-158v1313q-119 22 -221 22q-98 0 -159.5 -57.5t-61.5 -151.5v-131h280v-129h-280v-866h-162z" />
    <glyph glyph-name=".notdef" horiz-adv-x="1024" 
d="M25 0v1376h974v-1376h-974zM512 778l332 500h-664zM123 188l332 500l-332 500v-1000zM901 188v1000l-332 -500zM180 98h664l-332 500z" />
    <glyph glyph-name=".null" horiz-adv-x="0" 
 />
    <glyph glyph-name="nonmarkingreturn" horiz-adv-x="682" 
 />
    <glyph glyph-name="CR" unicode="&#xd;" horiz-adv-x="491" 
 />
    <glyph glyph-name="space" unicode=" " horiz-adv-x="491" 
 />
    <glyph glyph-name="exclam" unicode="!" horiz-adv-x="538" 
d="M201 428l-15 948h166l-14 -948h-137zM270 -18q-50 0 -80 30t-30 78t30.5 78.5t79.5 30.5q47 0 78 -31t31 -78t-31 -77.5t-78 -30.5z" />
    <glyph glyph-name="quotedbl" unicode="&#x22;" horiz-adv-x="827" 
d="M158 924l-15 452h154l-14 -452h-125zM545 924l-15 452h154l-14 -452h-125z" />
    <glyph glyph-name="numbersign" unicode="#" horiz-adv-x="1335" 
d="M1233 883h-254v-387h254v-127h-254v-369h-131v369h-361v-369h-131v369h-254v127h254v387h-254v127h254v364h131v-364h361v364h131v-364h254v-127zM848 496v387h-361v-387h361z" />
    <glyph glyph-name="dollar" unicode="$" horiz-adv-x="1179" 
d="M520 -262v340q-167 9 -356 88l39 129q169 -70 319 -86v430q-51 14 -87 27t-80 33t-74 44.5t-56.5 58t-39.5 78t-13 99.5q0 130 94.5 215t253.5 102v342h139v-340q138 -11 316 -79l-39 -132q-162 66 -279 80v-411q44 -12 75.5 -22.5t72 -27t68.5 -34.5t57 -44.5
t46.5 -57.5t28.5 -73t11 -91q0 -135 -97 -223t-260 -103v-342h-139zM522 797v366q-86 -17 -135 -66t-49 -118q0 -71 47.5 -111.5t136.5 -70.5zM657 213q90 15 141.5 66t51.5 127q0 73 -50 116.5t-143 75.5v-385z" />
    <glyph glyph-name="percent" unicode="%" horiz-adv-x="1769" 
d="M432 664q-150 0 -246 103t-96 265q0 161 96.5 265t245.5 104t244.5 -104t95.5 -265q0 -162 -95 -265t-245 -103zM301 0l1032 1376h135l-1032 -1376h-135zM432 764q95 0 155 74t60 194q0 119 -60 193.5t-155 74.5t-156 -75t-61 -193q0 -119 60.5 -193.5t156.5 -74.5z
M1337 -25q-149 0 -244.5 103t-95.5 266q0 161 95.5 265t244.5 104t245.5 -104t96.5 -265q0 -162 -96 -265.5t-246 -103.5zM1337 76q96 0 156.5 74.5t60.5 193.5q0 118 -61 193t-156 75t-155 -74.5t-60 -193.5q0 -120 60 -194t155 -74z" />
    <glyph glyph-name="ampersand" unicode="&#x26;" horiz-adv-x="1312" 
d="M547 -25q-203 0 -333 111.5t-130 286.5q0 239 322 407q-88 92 -131.5 163t-43.5 153q0 134 99 219.5t254 85.5q148 0 243 -80t95 -207q0 -105 -70 -189.5t-234 -174.5l351 -377q75 131 78 295h139q-6 -228 -121 -402l246 -266h-185l-165 178q-90 -99 -196 -151t-218 -52z
M537 840q128 68 183.5 129t55.5 131q0 77 -53.5 125.5t-138.5 48.5q-91 0 -147 -51t-56 -133q0 -59 38.5 -115.5t117.5 -134.5zM559 102q87 0 168.5 44.5t146.5 125.5l-389 422q-245 -135 -245 -309q0 -124 91 -203.5t228 -79.5z" />
    <glyph glyph-name="quotesingle" unicode="'" horiz-adv-x="440" 
d="M158 924l-15 452h154l-14 -452h-125z" />
    <glyph glyph-name="parenleft" unicode="(" horiz-adv-x="690" 
d="M512 -313q-171 184 -260.5 415t-89.5 488q0 256 89.5 486.5t260.5 416.5l117 -80q-156 -167 -236 -378t-80 -445t80 -445t236 -378z" />
    <glyph glyph-name="parenright" unicode=")" horiz-adv-x="690" 
d="M180 -313l-117 80q155 167 235.5 378.5t80.5 444.5t-80.5 444.5t-235.5 378.5l117 80q171 -185 260.5 -416t89.5 -487q0 -255 -89.5 -486t-260.5 -417z" />
    <glyph glyph-name="asterisk" unicode="*" horiz-adv-x="1007" 
d="M305 588l-92 67l197 273l-322 106l37 109l319 -105v338h117v-338l322 105l35 -109l-322 -106l199 -273l-93 -67l-198 276z" />
    <glyph glyph-name="plus" unicode="+" horiz-adv-x="1179" 
d="M520 106v414h-414v139h414v414h139v-414h414v-139h-414v-414h-139z" />
    <glyph glyph-name="comma" unicode="," horiz-adv-x="505" 
d="M150 -328l-52 70q141 108 150 248q-46 -2 -77.5 28t-31.5 76q0 51 32 83t83 32q55 0 88 -43t33 -115q0 -112 -59 -211t-166 -168z" />
    <glyph glyph-name="hyphen" unicode="-" horiz-adv-x="655" 
d="M53 446v127h549v-127h-549z" />
    <glyph glyph-name="period" unicode="." horiz-adv-x="505" 
d="M254 -18q-51 0 -83 31t-32 81q0 51 32 83t83 32q50 0 82.5 -32t32.5 -83q0 -49 -32.5 -80.5t-82.5 -31.5z" />
    <glyph glyph-name="slash" unicode="/" horiz-adv-x="786" 
d="M10 -270l617 1712h147l-618 -1712h-146z" />
    <glyph glyph-name="zero" unicode="0" horiz-adv-x="1179" 
d="M590 -25q-233 0 -369.5 192t-136.5 521t136.5 521t369.5 192t369.5 -192t136.5 -521t-136.5 -521t-369.5 -192zM590 113q161 0 255.5 155.5t94.5 419.5q0 265 -94.5 420.5t-255.5 155.5t-255.5 -155.5t-94.5 -420.5q0 -264 94.5 -419.5t255.5 -155.5z" />
    <glyph glyph-name="one" unicode="1" horiz-adv-x="1179" 
d="M616 0v1212l-356 -204l-57 114l440 254h137v-1376h-164z" />
    <glyph glyph-name="two" unicode="2" horiz-adv-x="1179" 
d="M113 0v104l538 539q168 168 168 334q0 126 -81.5 205.5t-211.5 79.5q-147 0 -338 -121l-65 123q226 137 434 137q187 0 305.5 -112.5t118.5 -291.5q0 -218 -197 -415l-448 -449h661v-133h-884z" />
    <glyph glyph-name="three" unicode="3" horiz-adv-x="1179" 
d="M563 -25q-233 0 -457 105l54 123q205 -94 377 -94q131 0 215 73.5t84 188.5q0 121 -99 196.5t-258 75.5h-84v123h84q146 0 237 71.5t91 184.5q0 109 -74 177.5t-194 68.5q-154 0 -346 -86l-54 123q212 96 424 96q180 0 293 -102t113 -263q0 -118 -68 -205.5t-184 -121.5
q129 -35 206.5 -131t77.5 -222q0 -169 -122 -275t-316 -106z" />
    <glyph glyph-name="four" unicode="4" horiz-adv-x="1179" 
d="M733 0v326h-670v112l666 938h156v-923h211v-127h-211v-326h-152zM223 453h510v718z" />
    <glyph glyph-name="five" unicode="5" horiz-adv-x="1179" 
d="M545 -25q-216 0 -416 121l64 123q171 -106 339 -106q150 0 240 80.5t90 212.5q0 139 -91.5 219t-254.5 80q-141 0 -301 -37v708h760v-133h-613v-440q110 22 201 22q212 0 336.5 -115t124.5 -307q0 -189 -132.5 -308.5t-346.5 -119.5z" />
    <glyph glyph-name="six" unicode="6" horiz-adv-x="1179" 
d="M623 -25q-234 0 -367 165t-133 468q0 379 147 586t418 207q173 0 336 -82l-55 -121q-147 72 -275 72q-199 0 -308 -155.5t-110 -450.5q45 97 145.5 156t225.5 59q195 0 315.5 -122t120.5 -319q0 -198 -131 -330.5t-329 -132.5zM616 106q134 0 225 94t91 232
q0 143 -86 231.5t-225 88.5q-138 0 -233 -84t-95 -207q0 -155 91 -255t232 -100z" />
    <glyph glyph-name="seven" unicode="7" horiz-adv-x="1179" 
d="M285 0l538 1243h-690v133h868v-104l-546 -1272h-170z" />
    <glyph glyph-name="eight" unicode="8" horiz-adv-x="1179" 
d="M590 -25q-215 0 -349.5 105t-134.5 274q0 129 83.5 222.5t234.5 128.5q-128 33 -206.5 122t-78.5 211q0 160 126.5 261.5t324.5 101.5t324 -101.5t126 -261.5q0 -122 -78.5 -211t-205.5 -122q151 -35 234 -128.5t83 -222.5q0 -169 -134 -274t-349 -105zM590 766
q132 23 212.5 90.5t80.5 173.5q0 104 -83.5 174t-209.5 70t-209.5 -70t-83.5 -174q0 -106 80.5 -173.5t212.5 -90.5zM590 102q141 0 230 72.5t89 187.5q0 112 -84.5 184.5t-234.5 96.5q-150 -24 -235 -96.5t-85 -184.5q0 -115 89.5 -187.5t230.5 -72.5z" />
    <glyph glyph-name="nine" unicode="9" horiz-adv-x="1179" 
d="M492 -25q-173 0 -336 82l55 121q147 -72 274 -72q199 0 308 156t110 451q-45 -97 -145.5 -156t-225.5 -59q-195 0 -315.5 121.5t-120.5 318.5q0 198 131.5 330.5t329.5 132.5q234 0 367 -165t133 -468q0 -379 -147 -586t-418 -207zM559 625q138 0 233 83.5t95 206.5
q0 155 -91.5 255t-232.5 100q-133 0 -224 -94t-91 -232q0 -143 86 -231t225 -88z" />
    <glyph glyph-name="colon" unicode=":" horiz-adv-x="538" 
d="M270 786q-51 0 -82.5 31.5t-31.5 81.5q0 51 31.5 83t82.5 32q50 0 82.5 -32t32.5 -83q0 -49 -32.5 -81t-82.5 -32zM270 -18q-51 0 -82.5 31t-31.5 81q0 51 31.5 83t82.5 32q50 0 82.5 -32t32.5 -83q0 -49 -32.5 -80.5t-82.5 -31.5z" />
    <glyph glyph-name="semicolon" unicode=";" horiz-adv-x="538" 
d="M270 786q-51 0 -82.5 31.5t-31.5 81.5q0 51 31.5 83t82.5 32q50 0 82.5 -32t32.5 -83q0 -49 -32.5 -81t-82.5 -32zM166 -328l-51 70q140 107 149 248q-46 -2 -77 28t-31 76q0 51 31.5 83t82.5 32q55 0 88 -43t33 -115q0 -112 -59 -211t-166 -168z" />
    <glyph glyph-name="less" unicode="&#x3c;" horiz-adv-x="1179" 
d="M1030 94l-924 426v139l924 426l57 -133l-790 -362l790 -363z" />
    <glyph glyph-name="equal" unicode="=" horiz-adv-x="1179" 
d="M106 739v142h967v-142h-967zM106 299v141h967v-141h-967z" />
    <glyph glyph-name="greater" unicode="&#x3e;" horiz-adv-x="1179" 
d="M150 94l-58 133l791 363l-791 362l58 133l923 -426v-139z" />
    <glyph glyph-name="question" unicode="?" horiz-adv-x="942" 
d="M369 428v29q0 58 23 112.5t57.5 93.5t75 82.5t75 81t57.5 87.5t23 102q0 108 -71.5 177t-184.5 69q-134 0 -295 -107l-66 121q184 125 386 125q173 0 284 -103t111 -262q0 -60 -18 -114.5t-46.5 -96.5t-63.5 -81t-70.5 -74.5t-65.5 -69.5t-50 -74.5t-22 -81.5l-2 -16
h-137zM438 -18q-49 0 -78.5 31t-29.5 79q0 47 30.5 77t77.5 30t78 -30t31 -77t-31 -78.5t-78 -31.5z" />
    <glyph glyph-name="at" unicode="@" horiz-adv-x="1990" 
d="M1020 -418q-266 0 -476 116.5t-327 325.5t-117 474q0 264 117.5 473t327.5 325.5t475 116.5q250 0 448 -103t309 -288.5t111 -419.5q0 -246 -109.5 -398.5t-287.5 -152.5q-87 0 -148.5 46t-80.5 122q-52 -81 -132.5 -124.5t-181.5 -43.5q-168 0 -278.5 126.5
t-110.5 320.5t110.5 320t278.5 126q94 0 167 -40t118 -113l16 133h135v-609q0 -65 33.5 -104t91.5 -39q107 0 173.5 115.5t66.5 302.5q0 202 -93.5 361.5t-259.5 248t-376 88.5q-225 0 -402.5 -100.5t-276.5 -280.5t-99 -409q0 -171 57.5 -318.5t159.5 -251t247 -162.5
t314 -59q232 0 504 150l63 -111q-302 -164 -567 -164zM987 180q106 0 171 72t65 182v127q0 110 -65 182t-171 72q-116 0 -190 -89t-74 -228t74 -228.5t190 -89.5z" />
    <glyph glyph-name="A" unicode="A" horiz-adv-x="1374" 
d="M41 0l567 1376h158l567 -1376h-172l-151 377h-645l-152 -377h-172zM412 506h549l-275 678z" />
    <glyph glyph-name="B" unicode="B" horiz-adv-x="1335" 
d="M205 0v1376h555q180 0 293.5 -99.5t113.5 -256.5q0 -105 -57 -186.5t-154 -120.5q121 -35 191 -126.5t70 -213.5q0 -166 -118.5 -269.5t-305.5 -103.5h-588zM369 762h370q117 0 191 68.5t74 175.5t-74 175t-191 68h-370v-487zM369 127h401q125 0 203 72.5t78 187.5
t-78 187.5t-203 72.5h-401v-520z" />
    <glyph glyph-name="C" unicode="C" horiz-adv-x="1323" 
d="M778 -25q-300 0 -489 199t-189 514t189 514t489 199q245 0 465 -152l-72 -114q-178 127 -370 127q-235 0 -381 -159.5t-146 -414.5t146 -414t381 -159q192 0 370 127l72 -115q-220 -152 -465 -152z" />
    <glyph glyph-name="D" unicode="D" horiz-adv-x="1472" 
d="M205 0v1376h465q313 0 506.5 -190t193.5 -498q0 -201 -87.5 -357.5t-247 -243.5t-365.5 -87h-465zM373 133h280q241 0 393 155t152 400t-152 400t-393 155h-280v-1110z" />
    <glyph glyph-name="E" unicode="E" horiz-adv-x="1224" 
d="M205 0v1376h878v-131h-710v-477h645v-127h-645v-510h743v-131h-911z" />
    <glyph glyph-name="F" unicode="F" horiz-adv-x="1191" 
d="M205 0v1376h878v-133h-710v-524h645v-133h-645v-586h-168z" />
    <glyph glyph-name="G" unicode="G" horiz-adv-x="1439" 
d="M811 -25q-206 0 -368.5 90.5t-252.5 253t-90 369.5q0 155 51.5 287.5t142.5 226t220.5 146.5t280.5 53q237 0 481 -137l-64 -117q-218 121 -399 121q-241 0 -393 -162.5t-152 -417.5t154.5 -417t400.5 -162q168 0 318 69v410h-346v127h503v-627q-241 -113 -487 -113z" />
    <glyph glyph-name="H" unicode="H" horiz-adv-x="1570" 
d="M205 0v1376h168v-604h823v604h170v-1376h-170v637h-823v-637h-168z" />
    <glyph glyph-name="I" unicode="I" horiz-adv-x="577" 
d="M205 0v1376h168v-1376h-168z" />
    <glyph glyph-name="J" unicode="J" horiz-adv-x="909" 
d="M315 -25q-125 0 -268 35l25 135q111 -30 207 -30q114 0 185 71t71 185v1005h170v-1020q0 -169 -109 -275t-281 -106z" />
    <glyph glyph-name="K" unicode="K" horiz-adv-x="1357" 
d="M205 0v1376h164v-727l704 727h201l-627 -643l656 -733h-203l-568 631l-163 -164v-467h-164z" />
    <glyph glyph-name="L" unicode="L" horiz-adv-x="1093" 
d="M205 0v1376h168v-1243h667v-133h-835z" />
    <glyph glyph-name="M" unicode="M" horiz-adv-x="1751" 
d="M205 0v1376h166l503 -688l506 688h166v-1376h-157v1143l-465 -633h-99l-463 633v-1143h-157z" />
    <glyph glyph-name="N" unicode="N" horiz-adv-x="1570" 
d="M205 0v1376h166l837 -1143v1143h158v-1376h-166l-838 1143v-1143h-157z" />
    <glyph glyph-name="O" unicode="O" horiz-adv-x="1570" 
d="M784 -25q-197 0 -353 90.5t-243.5 253.5t-87.5 369t87.5 369t243.5 253.5t353 90.5q198 0 354 -90.5t243 -253t87 -369.5t-87 -369.5t-243 -253t-354 -90.5zM784 113q225 0 368.5 161t143.5 414t-143.5 414.5t-368.5 161.5q-224 0 -367 -161.5t-143 -414.5t143 -414
t367 -161z" />
    <glyph glyph-name="P" unicode="P" horiz-adv-x="1269" 
d="M205 0v1376h518q202 0 331.5 -121t129.5 -311q0 -189 -130 -309.5t-331 -120.5h-354v-514h-164zM369 647h329q140 0 230 83.5t90 213.5t-90 214.5t-230 84.5h-329v-596z" />
    <glyph glyph-name="Q" unicode="Q" horiz-adv-x="1570" 
d="M1405 -274l-393 288q-109 -39 -228 -39q-197 0 -353 90.5t-243.5 253.5t-87.5 369t87.5 369t243.5 253.5t353 90.5q198 0 354 -90.5t243 -253t87 -369.5q0 -203 -83.5 -362t-231.5 -248l336 -246zM784 113q225 0 368.5 161t143.5 414t-143.5 414.5t-368.5 161.5
q-224 0 -367 -161.5t-143 -414.5t143 -414t367 -161z" />
    <glyph glyph-name="R" unicode="R" horiz-adv-x="1335" 
d="M205 0v1376h524q195 0 320 -115t125 -296q0 -157 -95 -265.5t-252 -128.5l402 -571h-187l-378 547h-295v-547h-164zM369 680h336q134 0 218.5 78t84.5 203q0 124 -84.5 203t-218.5 79h-336v-563z" />
    <glyph glyph-name="S" unicode="S" horiz-adv-x="1187" 
d="M594 -25q-224 0 -490 109l41 131q261 -102 437 -102q152 0 242.5 65.5t90.5 173.5q0 60 -27.5 105.5t-74 74t-106.5 51t-126.5 41.5t-133 39.5t-126.5 50.5t-106.5 70t-74 103.5t-27.5 144.5q0 163 134 266t347 103q205 0 440 -92l-41 -131q-210 86 -387 86
q-148 0 -237.5 -64t-89.5 -168q0 -59 27.5 -103t74 -72t107 -49.5t127 -40t133 -39t127 -51.5t107 -72t74 -105.5t27.5 -147.5q0 -167 -135.5 -272t-353.5 -105z" />
    <glyph glyph-name="T" unicode="T" horiz-adv-x="1224" 
d="M528 0v1243h-475v133h1118v-133h-475v-1243h-168z" />
    <glyph glyph-name="U" unicode="U" horiz-adv-x="1570" 
d="M784 -25q-170 0 -306 69t-213 195.5t-77 286.5v850h168v-844q0 -185 121 -302t307 -117q187 0 307.5 117t120.5 302v844h170v-850q0 -160 -77.5 -286.5t-213.5 -195.5t-307 -69z" />
    <glyph glyph-name="V" unicode="V" horiz-adv-x="1374" 
d="M608 0l-567 1376h178l467 -1167l469 1167h178l-567 -1376h-158z" />
    <glyph glyph-name="W" unicode="W" horiz-adv-x="2062" 
d="M506 0l-440 1376h170l358 -1167l356 1167h160l358 -1167l357 1167h172l-441 -1376h-167l-359 1167l-356 -1167h-168z" />
    <glyph glyph-name="X" unicode="X" horiz-adv-x="1390" 
d="M61 0l525 705l-500 671h188l420 -563l420 563h191l-502 -671l526 -705h-192l-443 596l-440 -596h-193z" />
    <glyph glyph-name="Y" unicode="Y" horiz-adv-x="1226" 
d="M528 0v588l-503 788h186l403 -637l402 637h188l-506 -788v-588h-170z" />
    <glyph glyph-name="Z" unicode="Z" horiz-adv-x="1286" 
d="M104 0v98l832 1145h-807v133h1028v-98l-831 -1145h856v-133h-1078z" />
    <glyph glyph-name="bracketleft" unicode="[" horiz-adv-x="690" 
d="M215 -274v1728h401v-135h-249v-1458h249v-135h-401z" />
    <glyph glyph-name="backslash" unicode="\" horiz-adv-x="786" 
d="M631 -270l-619 1712h148l616 -1712h-145z" />
    <glyph glyph-name="bracketright" unicode="]" horiz-adv-x="690" 
d="M74 -274v135h252v1458h-252v135h403v-1728h-403z" />
    <glyph glyph-name="asciicircum" unicode="^" horiz-adv-x="1179" 
d="M227 391l-133 51l426 934h139l426 -934l-133 -51l-362 797z" />
    <glyph glyph-name="underscore" unicode="_" horiz-adv-x="983" 
d="M0 -326v127h983v-127h-983z" />
    <glyph glyph-name="grave" unicode="`" horiz-adv-x="491" 
d="M324 1128l-359 228l74 106l348 -241z" />
    <glyph glyph-name="a" unicode="a" 
d="M541 -25q-197 0 -324 147t-127 376q0 228 127 375t324 147q106 0 191.5 -47t137.5 -135l21 157h143v-995h-131l-20 166q-54 -92 -143 -141.5t-199 -49.5zM580 109q129 0 210.5 86t81.5 223v160q0 135 -81.5 222t-210.5 87q-141 0 -231.5 -109.5t-90.5 -279.5
q0 -171 90.5 -280t231.5 -109z" />
    <glyph glyph-name="b" unicode="b" 
d="M655 -25q-113 0 -201.5 49.5t-140.5 141.5l-20 -166h-131v1442h162v-604q54 88 139 135t192 47q195 0 322 -147t127 -375t-127 -375.5t-322 -147.5zM616 109q140 0 231 109t91 280q0 170 -91 279.5t-231 109.5q-130 0 -212 -86.5t-82 -222.5v-160q0 -137 82 -223t212 -86
z" />
    <glyph glyph-name="c" unicode="c" horiz-adv-x="1007" 
d="M592 -25q-220 0 -361 146.5t-141 376.5q0 229 141 375.5t361 146.5q184 0 352 -113l-67 -112q-131 90 -265 90q-157 0 -255.5 -107.5t-98.5 -279.5t98.5 -280.5t255.5 -108.5q131 0 265 92l67 -113q-168 -113 -352 -113z" />
    <glyph glyph-name="d" unicode="d" 
d="M541 -25q-197 0 -324 147t-127 376q0 228 127 375t324 147q106 0 191.5 -47t137.5 -135v604h164v-1442h-131l-20 166q-54 -92 -143 -141.5t-199 -49.5zM580 109q129 0 210.5 86t81.5 223v160q0 135 -81.5 222t-210.5 87q-141 0 -231.5 -109.5t-90.5 -279.5
q0 -171 90.5 -280t231.5 -109z" />
    <glyph glyph-name="e" unicode="e" horiz-adv-x="1099" 
d="M608 -25q-227 0 -372.5 146.5t-145.5 376.5t135.5 376t349.5 146q199 0 325 -140.5t126 -363.5q0 -39 -2 -59h-770q11 -159 113 -258t258 -99q145 0 301 84l51 -112q-193 -97 -369 -97zM254 561h614q-5 148 -86 241t-207 93q-133 0 -221 -91.5t-100 -242.5z" />
    <glyph glyph-name="f" unicode="f" horiz-adv-x="755" 
d="M260 0v866h-207v129h207v181q0 130 83 210t224 80q90 0 191 -26l-23 -127q-85 20 -137 20q-81 0 -128.5 -47.5t-47.5 -124.5v-166h280v-129h-280v-866h-162z" />
    <glyph glyph-name="g" unicode="g" 
d="M543 -451q-186 0 -393 89l49 122q183 -79 331 -79q150 0 245 82t95 212v181q-53 -87 -138.5 -134t-190.5 -47q-197 0 -324 147t-127 376q0 228 127 375t324 147q110 0 199 -49.5t143 -141.5l20 166h131v-1013q0 -189 -138.5 -311t-352.5 -122zM580 109q129 0 210.5 86
t81.5 223v160q0 135 -81.5 222t-210.5 87q-141 0 -231.5 -109.5t-90.5 -279.5q0 -171 90.5 -280t231.5 -109z" />
    <glyph glyph-name="h" unicode="h" 
d="M162 0v1442h162v-621q51 94 142.5 146.5t205.5 52.5q166 0 272.5 -103.5t106.5 -267.5v-649h-164v625q0 114 -73 186t-189 72q-130 0 -215.5 -90.5t-85.5 -231.5v-561h-162z" />
    <glyph glyph-name="i" unicode="i" horiz-adv-x="485" 
d="M244 1190q-49 0 -80 30.5t-31 77.5q0 48 31 78.5t80 30.5q47 0 77.5 -31t30.5 -78t-30.5 -77.5t-77.5 -30.5zM162 0v995h162v-995h-162z" />
    <glyph glyph-name="j" unicode="j" horiz-adv-x="501" 
d="M260 1190q-49 0 -79.5 30t-30.5 78t30.5 78.5t79.5 30.5q47 0 78 -31t31 -78t-31 -77.5t-78 -30.5zM41 -451q-94 0 -199 27l23 127q85 -20 141 -20q76 0 124 47.5t48 124.5v1140h162v-1155q0 -129 -83 -210t-216 -81z" />
    <glyph glyph-name="k" unicode="k" horiz-adv-x="1042" 
d="M162 0v1442h157v-940l472 493h190l-449 -465l465 -530h-192l-379 432l-107 -106v-326h-157z" />
    <glyph glyph-name="l" unicode="l" horiz-adv-x="583" 
d="M410 -25q-115 0 -181.5 64.5t-66.5 175.5v1227h162v-1213q0 -55 32 -87.5t88 -32.5q38 0 99 14l20 -129q-87 -19 -153 -19z" />
    <glyph glyph-name="m" unicode="m" horiz-adv-x="1853" 
d="M162 0v995h131l20 -174q53 96 141.5 147.5t200.5 51.5q117 0 205 -58.5t123 -158.5q59 103 153.5 160t211.5 57q160 0 261 -99.5t101 -254.5v-666h-164v641q0 106 -68 174t-175 68q-125 0 -205 -86t-80 -219v-578h-164v641q0 106 -69 174t-177 68q-124 0 -204 -85.5
t-80 -219.5v-578h-162z" />
    <glyph glyph-name="n" unicode="n" 
d="M162 0v995h131l20 -182q51 98 145.5 152.5t213.5 54.5q166 0 272.5 -103.5t106.5 -267.5v-649h-164v625q0 114 -73 186t-189 72q-130 0 -215.5 -90.5t-85.5 -231.5v-561h-162z" />
    <glyph glyph-name="o" unicode="o" 
d="M598 -25q-223 0 -365.5 146.5t-142.5 376.5t142.5 376t365.5 146q222 0 364 -146t142 -376t-142 -376.5t-364 -146.5zM598 106q149 0 244.5 109.5t95.5 282.5q0 172 -95.5 281.5t-244.5 109.5q-150 0 -245 -109.5t-95 -281.5q0 -173 94.5 -282.5t245.5 -109.5z" />
    <glyph glyph-name="p" unicode="p" 
d="M162 -426v1421h131l20 -166q52 92 140.5 141.5t201.5 49.5q195 0 322 -147t127 -375t-127 -375.5t-322 -147.5q-106 0 -191.5 47t-139.5 134v-582h-162zM616 109q140 0 231 109t91 280q0 170 -91 279.5t-231 109.5q-130 0 -212 -86.5t-82 -222.5v-160q0 -137 82 -223
t212 -86z" />
    <glyph glyph-name="q" unicode="q" 
d="M870 -426v582q-53 -87 -138.5 -134t-190.5 -47q-197 0 -324 147t-127 376q0 228 127 375t324 147q110 0 199 -49.5t143 -141.5l20 166h131v-1421h-164zM580 109q129 0 210.5 86t81.5 223v160q0 135 -81.5 222t-210.5 87q-141 0 -231.5 -109.5t-90.5 -279.5
q0 -171 90.5 -280t231.5 -109z" />
    <glyph glyph-name="r" unicode="r" horiz-adv-x="784" 
d="M162 0v995h131l20 -188q37 95 120 150t190 55q52 0 125 -17l-19 -133q-73 15 -119 15q-128 0 -207 -93.5t-79 -244.5v-539h-162z" />
    <glyph glyph-name="s" unicode="s" horiz-adv-x="919" 
d="M461 -25q-176 0 -371 76l39 121q176 -72 320 -72q99 0 160 45t61 117q0 45 -24.5 78t-65 51t-91.5 35t-105 30t-105 36t-91.5 52t-65 79.5t-24.5 117.5q0 122 102 200.5t261 78.5q162 0 336 -70l-37 -121q-157 66 -287 66q-96 0 -154.5 -42.5t-58.5 -111.5
q0 -50 31.5 -83.5t81.5 -52.5t111 -35t121.5 -37.5t110.5 -51.5t81.5 -86t31.5 -133q0 -126 -102 -206.5t-266 -80.5z" />
    <glyph glyph-name="t" unicode="t" horiz-adv-x="821" 
d="M567 -25q-141 0 -224 80.5t-83 210.5v600h-207v129h207v295h162v-295h313v-129h-313v-585q0 -77 47.5 -124.5t128.5 -47.5q52 0 137 20l23 -127q-105 -27 -191 -27z" />
    <glyph glyph-name="u" unicode="u" 
d="M522 -25q-166 0 -271.5 103.5t-105.5 267.5v649h162v-626q0 -113 73.5 -184.5t188.5 -71.5q130 0 215.5 90t85.5 231v561h164v-995h-131l-20 182q-52 -98 -147 -152.5t-214 -54.5z" />
    <glyph glyph-name="v" unicode="v" horiz-adv-x="1062" 
d="M457 0l-410 995h170l315 -807l314 807h172l-410 -995h-151z" />
    <glyph glyph-name="w" unicode="w" horiz-adv-x="1587" 
d="M389 0l-326 995h164l246 -802l244 802h153l246 -802l244 802h166l-328 -995h-160l-243 803l-246 -803h-160z" />
    <glyph glyph-name="x" unicode="x" horiz-adv-x="1062" 
d="M51 0l375 510l-358 485h182l282 -381l281 381h182l-358 -485l375 -510h-187l-293 406l-294 -406h-187z" />
    <glyph glyph-name="y" unicode="y" horiz-adv-x="1062" 
d="M211 -451q-61 0 -139 19l22 131q59 -16 101 -16q75 0 124 45.5t89 150.5l51 129l-412 987h170l320 -807l309 807h172l-463 -1145q-62 -157 -143.5 -229t-200.5 -72z" />
    <glyph glyph-name="z" unicode="z" horiz-adv-x="985" 
d="M90 0v92l574 774h-558v129h773v-94l-574 -774h590v-127h-805z" />
    <glyph glyph-name="braceleft" unicode="{" horiz-adv-x="690" 
d="M549 -274q-133 0 -220 84t-87 215q0 55 13 162.5t13 160.5q0 74 -49 124t-123 50h-33v135h33q74 0 123 49t49 125q0 50 -13 159.5t-13 164.5q0 131 87 215t220 84h67v-135h-32q-83 0 -136 -53.5t-53 -141.5q0 -47 12.5 -150t12.5 -155q0 -83 -40 -144t-114 -85
q74 -24 114 -85.5t40 -144.5q0 -50 -12.5 -153t-12.5 -152q0 -87 53 -140.5t136 -53.5h32v-135h-67z" />
    <glyph glyph-name="bar" unicode="|" horiz-adv-x="491" 
d="M176 -459v1966h139v-1966h-139z" />
    <glyph glyph-name="braceright" unicode="}" horiz-adv-x="690" 
d="M74 -274v135h32q83 0 136 53t53 141q0 47 -12.5 150t-12.5 155q0 83 40 144.5t114 85.5q-74 24 -114 85t-40 144q0 50 12.5 153t12.5 152q0 87 -53 141t-136 54h-32v135h69q133 0 220.5 -84t87.5 -215q0 -55 -14.5 -163t-14.5 -161q0 -74 49 -124t125 -50h33v-135h-33
q-75 0 -124.5 -49t-49.5 -125q0 -50 14.5 -159t14.5 -164q0 -131 -87.5 -215t-220.5 -84h-69z" />
    <glyph glyph-name="asciitilde" unicode="~" horiz-adv-x="1179" 
d="M799 471q-74 0 -145 24.5t-139 49t-134 24.5q-115 0 -221 -90l-76 117q134 113 297 113q59 0 117 -15.5t98 -34t95 -34t108 -15.5q115 0 221 90l76 -116q-134 -113 -297 -113z" />
    <glyph glyph-name="uni00A0" unicode="&#xa0;" horiz-adv-x="491" 
 />
    <glyph glyph-name="exclamdown" unicode="&#xa1;" horiz-adv-x="538" 
d="M270 797q-49 0 -79.5 30t-30.5 78t30.5 78.5t79.5 30.5t79 -30.5t30 -78.5q0 -47 -31 -77.5t-78 -30.5zM186 -381l15 946h137l14 -946h-166z" />
    <glyph glyph-name="cent" unicode="&#xa2;" horiz-adv-x="1179" 
d="M586 -131v307q-183 26 -295.5 166.5t-112.5 345.5t112.5 345.5t295.5 166.5v307h139v-301q158 -9 305 -108l-67 -113q-121 83 -242 92v-778q121 9 242 92l67 -112q-148 -100 -305 -109v-301h-139zM590 315v746q-113 -34 -179.5 -134t-66.5 -239t66.5 -239t179.5 -134z
" />
    <glyph glyph-name="sterling" unicode="&#xa3;" horiz-adv-x="1179" 
d="M139 0v131h207v510h-174v127h174v256q0 167 114 272t294 105q141 0 303 -64l-43 -123q-118 50 -230 50q-120 0 -194 -69.5t-74 -182.5v-244h383v-127h-383v-510h557v-131h-934z" />
    <glyph glyph-name="currency" unicode="&#xa4;" horiz-adv-x="1179" 
d="M205 205l-99 98l166 166q-67 85 -67 219q0 130 65 219l-164 166l99 98l164 -165q88 67 221 67q131 0 219 -67l166 165l98 -98l-166 -166q68 -89 68 -219q0 -129 -68 -219l166 -166l-98 -98l-166 166q-93 -68 -219 -68q-129 0 -219 68zM590 432q114 0 186 71t72 185
t-72 186t-186 72t-186 -72t-72 -186t72 -185t186 -71z" />
    <glyph glyph-name="yen" unicode="&#xa5;" horiz-adv-x="1179" 
d="M506 0v311h-334v117h334v190h-334v117h289l-412 641h180l361 -583l360 583h180l-411 -641h289v-117h-334v-190h334v-117h-334v-311h-168z" />
    <glyph glyph-name="brokenbar" unicode="&#xa6;" horiz-adv-x="491" 
d="M176 623v786h139v-786h-139zM176 -360v786h139v-786h-139z" />
    <glyph glyph-name="section" unicode="&#xa7;" horiz-adv-x="1083" 
d="M526 -352q-201 0 -430 92l41 129q219 -86 377 -86q126 0 200 53.5t74 145.5q0 49 -23.5 86t-63 60.5t-91 42.5t-108 35.5t-113 34.5t-108 45t-91 62t-63 89.5t-23.5 123.5q0 86 46 154t129 106q-142 83 -142 254q0 145 116.5 235.5t305.5 90.5q176 0 391 -84l-41 -131
q-188 78 -338 78q-123 0 -195.5 -52t-72.5 -137q0 -53 29.5 -92.5t77.5 -61.5t109.5 -43.5t125.5 -37.5t125.5 -44.5t109.5 -63.5t77.5 -96t29.5 -140q0 -86 -42.5 -153.5t-121.5 -109.5q131 -86 131 -251q0 -153 -118 -243.5t-310 -90.5zM676 301q68 25 106.5 74t38.5 112
q0 44 -18 79.5t-43 58t-70 43t-79.5 31.5t-91.5 28t-87 27q-74 -22 -118 -71.5t-44 -113.5q0 -45 19 -80.5t46.5 -57.5t72.5 -42t83.5 -31t94 -27.5t90.5 -29.5z" />
    <glyph glyph-name="dieresis" unicode="&#xa8;" horiz-adv-x="491" 
d="M31 1198q-44 0 -72.5 28t-28.5 72t28.5 72.5t72.5 28.5t72 -28.5t28 -72.5t-28 -72t-72 -28zM461 1198q-44 0 -72.5 28t-28.5 72t28.5 72.5t72.5 28.5t72 -28.5t28 -72.5t-28 -72t-72 -28z" />
    <glyph glyph-name="copyright" unicode="&#xa9;" horiz-adv-x="1703" 
d="M852 -66q-218 0 -390 96t-268 268t-96 390t96 390t268 268t390 96t390 -96t268 -268t96 -390t-96 -390t-268 -268t-390 -96zM852 27q144 0 267 49t209.5 135.5t135.5 209.5t49 267q0 192 -83.5 343t-234.5 235t-343 84t-343 -84t-235 -235t-84 -343t84 -343t235 -234.5
t343 -83.5zM877 246q-189 0 -307.5 123.5t-118.5 318.5t118.5 318.5t307.5 123.5q154 0 294 -94l-57 -88q-109 76 -223 76q-138 0 -223.5 -93.5t-85.5 -242.5t85.5 -242.5t223.5 -93.5q114 0 223 76l57 -88q-140 -94 -294 -94z" />
    <glyph glyph-name="ordfeminine" unicode="&#xaa;" horiz-adv-x="837" 
d="M387 705q-129 0 -212 97.5t-83 250.5q0 152 83 249t212 97q154 0 223 -119l15 102h94v-661h-86l-15 108q-35 -60 -95.5 -92t-135.5 -32zM416 797q81 0 130.5 57t49.5 150v96q0 92 -49.5 149.5t-130.5 57.5q-92 0 -143.5 -69t-51.5 -185q0 -117 51.5 -186.5t143.5 -69.5z
M78 473v92h678v-92h-678z" />
    <glyph glyph-name="guillemotleft" unicode="&#xab;" horiz-adv-x="1101" 
d="M465 20l-406 453v74l406 450l98 -77l-344 -410l344 -410zM930 20l-406 453v74l406 450l98 -77l-344 -410l344 -410z" />
    <glyph glyph-name="logicalnot" unicode="&#xac;" horiz-adv-x="1179" 
d="M932 106v414h-826v139h967v-553h-141z" />
    <glyph glyph-name="uni00AD" unicode="&#xad;" horiz-adv-x="655" 
d="M53 446v127h549v-127h-549z" />
    <glyph glyph-name="registered" unicode="&#xae;" horiz-adv-x="1703" 
d="M852 -66q-218 0 -390 96t-268 268t-96 390t96 390t268 268t390 96t390 -96t268 -268t96 -390t-96 -390t-268 -268t-390 -96zM852 27q144 0 267 49t209.5 135.5t135.5 209.5t49 267q0 192 -83.5 343t-234.5 235t-343 84t-343 -84t-235 -235t-84 -343t84 -343t235 -234.5
t343 -83.5zM565 262v852h334q125 0 204 -72.5t79 -187.5q0 -96 -56.5 -163.5t-148.5 -82.5l233 -346h-135l-215 330h-176v-330h-119zM684 688h203q77 0 125.5 45t48.5 119q0 73 -48.5 117.5t-125.5 44.5h-203v-326z" />
    <glyph glyph-name="macron" unicode="&#xaf;" horiz-adv-x="491" 
d="M-57 1241v117h606v-117h-606z" />
    <glyph glyph-name="degree" unicode="&#xb0;" horiz-adv-x="679" 
d="M340 905q-107 0 -176.5 68.5t-69.5 175.5q0 108 69 177t177 69t177 -69t69 -177q0 -107 -69.5 -175.5t-176.5 -68.5zM340 999q66 0 107.5 42t41.5 108q0 67 -41.5 109t-107.5 42t-109 -42t-43 -109q0 -66 43 -108t109 -42z" />
    <glyph glyph-name="plusminus" unicode="&#xb1;" horiz-adv-x="1179" 
d="M520 289v413h-414v140h414v411h139v-411h414v-140h-414v-413h-139zM106 0v139h967v-139h-967z" />
    <glyph glyph-name="uni00B2" unicode="&#xb2;" horiz-adv-x="700" 
d="M49 786v80l326 324q98 103 98 194q0 72 -45.5 118t-120.5 46q-97 0 -207 -71l-49 92q139 86 277 86q118 0 192 -71.5t74 -182.5q0 -134 -119 -256l-256 -258h387v-101h-557z" />
    <glyph glyph-name="uni00B3" unicode="&#xb3;" horiz-adv-x="700" 
d="M332 770q-149 0 -285 68l41 90q113 -58 221 -58q79 0 127.5 42t48.5 108q0 71 -56.5 115.5t-147.5 44.5h-58v86h58q83 0 134.5 41.5t51.5 107.5q0 62 -42.5 100.5t-111.5 38.5q-105 0 -211 -53l-41 92q132 62 271 62q115 0 187.5 -64.5t72.5 -165.5q0 -70 -39.5 -123
t-106.5 -75q75 -25 120.5 -83.5t45.5 -133.5q0 -106 -78.5 -173t-201.5 -67z" />
    <glyph glyph-name="acute" unicode="&#xb4;" horiz-adv-x="491" 
d="M180 1128l-63 93l348 241l74 -106z" />
    <glyph glyph-name="uni00B5" unicode="&#xb5;" horiz-adv-x="1243" 
d="M162 -426v1421h162v-626q0 -113 73.5 -184.5t188.5 -71.5q130 0 215.5 90t85.5 231v561h164v-796q0 -41 23.5 -65.5t64.5 -24.5q13 0 55 6l14 -129q-60 -11 -108 -11q-87 0 -140.5 49.5t-58.5 133.5q-53 -87 -137 -134t-182 -47q-178 0 -258 121v-524h-162z" />
    <glyph glyph-name="paragraph" unicode="&#xb6;" 
d="M850 -328v1565h-217v-707h-86q-201 0 -332 119t-131 303q0 186 131 305t332 119h444v-1704h-141z" />
    <glyph glyph-name="periodcentered" unicode="&#xb7;" horiz-adv-x="505" 
d="M254 395q-51 0 -83 31.5t-32 81.5q0 51 32 83t83 32q50 0 82.5 -32t32.5 -83q0 -49 -32.5 -81t-82.5 -32z" />
    <glyph glyph-name="cedilla" unicode="&#xb8;" horiz-adv-x="491" 
d="M217 -461q-93 0 -186 37l28 96q79 -28 144 -28q50 0 82 24.5t32 63.5q0 40 -34 64t-88 24h-23l33 180h114l-20 -115q67 -9 109.5 -56.5t42.5 -111.5q0 -78 -65.5 -128t-168.5 -50z" />
    <glyph glyph-name="uni00B9" unicode="&#xb9;" horiz-adv-x="557" 
d="M283 786v727l-209 -118l-47 86l276 157h103v-852h-123z" />
    <glyph glyph-name="ordmasculine" unicode="&#xba;" horiz-adv-x="837" 
d="M420 705q-151 0 -247.5 97t-96.5 249q0 153 96.5 250.5t247.5 97.5q150 0 246 -97.5t96 -250.5q0 -152 -96 -249t-246 -97zM420 805q94 0 153.5 68.5t59.5 177.5q0 110 -59.5 178.5t-153.5 68.5q-95 0 -155 -68.5t-60 -178.5q0 -109 60 -177.5t155 -68.5zM86 473v92h666
v-92h-666z" />
    <glyph glyph-name="guillemotright" unicode="&#xbb;" horiz-adv-x="1101" 
d="M172 20l-98 80l344 410l-344 410l98 77l406 -450v-74zM637 20l-98 80l344 410l-344 410l98 77l405 -450v-74z" />
    <glyph glyph-name="onequarter" unicode="&#xbc;" horiz-adv-x="1966" 
d="M397 524v727l-209 -118l-47 86l277 157h102v-852h-123zM399 0l1033 1376h135l-1032 -1376h-136zM1614 0v193h-412v88l406 571h118v-565h125v-94h-125v-193h-112zM1319 287h295v420z" />
    <glyph glyph-name="onehalf" unicode="&#xbd;" horiz-adv-x="1966" 
d="M397 524v727l-209 -118l-47 86l277 157h102v-852h-123zM399 0l1033 1376h135l-1032 -1376h-136zM1272 0v80l325 323q99 94 99 195q0 72 -46 118t-120 46q-95 0 -207 -72l-49 92q139 86 276 86q118 0 192.5 -71.5t74.5 -182.5q0 -134 -119 -256l-256 -258h387v-100h-557z
" />
    <glyph glyph-name="threequarters" unicode="&#xbe;" horiz-adv-x="1966" 
d="M375 508q-151 0 -285 67l41 91q113 -58 221 -58q79 0 127.5 42t48.5 108q0 71 -56.5 115.5t-147.5 44.5h-58v86h58q83 0 134.5 41.5t51.5 107.5q0 62 -42.5 100.5t-111.5 38.5q-105 0 -211 -53l-41 92q132 62 271 62q115 0 187.5 -64.5t72.5 -165.5q0 -70 -39.5 -123
t-106.5 -75q75 -25 120.5 -83.5t45.5 -133.5q0 -106 -78.5 -173t-201.5 -67zM399 0l1033 1376h135l-1032 -1376h-136zM1614 0v193h-412v88l406 571h118v-565h125v-94h-125v-193h-112zM1319 287h295v420z" />
    <glyph glyph-name="questiondown" unicode="&#xbf;" horiz-adv-x="811" 
d="M487 797q-47 0 -77.5 30.5t-30.5 77.5t30.5 78t77.5 31t78 -31t31 -78t-31 -77.5t-78 -30.5zM477 -406q-173 0 -285 102.5t-112 262.5q0 69 24 132t60.5 107t80 90t80.5 83t63.5 84t29.5 94v16h137v-26q0 -59 -23 -113.5t-57.5 -93.5t-75 -82.5t-75 -80.5t-57.5 -87
t-23 -102q0 -109 71.5 -177.5t184.5 -68.5q139 0 295 106l65 -121q-181 -125 -383 -125z" />
    <glyph glyph-name="Agrave" unicode="&#xc0;" horiz-adv-x="1374" 
d="M766 1509l-358 228l73 106l348 -241zM41 0l567 1376h158l567 -1376h-172l-151 377h-645l-152 -377h-172zM412 506h549l-275 678z" />
    <glyph glyph-name="Aacute" unicode="&#xc1;" horiz-adv-x="1374" 
d="M623 1509l-64 93l348 241l74 -106zM41 0l567 1376h158l567 -1376h-172l-151 377h-645l-152 -377h-172zM412 506h549l-275 678z" />
    <glyph glyph-name="Acircumflex" unicode="&#xc2;" horiz-adv-x="1374" 
d="M457 1513l-72 78l252 244h102l252 -244l-71 -78l-232 205zM41 0l567 1376h158l567 -1376h-172l-151 377h-645l-152 -377h-172zM412 506h549l-275 678z" />
    <glyph glyph-name="Atilde" unicode="&#xc3;" horiz-adv-x="1374" 
d="M483 1583l-104 33q15 73 63 116.5t115 43.5q51 0 136.5 -38t113.5 -38q63 0 86 76l104 -31q-15 -73 -63 -117.5t-115 -44.5q-51 0 -136.5 38t-113.5 38q-64 0 -86 -76zM41 0l567 1376h158l567 -1376h-172l-151 377h-645l-152 -377h-172zM412 506h549l-275 678z" />
    <glyph glyph-name="Adieresis" unicode="&#xc4;" horiz-adv-x="1374" 
d="M473 1579q-44 0 -72 28t-28 72t28 72.5t72 28.5t72 -28.5t28 -72.5t-28 -72t-72 -28zM903 1579q-44 0 -72 28t-28 72t28 72.5t72 28.5t72.5 -28.5t28.5 -72.5t-28.5 -72t-72.5 -28zM41 0l567 1376h158l567 -1376h-172l-151 377h-645l-152 -377h-172zM412 506h549
l-275 678z" />
    <glyph glyph-name="Aring" unicode="&#xc5;" horiz-adv-x="1374" 
d="M690 1481q-91 0 -149 55t-58 143t57 143.5t148 55.5t148 -55.5t57 -143.5t-56 -143t-147 -55zM690 1563q52 0 83.5 31.5t31.5 84.5t-32.5 86t-84.5 33t-84.5 -33t-32.5 -86q0 -52 33 -84t86 -32zM41 0l567 1376h158l567 -1376h-172l-151 377h-645l-152 -377h-172z
M412 506h549l-275 678z" />
    <glyph glyph-name="AE" unicode="&#xc6;" horiz-adv-x="1990" 
d="M-14 0l913 1376h950v-131h-710v-477h645v-127h-645v-510h743v-131h-907v377h-549l-248 -377h-192zM502 506h473v719z" />
    <glyph glyph-name="Ccedilla" unicode="&#xc7;" horiz-adv-x="1323" 
d="M1243 127q-192 -134 -414 -150l-16 -92q67 -9 109.5 -56.5t42.5 -111.5q0 -78 -65.5 -128t-168.5 -50q-93 0 -186 37l28 96q79 -28 144 -28q50 0 82 24.5t32 63.5q0 40 -34 64t-88 24h-23l29 157q-276 22 -445.5 218t-169.5 493q0 315 189 514t489 199q245 0 465 -152
l-72 -114q-178 127 -370 127q-235 0 -381 -159.5t-146 -414.5t146 -414t381 -159q192 0 370 127z" />
    <glyph glyph-name="Egrave" unicode="&#xc8;" horiz-adv-x="1224" 
d="M723 1509l-358 228l73 106l348 -241zM205 0v1376h878v-131h-710v-477h645v-127h-645v-510h743v-131h-911z" />
    <glyph glyph-name="Eacute" unicode="&#xc9;" horiz-adv-x="1224" 
d="M580 1509l-64 93l348 241l74 -106zM205 0v1376h878v-131h-710v-477h645v-127h-645v-510h743v-131h-911z" />
    <glyph glyph-name="Ecircumflex" unicode="&#xca;" horiz-adv-x="1224" 
d="M414 1513l-72 78l252 244h102l252 -244l-71 -78l-232 205zM205 0v1376h878v-131h-710v-477h645v-127h-645v-510h743v-131h-911z" />
    <glyph glyph-name="Edieresis" unicode="&#xcb;" horiz-adv-x="1224" 
d="M430 1579q-44 0 -72 28t-28 72t28 72.5t72 28.5t72 -28.5t28 -72.5t-28 -72t-72 -28zM860 1579q-44 0 -72 28t-28 72t28 72.5t72 28.5t72.5 -28.5t28.5 -72.5t-28.5 -72t-72.5 -28zM205 0v1376h878v-131h-710v-477h645v-127h-645v-510h743v-131h-911z" />
    <glyph glyph-name="Igrave" unicode="&#xcc;" horiz-adv-x="577" 
d="M367 1509l-359 228l74 106l348 -241zM205 0v1376h168v-1376h-168z" />
    <glyph glyph-name="Iacute" unicode="&#xcd;" horiz-adv-x="577" 
d="M223 1509l-63 93l348 241l74 -106zM205 0v1376h168v-1376h-168z" />
    <glyph glyph-name="Icircumflex" unicode="&#xce;" horiz-adv-x="577" 
d="M57 1513l-71 78l252 244h102l252 -244l-72 -78l-231 205zM205 0v1376h168v-1376h-168z" />
    <glyph glyph-name="Idieresis" unicode="&#xcf;" horiz-adv-x="577" 
d="M74 1579q-44 0 -72.5 28t-28.5 72t28.5 72.5t72.5 28.5t72 -28.5t28 -72.5t-28 -72t-72 -28zM504 1579q-44 0 -72.5 28t-28.5 72t28.5 72.5t72.5 28.5t72 -28.5t28 -72.5t-28 -72t-72 -28zM205 0v1376h168v-1376h-168z" />
    <glyph glyph-name="Eth" unicode="&#xd0;" horiz-adv-x="1505" 
d="M238 0v641h-185v127h185v608h464q313 0 507 -190t194 -498q0 -201 -87.5 -357.5t-247.5 -243.5t-366 -87h-464zM401 133h289q241 0 394 155t153 400t-153 400t-394 155h-289v-475h355v-127h-355v-508z" />
    <glyph glyph-name="Ntilde" unicode="&#xd1;" horiz-adv-x="1570" 
d="M582 1583l-105 33q15 73 63 116.5t115 43.5q51 0 136.5 -38t113.5 -38q63 0 86 76l105 -31q-15 -73 -63 -117.5t-115 -44.5q-51 0 -136.5 38t-113.5 38q-64 0 -86 -76zM205 0v1376h166l837 -1143v1143h158v-1376h-166l-838 1143v-1143h-157z" />
    <glyph glyph-name="Ograve" unicode="&#xd2;" horiz-adv-x="1570" 
d="M864 1509l-358 228l74 106l348 -241zM784 -25q-197 0 -353 90.5t-243.5 253.5t-87.5 369t87.5 369t243.5 253.5t353 90.5q198 0 354 -90.5t243 -253t87 -369.5t-87 -369.5t-243 -253t-354 -90.5zM784 113q225 0 368.5 161t143.5 414t-143.5 414.5t-368.5 161.5
q-224 0 -367 -161.5t-143 -414.5t143 -414t367 -161z" />
    <glyph glyph-name="Oacute" unicode="&#xd3;" horiz-adv-x="1570" 
d="M721 1509l-64 93l349 241l73 -106zM784 -25q-197 0 -353 90.5t-243.5 253.5t-87.5 369t87.5 369t243.5 253.5t353 90.5q198 0 354 -90.5t243 -253t87 -369.5t-87 -369.5t-243 -253t-354 -90.5zM784 113q225 0 368.5 161t143.5 414t-143.5 414.5t-368.5 161.5
q-224 0 -367 -161.5t-143 -414.5t143 -414t367 -161z" />
    <glyph glyph-name="Ocircumflex" unicode="&#xd4;" horiz-adv-x="1570" 
d="M555 1513l-72 78l252 244h103l252 -244l-72 -78l-232 205zM784 -25q-197 0 -353 90.5t-243.5 253.5t-87.5 369t87.5 369t243.5 253.5t353 90.5q198 0 354 -90.5t243 -253t87 -369.5t-87 -369.5t-243 -253t-354 -90.5zM784 113q225 0 368.5 161t143.5 414t-143.5 414.5
t-368.5 161.5q-224 0 -367 -161.5t-143 -414.5t143 -414t367 -161z" />
    <glyph glyph-name="Otilde" unicode="&#xd5;" horiz-adv-x="1570" 
d="M582 1583l-105 33q15 73 63 116.5t115 43.5q51 0 136.5 -38t113.5 -38q63 0 86 76l105 -31q-15 -73 -63 -117.5t-115 -44.5q-51 0 -136.5 38t-113.5 38q-64 0 -86 -76zM784 -25q-197 0 -353 90.5t-243.5 253.5t-87.5 369t87.5 369t243.5 253.5t353 90.5q198 0 354 -90.5
t243 -253t87 -369.5t-87 -369.5t-243 -253t-354 -90.5zM784 113q225 0 368.5 161t143.5 414t-143.5 414.5t-368.5 161.5q-224 0 -367 -161.5t-143 -414.5t143 -414t367 -161z" />
    <glyph glyph-name="Odieresis" unicode="&#xd6;" horiz-adv-x="1570" 
d="M571 1579q-44 0 -72 28t-28 72t28 72.5t72 28.5t72.5 -28.5t28.5 -72.5t-28.5 -72t-72.5 -28zM1001 1579q-44 0 -72 28t-28 72t28 72.5t72 28.5t72.5 -28.5t28.5 -72.5t-28.5 -72t-72.5 -28zM784 -25q-197 0 -353 90.5t-243.5 253.5t-87.5 369t87.5 369t243.5 253.5
t353 90.5q198 0 354 -90.5t243 -253t87 -369.5t-87 -369.5t-243 -253t-354 -90.5zM784 113q225 0 368.5 161t143.5 414t-143.5 414.5t-368.5 161.5q-224 0 -367 -161.5t-143 -414.5t143 -414t367 -161z" />
    <glyph glyph-name="multiply" unicode="&#xd7;" horiz-adv-x="1179" 
d="M252 154l-98 98l338 338l-338 338l98 98l338 -338l338 338l98 -98l-338 -338l338 -338l-98 -98l-338 338z" />
    <glyph glyph-name="Oslash" unicode="&#xd8;" horiz-adv-x="1570" 
d="M784 -25q-224 0 -381 117l-81 -108h-129l122 168q-103 97 -159 234t-56 302q0 207 87 369.5t243 253t354 90.5q215 0 383 -117l82 109h129l-127 -168q104 -96 160.5 -234t56.5 -303q0 -207 -87 -369.5t-243 -253t-354 -90.5zM408 274l673 895q-122 101 -297 101
q-230 0 -376 -163.5t-146 -418.5t146 -414zM784 106q230 0 377.5 163.5t147.5 418.5q0 124 -39.5 231t-110.5 183l-672 -897q129 -99 297 -99z" />
    <glyph glyph-name="Ugrave" unicode="&#xd9;" horiz-adv-x="1570" 
d="M864 1509l-358 228l74 106l348 -241zM784 -25q-170 0 -306 69t-213 195.5t-77 286.5v850h168v-844q0 -185 121 -302t307 -117q187 0 307.5 117t120.5 302v844h170v-850q0 -160 -77.5 -286.5t-213.5 -195.5t-307 -69z" />
    <glyph glyph-name="Uacute" unicode="&#xda;" horiz-adv-x="1570" 
d="M721 1509l-64 93l349 241l73 -106zM784 -25q-170 0 -306 69t-213 195.5t-77 286.5v850h168v-844q0 -185 121 -302t307 -117q187 0 307.5 117t120.5 302v844h170v-850q0 -160 -77.5 -286.5t-213.5 -195.5t-307 -69z" />
    <glyph glyph-name="Ucircumflex" unicode="&#xdb;" horiz-adv-x="1570" 
d="M555 1513l-72 78l252 244h103l252 -244l-72 -78l-232 205zM784 -25q-170 0 -306 69t-213 195.5t-77 286.5v850h168v-844q0 -185 121 -302t307 -117q187 0 307.5 117t120.5 302v844h170v-850q0 -160 -77.5 -286.5t-213.5 -195.5t-307 -69z" />
    <glyph glyph-name="Udieresis" unicode="&#xdc;" horiz-adv-x="1570" 
d="M571 1579q-44 0 -72 28t-28 72t28 72.5t72 28.5t72.5 -28.5t28.5 -72.5t-28.5 -72t-72.5 -28zM1001 1579q-44 0 -72 28t-28 72t28 72.5t72 28.5t72.5 -28.5t28.5 -72.5t-28.5 -72t-72.5 -28zM784 -25q-170 0 -306 69t-213 195.5t-77 286.5v850h168v-844q0 -185 121 -302
t307 -117q187 0 307.5 117t120.5 302v844h170v-850q0 -160 -77.5 -286.5t-213.5 -195.5t-307 -69z" />
    <glyph glyph-name="Yacute" unicode="&#xdd;" horiz-adv-x="1226" 
d="M549 1509l-64 93l349 241l73 -106zM528 0v588l-503 788h186l403 -637l402 637h188l-506 -788v-588h-170z" />
    <glyph glyph-name="Thorn" unicode="&#xde;" horiz-adv-x="1269" 
d="M205 0v1376h164v-239h354q201 0 331 -121.5t130 -310.5t-130 -311t-331 -122h-354v-272h-164zM369 408h329q140 0 230 83.5t90 213.5t-90 213t-230 83h-329v-593z" />
    <glyph glyph-name="germandbls" unicode="&#xdf;" horiz-adv-x="1259" 
d="M834 -25q-146 0 -299 68l45 121q133 -62 241 -62q92 0 149.5 43.5t57.5 116.5q0 43 -22 77t-57 57t-77 44.5t-84.5 47t-77.5 56t-57 78.5t-22 109q0 51 18 96t43.5 79.5t51 68.5t43.5 76t18 88q0 86 -64 143t-166 57q-116 0 -186 -72t-70 -194v-1073h-157v1079
q0 176 115.5 281.5t304.5 105.5q169 0 278 -91.5t109 -229.5q0 -56 -18 -105t-43.5 -84t-51 -67t-43.5 -69.5t-18 -76.5q0 -44 21.5 -78.5t56 -58.5t76 -46t83.5 -47.5t76.5 -57t56 -81t21.5 -112.5q0 -130 -98 -208.5t-254 -78.5z" />
    <glyph glyph-name="agrave" unicode="&#xe0;" 
d="M631 1128l-359 228l74 106l348 -241zM541 -25q-197 0 -324 147t-127 376q0 228 127 375t324 147q106 0 191.5 -47t137.5 -135l21 157h143v-995h-131l-20 166q-54 -92 -143 -141.5t-199 -49.5zM580 109q129 0 210.5 86t81.5 223v160q0 135 -81.5 222t-210.5 87
q-141 0 -231.5 -109.5t-90.5 -279.5q0 -171 90.5 -280t231.5 -109z" />
    <glyph glyph-name="aacute" unicode="&#xe1;" 
d="M487 1128l-63 93l348 241l74 -106zM541 -25q-197 0 -324 147t-127 376q0 228 127 375t324 147q106 0 191.5 -47t137.5 -135l21 157h143v-995h-131l-20 166q-54 -92 -143 -141.5t-199 -49.5zM580 109q129 0 210.5 86t81.5 223v160q0 135 -81.5 222t-210.5 87
q-141 0 -231.5 -109.5t-90.5 -279.5q0 -171 90.5 -280t231.5 -109z" />
    <glyph glyph-name="acircumflex" unicode="&#xe2;" 
d="M322 1133l-72 77l252 244h102l252 -244l-72 -77l-231 204zM541 -25q-197 0 -324 147t-127 376q0 228 127 375t324 147q106 0 191.5 -47t137.5 -135l21 157h143v-995h-131l-20 166q-54 -92 -143 -141.5t-199 -49.5zM580 109q129 0 210.5 86t81.5 223v160q0 135 -81.5 222
t-210.5 87q-141 0 -231.5 -109.5t-90.5 -279.5q0 -171 90.5 -280t231.5 -109z" />
    <glyph glyph-name="atilde" unicode="&#xe3;" 
d="M348 1202l-104 33q15 73 63 116.5t115 43.5q51 0 136.5 -38t113.5 -38q63 0 86 76l104 -31q-15 -73 -63 -117.5t-115 -44.5q-51 0 -136.5 38t-113.5 38q-64 0 -86 -76zM541 -25q-197 0 -324 147t-127 376q0 228 127 375t324 147q106 0 191.5 -47t137.5 -135l21 157h143
v-995h-131l-20 166q-54 -92 -143 -141.5t-199 -49.5zM580 109q129 0 210.5 86t81.5 223v160q0 135 -81.5 222t-210.5 87q-141 0 -231.5 -109.5t-90.5 -279.5q0 -171 90.5 -280t231.5 -109z" />
    <glyph glyph-name="adieresis" unicode="&#xe4;" 
d="M338 1198q-44 0 -72 28t-28 72t28 72.5t72 28.5t72 -28.5t28 -72.5t-28 -72t-72 -28zM768 1198q-44 0 -72 28t-28 72t28 72.5t72 28.5t72 -28.5t28 -72.5t-28 -72t-72 -28zM541 -25q-197 0 -324 147t-127 376q0 228 127 375t324 147q106 0 191.5 -47t137.5 -135l21 157
h143v-995h-131l-20 166q-54 -92 -143 -141.5t-199 -49.5zM580 109q129 0 210.5 86t81.5 223v160q0 135 -81.5 222t-210.5 87q-141 0 -231.5 -109.5t-90.5 -279.5q0 -171 90.5 -280t231.5 -109z" />
    <glyph glyph-name="aring" unicode="&#xe5;" 
d="M555 1100q-91 0 -149 55t-58 143t57 143.5t148 55.5t148 -55.5t57 -143.5t-56 -143t-147 -55zM555 1182q52 0 83.5 31.5t31.5 84.5t-32.5 86t-84.5 33t-84.5 -33t-32.5 -86q0 -52 33 -84t86 -32zM541 -25q-197 0 -324 147t-127 376q0 228 127 375t324 147
q106 0 191.5 -47t137.5 -135l21 157h143v-995h-131l-20 166q-54 -92 -143 -141.5t-199 -49.5zM580 109q129 0 210.5 86t81.5 223v160q0 135 -81.5 222t-210.5 87q-141 0 -231.5 -109.5t-90.5 -279.5q0 -171 90.5 -280t231.5 -109z" />
    <glyph glyph-name="ae" unicode="&#xe6;" horiz-adv-x="1769" 
d="M449 -25q-154 0 -256.5 85t-102.5 212q0 156 121 244t334 88q97 0 223 -29v103q0 96 -67 156.5t-177 60.5q-155 0 -329 -74l-45 119q210 80 393 80q123 0 212.5 -58t112.5 -151q54 99 152.5 154t222.5 55q200 0 326.5 -140.5t126.5 -363.5q0 -10 -1 -29.5t-1 -29.5h-770
q9 -159 111.5 -258t258.5 -99q143 0 299 84l54 -112q-187 -97 -367 -97q-142 0 -257 68t-181 190q-44 -119 -150.5 -188.5t-242.5 -69.5zM924 561h614q-5 148 -86.5 241t-208.5 93q-132 0 -220.5 -92t-98.5 -242zM475 94q130 0 211.5 83.5t81.5 215.5v84q-109 25 -205 25
q-147 0 -230 -57.5t-83 -159.5q0 -82 64 -136.5t161 -54.5z" />
    <glyph glyph-name="ccedilla" unicode="&#xe7;" horiz-adv-x="1007" 
d="M944 88q-147 -99 -305 -111l-16 -92q67 -9 109 -56.5t42 -111.5q0 -78 -65 -128t-168 -50q-94 0 -187 37l29 96q79 -28 143 -28q50 0 82.5 24.5t32.5 63.5t-34.5 63.5t-88.5 24.5h-22l28 160q-193 23 -313.5 165t-120.5 353q0 229 141 375.5t361 146.5q184 0 352 -113
l-67 -112q-131 90 -265 90q-157 0 -255.5 -107.5t-98.5 -279.5t98.5 -280.5t255.5 -108.5q131 0 265 92z" />
    <glyph glyph-name="egrave" unicode="&#xe8;" horiz-adv-x="1099" 
d="M653 1128l-358 228l74 106l348 -241zM608 -25q-227 0 -372.5 146.5t-145.5 376.5t135.5 376t349.5 146q199 0 325 -140.5t126 -363.5q0 -39 -2 -59h-770q11 -159 113 -258t258 -99q145 0 301 84l51 -112q-193 -97 -369 -97zM254 561h614q-5 148 -86 241t-207 93
q-133 0 -221 -91.5t-100 -242.5z" />
    <glyph glyph-name="eacute" unicode="&#xe9;" horiz-adv-x="1099" 
d="M510 1128l-64 93l349 241l73 -106zM608 -25q-227 0 -372.5 146.5t-145.5 376.5t135.5 376t349.5 146q199 0 325 -140.5t126 -363.5q0 -39 -2 -59h-770q11 -159 113 -258t258 -99q145 0 301 84l51 -112q-193 -97 -369 -97zM254 561h614q-5 148 -86 241t-207 93
q-133 0 -221 -91.5t-100 -242.5z" />
    <glyph glyph-name="ecircumflex" unicode="&#xea;" horiz-adv-x="1099" 
d="M344 1133l-72 77l252 244h103l252 -244l-72 -77l-232 204zM608 -25q-227 0 -372.5 146.5t-145.5 376.5t135.5 376t349.5 146q199 0 325 -140.5t126 -363.5q0 -39 -2 -59h-770q11 -159 113 -258t258 -99q145 0 301 84l51 -112q-193 -97 -369 -97zM254 561h614
q-5 148 -86 241t-207 93q-133 0 -221 -91.5t-100 -242.5z" />
    <glyph glyph-name="edieresis" unicode="&#xeb;" horiz-adv-x="1099" 
d="M360 1198q-44 0 -72 28t-28 72t28 72.5t72 28.5t72.5 -28.5t28.5 -72.5t-28.5 -72t-72.5 -28zM791 1198q-44 0 -72.5 28t-28.5 72t28.5 72.5t72.5 28.5t72 -28.5t28 -72.5t-28 -72t-72 -28zM608 -25q-227 0 -372.5 146.5t-145.5 376.5t135.5 376t349.5 146
q199 0 325 -140.5t126 -363.5q0 -39 -2 -59h-770q11 -159 113 -258t258 -99q145 0 301 84l51 -112q-193 -97 -369 -97zM254 561h614q-5 148 -86 241t-207 93q-133 0 -221 -91.5t-100 -242.5z" />
    <glyph glyph-name="igrave" unicode="&#xec;" horiz-adv-x="485" 
d="M322 1128l-359 228l74 106l348 -241zM162 0v995h162v-995h-162z" />
    <glyph glyph-name="iacute" unicode="&#xed;" horiz-adv-x="485" 
d="M178 1128l-63 93l348 241l74 -106zM162 0v995h162v-995h-162z" />
    <glyph glyph-name="icircumflex" unicode="&#xee;" horiz-adv-x="485" 
d="M12 1133l-71 77l252 244h102l252 -244l-72 -77l-231 204zM162 0v995h162v-995h-162z" />
    <glyph glyph-name="idieresis" unicode="&#xef;" horiz-adv-x="485" 
d="M29 1198q-44 0 -72.5 28t-28.5 72t28.5 72.5t72.5 28.5t72 -28.5t28 -72.5t-28 -72t-72 -28zM459 1198q-44 0 -72.5 28t-28.5 72t28.5 72.5t72.5 28.5t72 -28.5t28 -72.5t-28 -72t-72 -28zM162 0v995h162v-995h-162z" />
    <glyph glyph-name="eth" unicode="&#xf0;" 
d="M575 -25q-212 0 -348.5 146t-136.5 373q0 226 131 366.5t336 140.5q92 0 164.5 -29t138.5 -98q-74 220 -266 355l-266 -131l-45 90l198 98q-86 49 -166 76l39 115q138 -39 277 -117l235 117l45 -91l-184 -90q158 -122 249.5 -290.5t106.5 -368.5q3 -64 0 -127
q-15 -238 -155.5 -386.5t-352.5 -148.5zM582 100q150 0 245 114.5t95 295.5q0 161 -95.5 264t-244.5 103q-146 0 -238 -108.5t-92 -279.5q0 -172 92 -280.5t238 -108.5z" />
    <glyph glyph-name="ntilde" unicode="&#xf1;" 
d="M422 1202l-105 33q15 73 63.5 116.5t115.5 43.5q51 0 136 -38t113 -38q63 0 86 76l105 -31q-15 -73 -63 -117.5t-115 -44.5q-51 0 -136.5 38t-113.5 38q-64 0 -86 -76zM162 0v995h131l20 -182q51 98 145.5 152.5t213.5 54.5q166 0 272.5 -103.5t106.5 -267.5v-649h-164
v625q0 114 -73 186t-189 72q-130 0 -215.5 -90.5t-85.5 -231.5v-561h-162z" />
    <glyph glyph-name="ograve" unicode="&#xf2;" 
d="M676 1128l-359 228l74 106l348 -241zM598 -25q-223 0 -365.5 146.5t-142.5 376.5t142.5 376t365.5 146q222 0 364 -146t142 -376t-142 -376.5t-364 -146.5zM598 106q149 0 244.5 109.5t95.5 282.5q0 172 -95.5 281.5t-244.5 109.5q-150 0 -245 -109.5t-95 -281.5
q0 -173 94.5 -282.5t245.5 -109.5z" />
    <glyph glyph-name="oacute" unicode="&#xf3;" 
d="M532 1128l-63 93l348 241l74 -106zM598 -25q-223 0 -365.5 146.5t-142.5 376.5t142.5 376t365.5 146q222 0 364 -146t142 -376t-142 -376.5t-364 -146.5zM598 106q149 0 244.5 109.5t95.5 282.5q0 172 -95.5 281.5t-244.5 109.5q-150 0 -245 -109.5t-95 -281.5
q0 -173 94.5 -282.5t245.5 -109.5z" />
    <glyph glyph-name="ocircumflex" unicode="&#xf4;" 
d="M367 1133l-72 77l252 244h102l252 -244l-72 -77l-231 204zM598 -25q-223 0 -365.5 146.5t-142.5 376.5t142.5 376t365.5 146q222 0 364 -146t142 -376t-142 -376.5t-364 -146.5zM598 106q149 0 244.5 109.5t95.5 282.5q0 172 -95.5 281.5t-244.5 109.5
q-150 0 -245 -109.5t-95 -281.5q0 -173 94.5 -282.5t245.5 -109.5z" />
    <glyph glyph-name="otilde" unicode="&#xf5;" 
d="M393 1202l-104 33q15 73 63 116.5t115 43.5q51 0 136.5 -38t113.5 -38q63 0 86 76l104 -31q-15 -73 -63 -117.5t-115 -44.5q-51 0 -136.5 38t-113.5 38q-64 0 -86 -76zM598 -25q-223 0 -365.5 146.5t-142.5 376.5t142.5 376t365.5 146q222 0 364 -146t142 -376
t-142 -376.5t-364 -146.5zM598 106q149 0 244.5 109.5t95.5 282.5q0 172 -95.5 281.5t-244.5 109.5q-150 0 -245 -109.5t-95 -281.5q0 -173 94.5 -282.5t245.5 -109.5z" />
    <glyph glyph-name="odieresis" unicode="&#xf6;" 
d="M383 1198q-44 0 -72 28t-28 72t28 72.5t72 28.5t72 -28.5t28 -72.5t-28 -72t-72 -28zM813 1198q-44 0 -72 28t-28 72t28 72.5t72 28.5t72 -28.5t28 -72.5t-28 -72t-72 -28zM598 -25q-223 0 -365.5 146.5t-142.5 376.5t142.5 376t365.5 146q222 0 364 -146t142 -376
t-142 -376.5t-364 -146.5zM598 106q149 0 244.5 109.5t95.5 282.5q0 172 -95.5 281.5t-244.5 109.5q-150 0 -245 -109.5t-95 -281.5q0 -173 94.5 -282.5t245.5 -109.5z" />
    <glyph glyph-name="divide" unicode="&#xf7;" horiz-adv-x="1179" 
d="M590 889q-41 0 -67.5 26.5t-26.5 67.5t26.5 67.5t67.5 26.5q42 0 68 -25t26 -69q0 -41 -26.5 -67.5t-67.5 -26.5zM106 526v127h967v-127h-967zM590 102q-41 0 -67.5 27t-26.5 68t26.5 67.5t67.5 26.5t67.5 -26.5t26.5 -67.5t-26.5 -68t-67.5 -27z" />
    <glyph glyph-name="oslash" unicode="&#xf8;" 
d="M598 -25q-158 0 -272 82l-56 -73h-114l90 122q-74 70 -115 171t-41 221q0 230 142.5 376t365.5 146q150 0 272 -82l54 72h116l-94 -123q75 -70 116.5 -170t41.5 -219q0 -230 -142 -376.5t-364 -146.5zM338 227l450 602q-85 66 -190 66q-155 0 -253.5 -111t-98.5 -286
q0 -168 92 -271zM598 100q154 0 252 111.5t98 286.5q0 164 -90 268l-452 -600q78 -66 192 -66z" />
    <glyph glyph-name="ugrave" unicode="&#xf9;" 
d="M676 1128l-359 228l74 106l348 -241zM522 -25q-166 0 -271.5 103.5t-105.5 267.5v649h162v-626q0 -113 73.5 -184.5t188.5 -71.5q130 0 215.5 90t85.5 231v561h164v-995h-131l-20 182q-52 -98 -147 -152.5t-214 -54.5z" />
    <glyph glyph-name="uacute" unicode="&#xfa;" 
d="M532 1128l-63 93l348 241l74 -106zM522 -25q-166 0 -271.5 103.5t-105.5 267.5v649h162v-626q0 -113 73.5 -184.5t188.5 -71.5q130 0 215.5 90t85.5 231v561h164v-995h-131l-20 182q-52 -98 -147 -152.5t-214 -54.5z" />
    <glyph glyph-name="ucircumflex" unicode="&#xfb;" 
d="M367 1133l-72 77l252 244h102l252 -244l-72 -77l-231 204zM522 -25q-166 0 -271.5 103.5t-105.5 267.5v649h162v-626q0 -113 73.5 -184.5t188.5 -71.5q130 0 215.5 90t85.5 231v561h164v-995h-131l-20 182q-52 -98 -147 -152.5t-214 -54.5z" />
    <glyph glyph-name="udieresis" unicode="&#xfc;" 
d="M383 1198q-44 0 -72 28t-28 72t28 72.5t72 28.5t72 -28.5t28 -72.5t-28 -72t-72 -28zM813 1198q-44 0 -72 28t-28 72t28 72.5t72 28.5t72 -28.5t28 -72.5t-28 -72t-72 -28zM522 -25q-166 0 -271.5 103.5t-105.5 267.5v649h162v-626q0 -113 73.5 -184.5t188.5 -71.5
q130 0 215.5 90t85.5 231v561h164v-995h-131l-20 182q-52 -98 -147 -152.5t-214 -54.5z" />
    <glyph glyph-name="yacute" unicode="&#xfd;" horiz-adv-x="1062" 
d="M467 1128l-64 93l349 241l73 -106zM211 -451q-61 0 -139 19l22 131q59 -16 101 -16q75 0 124 45.5t89 150.5l51 129l-412 987h170l320 -807l309 807h172l-463 -1145q-62 -157 -143.5 -229t-200.5 -72z" />
    <glyph glyph-name="thorn" unicode="&#xfe;" 
d="M162 -426v1868h162v-604q54 88 139 135t192 47q195 0 322 -147t127 -375t-127 -375.5t-322 -147.5q-106 0 -191.5 47t-139.5 134v-582h-162zM616 109q140 0 231 109t91 280q0 170 -91 279.5t-231 109.5q-130 0 -212 -86.5t-82 -222.5v-160q0 -137 82 -223t212 -86z" />
    <glyph glyph-name="ydieresis" unicode="&#xff;" horiz-adv-x="1062" 
d="M317 1198q-44 0 -72 28t-28 72t28 72.5t72 28.5t72.5 -28.5t28.5 -72.5t-28.5 -72t-72.5 -28zM748 1198q-44 0 -72.5 28t-28.5 72t28.5 72.5t72.5 28.5t72 -28.5t28 -72.5t-28 -72t-72 -28zM211 -451q-61 0 -139 19l22 131q59 -16 101 -16q75 0 124 45.5t89 150.5l51 129
l-412 987h170l320 -807l309 807h172l-463 -1145q-62 -157 -143.5 -229t-200.5 -72z" />
    <glyph glyph-name="Amacron" unicode="&#x100;" horiz-adv-x="1374" 
d="M385 1622v117h606v-117h-606zM41 0l567 1376h158l567 -1376h-172l-151 377h-645l-152 -377h-172zM412 506h549l-275 678z" />
    <glyph glyph-name="amacron" unicode="&#x101;" 
d="M250 1241v117h606v-117h-606zM541 -25q-197 0 -324 147t-127 376q0 228 127 375t324 147q106 0 191.5 -47t137.5 -135l21 157h143v-995h-131l-20 166q-54 -92 -143 -141.5t-199 -49.5zM580 109q129 0 210.5 86t81.5 223v160q0 135 -81.5 222t-210.5 87
q-141 0 -231.5 -109.5t-90.5 -279.5q0 -171 90.5 -280t231.5 -109z" />
    <glyph glyph-name="Abreve" unicode="&#x102;" horiz-adv-x="1374" 
d="M688 1509q-129 0 -214 80.5t-89 212.5h109q6 -80 59.5 -129t134.5 -49q82 0 135.5 49t59.5 129h108q-4 -132 -89 -212.5t-214 -80.5zM41 0l567 1376h158l567 -1376h-172l-151 377h-645l-152 -377h-172zM412 506h549l-275 678z" />
    <glyph glyph-name="abreve" unicode="&#x103;" 
d="M553 1128q-129 0 -214 80.5t-89 212.5h108q6 -80 59.5 -129t135.5 -49t135.5 49t59.5 129h108q-4 -132 -89 -212.5t-214 -80.5zM541 -25q-197 0 -324 147t-127 376q0 228 127 375t324 147q106 0 191.5 -47t137.5 -135l21 157h143v-995h-131l-20 166q-54 -92 -143 -141.5
t-199 -49.5zM580 109q129 0 210.5 86t81.5 223v160q0 135 -81.5 222t-210.5 87q-141 0 -231.5 -109.5t-90.5 -279.5q0 -171 90.5 -280t231.5 -109z" />
    <glyph glyph-name="Aogonek" unicode="&#x104;" horiz-adv-x="1384" 
d="M1214 -461q-85 0 -138.5 47t-53.5 127q0 147 186 287h-47l-151 377h-645l-152 -377h-172l567 1376h158l567 -1376q-186 -146 -186 -260q0 -43 29 -69.5t73 -26.5q41 0 84 16l23 -94q-70 -27 -142 -27zM412 506h549l-275 678z" />
    <glyph glyph-name="aogonek" unicode="&#x105;" 
d="M915 -461q-85 0 -138.5 47t-53.5 127q0 147 186 287l-26 166q-54 -92 -143 -141.5t-199 -49.5q-197 0 -324 147t-127 376q0 228 127 375t324 147q106 0 191.5 -47t137.5 -135l21 157h143v-995q-186 -146 -186 -260q0 -43 29 -69.5t73 -26.5q41 0 84 16l23 -94
q-71 -27 -142 -27zM580 109q129 0 210.5 86t81.5 223v160q0 135 -81.5 222t-210.5 87q-141 0 -231.5 -109.5t-90.5 -279.5q0 -171 90.5 -280t231.5 -109z" />
    <glyph glyph-name="Cacute" unicode="&#x106;" horiz-adv-x="1323" 
d="M694 1509l-63 93l348 241l74 -106zM778 -25q-300 0 -489 199t-189 514t189 514t489 199q245 0 465 -152l-72 -114q-178 127 -370 127q-235 0 -381 -159.5t-146 -414.5t146 -414t381 -159q192 0 370 127l72 -115q-220 -152 -465 -152z" />
    <glyph glyph-name="cacute" unicode="&#x107;" horiz-adv-x="1007" 
d="M504 1128l-64 93l348 241l74 -106zM592 -25q-220 0 -361 146.5t-141 376.5q0 229 141 375.5t361 146.5q184 0 352 -113l-67 -112q-131 90 -265 90q-157 0 -255.5 -107.5t-98.5 -279.5t98.5 -280.5t255.5 -108.5q131 0 265 92l67 -113q-168 -113 -352 -113z" />
    <glyph glyph-name="Ccircumflex" unicode="&#x108;" horiz-adv-x="1323" 
d="M528 1513l-71 78l252 244h102l252 -244l-72 -78l-231 205zM778 -25q-300 0 -489 199t-189 514t189 514t489 199q245 0 465 -152l-72 -114q-178 127 -370 127q-235 0 -381 -159.5t-146 -414.5t146 -414t381 -159q192 0 370 127l72 -115q-220 -152 -465 -152z" />
    <glyph glyph-name="ccircumflex" unicode="&#x109;" horiz-adv-x="1007" 
d="M338 1133l-72 77l252 244h103l251 -244l-71 -77l-232 204zM592 -25q-220 0 -361 146.5t-141 376.5q0 229 141 375.5t361 146.5q184 0 352 -113l-67 -112q-131 90 -265 90q-157 0 -255.5 -107.5t-98.5 -279.5t98.5 -280.5t255.5 -108.5q131 0 265 92l67 -113
q-168 -113 -352 -113z" />
    <glyph glyph-name="Cdotaccent" unicode="&#x10a;" horiz-adv-x="1323" 
d="M760 1573q-46 0 -76.5 30t-30.5 76q0 47 30.5 77t76.5 30t76 -30t30 -77q0 -46 -30 -76t-76 -30zM778 -25q-300 0 -489 199t-189 514t189 514t489 199q245 0 465 -152l-72 -114q-178 127 -370 127q-235 0 -381 -159.5t-146 -414.5t146 -414t381 -159q192 0 370 127
l72 -115q-220 -152 -465 -152z" />
    <glyph glyph-name="cdotaccent" unicode="&#x10b;" horiz-adv-x="1007" 
d="M569 1192q-46 0 -76 30t-30 76q0 47 30 77t76 30t76.5 -30t30.5 -77q0 -46 -30.5 -76t-76.5 -30zM592 -25q-220 0 -361 146.5t-141 376.5q0 229 141 375.5t361 146.5q184 0 352 -113l-67 -112q-131 90 -265 90q-157 0 -255.5 -107.5t-98.5 -279.5t98.5 -280.5
t255.5 -108.5q131 0 265 92l67 -113q-168 -113 -352 -113z" />
    <glyph glyph-name="Ccaron" unicode="&#x10c;" horiz-adv-x="1323" 
d="M709 1526l-252 241l71 80l232 -207l231 207l72 -80l-252 -241h-102zM778 -25q-300 0 -489 199t-189 514t189 514t489 199q245 0 465 -152l-72 -114q-178 127 -370 127q-235 0 -381 -159.5t-146 -414.5t146 -414t381 -159q192 0 370 127l72 -115q-220 -152 -465 -152z" />
    <glyph glyph-name="ccaron" unicode="&#x10d;" horiz-adv-x="1007" 
d="M518 1145l-252 241l72 80l231 -206l232 206l71 -80l-251 -241h-103zM592 -25q-220 0 -361 146.5t-141 376.5q0 229 141 375.5t361 146.5q184 0 352 -113l-67 -112q-131 90 -265 90q-157 0 -255.5 -107.5t-98.5 -279.5t98.5 -280.5t255.5 -108.5q131 0 265 92l67 -113
q-168 -113 -352 -113z" />
    <glyph glyph-name="Dcaron" unicode="&#x10e;" horiz-adv-x="1472" 
d="M651 1526l-252 241l72 80l231 -207l232 207l72 -80l-252 -241h-103zM205 0v1376h465q313 0 506.5 -190t193.5 -498q0 -201 -87.5 -357.5t-247 -243.5t-365.5 -87h-465zM373 133h280q241 0 393 155t152 400t-152 400t-393 155h-280v-1110z" />
    <glyph glyph-name="dcaron" unicode="&#x10f;" horiz-adv-x="1361" 
d="M1264 1116l-109 37l129 348l123 -41zM541 -25q-197 0 -324 147t-127 376q0 228 127 375t324 147q106 0 191.5 -47t137.5 -135v604h164v-1442h-131l-20 166q-54 -92 -143 -141.5t-199 -49.5zM580 109q129 0 210.5 86t81.5 223v160q0 135 -81.5 222t-210.5 87
q-141 0 -231.5 -109.5t-90.5 -279.5q0 -171 90.5 -280t231.5 -109z" />
    <glyph glyph-name="Dcroat" unicode="&#x110;" horiz-adv-x="1505" 
d="M238 0v641h-185v127h185v608h464q313 0 507 -190t194 -498q0 -201 -87.5 -357.5t-247.5 -243.5t-366 -87h-464zM401 133h289q241 0 394 155t153 400t-153 400t-394 155h-289v-475h355v-127h-355v-508z" />
    <glyph glyph-name="dcroat" unicode="&#x111;" 
d="M541 -25q-197 0 -324 147t-127 376q0 228 127 375t324 147q106 0 191.5 -47t137.5 -135v327h-358v115h358v162h164v-162h140v-115h-140v-1165h-131l-20 166q-54 -92 -143 -141.5t-199 -49.5zM580 109q129 0 210.5 86t81.5 223v160q0 135 -81.5 222t-210.5 87
q-141 0 -231.5 -109.5t-90.5 -279.5q0 -171 90.5 -280t231.5 -109z" />
    <glyph glyph-name="Emacron" unicode="&#x112;" horiz-adv-x="1224" 
d="M342 1622v117h606v-117h-606zM205 0v1376h878v-131h-710v-477h645v-127h-645v-510h743v-131h-911z" />
    <glyph glyph-name="emacron" unicode="&#x113;" horiz-adv-x="1099" 
d="M272 1241v117h607v-117h-607zM608 -25q-227 0 -372.5 146.5t-145.5 376.5t135.5 376t349.5 146q199 0 325 -140.5t126 -363.5q0 -39 -2 -59h-770q11 -159 113 -258t258 -99q145 0 301 84l51 -112q-193 -97 -369 -97zM254 561h614q-5 148 -86 241t-207 93
q-133 0 -221 -91.5t-100 -242.5z" />
    <glyph glyph-name="Ebreve" unicode="&#x114;" horiz-adv-x="1224" 
d="M645 1509q-129 0 -214 80.5t-89 212.5h109q6 -80 59.5 -129t134.5 -49q82 0 135.5 49t59.5 129h108q-4 -132 -89 -212.5t-214 -80.5zM205 0v1376h878v-131h-710v-477h645v-127h-645v-510h743v-131h-911z" />
    <glyph glyph-name="ebreve" unicode="&#x115;" horiz-adv-x="1099" 
d="M575 1128q-129 0 -214 80.5t-89 212.5h109q6 -80 59.5 -129t134.5 -49q82 0 135.5 49t59.5 129h109q-4 -132 -89.5 -212.5t-214.5 -80.5zM608 -25q-227 0 -372.5 146.5t-145.5 376.5t135.5 376t349.5 146q199 0 325 -140.5t126 -363.5q0 -39 -2 -59h-770
q11 -159 113 -258t258 -99q145 0 301 84l51 -112q-193 -97 -369 -97zM254 561h614q-5 148 -86 241t-207 93q-133 0 -221 -91.5t-100 -242.5z" />
    <glyph glyph-name="Edotaccent" unicode="&#x116;" horiz-adv-x="1224" 
d="M645 1573q-46 0 -76 30t-30 76q0 47 30 77t76 30t76.5 -30t30.5 -77q0 -46 -30.5 -76t-76.5 -30zM205 0v1376h878v-131h-710v-477h645v-127h-645v-510h743v-131h-911z" />
    <glyph glyph-name="edotaccent" unicode="&#x117;" horiz-adv-x="1099" 
d="M575 1192q-46 0 -76 30t-30 76q0 47 30 77t76 30t76.5 -30t30.5 -77q0 -46 -30.5 -76t-76.5 -30zM608 -25q-227 0 -372.5 146.5t-145.5 376.5t135.5 376t349.5 146q199 0 325 -140.5t126 -363.5q0 -39 -2 -59h-770q11 -159 113 -258t258 -99q145 0 301 84l51 -112
q-193 -97 -369 -97zM254 561h614q-5 148 -86 241t-207 93q-133 0 -221 -91.5t-100 -242.5z" />
    <glyph glyph-name="Eogonek" unicode="&#x118;" horiz-adv-x="1224" 
d="M997 -461q-85 0 -138.5 47t-53.5 127q0 147 186 287h-786v1376h878v-131h-710v-477h645v-127h-645v-510h743v-131q-186 -146 -186 -260q0 -43 29 -69.5t73 -26.5q41 0 84 16l23 -94q-70 -27 -142 -27z" />
    <glyph glyph-name="eogonek" unicode="&#x119;" horiz-adv-x="1099" 
d="M838 -461q-84 0 -139.5 51.5t-55.5 137.5q0 136 145 272q-98 -25 -180 -25q-227 0 -372.5 146.5t-145.5 376.5t135.5 376t349.5 146q199 0 325 -140.5t126 -363.5q0 -39 -2 -59h-770q11 -159 113 -258t258 -99q145 0 301 84l51 -112q-209 -176 -209 -316
q0 -51 30.5 -81.5t73.5 -30.5q34 0 80 16l25 -92q-76 -29 -139 -29zM254 561h614q-5 148 -86 241t-207 93q-133 0 -221 -91.5t-100 -242.5z" />
    <glyph glyph-name="Ecaron" unicode="&#x11a;" horiz-adv-x="1224" 
d="M594 1526l-252 241l72 80l231 -207l232 207l71 -80l-252 -241h-102zM205 0v1376h878v-131h-710v-477h645v-127h-645v-510h743v-131h-911z" />
    <glyph glyph-name="ecaron" unicode="&#x11b;" horiz-adv-x="1099" 
d="M524 1145l-252 241l72 80l231 -206l232 206l72 -80l-252 -241h-103zM608 -25q-227 0 -372.5 146.5t-145.5 376.5t135.5 376t349.5 146q199 0 325 -140.5t126 -363.5q0 -39 -2 -59h-770q11 -159 113 -258t258 -99q145 0 301 84l51 -112q-193 -97 -369 -97zM254 561h614
q-5 148 -86 241t-207 93q-133 0 -221 -91.5t-100 -242.5z" />
    <glyph glyph-name="Gcircumflex" unicode="&#x11c;" horiz-adv-x="1439" 
d="M551 1513l-72 78l252 244h103l251 -244l-71 -78l-232 205zM811 -25q-206 0 -368.5 90.5t-252.5 253t-90 369.5q0 155 51.5 287.5t142.5 226t220.5 146.5t280.5 53q237 0 481 -137l-64 -117q-218 121 -399 121q-241 0 -393 -162.5t-152 -417.5t154.5 -417t400.5 -162
q168 0 318 69v410h-346v127h503v-627q-241 -113 -487 -113z" />
    <glyph glyph-name="gcircumflex" unicode="&#x11d;" 
d="M367 1133l-72 77l252 244h102l252 -244l-72 -77l-231 204zM543 -451q-186 0 -393 89l49 122q183 -79 331 -79q150 0 245 82t95 212v181q-53 -87 -138.5 -134t-190.5 -47q-197 0 -324 147t-127 376q0 228 127 375t324 147q110 0 199 -49.5t143 -141.5l20 166h131v-1013
q0 -189 -138.5 -311t-352.5 -122zM580 109q129 0 210.5 86t81.5 223v160q0 135 -81.5 222t-210.5 87q-141 0 -231.5 -109.5t-90.5 -279.5q0 -171 90.5 -280t231.5 -109z" />
    <glyph glyph-name="Gbreve" unicode="&#x11e;" horiz-adv-x="1439" 
d="M782 1509q-129 0 -214 80.5t-89 212.5h109q6 -80 59.5 -129t134.5 -49q82 0 135.5 49t59.5 129h108q-4 -132 -89 -212.5t-214 -80.5zM811 -25q-206 0 -368.5 90.5t-252.5 253t-90 369.5q0 155 51.5 287.5t142.5 226t220.5 146.5t280.5 53q237 0 481 -137l-64 -117
q-218 121 -399 121q-241 0 -393 -162.5t-152 -417.5t154.5 -417t400.5 -162q168 0 318 69v410h-346v127h503v-627q-241 -113 -487 -113z" />
    <glyph glyph-name="gbreve" unicode="&#x11f;" 
d="M598 1128q-129 0 -214 80.5t-89 212.5h108q6 -80 59.5 -129t135.5 -49t135.5 49t59.5 129h108q-4 -132 -89 -212.5t-214 -80.5zM543 -451q-186 0 -393 89l49 122q183 -79 331 -79q150 0 245 82t95 212v181q-53 -87 -138.5 -134t-190.5 -47q-197 0 -324 147t-127 376
q0 228 127 375t324 147q110 0 199 -49.5t143 -141.5l20 166h131v-1013q0 -189 -138.5 -311t-352.5 -122zM580 109q129 0 210.5 86t81.5 223v160q0 135 -81.5 222t-210.5 87q-141 0 -231.5 -109.5t-90.5 -279.5q0 -171 90.5 -280t231.5 -109z" />
    <glyph glyph-name="Gdotaccent" unicode="&#x120;" horiz-adv-x="1439" 
d="M782 1573q-46 0 -76 30t-30 76q0 47 30 77t76 30t76.5 -30t30.5 -77q0 -46 -30.5 -76t-76.5 -30zM811 -25q-206 0 -368.5 90.5t-252.5 253t-90 369.5q0 155 51.5 287.5t142.5 226t220.5 146.5t280.5 53q237 0 481 -137l-64 -117q-218 121 -399 121q-241 0 -393 -162.5
t-152 -417.5t154.5 -417t400.5 -162q168 0 318 69v410h-346v127h503v-627q-241 -113 -487 -113z" />
    <glyph glyph-name="gdotaccent" unicode="&#x121;" 
d="M598 1192q-46 0 -76 30t-30 76q0 47 30 77t76 30t76.5 -30t30.5 -77q0 -46 -30.5 -76t-76.5 -30zM543 -451q-186 0 -393 89l49 122q183 -79 331 -79q150 0 245 82t95 212v181q-53 -87 -138.5 -134t-190.5 -47q-197 0 -324 147t-127 376q0 228 127 375t324 147
q110 0 199 -49.5t143 -141.5l20 166h131v-1013q0 -189 -138.5 -311t-352.5 -122zM580 109q129 0 210.5 86t81.5 223v160q0 135 -81.5 222t-210.5 87q-141 0 -231.5 -109.5t-90.5 -279.5q0 -171 90.5 -280t231.5 -109z" />
    <glyph glyph-name="Gcommaaccent" unicode="&#x122;" horiz-adv-x="1439" 
d="M811 -25q-206 0 -368.5 90.5t-252.5 253t-90 369.5q0 155 51.5 287.5t142.5 226t220.5 146.5t280.5 53q237 0 481 -137l-64 -117q-218 121 -399 121q-241 0 -393 -162.5t-152 -417.5t154.5 -417t400.5 -162q168 0 318 69v410h-346v127h503v-627q-241 -113 -487 -113z
M696 -578l-47 64q116 87 125 203q-38 -2 -65 24t-27 64q0 44 28 72t72 28q50 0 79.5 -36t29.5 -97q0 -97 -50.5 -181t-144.5 -141z" />
    <glyph glyph-name="gcommaaccent" unicode="&#x123;" 
d="M598 1116q-50 0 -79.5 37t-29.5 98q0 96 51 180t144 142l47 -64q-116 -87 -125 -204q38 2 65 -24t27 -64q0 -44 -28 -72.5t-72 -28.5zM543 -451q-186 0 -393 89l49 122q183 -79 331 -79q150 0 245 82t95 212v181q-53 -87 -138.5 -134t-190.5 -47q-197 0 -324 147
t-127 376q0 228 127 375t324 147q110 0 199 -49.5t143 -141.5l20 166h131v-1013q0 -189 -138.5 -311t-352.5 -122zM580 109q129 0 210.5 86t81.5 223v160q0 135 -81.5 222t-210.5 87q-141 0 -231.5 -109.5t-90.5 -279.5q0 -171 90.5 -280t231.5 -109z" />
    <glyph glyph-name="Hcircumflex" unicode="&#x124;" horiz-adv-x="1570" 
d="M555 1513l-72 78l252 244h103l252 -244l-72 -78l-232 205zM205 0v1376h168v-604h823v604h170v-1376h-170v637h-823v-637h-168z" />
    <glyph glyph-name="hcircumflex" unicode="&#x125;" 
d="M12 1497l-71 78l252 244h102l252 -244l-72 -78l-231 205zM162 0v1442h162v-621q51 94 142.5 146.5t205.5 52.5q166 0 272.5 -103.5t106.5 -267.5v-649h-164v625q0 114 -73 186t-189 72q-130 0 -215.5 -90.5t-85.5 -231.5v-561h-162z" />
    <glyph glyph-name="Hbar" unicode="&#x126;" horiz-adv-x="1570" 
d="M205 0v1067h-152v115h152v194h168v-194h823v194h170v-194h150v-115h-150v-1067h-170v637h-823v-637h-168zM373 772h823v295h-823v-295z" />
    <glyph glyph-name="hbar" unicode="&#x127;" 
d="M162 0v1165h-142v115h142v162h162v-162h358v-115h-358v-344q51 94 142.5 146.5t205.5 52.5q166 0 272.5 -103.5t106.5 -267.5v-649h-164v625q0 114 -73 186t-189 72q-130 0 -215.5 -90.5t-85.5 -231.5v-561h-162z" />
    <glyph glyph-name="Itilde" unicode="&#x128;" horiz-adv-x="577" 
d="M84 1583l-104 33q15 73 63 116.5t115 43.5q51 0 136.5 -38t113.5 -38q63 0 86 76l104 -31q-15 -73 -63 -117.5t-115 -44.5q-51 0 -136.5 38t-113.5 38q-64 0 -86 -76zM205 0v1376h168v-1376h-168z" />
    <glyph glyph-name="itilde" unicode="&#x129;" horiz-adv-x="485" 
d="M39 1202l-105 33q15 73 63.5 116.5t115.5 43.5q51 0 136 -38t113 -38q31 0 53.5 20t33.5 56l104 -31q-15 -73 -63 -117.5t-115 -44.5q-51 0 -136.5 38t-113.5 38q-64 0 -86 -76zM162 0v995h162v-995h-162z" />
    <glyph glyph-name="Imacron" unicode="&#x12a;" horiz-adv-x="577" 
d="M-14 1622v117h606v-117h-606zM205 0v1376h168v-1376h-168z" />
    <glyph glyph-name="imacron" unicode="&#x12b;" horiz-adv-x="485" 
d="M-59 1241v117h606v-117h-606zM162 0v995h162v-995h-162z" />
    <glyph glyph-name="Ibreve" unicode="&#x12c;" horiz-adv-x="577" 
d="M289 1509q-129 0 -214 80.5t-89 212.5h108q6 -80 59.5 -129t135.5 -49q81 0 134.5 49t59.5 129h109q-4 -132 -89 -212.5t-214 -80.5zM205 0v1376h168v-1376h-168z" />
    <glyph glyph-name="ibreve" unicode="&#x12d;" horiz-adv-x="485" 
d="M244 1128q-129 0 -214 80.5t-89 212.5h108q6 -80 59.5 -129t135.5 -49q81 0 134.5 49t59.5 129h109q-4 -132 -89 -212.5t-214 -80.5zM162 0v995h162v-995h-162z" />
    <glyph glyph-name="Iogonek" unicode="&#x12e;" horiz-adv-x="577" 
d="M254 -461q-85 0 -139 47t-54 127q0 146 187 287h-43v1376h168v-1376q-187 -146 -187 -260q0 -43 29.5 -69.5t73.5 -26.5q41 0 84 16l22 -94q-71 -27 -141 -27z" />
    <glyph glyph-name="iogonek" unicode="&#x12f;" horiz-adv-x="485" 
d="M244 1190q-49 0 -80 30.5t-31 77.5q0 48 31 78.5t80 30.5q47 0 77.5 -31t30.5 -78t-30.5 -77.5t-77.5 -30.5zM205 -461q-85 0 -139 47t-54 127q0 146 187 287h-37v995h162v-995q-187 -146 -187 -260q0 -43 29.5 -69.5t73.5 -26.5q41 0 84 16l22 -94q-70 -27 -141 -27z
" />
    <glyph glyph-name="Idotaccent" unicode="&#x130;" horiz-adv-x="577" 
d="M289 1573q-46 0 -76.5 30t-30.5 76q0 47 30.5 77t76.5 30t76 -30t30 -77q0 -46 -30 -76t-76 -30zM205 0v1376h168v-1376h-168z" />
    <glyph glyph-name="dotlessi" unicode="&#x131;" horiz-adv-x="485" 
d="M162 0v995h162v-995h-162z" />
    <glyph glyph-name="IJ" unicode="&#x132;" horiz-adv-x="1486" 
d="M205 0v1376h168v-1376h-168zM893 -25q-125 0 -268 35l24 135q111 -30 207 -30q114 0 185 71t71 185v1005h170v-1020q0 -169 -108.5 -275t-280.5 -106z" />
    <glyph glyph-name="ij" unicode="&#x133;" horiz-adv-x="987" 
d="M244 1190q-49 0 -80 30.5t-31 77.5q0 48 31 78.5t80 30.5q47 0 77.5 -31t30.5 -78t-30.5 -77.5t-77.5 -30.5zM745 1190q-49 0 -79.5 30t-30.5 78t30.5 78.5t79.5 30.5q47 0 78 -31t31 -78t-31 -77.5t-78 -30.5zM162 0v995h162v-995h-162zM526 -451q-93 0 -198 27l22 127
q85 -20 142 -20q76 0 124 47.5t48 124.5v1140h161v-1155q0 -129 -83 -210t-216 -81z" />
    <glyph glyph-name="Jcircumflex" unicode="&#x134;" horiz-adv-x="909" 
d="M389 1513l-72 78l252 244h103l252 -244l-72 -78l-231 205zM315 -25q-125 0 -268 35l25 135q111 -30 207 -30q114 0 185 71t71 185v1005h170v-1020q0 -169 -109 -275t-281 -106z" />
    <glyph glyph-name="jcircumflex" unicode="&#x135;" horiz-adv-x="501" 
d="M27 1133l-72 77l252 244h102l252 -244l-72 -77l-231 204zM41 -451q-94 0 -199 27l23 127q85 -20 141 -20q76 0 124 47.5t48 124.5v1140h162v-1155q0 -129 -83 -210t-216 -81z" />
    <glyph glyph-name="Kcommaaccent" unicode="&#x136;" horiz-adv-x="1357" 
d="M205 0v1376h164v-727l704 727h201l-627 -643l656 -733h-203l-568 631l-163 -164v-467h-164zM610 -578l-47 64q116 87 125 203q-38 -2 -65 24t-27 64q0 44 28 72t72 28q50 0 79.5 -36t29.5 -97q0 -97 -50.5 -181t-144.5 -141z" />
    <glyph glyph-name="kcommaaccent" unicode="&#x137;" horiz-adv-x="1042" 
d="M162 0v1442h157v-940l472 493h190l-449 -465l465 -530h-192l-379 432l-107 -106v-326h-157zM436 -578l-47 64q116 87 125 203q-38 -2 -65 24t-27 64q0 44 28 72t72 28q50 0 79.5 -36t29.5 -97q0 -97 -50.5 -181t-144.5 -141z" />
    <glyph glyph-name="kgreenlandic" unicode="&#x138;" horiz-adv-x="1042" 
d="M162 0v995h157v-493l472 493h190l-449 -465l465 -530h-192l-379 432l-107 -106v-326h-157z" />
    <glyph glyph-name="Lacute" unicode="&#x139;" horiz-adv-x="1093" 
d="M223 1509l-63 93l348 241l74 -106zM205 0v1376h168v-1243h667v-133h-835z" />
    <glyph glyph-name="lacute" unicode="&#x13a;" horiz-adv-x="583" 
d="M178 1575l-63 92l348 242l74 -107zM410 -25q-115 0 -181.5 64.5t-66.5 175.5v1227h162v-1213q0 -55 32 -87.5t88 -32.5q38 0 99 14l20 -129q-87 -19 -153 -19z" />
    <glyph glyph-name="Lcommaaccent" unicode="&#x13b;" horiz-adv-x="1093" 
d="M205 0v1376h168v-1243h667v-133h-835zM526 -578l-47 64q116 87 125 203q-38 -2 -65 24t-27 64q0 44 28 72t72 28q50 0 79.5 -36t29.5 -97q0 -97 -50.5 -181t-144.5 -141z" />
    <glyph glyph-name="lcommaaccent" unicode="&#x13c;" horiz-adv-x="583" 
d="M410 -25q-115 0 -181.5 64.5t-66.5 175.5v1227h162v-1213q0 -55 32 -87.5t88 -32.5q38 0 99 14l20 -129q-87 -19 -153 -19zM260 -578l-47 64q116 87 125 203q-38 -2 -65 24t-27 64q0 44 28 72t72 28q50 0 79.5 -36t29.5 -97q0 -97 -50.5 -181t-144.5 -141z" />
    <glyph glyph-name="Lcaron" unicode="&#x13d;" horiz-adv-x="1093" 
d="M653 1051l-108 36l129 349l123 -41zM205 0v1376h168v-1243h667v-133h-835z" />
    <glyph glyph-name="lcaron" unicode="&#x13e;" horiz-adv-x="571" 
d="M571 1116l-108 37l129 348l123 -41zM410 -25q-115 0 -181.5 64.5t-66.5 175.5v1227h162v-1213q0 -55 32 -87.5t88 -32.5q38 0 99 14l20 -129q-87 -19 -153 -19z" />
    <glyph glyph-name="Ldot" unicode="&#x13f;" horiz-adv-x="1126" 
d="M205 0v1376h168v-1243h667v-133h-835zM852 621q-46 0 -76.5 30t-30.5 76q0 47 30.5 77t76.5 30t76 -30t30 -77q0 -46 -30 -76t-76 -30z" />
    <glyph glyph-name="ldot" unicode="&#x140;" horiz-adv-x="708" 
d="M410 -25q-115 0 -181.5 64.5t-66.5 175.5v1227h162v-1213q0 -55 32 -87.5t88 -32.5q38 0 99 14l20 -129q-87 -19 -153 -19zM598 598q-46 0 -76 30.5t-30 76.5q0 47 30 76.5t76 29.5t76.5 -29.5t30.5 -76.5q0 -46 -30.5 -76.5t-76.5 -30.5z" />
    <glyph glyph-name="Lslash" unicode="&#x141;" horiz-adv-x="1126" 
d="M238 0v582l-150 -76l-55 104l205 101v665h168v-579l280 139l53 -105l-333 -165v-533h667v-133h-835z" />
    <glyph glyph-name="lslash" unicode="&#x142;" horiz-adv-x="649" 
d="M426 -25q-112 0 -180 65.5t-68 174.5v408l-170 -84l-55 102l225 113v688h162v-606l203 100l55 -102l-258 -129v-476q0 -55 32.5 -87.5t88.5 -32.5q37 0 98 14l21 -129q-87 -19 -154 -19z" />
    <glyph glyph-name="Nacute" unicode="&#x143;" horiz-adv-x="1570" 
d="M721 1509l-64 93l349 241l73 -106zM205 0v1376h166l837 -1143v1143h158v-1376h-166l-838 1143v-1143h-157z" />
    <glyph glyph-name="nacute" unicode="&#x144;" 
d="M561 1128l-63 93l348 241l74 -106zM162 0v995h131l20 -182q51 98 145.5 152.5t213.5 54.5q166 0 272.5 -103.5t106.5 -267.5v-649h-164v625q0 114 -73 186t-189 72q-130 0 -215.5 -90.5t-85.5 -231.5v-561h-162z" />
    <glyph glyph-name="Ncommaaccent" unicode="&#x145;" horiz-adv-x="1570" 
d="M205 0v1376h166l837 -1143v1143h158v-1376h-166l-838 1143v-1143h-157zM700 -578l-47 64q116 87 125 203q-38 -2 -65 24t-27 64q0 44 28 72t72 28q50 0 79.5 -36t29.5 -97q0 -97 -50.5 -181t-144.5 -141z" />
    <glyph glyph-name="ncommaaccent" unicode="&#x146;" 
d="M162 0v995h131l20 -182q51 98 145.5 152.5t213.5 54.5q166 0 272.5 -103.5t106.5 -267.5v-649h-164v625q0 114 -73 186t-189 72q-130 0 -215.5 -90.5t-85.5 -231.5v-561h-162zM520 -578l-47 64q116 87 125 203q-38 -2 -65 24t-27 64q0 44 28 72t72 28q50 0 79.5 -36
t29.5 -97q0 -97 -50.5 -181t-144.5 -141z" />
    <glyph glyph-name="Ncaron" unicode="&#x147;" horiz-adv-x="1570" 
d="M735 1526l-252 241l72 80l231 -207l232 207l72 -80l-252 -241h-103zM205 0v1376h166l837 -1143v1143h158v-1376h-166l-838 1143v-1143h-157z" />
    <glyph glyph-name="ncaron" unicode="&#x148;" 
d="M575 1145l-251 241l71 80l232 -206l231 206l72 -80l-252 -241h-103zM162 0v995h131l20 -182q51 98 145.5 152.5t213.5 54.5q166 0 272.5 -103.5t106.5 -267.5v-649h-164v625q0 114 -73 186t-189 72q-130 0 -215.5 -90.5t-85.5 -231.5v-561h-162z" />
    <glyph glyph-name="Eng" unicode="&#x14a;" horiz-adv-x="1570" 
d="M977 -451q-125 0 -268 35l24 135q114 -30 217 -30q109 0 180.5 66.5t71.5 168.5v72l-840 1147v-1143h-157v1376h166l837 -1143v1143h158v-1446q0 -169 -108.5 -275t-280.5 -106z" />
    <glyph glyph-name="eng" unicode="&#x14b;" 
d="M752 -451q-96 0 -201 27l22 127q85 -20 142 -20q77 0 124.5 47.5t47.5 124.5v766q0 117 -73 189.5t-189 72.5q-132 0 -216.5 -88.5t-84.5 -225.5v-569h-162v995h131l20 -182q51 98 145 152.5t214 54.5q166 0 272.5 -105t106.5 -270v-805q0 -129 -83.5 -210t-215.5 -81z
" />
    <glyph glyph-name="Omacron" unicode="&#x14c;" horiz-adv-x="1570" 
d="M483 1622v117h607v-117h-607zM784 -25q-197 0 -353 90.5t-243.5 253.5t-87.5 369t87.5 369t243.5 253.5t353 90.5q198 0 354 -90.5t243 -253t87 -369.5t-87 -369.5t-243 -253t-354 -90.5zM784 113q225 0 368.5 161t143.5 414t-143.5 414.5t-368.5 161.5
q-224 0 -367 -161.5t-143 -414.5t143 -414t367 -161z" />
    <glyph glyph-name="omacron" unicode="&#x14d;" 
d="M295 1241v117h606v-117h-606zM598 -25q-223 0 -365.5 146.5t-142.5 376.5t142.5 376t365.5 146q222 0 364 -146t142 -376t-142 -376.5t-364 -146.5zM598 106q149 0 244.5 109.5t95.5 282.5q0 172 -95.5 281.5t-244.5 109.5q-150 0 -245 -109.5t-95 -281.5
q0 -173 94.5 -282.5t245.5 -109.5z" />
    <glyph glyph-name="Obreve" unicode="&#x14e;" horiz-adv-x="1570" 
d="M786 1509q-129 0 -214 80.5t-89 212.5h109q6 -80 59.5 -129t134.5 -49q82 0 135.5 49t59.5 129h109q-4 -132 -89.5 -212.5t-214.5 -80.5zM784 -25q-197 0 -353 90.5t-243.5 253.5t-87.5 369t87.5 369t243.5 253.5t353 90.5q198 0 354 -90.5t243 -253t87 -369.5
t-87 -369.5t-243 -253t-354 -90.5zM784 113q225 0 368.5 161t143.5 414t-143.5 414.5t-368.5 161.5q-224 0 -367 -161.5t-143 -414.5t143 -414t367 -161z" />
    <glyph glyph-name="obreve" unicode="&#x14f;" 
d="M598 1128q-129 0 -214 80.5t-89 212.5h108q6 -80 59.5 -129t135.5 -49t135.5 49t59.5 129h108q-4 -132 -89 -212.5t-214 -80.5zM598 -25q-223 0 -365.5 146.5t-142.5 376.5t142.5 376t365.5 146q222 0 364 -146t142 -376t-142 -376.5t-364 -146.5zM598 106
q149 0 244.5 109.5t95.5 282.5q0 172 -95.5 281.5t-244.5 109.5q-150 0 -245 -109.5t-95 -281.5q0 -173 94.5 -282.5t245.5 -109.5z" />
    <glyph glyph-name="Ohungarumlaut" unicode="&#x150;" horiz-adv-x="1570" 
d="M563 1503l-84 84l293 305l96 -96zM963 1503l-86 84l294 305l97 -96zM784 -25q-197 0 -353 90.5t-243.5 253.5t-87.5 369t87.5 369t243.5 253.5t353 90.5q198 0 354 -90.5t243 -253t87 -369.5t-87 -369.5t-243 -253t-354 -90.5zM784 113q225 0 368.5 161t143.5 414
t-143.5 414.5t-368.5 161.5q-224 0 -367 -161.5t-143 -414.5t143 -414t367 -161z" />
    <glyph glyph-name="ohungarumlaut" unicode="&#x151;" 
d="M375 1122l-84 84l293 305l96 -96zM774 1122l-86 84l295 305l96 -96zM598 -25q-223 0 -365.5 146.5t-142.5 376.5t142.5 376t365.5 146q222 0 364 -146t142 -376t-142 -376.5t-364 -146.5zM598 106q149 0 244.5 109.5t95.5 282.5q0 172 -95.5 281.5t-244.5 109.5
q-150 0 -245 -109.5t-95 -281.5q0 -173 94.5 -282.5t245.5 -109.5z" />
    <glyph glyph-name="OE" unicode="&#x152;" horiz-adv-x="2064" 
d="M795 0q-309 0 -502 190.5t-193 497.5q0 201 87.5 357.5t245.5 243.5t362 87h1130v-131h-711v-477h646v-127h-646v-510h744v-131h-1163zM813 133h231v1110h-231q-238 0 -388.5 -155t-150.5 -400t150.5 -400t388.5 -155z" />
    <glyph glyph-name="oe" unicode="&#x153;" horiz-adv-x="1949" 
d="M598 -25q-223 0 -365.5 146.5t-142.5 376.5t142.5 376t365.5 146q145 0 257 -75t165 -202q53 128 160 202.5t243 74.5q200 0 326.5 -140.5t126.5 -363.5q0 -10 -1 -29.5t-1 -29.5h-770q9 -159 112 -258t259 -99q143 0 299 84l53 -112q-193 -97 -371 -97q-148 0 -263 75.5
t-171 205.5q-53 -129 -166 -205t-258 -76zM1104 561h614q-5 148 -86.5 241t-208.5 93q-131 0 -219 -92.5t-100 -241.5zM598 106q149 0 244.5 109.5t95.5 282.5q0 172 -95.5 281.5t-244.5 109.5q-150 0 -245 -109.5t-95 -281.5q0 -173 94.5 -282.5t245.5 -109.5z" />
    <glyph glyph-name="Racute" unicode="&#x154;" horiz-adv-x="1335" 
d="M618 1509l-63 93l348 241l74 -106zM205 0v1376h524q195 0 320 -115t125 -296q0 -157 -95 -265.5t-252 -128.5l402 -571h-187l-378 547h-295v-547h-164zM369 680h336q134 0 218.5 78t84.5 203q0 124 -84.5 203t-218.5 79h-336v-563z" />
    <glyph glyph-name="racute" unicode="&#x155;" horiz-adv-x="784" 
d="M362 1128l-63 93l348 241l74 -106zM162 0v995h131l20 -188q37 95 120 150t190 55q52 0 125 -17l-19 -133q-73 15 -119 15q-128 0 -207 -93.5t-79 -244.5v-539h-162z" />
    <glyph glyph-name="Rcommaaccent" unicode="&#x156;" horiz-adv-x="1335" 
d="M205 0v1376h524q195 0 320 -115t125 -296q0 -157 -95 -265.5t-252 -128.5l402 -571h-187l-378 547h-295v-547h-164zM369 680h336q134 0 218.5 78t84.5 203q0 124 -84.5 203t-218.5 79h-336v-563zM598 -578l-47 64q116 87 125 203q-38 -2 -65 24t-27 64q0 44 28 72t72 28
q50 0 79.5 -36t29.5 -97q0 -97 -50.5 -181t-144.5 -141z" />
    <glyph glyph-name="rcommaaccent" unicode="&#x157;" horiz-adv-x="784" 
d="M162 0v995h131l20 -188q37 95 120 150t190 55q52 0 125 -17l-19 -133q-73 15 -119 15q-128 0 -207 -93.5t-79 -244.5v-539h-162zM158 -578l-47 64q116 87 125 203q-38 -2 -65.5 24t-27.5 64q0 44 28.5 72t72.5 28q50 0 79 -36t29 -97q0 -97 -50.5 -181t-143.5 -141z" />
    <glyph glyph-name="Rcaron" unicode="&#x158;" horiz-adv-x="1335" 
d="M633 1526l-252 241l72 80l231 -207l231 207l72 -80l-252 -241h-102zM205 0v1376h524q195 0 320 -115t125 -296q0 -157 -95 -265.5t-252 -128.5l402 -571h-187l-378 547h-295v-547h-164zM369 680h336q134 0 218.5 78t84.5 203q0 124 -84.5 203t-218.5 79h-336v-563z" />
    <glyph glyph-name="rcaron" unicode="&#x159;" horiz-adv-x="784" 
d="M377 1145l-252 241l72 80l231 -206l231 206l72 -80l-252 -241h-102zM162 0v995h131l20 -188q37 95 120 150t190 55q52 0 125 -17l-19 -133q-73 15 -119 15q-128 0 -207 -93.5t-79 -244.5v-539h-162z" />
    <glyph glyph-name="Sacute" unicode="&#x15a;" horiz-adv-x="1187" 
d="M528 1509l-63 93l348 241l74 -106zM594 -25q-224 0 -490 109l41 131q261 -102 437 -102q152 0 242.5 65.5t90.5 173.5q0 60 -27.5 105.5t-74 74t-106.5 51t-126.5 41.5t-133 39.5t-126.5 50.5t-106.5 70t-74 103.5t-27.5 144.5q0 163 134 266t347 103q205 0 440 -92
l-41 -131q-210 86 -387 86q-148 0 -237.5 -64t-89.5 -168q0 -59 27.5 -103t74 -72t107 -49.5t127 -40t133 -39t127 -51.5t107 -72t74 -105.5t27.5 -147.5q0 -167 -135.5 -272t-353.5 -105z" />
    <glyph glyph-name="sacute" unicode="&#x15b;" horiz-adv-x="919" 
d="M395 1128l-63 93l348 241l74 -106zM461 -25q-176 0 -371 76l39 121q176 -72 320 -72q99 0 160 45t61 117q0 45 -24.5 78t-65 51t-91.5 35t-105 30t-105 36t-91.5 52t-65 79.5t-24.5 117.5q0 122 102 200.5t261 78.5q162 0 336 -70l-37 -121q-157 66 -287 66
q-96 0 -154.5 -42.5t-58.5 -111.5q0 -50 31.5 -83.5t81.5 -52.5t111 -35t121.5 -37.5t110.5 -51.5t81.5 -86t31.5 -133q0 -126 -102 -206.5t-266 -80.5z" />
    <glyph glyph-name="Scircumflex" unicode="&#x15c;" horiz-adv-x="1187" 
d="M362 1513l-71 78l252 244h102l252 -244l-72 -78l-231 205zM594 -25q-224 0 -490 109l41 131q261 -102 437 -102q152 0 242.5 65.5t90.5 173.5q0 60 -27.5 105.5t-74 74t-106.5 51t-126.5 41.5t-133 39.5t-126.5 50.5t-106.5 70t-74 103.5t-27.5 144.5q0 163 134 266
t347 103q205 0 440 -92l-41 -131q-210 86 -387 86q-148 0 -237.5 -64t-89.5 -168q0 -59 27.5 -103t74 -72t107 -49.5t127 -40t133 -39t127 -51.5t107 -72t74 -105.5t27.5 -147.5q0 -167 -135.5 -272t-353.5 -105z" />
    <glyph glyph-name="scircumflex" unicode="&#x15d;" horiz-adv-x="919" 
d="M229 1133l-71 77l252 244h102l252 -244l-72 -77l-231 204zM461 -25q-176 0 -371 76l39 121q176 -72 320 -72q99 0 160 45t61 117q0 45 -24.5 78t-65 51t-91.5 35t-105 30t-105 36t-91.5 52t-65 79.5t-24.5 117.5q0 122 102 200.5t261 78.5q162 0 336 -70l-37 -121
q-157 66 -287 66q-96 0 -154.5 -42.5t-58.5 -111.5q0 -50 31.5 -83.5t81.5 -52.5t111 -35t121.5 -37.5t110.5 -51.5t81.5 -86t31.5 -133q0 -126 -102 -206.5t-266 -80.5z" />
    <glyph glyph-name="Scedilla" unicode="&#x15e;" horiz-adv-x="1187" 
d="M1083 352q0 -153 -114.5 -254t-304.5 -118l-17 -95q67 -9 109.5 -56.5t42.5 -111.5q0 -78 -65.5 -128t-168.5 -50q-93 0 -186 37l29 96q79 -28 143 -28q50 0 82.5 24.5t32.5 63.5t-34.5 63.5t-88.5 24.5h-23l29 157q-199 9 -445 107l41 131q261 -102 437 -102
q152 0 242.5 65.5t90.5 173.5q0 60 -27.5 105.5t-74 74t-106.5 51t-126.5 41.5t-133 39.5t-126.5 50.5t-106.5 70t-74 103.5t-27.5 144.5q0 163 134 266t347 103q205 0 440 -92l-41 -131q-210 86 -387 86q-148 0 -237.5 -64t-89.5 -168q0 -59 27.5 -103t74 -72t107 -49.5
t127 -40t133 -39t127 -51.5t107 -72t74 -105.5t27.5 -147.5z" />
    <glyph glyph-name="scedilla" unicode="&#x15f;" horiz-adv-x="919" 
d="M829 262q0 -112 -81.5 -188.5t-217.5 -93.5l-16 -95q67 -9 109.5 -56.5t42.5 -111.5q0 -78 -65.5 -128t-168.5 -50q-93 0 -186 37l28 96q79 -28 144 -28q50 0 82 24.5t32 63.5q0 40 -34 64t-88 24h-23l29 157q-152 6 -326 74l39 121q176 -72 320 -72q99 0 160 45t61 117
q0 45 -24.5 78t-65 51t-91.5 35t-105 30t-105 36t-91.5 52t-65 79.5t-24.5 117.5q0 122 102 200.5t261 78.5q162 0 336 -70l-37 -121q-157 66 -287 66q-96 0 -154.5 -42.5t-58.5 -111.5q0 -50 31.5 -83.5t81.5 -52.5t111 -35t121.5 -37.5t110.5 -51.5t81.5 -86t31.5 -133z
" />
    <glyph glyph-name="Scaron" unicode="&#x160;" horiz-adv-x="1187" 
d="M543 1526l-252 241l71 80l232 -207l231 207l72 -80l-252 -241h-102zM594 -25q-224 0 -490 109l41 131q261 -102 437 -102q152 0 242.5 65.5t90.5 173.5q0 60 -27.5 105.5t-74 74t-106.5 51t-126.5 41.5t-133 39.5t-126.5 50.5t-106.5 70t-74 103.5t-27.5 144.5
q0 163 134 266t347 103q205 0 440 -92l-41 -131q-210 86 -387 86q-148 0 -237.5 -64t-89.5 -168q0 -59 27.5 -103t74 -72t107 -49.5t127 -40t133 -39t127 -51.5t107 -72t74 -105.5t27.5 -147.5q0 -167 -135.5 -272t-353.5 -105z" />
    <glyph glyph-name="scaron" unicode="&#x161;" horiz-adv-x="919" 
d="M410 1145l-252 241l71 80l232 -206l231 206l72 -80l-252 -241h-102zM461 -25q-176 0 -371 76l39 121q176 -72 320 -72q99 0 160 45t61 117q0 45 -24.5 78t-65 51t-91.5 35t-105 30t-105 36t-91.5 52t-65 79.5t-24.5 117.5q0 122 102 200.5t261 78.5q162 0 336 -70
l-37 -121q-157 66 -287 66q-96 0 -154.5 -42.5t-58.5 -111.5q0 -50 31.5 -83.5t81.5 -52.5t111 -35t121.5 -37.5t110.5 -51.5t81.5 -86t31.5 -133q0 -126 -102 -206.5t-266 -80.5z" />
    <glyph glyph-name="uni0162" unicode="&#x162;" horiz-adv-x="1224" 
d="M528 0v1243h-475v133h1118v-133h-475v-1243h-168zM526 -578l-47 64q116 87 125 203q-38 -2 -65 24t-27 64q0 44 28 72t72 28q50 0 79.5 -36t29.5 -97q0 -97 -50.5 -181t-144.5 -141z" />
    <glyph glyph-name="uni0163" unicode="&#x163;" horiz-adv-x="821" 
d="M567 -25q-141 0 -224 80.5t-83 210.5v600h-207v129h207v295h162v-295h313v-129h-313v-585q0 -77 47.5 -124.5t128.5 -47.5q52 0 137 20l23 -127q-105 -27 -191 -27zM401 -578l-47 64q116 87 125 203q-38 -2 -65 24t-27 64q0 44 28 72t72 28q50 0 79.5 -36t29.5 -97
q0 -97 -50.5 -181t-144.5 -141z" />
    <glyph glyph-name="Tcaron" unicode="&#x164;" horiz-adv-x="1224" 
d="M561 1526l-252 241l72 80l231 -207l232 207l71 -80l-251 -241h-103zM528 0v1243h-475v133h1118v-133h-475v-1243h-168z" />
    <glyph glyph-name="tcaron" unicode="&#x165;" horiz-adv-x="821" 
d="M653 1116l-108 37l129 348l123 -41zM567 -25q-141 0 -224 80.5t-83 210.5v600h-207v129h207v295h162v-295h313v-129h-313v-585q0 -77 47.5 -124.5t128.5 -47.5q52 0 137 20l23 -127q-105 -27 -191 -27z" />
    <glyph glyph-name="Tbar" unicode="&#x166;" horiz-adv-x="1224" 
d="M528 0v588h-290v129h290v526h-475v133h1118v-133h-475v-526h289v-129h-289v-588h-168z" />
    <glyph glyph-name="tbar" unicode="&#x167;" horiz-adv-x="821" 
d="M559 -25q-133 0 -216 81t-83 210v183h-190v116h190v301h-207v129h207v295h162v-295h313v-129h-313v-301h280v-116h-280v-170q0 -75 48 -122.5t124 -47.5q56 0 141 20l23 -127q-105 -27 -199 -27z" />
    <glyph glyph-name="Utilde" unicode="&#x168;" horiz-adv-x="1570" 
d="M582 1583l-105 33q15 73 63 116.5t115 43.5q51 0 136.5 -38t113.5 -38q63 0 86 76l105 -31q-15 -73 -63 -117.5t-115 -44.5q-51 0 -136.5 38t-113.5 38q-64 0 -86 -76zM784 -25q-170 0 -306 69t-213 195.5t-77 286.5v850h168v-844q0 -185 121 -302t307 -117
q187 0 307.5 117t120.5 302v844h170v-850q0 -160 -77.5 -286.5t-213.5 -195.5t-307 -69z" />
    <glyph glyph-name="utilde" unicode="&#x169;" 
d="M393 1202l-104 33q15 73 63 116.5t115 43.5q51 0 136.5 -38t113.5 -38q63 0 86 76l104 -31q-15 -73 -63 -117.5t-115 -44.5q-51 0 -136.5 38t-113.5 38q-64 0 -86 -76zM522 -25q-166 0 -271.5 103.5t-105.5 267.5v649h162v-626q0 -113 73.5 -184.5t188.5 -71.5
q130 0 215.5 90t85.5 231v561h164v-995h-131l-20 182q-52 -98 -147 -152.5t-214 -54.5z" />
    <glyph glyph-name="Umacron" unicode="&#x16a;" horiz-adv-x="1570" 
d="M483 1622v117h607v-117h-607zM784 -25q-170 0 -306 69t-213 195.5t-77 286.5v850h168v-844q0 -185 121 -302t307 -117q187 0 307.5 117t120.5 302v844h170v-850q0 -160 -77.5 -286.5t-213.5 -195.5t-307 -69z" />
    <glyph glyph-name="umacron" unicode="&#x16b;" 
d="M295 1241v117h606v-117h-606zM522 -25q-166 0 -271.5 103.5t-105.5 267.5v649h162v-626q0 -113 73.5 -184.5t188.5 -71.5q130 0 215.5 90t85.5 231v561h164v-995h-131l-20 182q-52 -98 -147 -152.5t-214 -54.5z" />
    <glyph glyph-name="Ubreve" unicode="&#x16c;" horiz-adv-x="1570" 
d="M786 1509q-129 0 -214 80.5t-89 212.5h109q6 -80 59.5 -129t134.5 -49q82 0 135.5 49t59.5 129h109q-4 -132 -89.5 -212.5t-214.5 -80.5zM784 -25q-170 0 -306 69t-213 195.5t-77 286.5v850h168v-844q0 -185 121 -302t307 -117q187 0 307.5 117t120.5 302v844h170v-850
q0 -160 -77.5 -286.5t-213.5 -195.5t-307 -69z" />
    <glyph glyph-name="ubreve" unicode="&#x16d;" 
d="M598 1128q-129 0 -214 80.5t-89 212.5h108q6 -80 59.5 -129t135.5 -49t135.5 49t59.5 129h108q-4 -132 -89 -212.5t-214 -80.5zM522 -25q-166 0 -271.5 103.5t-105.5 267.5v649h162v-626q0 -113 73.5 -184.5t188.5 -71.5q130 0 215.5 90t85.5 231v561h164v-995h-131
l-20 182q-52 -98 -147 -152.5t-214 -54.5z" />
    <glyph glyph-name="Uring" unicode="&#x16e;" horiz-adv-x="1570" 
d="M788 1481q-91 0 -148.5 55t-57.5 143t56.5 143.5t147.5 55.5t148 -55.5t57 -143.5t-56 -143t-147 -55zM788 1563q52 0 83.5 31.5t31.5 84.5t-32.5 86t-84.5 33t-84 -33t-32 -86q0 -52 32.5 -84t85.5 -32zM784 -25q-170 0 -306 69t-213 195.5t-77 286.5v850h168v-844
q0 -185 121 -302t307 -117q187 0 307.5 117t120.5 302v844h170v-850q0 -160 -77.5 -286.5t-213.5 -195.5t-307 -69z" />
    <glyph glyph-name="uring" unicode="&#x16f;" 
d="M600 1100q-91 0 -149 55t-58 143t57 143.5t148 55.5t148 -55.5t57 -143.5t-56 -143t-147 -55zM600 1182q52 0 83.5 31.5t31.5 84.5t-32.5 86t-84.5 33t-84.5 -33t-32.5 -86q0 -52 33 -84t86 -32zM522 -25q-166 0 -271.5 103.5t-105.5 267.5v649h162v-626
q0 -113 73.5 -184.5t188.5 -71.5q130 0 215.5 90t85.5 231v561h164v-995h-131l-20 182q-52 -98 -147 -152.5t-214 -54.5z" />
    <glyph glyph-name="Uhungarumlaut" unicode="&#x170;" horiz-adv-x="1570" 
d="M563 1503l-84 84l293 305l96 -96zM963 1503l-86 84l294 305l97 -96zM784 -25q-170 0 -306 69t-213 195.5t-77 286.5v850h168v-844q0 -185 121 -302t307 -117q187 0 307.5 117t120.5 302v844h170v-850q0 -160 -77.5 -286.5t-213.5 -195.5t-307 -69z" />
    <glyph glyph-name="uhungarumlaut" unicode="&#x171;" 
d="M375 1122l-84 84l293 305l96 -96zM774 1122l-86 84l295 305l96 -96zM522 -25q-166 0 -271.5 103.5t-105.5 267.5v649h162v-626q0 -113 73.5 -184.5t188.5 -71.5q130 0 215.5 90t85.5 231v561h164v-995h-131l-20 182q-52 -98 -147 -152.5t-214 -54.5z" />
    <glyph glyph-name="Uogonek" unicode="&#x172;" horiz-adv-x="1570" 
d="M840 -461q-84 0 -138.5 47t-54.5 127q0 138 191 269q-46 -5 -109 -5q-150 8 -273 79t-195.5 194.5t-72.5 275.5v850h168v-844q0 -185 120.5 -302t307.5 -117q185 0 306.5 118.5t121.5 300.5v844h170v-837q0 -179 -87 -303.5t-265 -225.5q-258 -147 -258 -270
q0 -43 29.5 -69.5t72.5 -26.5q39 0 82 16l25 -92q-72 -29 -141 -29z" />
    <glyph glyph-name="uogonek" unicode="&#x173;" 
d="M915 -461q-85 0 -138.5 47t-53.5 127q0 149 180 287l-20 182q-52 -98 -147 -152.5t-214 -54.5q-166 0 -271.5 103.5t-105.5 267.5v649h162v-626q0 -113 73.5 -184.5t188.5 -71.5q130 0 215.5 90t85.5 231v561h164v-995q-186 -146 -186 -260q0 -43 29 -69.5t73 -26.5
q41 0 84 16l23 -94q-71 -27 -142 -27z" />
    <glyph glyph-name="Wcircumflex" unicode="&#x174;" horiz-adv-x="2062" 
d="M801 1513l-72 78l252 244h102l252 -244l-71 -78l-232 205zM506 0l-440 1376h170l358 -1167l356 1167h160l358 -1167l357 1167h172l-441 -1376h-167l-359 1167l-356 -1167h-168z" />
    <glyph glyph-name="wcircumflex" unicode="&#x175;" horiz-adv-x="1587" 
d="M563 1133l-71 77l251 244h103l252 -244l-72 -77l-231 204zM389 0l-326 995h164l246 -802l244 802h153l246 -802l244 802h166l-328 -995h-160l-243 803l-246 -803h-160z" />
    <glyph glyph-name="Ycircumflex" unicode="&#x176;" horiz-adv-x="1226" 
d="M383 1513l-72 78l252 244h103l252 -244l-72 -78l-232 205zM528 0v588l-503 788h186l403 -637l402 637h188l-506 -788v-588h-170z" />
    <glyph glyph-name="ycircumflex" unicode="&#x177;" horiz-adv-x="1062" 
d="M301 1133l-72 77l252 244h103l252 -244l-72 -77l-232 204zM211 -451q-61 0 -139 19l22 131q59 -16 101 -16q75 0 124 45.5t89 150.5l51 129l-412 987h170l320 -807l309 807h172l-463 -1145q-62 -157 -143.5 -229t-200.5 -72z" />
    <glyph glyph-name="Ydieresis" unicode="&#x178;" horiz-adv-x="1226" 
d="M399 1579q-44 0 -72 28t-28 72t28 72.5t72 28.5t72.5 -28.5t28.5 -72.5t-28.5 -72t-72.5 -28zM829 1579q-44 0 -72 28t-28 72t28 72.5t72 28.5t72.5 -28.5t28.5 -72.5t-28.5 -72t-72.5 -28zM528 0v588l-503 788h186l403 -637l402 637h188l-506 -788v-588h-170z" />
    <glyph glyph-name="Zacute" unicode="&#x179;" horiz-adv-x="1286" 
d="M578 1509l-64 93l348 241l74 -106zM104 0v98l832 1145h-807v133h1028v-98l-831 -1145h856v-133h-1078z" />
    <glyph glyph-name="zacute" unicode="&#x17a;" horiz-adv-x="985" 
d="M428 1128l-63 93l348 241l73 -106zM90 0v92l574 774h-558v129h773v-94l-574 -774h590v-127h-805z" />
    <glyph glyph-name="Zdotaccent" unicode="&#x17b;" horiz-adv-x="1286" 
d="M643 1573q-46 0 -76 30t-30 76q0 47 30 77t76 30t76.5 -30t30.5 -77q0 -46 -30.5 -76t-76.5 -30zM104 0v98l832 1145h-807v133h1028v-98l-831 -1145h856v-133h-1078z" />
    <glyph glyph-name="zdotaccent" unicode="&#x17c;" horiz-adv-x="985" 
d="M494 1192q-46 0 -76.5 30t-30.5 76q0 47 30.5 77t76.5 30t76 -30t30 -77q0 -46 -30 -76t-76 -30zM90 0v92l574 774h-558v129h773v-94l-574 -774h590v-127h-805z" />
    <glyph glyph-name="Zcaron" unicode="&#x17d;" horiz-adv-x="1286" 
d="M592 1526l-252 241l72 80l231 -207l231 207l72 -80l-252 -241h-102zM104 0v98l832 1145h-807v133h1028v-98l-831 -1145h856v-133h-1078z" />
    <glyph glyph-name="zcaron" unicode="&#x17e;" horiz-adv-x="985" 
d="M442 1145l-252 241l72 80l232 -206l231 206l72 -80l-252 -241h-103zM90 0v92l574 774h-558v129h773v-94l-574 -774h590v-127h-805z" />
    <glyph glyph-name="florin" unicode="&#x192;" horiz-adv-x="1179" 
d="M387 -25q-86 0 -188 27l24 131q67 -20 129 -20q61 0 100.5 38.5t39.5 100.5v496h-199v129h199v260q0 118 76.5 191t195.5 73q89 0 188 -27l-22 -131q-70 21 -127 21q-62 0 -101.5 -38.5t-39.5 -101.5v-247h247v-129h-247v-508q0 -117 -77.5 -191t-197.5 -74z" />
    <glyph glyph-name="uni01CD" unicode="&#x1cd;" horiz-adv-x="1374" 
d="M637 1526l-252 241l72 80l231 -207l232 207l71 -80l-252 -241h-102zM41 0l567 1376h158l567 -1376h-172l-151 377h-645l-152 -377h-172zM412 506h549l-275 678z" />
    <glyph glyph-name="uni01CE" unicode="&#x1ce;" 
d="M502 1145l-252 241l72 80l231 -206l231 206l72 -80l-252 -241h-102zM541 -25q-197 0 -324 147t-127 376q0 228 127 375t324 147q106 0 191.5 -47t137.5 -135l21 157h143v-995h-131l-20 166q-54 -92 -143 -141.5t-199 -49.5zM580 109q129 0 210.5 86t81.5 223v160
q0 135 -81.5 222t-210.5 87q-141 0 -231.5 -109.5t-90.5 -279.5q0 -171 90.5 -280t231.5 -109z" />
    <glyph glyph-name="AEacute" unicode="&#x1fc;" horiz-adv-x="1990" 
d="M1110 1509l-63 93l348 241l73 -106zM-14 0l913 1376h950v-131h-710v-477h645v-127h-645v-510h743v-131h-907v377h-549l-248 -377h-192zM502 506h473v719z" />
    <glyph glyph-name="aeacute" unicode="&#x1fd;" horiz-adv-x="1769" 
d="M819 1128l-63 93l348 241l74 -106zM449 -25q-154 0 -256.5 85t-102.5 212q0 156 121 244t334 88q97 0 223 -29v103q0 96 -67 156.5t-177 60.5q-155 0 -329 -74l-45 119q210 80 393 80q123 0 212.5 -58t112.5 -151q54 99 152.5 154t222.5 55q200 0 326.5 -140.5
t126.5 -363.5q0 -10 -1 -29.5t-1 -29.5h-770q9 -159 111.5 -258t258.5 -99q143 0 299 84l54 -112q-187 -97 -367 -97q-142 0 -257 68t-181 190q-44 -119 -150.5 -188.5t-242.5 -69.5zM924 561h614q-5 148 -86.5 241t-208.5 93q-132 0 -220.5 -92t-98.5 -242zM475 94
q130 0 211.5 83.5t81.5 215.5v84q-109 25 -205 25q-147 0 -230 -57.5t-83 -159.5q0 -82 64 -136.5t161 -54.5z" />
    <glyph glyph-name="Oslashacute" unicode="&#x1fe;" horiz-adv-x="1570" 
d="M721 1509l-64 93l349 241l73 -106zM784 -25q-224 0 -381 117l-81 -108h-129l122 168q-103 97 -159 234t-56 302q0 207 87 369.5t243 253t354 90.5q215 0 383 -117l82 109h129l-127 -168q104 -96 160.5 -234t56.5 -303q0 -207 -87 -369.5t-243 -253t-354 -90.5zM408 274
l673 895q-122 101 -297 101q-230 0 -376 -163.5t-146 -418.5t146 -414zM784 106q230 0 377.5 163.5t147.5 418.5q0 124 -39.5 231t-110.5 183l-672 -897q129 -99 297 -99z" />
    <glyph glyph-name="oslashacute" unicode="&#x1ff;" 
d="M532 1128l-63 93l348 241l74 -106zM598 -25q-158 0 -272 82l-56 -73h-114l90 122q-74 70 -115 171t-41 221q0 230 142.5 376t365.5 146q150 0 272 -82l54 72h116l-94 -123q75 -70 116.5 -170t41.5 -219q0 -230 -142 -376.5t-364 -146.5zM338 227l450 602q-85 66 -190 66
q-155 0 -253.5 -111t-98.5 -286q0 -168 92 -271zM598 100q154 0 252 111.5t98 286.5q0 164 -90 268l-452 -600q78 -66 192 -66z" />
    <glyph glyph-name="Scommaaccent" unicode="&#x218;" horiz-adv-x="1187" 
d="M594 -25q-224 0 -490 109l41 131q261 -102 437 -102q152 0 242.5 65.5t90.5 173.5q0 60 -27.5 105.5t-74 74t-106.5 51t-126.5 41.5t-133 39.5t-126.5 50.5t-106.5 70t-74 103.5t-27.5 144.5q0 163 134 266t347 103q205 0 440 -92l-41 -131q-210 86 -387 86
q-148 0 -237.5 -64t-89.5 -168q0 -59 27.5 -103t74 -72t107 -49.5t127 -40t133 -39t127 -51.5t107 -72t74 -105.5t27.5 -147.5q0 -167 -135.5 -272t-353.5 -105zM508 -578l-47 64q116 87 125 203q-38 -2 -65 24t-27 64q0 44 28 72t72 28q50 0 79 -36t29 -97
q0 -97 -50.5 -181t-143.5 -141z" />
    <glyph glyph-name="scommaaccent" unicode="&#x219;" horiz-adv-x="919" 
d="M461 -25q-176 0 -371 76l39 121q176 -72 320 -72q99 0 160 45t61 117q0 45 -24.5 78t-65 51t-91.5 35t-105 30t-105 36t-91.5 52t-65 79.5t-24.5 117.5q0 122 102 200.5t261 78.5q162 0 336 -70l-37 -121q-157 66 -287 66q-96 0 -154.5 -42.5t-58.5 -111.5
q0 -50 31.5 -83.5t81.5 -52.5t111 -35t121.5 -37.5t110.5 -51.5t81.5 -86t31.5 -133q0 -126 -102 -206.5t-266 -80.5zM375 -578l-47 64q116 87 125 203q-38 -2 -65.5 24t-27.5 64q0 44 28.5 72t72.5 28q50 0 79 -36t29 -97q0 -97 -50.5 -181t-143.5 -141z" />
    <glyph glyph-name="uni021A" unicode="&#x21a;" horiz-adv-x="1224" 
d="M528 0v1243h-475v133h1118v-133h-475v-1243h-168zM526 -578l-47 64q116 87 125 203q-38 -2 -65 24t-27 64q0 44 28 72t72 28q50 0 79.5 -36t29.5 -97q0 -97 -50.5 -181t-144.5 -141z" />
    <glyph glyph-name="uni021B" unicode="&#x21b;" horiz-adv-x="821" 
d="M567 -25q-141 0 -224 80.5t-83 210.5v600h-207v129h207v295h162v-295h313v-129h-313v-585q0 -77 47.5 -124.5t128.5 -47.5q52 0 137 20l23 -127q-105 -27 -191 -27zM401 -578l-47 64q116 87 125 203q-38 -2 -65 24t-27 64q0 44 28 72t72 28q50 0 79.5 -36t29.5 -97
q0 -97 -50.5 -181t-144.5 -141z" />
    <glyph glyph-name="uni0237" unicode="&#x237;" horiz-adv-x="501" 
d="M41 -451q-94 0 -199 27l23 127q85 -20 141 -20q76 0 124 47.5t48 124.5v1140h162v-1155q0 -129 -83 -210t-216 -81z" />
    <glyph glyph-name="circumflex" unicode="&#x2c6;" horiz-adv-x="491" 
d="M14 1133l-71 77l252 244h102l252 -244l-72 -77l-231 204z" />
    <glyph glyph-name="caron" unicode="&#x2c7;" horiz-adv-x="491" 
d="M195 1145l-252 241l71 80l232 -206l231 206l72 -80l-252 -241h-102z" />
    <glyph glyph-name="breve" unicode="&#x2d8;" horiz-adv-x="491" 
d="M246 1128q-129 0 -214 80.5t-89 212.5h108q6 -80 59.5 -129t135.5 -49q81 0 134.5 49t59.5 129h109q-4 -132 -89 -212.5t-214 -80.5z" />
    <glyph glyph-name="dotaccent" unicode="&#x2d9;" horiz-adv-x="491" 
d="M246 1192q-46 0 -76.5 30t-30.5 76q0 47 30.5 77t76.5 30t76 -30t30 -77q0 -46 -30 -76t-76 -30z" />
    <glyph glyph-name="ring" unicode="&#x2da;" horiz-adv-x="491" 
d="M248 1100q-91 0 -149 55t-58 143t57 143.5t148 55.5t148 -55.5t57 -143.5t-56 -143t-147 -55zM248 1182q52 0 83 31.5t31 84.5t-32 86t-84 33t-84.5 -33t-32.5 -86q0 -52 33 -84t86 -32z" />
    <glyph glyph-name="ogonek" unicode="&#x2db;" horiz-adv-x="491" 
d="M209 -461q-85 0 -139 47t-54 127q0 159 224 314l88 -27q-187 -146 -187 -260q0 -43 29.5 -69.5t73.5 -26.5q41 0 84 16l22 -94q-70 -27 -141 -27z" />
    <glyph glyph-name="tilde" unicode="&#x2dc;" horiz-adv-x="491" 
d="M41 1202l-104 33q15 73 63 116.5t115 43.5q51 0 136.5 -38t113.5 -38q63 0 86 76l104 -31q-15 -73 -63 -117.5t-115 -44.5q-51 0 -136.5 38t-113.5 38q-64 0 -86 -76z" />
    <glyph glyph-name="hungarumlaut" unicode="&#x2dd;" horiz-adv-x="491" 
d="M23 1122l-84 84l292 305l97 -96zM422 1122l-86 84l295 305l96 -96z" />
    <glyph glyph-name="gravecomb" unicode="&#x300;" horiz-adv-x="0" 
d="M-168 1128l-358 228l73 106l349 -241z" />
    <glyph glyph-name="acutecomb" unicode="&#x301;" horiz-adv-x="0" 
d="M-311 1128l-64 93l348 241l74 -106z" />
    <glyph glyph-name="uni0302" unicode="&#x302;" horiz-adv-x="0" 
d="M-477 1133l-72 77l252 244h102l252 -244l-71 -77l-232 204z" />
    <glyph glyph-name="tildecomb" unicode="&#x303;" horiz-adv-x="0" 
d="M-451 1202l-104 33q15 73 63 116.5t115 43.5q51 0 136.5 -38t113.5 -38q63 0 86 76l104 -31q-15 -73 -63 -117.5t-115 -44.5q-51 0 -136.5 38t-113.5 38q-64 0 -86 -76z" />
    <glyph glyph-name="uni0304" unicode="&#x304;" horiz-adv-x="0" 
d="M-549 1241v117h606v-117h-606z" />
    <glyph glyph-name="uni0306" unicode="&#x306;" horiz-adv-x="0" 
d="M-246 1128q-129 0 -214 80.5t-89 212.5h109q6 -80 59.5 -129t134.5 -49q82 0 135.5 49t59.5 129h108q-4 -132 -89 -212.5t-214 -80.5z" />
    <glyph glyph-name="uni0307" unicode="&#x307;" horiz-adv-x="0" 
d="M-246 1192q-46 0 -76 30t-30 76q0 47 30 77t76 30t76.5 -30t30.5 -77q0 -46 -30.5 -76t-76.5 -30z" />
    <glyph glyph-name="uni0308" unicode="&#x308;" horiz-adv-x="0" 
d="M-461 1198q-44 0 -72 28t-28 72t28 72.5t72 28.5t72.5 -28.5t28.5 -72.5t-28.5 -72t-72.5 -28zM-31 1198q-44 0 -72 28t-28 72t28 72.5t72 28.5t72.5 -28.5t28.5 -72.5t-28.5 -72t-72.5 -28z" />
    <glyph glyph-name="uni030A" unicode="&#x30a;" horiz-adv-x="0" 
d="M-244 1100q-91 0 -149 55t-58 143t57 143.5t148 55.5t148 -55.5t57 -143.5t-56 -143t-147 -55zM-244 1182q52 0 83.5 31.5t31.5 84.5t-32.5 86t-84.5 33t-84 -33t-32 -86q0 -52 32.5 -84t85.5 -32z" />
    <glyph glyph-name="uni030B" unicode="&#x30b;" horiz-adv-x="0" 
d="M-469 1122l-84 84l293 305l96 -96zM-70 1122l-86 84l295 305l97 -96z" />
    <glyph glyph-name="uni030C" unicode="&#x30c;" horiz-adv-x="0" 
d="M-297 1145l-252 241l72 80l231 -206l232 206l71 -80l-252 -241h-102z" />
    <glyph glyph-name="uni0326" unicode="&#x326;" horiz-adv-x="0" 
d="M-332 -578l-47 64q116 87 125 203q-38 -2 -65 24t-27 64q0 44 28 72t72 28q50 0 79.5 -36t29.5 -97q0 -97 -50.5 -181t-144.5 -141z" />
    <glyph glyph-name="uni0327" unicode="&#x327;" horiz-adv-x="0" 
d="M-274 -461q-94 0 -187 37l29 96q79 -28 143 -28q50 0 82.5 24.5t32.5 63.5t-34.5 63.5t-88.5 24.5h-22l32 180h115l-21 -115q67 -9 109.5 -56.5t42.5 -111.5q0 -78 -65 -128t-168 -50z" />
    <glyph glyph-name="uni0328" unicode="&#x328;" horiz-adv-x="0" 
d="M-283 -461q-85 0 -138.5 47t-53.5 127q0 160 223 314l88 -27q-186 -146 -186 -260q0 -43 29 -69.5t73 -26.5q41 0 84 16l23 -94q-71 -27 -142 -27z" />
    <glyph glyph-name="uni0394" unicode="&#x394;" horiz-adv-x="1374" 
d="M70 0v96l538 1280h158l539 -1280v-96h-1235zM250 133h872l-436 1051z" />
    <glyph glyph-name="uni03A9" unicode="&#x3a9;" horiz-adv-x="1607" 
d="M106 0v133h367q-160 113 -244 268.5t-84 341.5q0 290 185 474t475 184t473.5 -184t183.5 -474q0 -186 -83 -342t-242 -268h364v-133h-573v113q364 237 364 618q0 235 -135.5 384t-351.5 149q-218 0 -354 -149t-136 -384q0 -190 94 -346t271 -272v-113h-574z" />
    <glyph glyph-name="uni03BC" unicode="&#x3bc;" horiz-adv-x="1243" 
d="M162 -426v1421h162v-626q0 -113 73.5 -184.5t188.5 -71.5q130 0 215.5 90t85.5 231v561h164v-796q0 -41 23.5 -65.5t64.5 -24.5q13 0 55 6l14 -129q-60 -11 -108 -11q-87 0 -140.5 49.5t-58.5 133.5q-53 -87 -137 -134t-182 -47q-178 0 -258 121v-524h-162z" />
    <glyph glyph-name="pi" unicode="&#x3c0;" horiz-adv-x="1325" 
d="M1100 -25q-100 0 -161.5 60.5t-61.5 161.5v669h-459v-866h-158v866h-207v129h1186v-129h-205v-655q0 -47 27 -74.5t72 -27.5q25 0 65 8l19 -129q-67 -13 -117 -13z" />
    <glyph glyph-name="Wgrave" unicode="&#x1e80;" horiz-adv-x="2062" 
d="M1110 1509l-358 228l73 106l349 -241zM506 0l-440 1376h170l358 -1167l356 1167h160l358 -1167l357 1167h172l-441 -1376h-167l-359 1167l-356 -1167h-168z" />
    <glyph glyph-name="wgrave" unicode="&#x1e81;" horiz-adv-x="1587" 
d="M872 1128l-358 228l74 106l348 -241zM389 0l-326 995h164l246 -802l244 802h153l246 -802l244 802h166l-328 -995h-160l-243 803l-246 -803h-160z" />
    <glyph glyph-name="Wacute" unicode="&#x1e82;" horiz-adv-x="2062" 
d="M967 1509l-64 93l348 241l74 -106zM506 0l-440 1376h170l358 -1167l356 1167h160l358 -1167l357 1167h172l-441 -1376h-167l-359 1167l-356 -1167h-168z" />
    <glyph glyph-name="wacute" unicode="&#x1e83;" horiz-adv-x="1587" 
d="M729 1128l-63 93l348 241l73 -106zM389 0l-326 995h164l246 -802l244 802h153l246 -802l244 802h166l-328 -995h-160l-243 803l-246 -803h-160z" />
    <glyph glyph-name="Wdieresis" unicode="&#x1e84;" horiz-adv-x="2062" 
d="M817 1579q-44 0 -72 28t-28 72t28 72.5t72 28.5t72.5 -28.5t28.5 -72.5t-28.5 -72t-72.5 -28zM1247 1579q-44 0 -72 28t-28 72t28 72.5t72 28.5t72.5 -28.5t28.5 -72.5t-28.5 -72t-72.5 -28zM506 0l-440 1376h170l358 -1167l356 1167h160l358 -1167l357 1167h172
l-441 -1376h-167l-359 1167l-356 -1167h-168z" />
    <glyph glyph-name="wdieresis" unicode="&#x1e85;" horiz-adv-x="1587" 
d="M580 1198q-44 0 -72.5 28t-28.5 72t28.5 72.5t72.5 28.5t72 -28.5t28 -72.5t-28 -72t-72 -28zM1010 1198q-44 0 -72.5 28t-28.5 72t28.5 72.5t72.5 28.5t72 -28.5t28 -72.5t-28 -72t-72 -28zM389 0l-326 995h164l246 -802l244 802h153l246 -802l244 802h166l-328 -995
h-160l-243 803l-246 -803h-160z" />
    <glyph glyph-name="uni1E9E" unicode="&#x1e9e;" horiz-adv-x="1570" 
d="M985 -25q-205 0 -395 113l61 127q167 -102 322 -102q137 0 225 80.5t88 207.5q0 131 -96.5 215t-249.5 84h-45l-25 80l338 463h-839v-1243h-164v1376h1198v-98l-340 -465q175 -22 282 -135t107 -277q0 -187 -131.5 -306.5t-335.5 -119.5z" />
    <glyph glyph-name="Ygrave" unicode="&#x1ef2;" horiz-adv-x="1226" 
d="M692 1509l-358 228l74 106l348 -241zM528 0v588l-503 788h186l403 -637l402 637h188l-506 -788v-588h-170z" />
    <glyph glyph-name="ygrave" unicode="&#x1ef3;" horiz-adv-x="1062" 
d="M610 1128l-358 228l74 106l348 -241zM211 -451q-61 0 -139 19l22 131q59 -16 101 -16q75 0 124 45.5t89 150.5l51 129l-412 987h170l320 -807l309 807h172l-463 -1145q-62 -157 -143.5 -229t-200.5 -72z" />
    <glyph glyph-name="uni2002" unicode="&#x2002;" horiz-adv-x="983" 
 />
    <glyph glyph-name="uni2003" unicode="&#x2003;" horiz-adv-x="1966" 
 />
    <glyph glyph-name="uni2009" unicode="&#x2009;" horiz-adv-x="393" 
 />
    <glyph glyph-name="uni200A" unicode="&#x200a;" horiz-adv-x="122" 
 />
    <glyph glyph-name="endash" unicode="&#x2013;" horiz-adv-x="983" 
d="M53 446v127h877v-127h-877z" />
    <glyph glyph-name="emdash" unicode="&#x2014;" horiz-adv-x="1966" 
d="M53 446v127h1860v-127h-1860z" />
    <glyph glyph-name="quoteleft" unicode="&#x2018;" horiz-adv-x="505" 
d="M254 866q-55 0 -89 43.5t-34 114.5q0 113 59 212.5t166 168.5l52 -70q-141 -111 -150 -248q46 2 78.5 -28.5t32.5 -77.5q0 -49 -32.5 -82t-82.5 -33z" />
    <glyph glyph-name="quoteright" unicode="&#x2019;" horiz-adv-x="505" 
d="M150 860l-52 70q141 108 150 248q-46 -2 -77.5 28t-31.5 76q0 51 32 83t83 32q55 0 88 -43t33 -115q0 -112 -59 -211t-166 -168z" />
    <glyph glyph-name="quotesinglbase" unicode="&#x201a;" horiz-adv-x="440" 
d="M150 -328l-52 70q141 108 150 248q-46 -2 -77.5 28t-31.5 76q0 51 32 83t83 32q55 0 88 -43t33 -115q0 -112 -59 -211t-166 -168z" />
    <glyph glyph-name="quotedblleft" unicode="&#x201c;" horiz-adv-x="905" 
d="M254 866q-55 0 -89 43.5t-34 114.5q0 113 59 212.5t166 168.5l52 -70q-141 -111 -150 -248q46 2 78.5 -28.5t32.5 -77.5q0 -49 -32.5 -82t-82.5 -33zM653 866q-55 0 -89 43.5t-34 114.5q0 112 59.5 212t166.5 169l51 -70q-141 -111 -150 -248q46 2 78.5 -28.5t32.5 -77.5
q0 -49 -33 -82t-82 -33z" />
    <glyph glyph-name="quotedblright" unicode="&#x201d;" horiz-adv-x="905" 
d="M150 860l-52 70q141 108 150 248q-46 -2 -77.5 28t-31.5 76q0 51 32 83t83 32q55 0 88 -43t33 -115q0 -112 -59 -211t-166 -168zM549 860l-51 70q140 107 149 248q-46 -2 -77 28t-31 76q0 51 31.5 83t82.5 32q55 0 88 -43t33 -115q0 -112 -59 -211t-166 -168z" />
    <glyph glyph-name="quotedblbase" unicode="&#x201e;" horiz-adv-x="905" 
d="M150 -328l-52 70q141 108 150 248q-46 -2 -77.5 28t-31.5 76q0 51 32 83t83 32q55 0 88 -43t33 -115q0 -112 -59 -211t-166 -168zM549 -328l-51 70q140 107 149 248q-46 -2 -77 28t-31 76q0 51 31.5 83t82.5 32q55 0 88 -43t33 -115q0 -112 -59 -211t-166 -168z" />
    <glyph glyph-name="dagger" unicode="&#x2020;" horiz-adv-x="1007" 
d="M440 0v895h-354v129h354v352h127v-352h353v-129h-353v-895h-127z" />
    <glyph glyph-name="daggerdbl" unicode="&#x2021;" horiz-adv-x="1007" 
d="M440 0v352h-354v129h354v414h-354v129h354v352h127v-352h353v-129h-353v-414h353v-129h-353v-352h-127z" />
    <glyph glyph-name="bullet" unicode="&#x2022;" horiz-adv-x="983" 
d="M492 295q-123 0 -209 86t-86 209t86 209t209 86t208.5 -86t85.5 -209t-85.5 -209t-208.5 -86z" />
    <glyph glyph-name="ellipsis" unicode="&#x2026;" horiz-adv-x="1966" 
d="M328 -18q-51 0 -83 31t-32 81q0 51 32 83t83 32q50 0 82 -32t32 -83q0 -49 -32 -80.5t-82 -31.5zM983 -18q-51 0 -83 31t-32 81q0 51 32 83t83 32q50 0 82.5 -32t32.5 -83q0 -49 -32.5 -80.5t-82.5 -31.5zM1638 -18q-51 0 -82.5 31t-31.5 81q0 51 31.5 83t82.5 32
q50 0 82.5 -32t32.5 -83q0 -49 -32.5 -80.5t-82.5 -31.5z" />
    <glyph glyph-name="perthousand" unicode="&#x2030;" horiz-adv-x="2557" 
d="M432 664q-150 0 -246 103t-96 265q0 161 96.5 265t245.5 104t244.5 -104t95.5 -265q0 -162 -95 -265t-245 -103zM301 0l1032 1376h135l-1032 -1376h-135zM432 764q95 0 155 74t60 194q0 119 -60 193.5t-155 74.5t-156 -75t-61 -193q0 -119 60.5 -193.5t156.5 -74.5z
M1337 -25q-149 0 -244.5 103t-95.5 266q0 161 95.5 265t244.5 104t245.5 -104t96.5 -265q0 -162 -96 -265.5t-246 -103.5zM2128 -25q-151 0 -246.5 103t-95.5 266q0 162 96 265.5t246 103.5q149 0 244.5 -104t95.5 -265q0 -163 -95.5 -266t-244.5 -103zM1337 76
q96 0 156.5 74.5t60.5 193.5q0 118 -61 193t-156 75t-155 -74.5t-60 -193.5q0 -120 60 -194t155 -74zM2128 76q95 0 155 74t60 194q0 119 -60 193.5t-155 74.5q-97 0 -157 -74.5t-60 -193.5q0 -120 60 -194t157 -74z" />
    <glyph glyph-name="guilsinglleft" unicode="&#x2039;" horiz-adv-x="636" 
d="M465 20l-406 453v74l406 450l98 -77l-344 -410l344 -410z" />
    <glyph glyph-name="guilsinglright" unicode="&#x203a;" horiz-adv-x="636" 
d="M172 20l-98 80l344 410l-344 410l98 77l406 -450v-74z" />
    <glyph glyph-name="fraction" unicode="&#x2044;" horiz-adv-x="393" 
d="M-387 0l1032 1376h135l-1032 -1376h-135z" />
    <glyph glyph-name="Euro" unicode="&#x20ac;" horiz-adv-x="1179" 
d="M786 -25q-210 0 -361 143.5t-198 387.5h-157v102h143q-2 27 -2 80q0 76 4 113h-145v102h166q51 229 199 363.5t351 134.5q190 0 359 -96l-64 -113q-137 78 -276 78q-148 0 -256.5 -100t-147.5 -267h502v-102h-530q-4 -37 -4 -113q0 -53 2 -80h532v-102h-510
q34 -183 144.5 -291.5t267.5 -108.5q139 0 276 78l64 -112q-171 -97 -359 -97z" />
    <glyph glyph-name="uni2105" unicode="&#x2105;" horiz-adv-x="1728" 
d="M395 -33l-88 66l1032 1376l88 -66zM418 698q-150 0 -246 98t-96 251q0 152 96 249t246 97q114 0 235 -76l-55 -86q-85 59 -168 59q-100 0 -163.5 -68.5t-63.5 -174.5q0 -109 63.5 -177.5t163.5 -68.5q83 0 168 59l55 -86q-121 -76 -235 -76zM1309 -16q-151 0 -246.5 97
t-95.5 249q0 154 95.5 251t246.5 97t246.5 -97t95.5 -251q0 -152 -95.5 -249t-246.5 -97zM1309 84q95 0 155 68.5t60 177.5q0 110 -60 179t-155 69t-155 -69t-60 -179q0 -109 60 -177.5t155 -68.5z" />
    <glyph glyph-name="uni2113" unicode="&#x2113;" horiz-adv-x="780" 
d="M461 -25q-131 0 -215 82t-84 209v879q0 144 80 232.5t209 88.5q120 0 198 -88.5t78 -224.5q0 -169 -108.5 -332.5t-305.5 -294.5v-247q0 -75 47.5 -122.5t122.5 -47.5q65 0 148 22l22 -129q-102 -27 -192 -27zM313 678q137 101 211 217.5t74 237.5q0 88 -39 143t-102 55
q-64 0 -104 -54t-40 -140v-459z" />
    <glyph glyph-name="uni2116" unicode="&#x2116;" horiz-adv-x="2408" 
d="M1989 705q-151 0 -246.5 97t-95.5 249q0 154 95.5 251t246.5 97t246.5 -97t95.5 -251q0 -152 -95.5 -249t-246.5 -97zM205 0v1376h166l837 -1143v1143h158v-1376h-166l-838 1143v-1143h-157zM1989 805q95 0 155 68.5t60 177.5q0 110 -60 178.5t-155 68.5
q-94 0 -154.5 -68.5t-60.5 -178.5q0 -108 60.5 -177t154.5 -69zM1657 473v92h665v-92h-665z" />
    <glyph glyph-name="uni2117" unicode="&#x2117;" horiz-adv-x="1703" 
d="M852 -66q-218 0 -390 96t-268 268t-96 390t96 390t268 268t390 96t390 -96t268 -268t96 -390t-96 -390t-268 -268t-390 -96zM852 27q144 0 267 49t209.5 135.5t135.5 209.5t49 267q0 192 -83.5 343t-234.5 235t-343 84t-343 -84t-235 -235t-84 -343t84 -343t235 -234.5
t343 -83.5zM588 262v852h330q128 0 210 -75.5t82 -196.5q0 -122 -82 -198.5t-210 -76.5h-211v-305h-119zM707 668h198q80 0 132.5 48.5t52.5 125.5q0 76 -52.5 124t-132.5 48h-198v-346z" />
    <glyph glyph-name="uni2120" unicode="&#x2120;" horiz-adv-x="1904" 
d="M389 508q-149 0 -309 65l35 99q149 -62 266 -62q87 0 138.5 38.5t51.5 101.5q0 43 -26.5 72.5t-69 46.5t-94 31t-103.5 32t-94.5 43.5t-69 71.5t-26.5 110q0 103 83.5 169.5t217.5 66.5q136 0 285 -58l-35 -98q-136 51 -242 51q-83 0 -132.5 -36t-49.5 -95q0 -37 21 -64
t54.5 -41.5t77 -29t89 -25t89 -30.5t77 -45.5t54.5 -69.5t21 -102q0 -107 -85.5 -174.5t-223.5 -67.5zM918 524v852h126l297 -405l297 405h127v-852h-116v678l-271 -368h-73l-271 368v-678h-116z" />
    <glyph glyph-name="trademark" unicode="&#x2122;" horiz-adv-x="1929" 
d="M338 524v752h-289v100h703v-100h-287v-752h-127zM942 524v852h125l299 -405l297 405h127v-852h-119v678l-268 -368h-76l-270 368v-678h-115z" />
    <glyph glyph-name="uni2126" unicode="&#x2126;" horiz-adv-x="1607" 
d="M106 0v133h367q-160 113 -244 268.5t-84 341.5q0 290 185 474t475 184t473.5 -184t183.5 -474q0 -186 -83 -342t-242 -268h364v-133h-573v113q364 237 364 618q0 235 -135.5 384t-351.5 149q-218 0 -354 -149t-136 -384q0 -190 94 -346t271 -272v-113h-574z" />
    <glyph glyph-name="estimated" unicode="&#x212e;" horiz-adv-x="1966" 
d="M983 -33q-160 0 -305.5 57.5t-250.5 154t-167.5 230t-62.5 279.5t62.5 279.5t167.5 230t250.5 154t305.5 57.5t305.5 -57.5t250.5 -154t167.5 -230t62.5 -279.5q0 -23 -2 -33h-1275v-401q91 -104 218 -162.5t273 -58.5q147 0 276.5 60.5t221.5 168.5h135
q-110 -136 -276 -215.5t-357 -79.5zM492 721h983v401q-93 103 -221 162t-271 59q-145 0 -272.5 -59t-218.5 -162v-401z" />
    <glyph glyph-name="uni2153" unicode="&#x2153;" horiz-adv-x="1966" 
d="M397 524v727l-209 -118l-47 86l277 157h102v-852h-123zM399 0l1033 1376h135l-1032 -1376h-136zM1554 -16q-150 0 -284 67l41 90q111 -57 221 -57q79 0 127.5 41.5t48.5 107.5q0 71 -57 115.5t-148 44.5h-57v86h57q83 0 135 42t52 108q0 62 -42.5 100.5t-111.5 38.5
q-105 0 -211 -53l-41 92q130 61 270 61q115 0 188 -64t73 -165q0 -70 -39.5 -123.5t-106.5 -75.5q75 -25 120.5 -83.5t45.5 -133.5q0 -105 -79 -172t-202 -67z" />
    <glyph glyph-name="uni2154" unicode="&#x2154;" horiz-adv-x="1966" 
d="M92 524v80l326 324q98 94 98 194q0 72 -46 118t-120 46q-95 0 -207 -72l-49 93q139 86 277 86q118 0 192 -71.5t74 -182.5q0 -134 -119 -256l-256 -258h387v-101h-557zM399 0l1033 1376h135l-1032 -1376h-136zM1554 -16q-150 0 -284 67l41 90q111 -57 221 -57
q79 0 127.5 41.5t48.5 107.5q0 71 -57 115.5t-148 44.5h-57v86h57q83 0 135 42t52 108q0 62 -42.5 100.5t-111.5 38.5q-105 0 -211 -53l-41 92q130 61 270 61q115 0 188 -64t73 -165q0 -70 -39.5 -123.5t-106.5 -75.5q75 -25 120.5 -83.5t45.5 -133.5q0 -105 -79 -172
t-202 -67z" />
    <glyph glyph-name="uni2155" unicode="&#x2155;" horiz-adv-x="1966" 
d="M397 524v727l-209 -118l-47 86l277 157h102v-852h-123zM399 0l1033 1376h135l-1032 -1376h-136zM1544 -16q-135 0 -264 77l49 89q106 -66 203 -66q87 0 139.5 47.5t52.5 124.5q0 79 -53 125.5t-147 46.5q-78 0 -191 -25v449h482v-98h-371v-248q54 10 117 10
q129 0 206.5 -71t77.5 -191q0 -119 -84 -194.5t-217 -75.5z" />
    <glyph glyph-name="uni2156" unicode="&#x2156;" horiz-adv-x="1966" 
d="M92 524v80l326 324q98 94 98 194q0 72 -46 118t-120 46q-95 0 -207 -72l-49 93q139 86 277 86q118 0 192 -71.5t74 -182.5q0 -134 -119 -256l-256 -258h387v-101h-557zM399 0l1033 1376h135l-1032 -1376h-136zM1544 -16q-135 0 -264 77l49 89q106 -66 203 -66
q87 0 139.5 47.5t52.5 124.5q0 79 -53 125.5t-147 46.5q-78 0 -191 -25v449h482v-98h-371v-248q54 10 117 10q129 0 206.5 -71t77.5 -191q0 -119 -84 -194.5t-217 -75.5z" />
    <glyph glyph-name="uni2157" unicode="&#x2157;" horiz-adv-x="1966" 
d="M375 508q-151 0 -285 67l41 91q113 -58 221 -58q79 0 127.5 42t48.5 108q0 71 -56.5 115.5t-147.5 44.5h-58v86h58q83 0 134.5 41.5t51.5 107.5q0 62 -42.5 100.5t-111.5 38.5q-105 0 -211 -53l-41 92q132 62 271 62q115 0 187.5 -64.5t72.5 -165.5q0 -70 -39.5 -123
t-106.5 -75q75 -25 120.5 -83.5t45.5 -133.5q0 -106 -78.5 -173t-201.5 -67zM399 0l1033 1376h135l-1032 -1376h-136zM1544 -16q-135 0 -264 77l49 89q106 -66 203 -66q87 0 139.5 47.5t52.5 124.5q0 79 -53 125.5t-147 46.5q-78 0 -191 -25v449h482v-98h-371v-248
q54 10 117 10q129 0 206.5 -71t77.5 -191q0 -119 -84 -194.5t-217 -75.5z" />
    <glyph glyph-name="uni2158" unicode="&#x2158;" horiz-adv-x="1966" 
d="M475 524v193h-412v88l406 571h119v-565h125v-94h-125v-193h-113zM399 0l1033 1376h135l-1032 -1376h-136zM180 811h295v420zM1544 -16q-135 0 -264 77l49 89q106 -66 203 -66q87 0 139.5 47.5t52.5 124.5q0 79 -53 125.5t-147 46.5q-78 0 -191 -25v449h482v-98h-371v-248
q54 10 117 10q129 0 206.5 -71t77.5 -191q0 -119 -84 -194.5t-217 -75.5z" />
    <glyph glyph-name="uni2159" unicode="&#x2159;" horiz-adv-x="1966" 
d="M397 524v727l-209 -118l-47 86l277 157h102v-852h-123zM399 0l1033 1376h135l-1032 -1376h-136zM1591 -16q-148 0 -230.5 103.5t-82.5 293.5q0 228 94 357.5t262 129.5q110 0 213 -53l-41 -88q-88 43 -166 43q-117 0 -178.5 -87.5t-66.5 -252.5q31 56 89 88.5t128 32.5
q121 0 197.5 -76.5t76.5 -200.5q0 -126 -85 -208t-210 -82zM1589 82q77 0 131 52.5t54 133.5q0 86 -50.5 136.5t-132.5 50.5q-78 0 -133 -49.5t-55 -120.5q0 -87 50.5 -145t135.5 -58z" />
    <glyph glyph-name="uni215A" unicode="&#x215a;" horiz-adv-x="1966" 
d="M365 508q-134 0 -265 78l50 88q106 -66 202 -66q87 0 140 47.5t53 124.5q0 79 -53.5 125.5t-147.5 46.5q-82 0 -190 -24v448h481v-98h-371v-248q54 10 117 10q129 0 207 -71t78 -191q0 -119 -84 -194.5t-217 -75.5zM399 0l1033 1376h135l-1032 -1376h-136zM1591 -16
q-148 0 -230.5 103.5t-82.5 293.5q0 228 94 357.5t262 129.5q110 0 213 -53l-41 -88q-88 43 -166 43q-117 0 -178.5 -87.5t-66.5 -252.5q31 56 89 88.5t128 32.5q121 0 197.5 -76.5t76.5 -200.5q0 -126 -85 -208t-210 -82zM1589 82q77 0 131 52.5t54 133.5q0 86 -50.5 136.5
t-132.5 50.5q-78 0 -133 -49.5t-55 -120.5q0 -87 50.5 -145t135.5 -58z" />
    <glyph glyph-name="oneeighth" unicode="&#x215b;" horiz-adv-x="1966" 
d="M397 524v727l-209 -118l-47 86l277 157h102v-852h-123zM399 0l1033 1376h135l-1032 -1376h-136zM1573 -16q-137 0 -222 66t-85 173q0 78 47.5 134t138.5 79q-76 20 -121 75t-45 128q0 101 80 165t207 64t207 -64t80 -165q0 -73 -44 -128t-118 -75q88 -21 135 -78t47 -135
q0 -107 -84.5 -173t-222.5 -66zM1573 479q78 12 126 52.5t48 101.5q0 63 -49.5 103t-124.5 40t-124.5 -40.5t-49.5 -102.5q0 -61 48 -101.5t126 -52.5zM1573 76q85 0 137.5 42.5t52.5 112.5q0 64 -50.5 106t-139.5 56q-89 -14 -141 -56.5t-52 -105.5q0 -70 54 -112.5
t139 -42.5z" />
    <glyph glyph-name="threeeighths" unicode="&#x215c;" horiz-adv-x="1966" 
d="M375 508q-151 0 -285 67l41 91q113 -58 221 -58q79 0 127.5 42t48.5 108q0 71 -56.5 115.5t-147.5 44.5h-58v86h58q83 0 134.5 41.5t51.5 107.5q0 62 -42.5 100.5t-111.5 38.5q-105 0 -211 -53l-41 92q132 62 271 62q115 0 187.5 -64.5t72.5 -165.5q0 -70 -39.5 -123
t-106.5 -75q75 -25 120.5 -83.5t45.5 -133.5q0 -106 -78.5 -173t-201.5 -67zM399 0l1033 1376h135l-1032 -1376h-136zM1573 -16q-137 0 -222 66t-85 173q0 78 47.5 134t138.5 79q-76 20 -121 75t-45 128q0 101 80 165t207 64t207 -64t80 -165q0 -73 -44 -128t-118 -75
q88 -21 135 -78t47 -135q0 -107 -84.5 -173t-222.5 -66zM1573 479q78 12 126 52.5t48 101.5q0 63 -49.5 103t-124.5 40t-124.5 -40.5t-49.5 -102.5q0 -61 48 -101.5t126 -52.5zM1573 76q85 0 137.5 42.5t52.5 112.5q0 64 -50.5 106t-139.5 56q-89 -14 -141 -56.5t-52 -105.5
q0 -70 54 -112.5t139 -42.5z" />
    <glyph glyph-name="fiveeighths" unicode="&#x215d;" horiz-adv-x="1966" 
d="M365 508q-134 0 -265 78l50 88q106 -66 202 -66q87 0 140 47.5t53 124.5q0 79 -53.5 125.5t-147.5 46.5q-82 0 -190 -24v448h481v-98h-371v-248q54 10 117 10q129 0 207 -71t78 -191q0 -119 -84 -194.5t-217 -75.5zM399 0l1033 1376h135l-1032 -1376h-136zM1573 -16
q-137 0 -222 66t-85 173q0 78 47.5 134t138.5 79q-76 20 -121 75t-45 128q0 101 80 165t207 64t207 -64t80 -165q0 -73 -44 -128t-118 -75q88 -21 135 -78t47 -135q0 -107 -84.5 -173t-222.5 -66zM1573 479q78 12 126 52.5t48 101.5q0 63 -49.5 103t-124.5 40t-124.5 -40.5
t-49.5 -102.5q0 -61 48 -101.5t126 -52.5zM1573 76q85 0 137.5 42.5t52.5 112.5q0 64 -50.5 106t-139.5 56q-89 -14 -141 -56.5t-52 -105.5q0 -70 54 -112.5t139 -42.5z" />
    <glyph glyph-name="seveneighths" unicode="&#x215e;" horiz-adv-x="1966" 
d="M256 524l326 752h-414v100h549v-80l-332 -772h-129zM399 0l1033 1376h135l-1032 -1376h-136zM1573 -16q-137 0 -222 66t-85 173q0 78 47.5 134t138.5 79q-76 20 -121 75t-45 128q0 101 80 165t207 64t207 -64t80 -165q0 -73 -44 -128t-118 -75q88 -21 135 -78t47 -135
q0 -107 -84.5 -173t-222.5 -66zM1573 479q78 12 126 52.5t48 101.5q0 63 -49.5 103t-124.5 40t-124.5 -40.5t-49.5 -102.5q0 -61 48 -101.5t126 -52.5zM1573 76q85 0 137.5 42.5t52.5 112.5q0 64 -50.5 106t-139.5 56q-89 -14 -141 -56.5t-52 -105.5q0 -70 54 -112.5
t139 -42.5z" />
    <glyph glyph-name="uni215F" unicode="&#x215f;" horiz-adv-x="1179" 
d="M397 524v727l-209 -118l-47 86l277 157h102v-852h-123zM399 0l1033 1376h135l-1032 -1376h-136z" />
    <glyph glyph-name="arrowleft" unicode="&#x2190;" horiz-adv-x="1966" 
d="M723 -68l-657 658l657 657l113 -104l-490 -477h1555v-152h-1555l490 -477z" />
    <glyph glyph-name="arrowup" unicode="&#x2191;" horiz-adv-x="1966" 
d="M907 -328v1555l-477 -490l-104 113l657 657l657 -657l-104 -113l-477 490v-1555h-152z" />
    <glyph glyph-name="arrowright" unicode="&#x2192;" horiz-adv-x="1966" 
d="M1243 -68l-113 105l490 477h-1554v152h1554l-490 477l113 104l658 -657z" />
    <glyph glyph-name="arrowdown" unicode="&#x2193;" horiz-adv-x="1966" 
d="M983 -328l-657 658l104 112l477 -489v1554h152v-1554l477 489l104 -112z" />
    <glyph glyph-name="partialdiff" unicode="&#x2202;" 
d="M580 -25q-216 0 -353 152t-137 393q0 216 131.5 358t329.5 142q119 0 214.5 -51.5t152.5 -147.5q-12 251 -111 382.5t-270 131.5q-133 0 -283 -75l-59 118q175 88 354 88q260 0 399 -202t139 -617q0 -312 -137.5 -492t-369.5 -180zM586 113q147 0 242.5 123.5t95.5 316.5
q0 141 -95 235.5t-243 94.5t-243 -104t-95 -269q0 -176 95 -286.5t243 -110.5z" />
    <glyph glyph-name="uni2206" unicode="&#x2206;" horiz-adv-x="1374" 
d="M70 0v96l538 1280h158l539 -1280v-96h-1235zM250 133h872l-436 1051z" />
    <glyph glyph-name="product" unicode="&#x220f;" horiz-adv-x="1607" 
d="M205 -426v1868h1200v-1868h-170v1735h-862v-1735h-168z" />
    <glyph glyph-name="summation" unicode="&#x2211;" horiz-adv-x="1290" 
d="M84 -426v102l668 848l-635 815v103h1093v-133h-868l573 -744v-82l-606 -776h934v-133h-1159z" />
    <glyph glyph-name="minus" unicode="&#x2212;" horiz-adv-x="1179" 
d="M106 520v139h967v-139h-967z" />
    <glyph glyph-name="radical" unicode="&#x221a;" horiz-adv-x="1357" 
d="M614 -426l-235 692l-332 -106l-43 131l465 149l227 -667l484 1689l137 -35l-533 -1853h-170z" />
    <glyph glyph-name="infinity" unicode="&#x221e;" horiz-adv-x="1607" 
d="M428 197q-159 0 -256.5 110t-97.5 283q0 172 98 282.5t256 110.5q118 0 205 -65.5t172 -210.5q85 146 171.5 211t205.5 65q157 0 254.5 -110t97.5 -283q0 -171 -97.5 -282t-254.5 -111q-119 0 -205.5 65t-171.5 211q-85 -145 -172 -210.5t-205 -65.5zM449 328
q87 0 150.5 62t131.5 200q-68 138 -131.5 200t-150.5 62q-100 0 -162 -73.5t-62 -188.5q0 -116 61.5 -189t162.5 -73zM1161 328q99 0 160 73.5t61 188.5q0 116 -61 189t-160 73q-87 0 -151 -62t-133 -200q69 -138 133 -200t151 -62z" />
    <glyph glyph-name="integral" unicode="&#x222b;" horiz-adv-x="821" 
d="M336 -451q-82 0 -164 27l33 131q53 -20 106 -20q72 0 117 58.5t45 150.5t-30 216.5t-72.5 250.5t-85.5 253t-73 258.5t-30 233.5q0 157 85 257.5t220 100.5q82 0 164 -26l-33 -131q-53 20 -108 20q-71 0 -116.5 -58.5t-45.5 -150.5t30 -216.5t73.5 -250.5t86.5 -253
t73 -258.5t30 -233.5q0 -157 -86 -258t-219 -101z" />
    <glyph glyph-name="approxequal" unicode="&#x2248;" horiz-adv-x="1179" 
d="M799 690q-74 0 -145 24.5t-139 49t-134 24.5q-117 0 -221 -88l-76 117q134 113 297 113q59 0 117 -15.5t98 -34t95 -34t108 -15.5q117 0 221 91l76 -117q-133 -115 -297 -115zM799 250q-74 0 -145 24.5t-139 49t-134 24.5q-118 0 -221 -90l-76 117q132 114 297 114
q74 0 145 -24.5t139 -49t134 -24.5q117 0 221 88l76 -117q-133 -112 -297 -112z" />
    <glyph glyph-name="notequal" unicode="&#x2260;" horiz-adv-x="1179" 
d="M379 10l-125 62l115 233h-263v139h332l146 291h-478v139h547l148 295l125 -61l-117 -234h264v-139h-334l-143 -291h477v-139h-547z" />
    <glyph glyph-name="lessequal" unicode="&#x2264;" horiz-adv-x="1179" 
d="M1030 276l-924 426v140l924 426l57 -133l-790 -363l790 -364zM106 0v139h967v-139h-967z" />
    <glyph glyph-name="greaterequal" unicode="&#x2265;" horiz-adv-x="1179" 
d="M150 276l-58 132l791 364l-791 363l58 133l923 -426v-140zM106 0v139h967v-139h-967z" />
    <glyph glyph-name="dotmath" unicode="&#x22c5;" horiz-adv-x="505" 
d="M254 395q-51 0 -83 31.5t-32 81.5q0 51 32 83t83 32q50 0 82.5 -32t32.5 -83q0 -49 -32.5 -81t-82.5 -32z" />
    <glyph glyph-name="lozenge" unicode="&#x25ca;" horiz-adv-x="1179" 
d="M520 0l-436 688l436 688h139l437 -688l-437 -688h-139zM590 150l338 538l-338 535l-338 -535z" />
    <glyph glyph-name="uniF8FF" unicode="&#xf8ff;" horiz-adv-x="1210" 
d="M205 0v1350h801v-133h-668v-1084h149v-133h-282zM471 414v133h401v135h-401v399h535v-133h-402v-133h402v-401h-535z" />
    <glyph glyph-name="Jacute" horiz-adv-x="909" 
d="M555 1509l-63 93l348 241l73 -106zM315 -25q-125 0 -268 35l25 135q111 -30 207 -30q114 0 185 71t71 185v1005h170v-1020q0 -169 -109 -275t-281 -106z" />
    <glyph glyph-name="Cacute.loclPLK" horiz-adv-x="1323" 
d="M774 1489l-102 47l129 328l121 -56zM778 -25q-300 0 -489 199t-189 514t189 514t489 199q245 0 465 -152l-72 -114q-178 127 -370 127q-235 0 -381 -159.5t-146 -414.5t146 -414t381 -159q192 0 370 127l72 -115q-220 -152 -465 -152z" />
    <glyph glyph-name="Nacute.loclPLK" horiz-adv-x="1570" 
d="M801 1489l-103 47l129 328l121 -56zM205 0v1376h166l837 -1143v1143h158v-1376h-166l-838 1143v-1143h-157z" />
    <glyph glyph-name="Oacute.loclPLK" horiz-adv-x="1570" 
d="M801 1489l-103 47l129 328l121 -56zM784 -25q-197 0 -353 90.5t-243.5 253.5t-87.5 369t87.5 369t243.5 253.5t353 90.5q198 0 354 -90.5t243 -253t87 -369.5t-87 -369.5t-243 -253t-354 -90.5zM784 113q225 0 368.5 161t143.5 414t-143.5 414.5t-368.5 161.5
q-224 0 -367 -161.5t-143 -414.5t143 -414t367 -161z" />
    <glyph glyph-name="Sacute.loclPLK" horiz-adv-x="1187" 
d="M608 1489l-102 47l129 328l121 -56zM594 -25q-224 0 -490 109l41 131q261 -102 437 -102q152 0 242.5 65.5t90.5 173.5q0 60 -27.5 105.5t-74 74t-106.5 51t-126.5 41.5t-133 39.5t-126.5 50.5t-106.5 70t-74 103.5t-27.5 144.5q0 163 134 266t347 103q205 0 440 -92
l-41 -131q-210 86 -387 86q-148 0 -237.5 -64t-89.5 -168q0 -59 27.5 -103t74 -72t107 -49.5t127 -40t133 -39t127 -51.5t107 -72t74 -105.5t27.5 -147.5q0 -167 -135.5 -272t-353.5 -105z" />
    <glyph glyph-name="Zacute.loclPLK" horiz-adv-x="1286" 
d="M657 1489l-102 47l129 328l121 -56zM104 0v98l832 1145h-807v133h1028v-98l-831 -1145h856v-133h-1078z" />
    <glyph glyph-name="i.loclTRK" horiz-adv-x="485" 
d="M244 1192q-46 0 -76.5 30t-30.5 76q0 47 30.5 77t76.5 30t76 -30t30 -77q0 -46 -30 -76t-76 -30zM162 0v995h162v-995h-162z" />
    <glyph glyph-name="jacute" horiz-adv-x="501" 
d="M193 1128l-64 93l348 241l74 -106zM41 -451q-94 0 -199 27l23 127q85 -20 141 -20q76 0 124 47.5t48 124.5v1140h162v-1155q0 -129 -83 -210t-216 -81z" />
    <glyph glyph-name="germandbls.calt" horiz-adv-x="1570" 
d="M985 -25q-205 0 -395 113l61 127q167 -102 322 -102q137 0 225 80.5t88 207.5q0 131 -96.5 215t-249.5 84h-45l-25 80l338 463h-839v-1243h-164v1376h1198v-98l-340 -465q175 -22 282 -135t107 -277q0 -187 -131.5 -306.5t-335.5 -119.5z" />
    <glyph glyph-name="cacute.loclPLK" horiz-adv-x="1007" 
d="M563 1108l-102 47l129 328l121 -56zM592 -25q-220 0 -361 146.5t-141 376.5q0 229 141 375.5t361 146.5q184 0 352 -113l-67 -112q-131 90 -265 90q-157 0 -255.5 -107.5t-98.5 -279.5t98.5 -280.5t255.5 -108.5q131 0 265 92l67 -113q-168 -113 -352 -113z" />
    <glyph glyph-name="nacute.loclPLK" 
d="M621 1108l-103 47l129 328l121 -56zM162 0v995h131l20 -182q51 98 145.5 152.5t213.5 54.5q166 0 272.5 -103.5t106.5 -267.5v-649h-164v625q0 114 -73 186t-189 72q-130 0 -215.5 -90.5t-85.5 -231.5v-561h-162z" />
    <glyph glyph-name="oacute.loclPLK" 
d="M592 1108l-103 47l129 328l121 -56zM598 -25q-223 0 -365.5 146.5t-142.5 376.5t142.5 376t365.5 146q222 0 364 -146t142 -376t-142 -376.5t-364 -146.5zM598 106q149 0 244.5 109.5t95.5 282.5q0 172 -95.5 281.5t-244.5 109.5q-150 0 -245 -109.5t-95 -281.5
q0 -173 94.5 -282.5t245.5 -109.5z" />
    <glyph glyph-name="sacute.loclPLK" horiz-adv-x="919" 
d="M455 1108l-103 47l129 328l121 -56zM461 -25q-176 0 -371 76l39 121q176 -72 320 -72q99 0 160 45t61 117q0 45 -24.5 78t-65 51t-91.5 35t-105 30t-105 36t-91.5 52t-65 79.5t-24.5 117.5q0 122 102 200.5t261 78.5q162 0 336 -70l-37 -121q-157 66 -287 66
q-96 0 -154.5 -42.5t-58.5 -111.5q0 -50 31.5 -83.5t81.5 -52.5t111 -35t121.5 -37.5t110.5 -51.5t81.5 -86t31.5 -133q0 -126 -102 -206.5t-266 -80.5z" />
    <glyph glyph-name="zacute.loclPLK" horiz-adv-x="985" 
d="M487 1108l-102 47l129 328l121 -56zM90 0v92l574 774h-558v129h773v-94l-574 -774h590v-127h-805z" />
    <glyph glyph-name="zero.lf" horiz-adv-x="1335" 
d="M668 -25q-242 0 -388.5 194t-146.5 519t146.5 519t388.5 194t387 -194t145 -519t-145 -519t-387 -194zM668 106q169 0 267.5 157t98.5 425q0 270 -98.5 426t-267.5 156t-268 -156.5t-99 -425.5q0 -268 99 -425t268 -157z" />
    <glyph glyph-name="one.lf" horiz-adv-x="821" 
d="M438 0v1212l-356 -204l-57 114l440 254h137v-1376h-164z" />
    <glyph glyph-name="two.lf" horiz-adv-x="1060" 
d="M53 0v104l539 539q168 168 168 334q0 126 -81.5 205.5t-211.5 79.5q-147 0 -338 -121l-66 123q226 137 435 137q187 0 305.5 -112.5t118.5 -291.5q0 -218 -197 -415l-449 -449h662v-133h-885z" />
    <glyph glyph-name="three.lf" horiz-adv-x="1060" 
d="M504 -25q-233 0 -457 105l53 123q205 -94 377 -94q131 0 215 73.5t84 188.5q0 121 -99 196.5t-257 75.5h-84v123h84q146 0 237 71.5t91 184.5q0 109 -74.5 177.5t-194.5 68.5q-154 0 -346 -86l-53 123q212 96 424 96q180 0 292.5 -102t112.5 -263q0 -118 -68 -205.5
t-184 -121.5q129 -35 207 -131t78 -222q0 -169 -122 -275t-316 -106z" />
    <glyph glyph-name="four.lf" horiz-adv-x="1171" 
d="M729 0v326h-670v112l666 938h156v-923h211v-127h-211v-326h-152zM219 453h510v718z" />
    <glyph glyph-name="five.lf" horiz-adv-x="1060" 
d="M485 -25q-215 0 -415 121l63 123q171 -106 340 -106q150 0 240 80.5t90 212.5q0 139 -91.5 219t-254.5 80q-141 0 -301 -37v708h759v-133h-612v-440q110 22 201 22q212 0 336.5 -115t124.5 -307q0 -189 -133 -308.5t-347 -119.5z" />
    <glyph glyph-name="six.lf" horiz-adv-x="1204" 
d="M635 -25q-234 0 -367 165t-133 468q0 379 147 586t418 207q173 0 336 -82l-55 -121q-147 72 -274 72q-199 0 -308 -155.5t-110 -450.5q45 97 145 156t225 59q195 0 316 -122t121 -319q0 -198 -131.5 -330.5t-329.5 -132.5zM629 106q133 0 224 94t91 232q0 143 -86 231.5
t-225 88.5q-138 0 -233 -84t-95 -207q0 -155 91.5 -255t232.5 -100z" />
    <glyph glyph-name="seven.lf" horiz-adv-x="974" 
d="M182 0l539 1243h-690v133h868v-104l-547 -1272h-170z" />
    <glyph glyph-name="eight.lf" horiz-adv-x="1204" 
d="M602 -25q-215 0 -349 105t-134 274q0 129 83 222.5t234 128.5q-127 33 -205.5 122t-78.5 211q0 160 126 261.5t324 101.5t324.5 -101.5t126.5 -261.5q0 -122 -78.5 -211t-206.5 -122q151 -35 234 -128.5t83 -222.5q0 -169 -134 -274t-349 -105zM602 766
q132 23 212.5 90.5t80.5 173.5q0 104 -83.5 174t-209.5 70t-209.5 -70t-83.5 -174q0 -106 80.5 -173.5t212.5 -90.5zM602 102q141 0 230.5 72.5t89.5 187.5q0 112 -85 184.5t-235 96.5q-150 -24 -234.5 -96.5t-84.5 -184.5q0 -115 89 -187.5t230 -72.5z" />
    <glyph glyph-name="nine.lf" horiz-adv-x="1204" 
d="M504 -25q-173 0 -336 82l55 121q147 -72 275 -72q199 0 307.5 156t109.5 451q-45 -97 -145 -156t-225 -59q-195 0 -315.5 121.5t-120.5 318.5q0 198 131 330.5t329 132.5q234 0 367 -165t133 -468q0 -379 -147 -586t-418 -207zM571 625q138 0 233 83.5t95 206.5
q0 155 -91.5 255t-232.5 100q-133 0 -224 -94t-91 -232q0 -143 86 -231t225 -88z" />
    <glyph glyph-name="cent.lf" horiz-adv-x="1105" 
d="M549 -131v307q-183 26 -295.5 166.5t-112.5 345.5t112.5 345.5t295.5 166.5v307h139v-301q158 -9 305 -108l-67 -113q-121 83 -242 92v-778q121 9 242 92l67 -112q-148 -100 -305 -109v-301h-139zM553 315v746q-113 -34 -179.5 -134t-66.5 -239t66.5 -239t179.5 -134z
" />
    <glyph glyph-name="dollar.lf" horiz-adv-x="1046" 
d="M453 -262v340q-168 9 -357 88l39 129q169 -70 320 -86v430q-62 17 -104.5 32.5t-93 43.5t-81 61.5t-51.5 85.5t-21 117q0 130 95 215t254 102v342h139v-340q137 -11 315 -79l-39 -132q-162 67 -278 80v-411q64 -18 106.5 -33t94.5 -43.5t83 -62.5t52.5 -88.5t21.5 -122.5
q0 -135 -96.5 -223t-259.5 -103v-342h-139zM455 797v366q-86 -17 -135.5 -66t-49.5 -118q0 -70 47.5 -111t137.5 -71zM590 213q90 15 141 66t51 127q0 74 -49.5 117t-142.5 75v-385z" />
    <glyph glyph-name="Euro.lf" horiz-adv-x="1159" 
d="M776 -25q-210 0 -361 143.5t-198 387.5h-158v102h144q-2 27 -2 80q0 76 4 113h-146v102h166q51 229 199 363.5t352 134.5q190 0 359 -96l-64 -113q-137 78 -276 78q-148 0 -256.5 -100t-147.5 -267h502v-102h-531q-4 -37 -4 -113q0 -53 2 -80h533v-102h-510
q34 -183 144.5 -291.5t267.5 -108.5q139 0 276 78l64 -112q-171 -97 -359 -97z" />
    <glyph glyph-name="sterling.lf" horiz-adv-x="1159" 
d="M129 0v131h207v510h-174v127h174v256q0 167 113.5 272t293.5 105q142 0 304 -64l-43 -123q-118 50 -230 50q-120 0 -194 -69.5t-74 -182.5v-244h383v-127h-383v-510h557v-131h-934z" />
    <glyph glyph-name="yen.lf" 
d="M514 0v311h-334v117h334v190h-334v117h289l-412 641h181l360 -583l360 583h181l-412 -641h289v-117h-334v-190h334v-117h-334v-311h-168z" />
    <glyph glyph-name="uni0308.case" horiz-adv-x="0" 
d="M-461 1579q-44 0 -72 28t-28 72t28 72.5t72 28.5t72.5 -28.5t28.5 -72.5t-28.5 -72t-72.5 -28zM-31 1579q-44 0 -72 28t-28 72t28 72.5t72 28.5t72.5 -28.5t28.5 -72.5t-28.5 -72t-72.5 -28z" />
    <glyph glyph-name="uni0307.case" horiz-adv-x="0" 
d="M-246 1573q-46 0 -76 30t-30 76q0 47 30 77t76 30t76.5 -30t30.5 -77q0 -46 -30.5 -76t-76.5 -30z" />
    <glyph glyph-name="gravecomb.case" horiz-adv-x="0" 
d="M-168 1509l-358 228l73 106l349 -241z" />
    <glyph glyph-name="acutecomb.case" horiz-adv-x="0" 
d="M-311 1509l-64 93l348 241l74 -106z" />
    <glyph glyph-name="uni030B.case" horiz-adv-x="0" 
d="M-469 1503l-84 84l293 305l96 -96zM-70 1503l-86 84l295 305l97 -96z" />
    <glyph glyph-name="uni0302.case" horiz-adv-x="0" 
d="M-477 1513l-72 78l252 244h102l252 -244l-71 -78l-232 205z" />
    <glyph glyph-name="uni030C.case" horiz-adv-x="0" 
d="M-297 1526l-252 241l72 80l231 -207l232 207l71 -80l-252 -241h-102z" />
    <glyph glyph-name="uni0306.case" horiz-adv-x="0" 
d="M-246 1509q-129 0 -214 80.5t-89 212.5h109q6 -80 59.5 -129t134.5 -49q82 0 135.5 49t59.5 129h108q-4 -132 -89 -212.5t-214 -80.5z" />
    <glyph glyph-name="uni030A.case" horiz-adv-x="0" 
d="M-244 1481q-91 0 -149 55t-58 143t57 143.5t148 55.5t148 -55.5t57 -143.5t-56 -143t-147 -55zM-244 1563q52 0 83.5 31.5t31.5 84.5t-32.5 86t-84.5 33t-84 -33t-32 -86q0 -52 32.5 -84t85.5 -32z" />
    <glyph glyph-name="tildecomb.case" horiz-adv-x="0" 
d="M-451 1583l-104 33q15 73 63 116.5t115 43.5q51 0 136.5 -38t113.5 -38q63 0 86 76l104 -31q-15 -73 -63 -117.5t-115 -44.5q-51 0 -136.5 38t-113.5 38q-64 0 -86 -76z" />
    <glyph glyph-name="uni0304.case" horiz-adv-x="0" 
d="M-549 1622v117h606v-117h-606z" />
    <glyph glyph-name="acutecomb.loclPLK" horiz-adv-x="0" 
d="M-252 1108l-102 47l129 328l121 -56z" />
    <glyph glyph-name="acutecomb.case.loclPLK" horiz-adv-x="0" 
d="M-231 1489l-103 47l129 328l121 -56z" />
    <glyph glyph-name="acute.case" horiz-adv-x="491" 
d="M180 1509l-63 93l348 241l74 -106z" />
    <glyph glyph-name="breve.case" horiz-adv-x="491" 
d="M246 1509q-129 0 -214 80.5t-89 212.5h108q6 -80 59.5 -129t135.5 -49q81 0 134.5 49t59.5 129h109q-4 -132 -89 -212.5t-214 -80.5z" />
    <glyph glyph-name="caron.case" horiz-adv-x="491" 
d="M195 1526l-252 241l71 80l232 -207l231 207l72 -80l-252 -241h-102z" />
    <glyph glyph-name="circumflex.case" horiz-adv-x="491" 
d="M14 1513l-71 78l252 244h102l252 -244l-72 -78l-231 205z" />
    <glyph glyph-name="dieresis.case" horiz-adv-x="491" 
d="M31 1579q-44 0 -72.5 28t-28.5 72t28.5 72.5t72.5 28.5t72 -28.5t28 -72.5t-28 -72t-72 -28zM461 1579q-44 0 -72.5 28t-28.5 72t28.5 72.5t72.5 28.5t72 -28.5t28 -72.5t-28 -72t-72 -28z" />
    <glyph glyph-name="dotaccent.case" horiz-adv-x="491" 
d="M246 1573q-46 0 -76.5 30t-30.5 76q0 47 30.5 77t76.5 30t76 -30t30 -77q0 -46 -30 -76t-76 -30z" />
    <glyph glyph-name="grave.case" horiz-adv-x="491" 
d="M324 1509l-359 228l74 106l348 -241z" />
    <glyph glyph-name="hungarumlaut.case" horiz-adv-x="491" 
d="M23 1503l-84 84l292 305l97 -96zM422 1503l-86 84l295 305l96 -96z" />
    <glyph glyph-name="macron.case" horiz-adv-x="491" 
d="M-57 1622v117h606v-117h-606z" />
    <glyph glyph-name="ring.case" horiz-adv-x="491" 
d="M248 1481q-91 0 -149 55t-58 143t57 143.5t148 55.5t148 -55.5t57 -143.5t-56 -143t-147 -55zM248 1563q52 0 83 31.5t31 84.5t-32 86t-84 33t-84.5 -33t-32.5 -86q0 -52 33 -84t86 -32z" />
    <glyph glyph-name="tilde.case" horiz-adv-x="491" 
d="M41 1583l-104 33q15 73 63 116.5t115 43.5q51 0 136.5 -38t113.5 -38q63 0 86 76l104 -31q-15 -73 -63 -117.5t-115 -44.5q-51 0 -136.5 38t-113.5 38q-64 0 -86 -76z" />
    </font>
</defs>
</svg>
