<?xml version="1.0" standalone="no"?>
<!DOCTYPE svg PUBLIC "-//W3C//DTD SVG 1.1//EN" "http://www.w3.org/Graphics/SVG/1.1/DTD/svg11.dtd" >
<svg xmlns="http://www.w3.org/2000/svg" xmlns:xlink="http://www.w3.org/1999/xlink" version="1.1">
<metadata>
Created by FontForge 20170731 at Wed Mar 15 20:51:56 2023
 By Aleksey,,,
FS Thrive Elliot is a licensed version of FS Elliot Copyright (c) 2015 by Fontsmith Ltd for Alight. All rights reserved. This font may not be altered in any way without prior permission of Fontsmith Ltd.
</metadata>
<defs>
<font id="FSThriveElliot-Heavy" horiz-adv-x="1265" >
  <font-face 
    font-family="FS Thrive Elliot Heavy"
    font-weight="900"
    font-stretch="normal"
    units-per-em="2048"
    panose-1="2 6 4 3 3 2 2 2 2 4"
    ascent="1536"
    descent="-512"
    x-height="1014"
    cap-height="1376"
    bbox="-696 -657 2693 1970"
    underline-thickness="270"
    underline-position="-474"
    unicode-range="U+000D-FB04"
  />
<missing-glyph horiz-adv-x="1024" 
d="M25 0v1376h974v-1376h-974zM512 778l332 500h-664zM123 188l332 500l-332 500v-1000zM901 188v1000l-332 -500zM180 98h664l-332 500z" />
    <glyph glyph-name="f_f.liga" unicode="ff" horiz-adv-x="1519" 
d="M205 0v741h-170v273h170v94q0 161 105 259.5t276 98.5q127 0 252 -32l-45 -267q-70 13 -119 13q-50 0 -79.5 -29t-29.5 -80v-57h350v94q0 161 104.5 259.5t274.5 98.5q126 0 254 -32l-47 -267q-70 13 -117 13q-51 0 -79.5 -29t-28.5 -80v-57h207v-273h-207v-741h-361v741
h-350v-741h-360z" />
    <glyph glyph-name="fi" unicode="fi" horiz-adv-x="1349" 
d="M205 0v741h-170v273h170v47q0 179 132.5 292t342.5 113q181 0 381 -57l-62 -270q-158 49 -260 49q-79 0 -126.5 -39t-47.5 -102v-33h678v-1014h-360v741h-318v-741h-360z" />
    <glyph glyph-name="fl" unicode="fl" horiz-adv-x="1447" 
d="M1233 -25q-156 0 -253 92.5t-97 237.5v869q-88 14 -160 14q-71 0 -114.5 -39.5t-43.5 -101.5v-33h209v-273h-209v-741h-360v741h-170v273h170v47q0 180 136 292.5t353 112.5q221 0 549 -55v-1069q0 -37 21.5 -58.5t58.5 -21.5q26 0 84 8l37 -270q-116 -25 -211 -25z" />
    <glyph glyph-name="f_f_i.liga" unicode="ffi" horiz-adv-x="2058" 
d="M205 0v741h-170v273h170v94q0 161 105 259.5t276 98.5q127 0 252 -32l-45 -267q-70 13 -119 13q-50 0 -79.5 -29t-29.5 -80v-57h350v47q0 179 132 292t342 113q180 0 380 -57l-61 -270q-155 49 -260 49q-79 0 -125.5 -38.5t-46.5 -102.5v-33h676v-1014h-361v741h-315
v-741h-361v741h-350v-741h-360z" />
    <glyph glyph-name="f_f_l.liga" unicode="ffl" horiz-adv-x="2156" 
d="M1942 -25q-156 0 -253.5 92.5t-97.5 237.5v869q-85 14 -157 14t-115 -39.5t-43 -101.5v-33h207v-273h-207v-741h-361v741h-350v-741h-360v741h-170v273h170v94q0 161 105 259.5t276 98.5q127 0 252 -32l-45 -267q-70 13 -119 13q-50 0 -79.5 -29t-29.5 -80v-57h350v47
q0 180 135.5 292.5t352.5 112.5q224 0 549 -55v-1069q0 -37 21.5 -58.5t58.5 -21.5q26 0 84 8l38 -270q-119 -25 -212 -25z" />
    <glyph glyph-name="f_b.liga" unicode="fb" horiz-adv-x="2039" 
d="M1513 -25q-182 0 -301 119l-45 -94h-284v1174q-85 14 -160 14q-71 0 -114.5 -39.5t-43.5 -101.5v-33h209v-273h-209v-741h-360v741h-170v273h170v47q0 179 136.5 292t352.5 113q221 0 549 -55v-469q113 96 270 96q207 0 339.5 -149t132.5 -383q0 -233 -132.5 -382
t-339.5 -149zM1417 258q89 0 145 69.5t56 178.5q0 110 -56 180t-145 70q-80 0 -131 -55.5t-51 -141.5v-106q0 -85 51.5 -140t130.5 -55z" />
    <glyph glyph-name="f_f_b.liga" unicode="ffb" horiz-adv-x="2748" 
d="M2222 -25q-182 0 -301 119l-45 -94h-285v1174q-85 14 -157 14t-115 -39.5t-43 -101.5v-33h207v-273h-207v-741h-361v741h-350v-741h-360v741h-170v273h170v94q0 162 105 260t276 98q127 0 252 -32l-45 -267q-70 13 -119 13q-50 0 -79.5 -29t-29.5 -80v-57h350v47
q0 179 136 292t352 113q224 0 549 -55v-469q109 89 258 92q72 3 133 -14q155 -39 250.5 -173t99.5 -325q0 -83 -14 -149q-34 -179 -158.5 -288.5t-298.5 -109.5zM2126 258q89 0 145 69.5t56 178.5q0 110 -56 180t-145 70q-80 0 -131 -55.5t-51 -141.5v-106q0 -85 51.5 -140
t130.5 -55z" />
    <glyph glyph-name="f_f_h.liga" unicode="ffh" horiz-adv-x="2748" 
d="M205 0v741h-170v273h170v94q0 162 105 260t276 98q127 0 252 -32l-45 -267q-70 13 -119 13q-50 0 -79.5 -29t-29.5 -80v-57h350v47q0 179 136 292t352 113q224 0 549 -55v-485q118 112 301 112q180 0 292.5 -111t112.5 -286v-641h-360v582q0 71 -45 116t-115 45
q-82 0 -134 -55.5t-52 -144.5v-543h-361v1174q-85 14 -157 14t-115 -39.5t-43 -101.5v-33h207v-273h-207v-741h-361v741h-350v-741h-360z" />
    <glyph glyph-name="f_f_j.liga" unicode="ffj" horiz-adv-x="2058" 
d="M1571 -451q-123 0 -252 33l45 266q64 -12 119 -12q50 0 79 29t29 80v796h-315v-741h-361v741h-350v-741h-360v741h-170v273h170v94q0 161 105 259.5t276 98.5q127 0 252 -32l-45 -267q-70 13 -119 13q-50 0 -79.5 -29t-29.5 -80v-57h350v47q0 179 132 292t342 113
q180 0 380 -57l-61 -270q-155 49 -260 49q-79 0 -125.5 -38.5t-46.5 -102.5v-33h676v-1106q0 -161 -105.5 -260t-275.5 -99z" />
    <glyph glyph-name="f_f_k.liga" unicode="ffk" horiz-adv-x="2617" 
d="M205 0v741h-170v273h170v94q0 161 105 259.5t276 98.5q127 0 252 -32l-45 -267q-70 13 -119 13q-50 0 -79.5 -29t-29.5 -80v-57h350v47q0 179 136 292t352 113q236 0 532 -55v-764l293 367h408l-416 -475l432 -539h-414l-251 328l-52 -58v-270h-344v1174q-85 14 -157 14
t-115 -39.5t-43 -101.5v-33h207v-273h-207v-741h-361v741h-350v-741h-360z" />
    <glyph glyph-name="f_h.liga" unicode="fh" horiz-adv-x="2039" 
d="M205 0v741h-170v273h170v47q0 179 136.5 292t352.5 113q221 0 549 -55v-485q118 112 301 112q180 0 293 -111t113 -286v-641h-361v582q0 71 -44.5 116t-114.5 45q-82 0 -134.5 -55.5t-52.5 -144.5v-543h-360v1174q-85 14 -160 14q-71 0 -114.5 -39.5t-43.5 -101.5v-33
h209v-273h-209v-741h-360z" />
    <glyph glyph-name="f_j.liga" unicode="fj" horiz-adv-x="1349" 
d="M862 -451q-122 0 -254 33l47 266q65 -12 117 -12q51 0 81 29t30 80v796h-318v-741h-360v741h-170v273h170v47q0 179 132.5 292t342.5 113q181 0 381 -57l-62 -270q-158 49 -260 49q-79 0 -126.5 -39t-47.5 -102v-33h678v-1106q0 -161 -105.5 -260t-275.5 -99z" />
    <glyph glyph-name="f_k.liga" unicode="fk" horiz-adv-x="1906" 
d="M205 0v741h-170v273h170v47q0 179 136.5 292t352.5 113q237 0 533 -55v-764l293 367h405l-414 -475l431 -539h-414l-250 328l-51 -58v-270h-344v1174q-85 14 -160 14q-71 0 -114.5 -39.5t-43.5 -101.5v-33h209v-273h-209v-741h-360z" />
    <glyph glyph-name=".notdef" horiz-adv-x="1024" 
d="M25 0v1376h974v-1376h-974zM512 778l332 500h-664zM123 188l332 500l-332 500v-1000zM901 188v1000l-332 -500zM180 98h664l-332 500z" />
    <glyph glyph-name=".null" horiz-adv-x="0" 
 />
    <glyph glyph-name="nonmarkingreturn" horiz-adv-x="682" 
 />
    <glyph glyph-name="CR" unicode="&#xd;" horiz-adv-x="491" 
 />
    <glyph glyph-name="space" unicode=" " horiz-adv-x="491" 
 />
    <glyph glyph-name="exclam" unicode="!" horiz-adv-x="610" 
d="M156 483l-31 893h360l-30 -893h-299zM305 -25q-94 0 -149.5 57.5t-55.5 149.5q0 89 58 147t147 58q90 0 147.5 -57.5t57.5 -147.5q0 -91 -57 -149t-148 -58z" />
    <glyph glyph-name="quotedbl" unicode="&#x22;" horiz-adv-x="989" 
d="M121 834l-31 542h332l-31 -542h-270zM598 834l-31 542h332l-31 -542h-270z" />
    <glyph glyph-name="numbersign" unicode="#" horiz-adv-x="1370" 
d="M1264 815h-191v-254h191v-272h-191v-289h-266v289h-244v-289h-266v289h-191v272h191v254h-191v272h191v289h266v-289h244v289h266v-289h191v-272zM807 561v254h-244v-254h244z" />
    <glyph glyph-name="dollar" unicode="$" horiz-adv-x="1179" 
d="M424 -262v348q-176 24 -320 82l84 254q131 -53 254 -78v252q-58 15 -104.5 32t-94 45.5t-79.5 63t-52 86t-20 113.5q0 82 35.5 149.5t96.5 111t136.5 69.5t159.5 32v340h266v-354q112 -19 256 -72l-84 -254q-102 44 -190 64v-234q56 -16 100.5 -33t90.5 -45t76.5 -62
t49.5 -83.5t19 -109.5q0 -155 -108.5 -254t-305.5 -121v-342h-266zM539 844v196q-144 -18 -144 -94q0 -36 37 -59.5t107 -42.5zM672 342q67 13 98 42t31 65q0 33 -33 54t-96 38v-199z" />
    <glyph glyph-name="percent" unicode="%" horiz-adv-x="1769" 
d="M440 664q-169 0 -277 103.5t-108 264.5t108 265t277 104q168 0 277.5 -104t109.5 -265t-109.5 -264.5t-277.5 -103.5zM227 0l1035 1376h280l-1034 -1376h-281zM440 868q55 0 89 45t34 119t-34 119t-89 45q-54 0 -87.5 -45.5t-33.5 -118.5t33.5 -118.5t87.5 -45.5z
M1329 -25q-169 0 -278 104t-109 265t109 265t278 104q167 0 276 -104t109 -265t-109 -265t-276 -104zM1329 180q54 0 87.5 45.5t33.5 118.5t-33.5 118.5t-87.5 45.5q-55 0 -89 -45t-34 -119t34 -119t89 -45z" />
    <glyph glyph-name="ampersand" unicode="&#x26;" horiz-adv-x="1368" 
d="M555 -25q-225 0 -369.5 116t-144.5 300q0 117 72 214t204 159q-129 138 -129 276q0 158 123 259.5t314 101.5q188 0 307 -93t119 -243q0 -235 -279 -369l180 -194q36 70 39 184h301q-9 -239 -135 -410l252 -276h-391l-94 102q-179 -127 -369 -127zM604 885
q131 68 131 147q0 43 -30.5 70.5t-79.5 27.5q-51 0 -83 -29t-32 -75q0 -59 94 -141zM586 246q85 0 157 53l-264 289q-47 -31 -73.5 -75t-26.5 -93q0 -74 63 -124t144 -50z" />
    <glyph glyph-name="quotesingle" unicode="'" horiz-adv-x="512" 
d="M121 834l-31 542h332l-31 -542h-270z" />
    <glyph glyph-name="parenleft" unicode="(" horiz-adv-x="745" 
d="M481 -369q-183 196 -279 442.5t-96 516.5q0 269 96 514.5t279 443.5l254 -166q-297 -341 -297 -792q0 -452 297 -793z" />
    <glyph glyph-name="parenright" unicode=")" horiz-adv-x="745" 
d="M264 -369l-256 166q299 340 299 793q0 452 -299 792l256 166q182 -196 277.5 -441.5t95.5 -516.5q0 -269 -95.5 -515.5t-277.5 -443.5z" />
    <glyph glyph-name="asterisk" unicode="*" horiz-adv-x="1042" 
d="M350 483l-192 144l170 233l-275 90l76 228l272 -88v286h240v-286l272 88l76 -228l-274 -90l170 -233l-193 -144l-170 244z" />
    <glyph glyph-name="plus" unicode="+" horiz-adv-x="1179" 
d="M440 72v368h-368v299h368v369h299v-369h369v-299h-369v-368h-299z" />
    <glyph glyph-name="comma" unicode="," horiz-adv-x="577" 
d="M205 -328l-107 138q105 88 148 182q-76 10 -123 64.5t-47 131.5q0 93 60 153t153 60q95 0 155 -68t60 -177q0 -142 -79 -270t-220 -214z" />
    <glyph glyph-name="hyphen" unicode="-" horiz-adv-x="655" 
d="M35 383v270h586v-270h-586z" />
    <glyph glyph-name="period" unicode="." horiz-adv-x="577" 
d="M289 -25q-92 0 -152.5 60.5t-60.5 152.5q0 93 60 153t153 60t153 -60t60 -153q0 -92 -60.5 -152.5t-152.5 -60.5z" />
    <glyph glyph-name="slash" unicode="/" horiz-adv-x="786" 
d="M-68 -276l603 1718h315l-602 -1718h-316z" />
    <glyph glyph-name="zero" unicode="0" horiz-adv-x="1179" 
d="M590 -25q-264 0 -406.5 187t-142.5 526t142.5 526t406.5 187t406.5 -187t142.5 -526t-142.5 -526t-406.5 -187zM590 268q101 0 156 110t55 310t-55 310t-156 110t-156 -110t-55 -310t55 -310t156 -110z" />
    <glyph glyph-name="one" unicode="1" horiz-adv-x="1179" 
d="M510 0v1030l-277 -156l-120 242l456 260h301v-1376h-360z" />
    <glyph glyph-name="two" unicode="2" horiz-adv-x="1179" 
d="M86 0v225l442 443q144 144 144 252q0 79 -53 129.5t-136 50.5q-48 0 -100 -16.5t-86.5 -35t-101.5 -57.5l-136 264q259 146 498 146q207 0 337 -120.5t130 -309.5q0 -221 -203 -424l-260 -260h479v-287h-954z" />
    <glyph glyph-name="three" unicode="3" horiz-adv-x="1179" 
d="M571 -25q-280 0 -528 113l113 264q188 -90 350 -90q79 0 130.5 41.5t51.5 108.5q0 73 -62.5 118t-164.5 45h-109v259h109q90 0 146.5 41t56.5 106q0 60 -41.5 96.5t-110.5 36.5q-142 0 -324 -82l-112 264q241 105 495 105q200 0 326.5 -106.5t126.5 -276.5
q0 -105 -51 -185.5t-139 -119.5q98 -37 160.5 -130t62.5 -208q0 -178 -136.5 -289t-349.5 -111z" />
    <glyph glyph-name="four" unicode="4" horiz-adv-x="1179" 
d="M653 0v270h-616v242l600 864h346v-833h156v-273h-156v-270h-330zM369 543h284v411z" />
    <glyph glyph-name="five" unicode="5" horiz-adv-x="1179" 
d="M526 -25q-242 0 -452 129l137 265q153 -101 287 -101q96 0 152.5 45t56.5 123q0 88 -66.5 136.5t-187.5 48.5q-132 0 -281 -33v788h838v-286h-523v-224q27 2 84 2q221 0 354.5 -119.5t133.5 -318.5q0 -197 -150 -326t-383 -129z" />
    <glyph glyph-name="six" unicode="6" horiz-adv-x="1179" 
d="M623 -25q-264 0 -414 175.5t-150 484.5q0 361 168 563.5t461 202.5q217 0 399 -96l-120 -256q-143 73 -265 73q-130 0 -212.5 -78.5t-92.5 -218.5q126 95 285 95q201 0 329 -126.5t128 -324.5q0 -217 -145 -355.5t-371 -138.5zM608 254q86 0 142.5 57.5t56.5 143.5
q0 85 -54 138.5t-139 53.5q-88 0 -144 -50.5t-56 -129.5q0 -94 54.5 -153.5t139.5 -59.5z" />
    <glyph glyph-name="seven" unicode="7" horiz-adv-x="1179" 
d="M195 0l471 1090h-576v286h967v-225l-486 -1151h-376z" />
    <glyph glyph-name="eight" unicode="8" horiz-adv-x="1179" 
d="M590 -25q-246 0 -396.5 111.5t-150.5 294.5q0 107 59.5 192t167.5 132q-90 45 -142 126t-52 181q0 175 142 282t372 107t372 -107t142 -282q0 -100 -52.5 -181t-142.5 -126q108 -50 168 -134t60 -190q0 -183 -150.5 -294.5t-396.5 -111.5zM590 834q168 45 168 155
q0 62 -47.5 101.5t-120.5 39.5t-120.5 -39.5t-47.5 -101.5q0 -110 168 -155zM590 246q82 0 134 43.5t52 113.5q0 121 -186 172q-187 -51 -187 -172q0 -70 52.5 -113.5t134.5 -43.5z" />
    <glyph glyph-name="nine" unicode="9" horiz-adv-x="1179" 
d="M492 -25q-216 0 -400 97l121 256q145 -74 264 -74q130 0 212.5 78.5t92.5 218.5q-124 -94 -284 -94q-201 0 -329 126t-128 324q0 217 145 355.5t371 138.5q264 0 413.5 -175.5t149.5 -484.5q0 -361 -167.5 -563.5t-460.5 -202.5zM565 729q88 0 144.5 50.5t56.5 129.5
q0 93 -55 153t-140 60q-86 0 -142 -57t-56 -143q0 -85 53.5 -139t138.5 -54z" />
    <glyph glyph-name="colon" unicode=":" horiz-adv-x="610" 
d="M305 610q-92 0 -152.5 60.5t-60.5 152.5q0 93 60 153t153 60t153 -60t60 -153q0 -92 -60.5 -152.5t-152.5 -60.5zM305 -25q-92 0 -152.5 60.5t-60.5 152.5q0 93 60 153t153 60t153 -60t60 -153q0 -92 -60.5 -152.5t-152.5 -60.5z" />
    <glyph glyph-name="semicolon" unicode=";" horiz-adv-x="610" 
d="M305 610q-92 0 -152.5 60.5t-60.5 152.5q0 93 60 153t153 60t153 -60t60 -153q0 -92 -60.5 -152.5t-152.5 -60.5zM221 -328l-106 138q103 86 147 182q-76 10 -123 64.5t-47 131.5q0 93 60 153t153 60q95 0 155 -68t60 -177q0 -142 -79 -270t-220 -214z" />
    <glyph glyph-name="less" unicode="&#x3c;" horiz-adv-x="1179" 
d="M1018 14l-946 426v299l946 426l121 -284l-662 -291l662 -291z" />
    <glyph glyph-name="equal" unicode="=" horiz-adv-x="1179" 
d="M72 696v301h1036v-301h-1036zM72 182v301h1036v-301h-1036z" />
    <glyph glyph-name="greater" unicode="&#x3e;" horiz-adv-x="1179" 
d="M162 14l-121 285l661 291l-661 291l121 284l946 -426v-299z" />
    <glyph glyph-name="question" unicode="?" horiz-adv-x="976" 
d="M305 483v45q0 65 25 120.5t60.5 94t71 73.5t60.5 73.5t25 77.5q0 59 -42.5 96t-107.5 37q-48 0 -99.5 -21.5t-125.5 -64.5l-135 256q200 131 420 131q198 0 324 -107.5t126 -275.5q0 -82 -27.5 -152t-69 -118t-83 -88.5t-75.5 -81t-42 -78.5l-4 -17h-301zM457 -25
q-91 0 -149 61t-58 152q0 90 57.5 144.5t149.5 54.5q90 0 147.5 -54.5t57.5 -144.5t-58.5 -151.5t-146.5 -61.5z" />
    <glyph glyph-name="at" unicode="@" horiz-adv-x="2025" 
d="M1038 -418q-214 0 -396.5 68.5t-311 189.5t-201 293t-72.5 373q0 200 73 372.5t202 294t311.5 190.5t394.5 69q202 0 375.5 -60.5t295 -166.5t190.5 -257t69 -327q0 -248 -133 -405t-344 -157q-187 0 -279 119q-131 -119 -307 -119t-289.5 126.5t-113.5 320.5t113.5 320
t289.5 126q140 0 234 -82l37 62h292v-537q0 -35 18.5 -57.5t49.5 -22.5q59 0 96 76t37 199q0 256 -176 416.5t-455 160.5q-147 0 -273.5 -49t-216 -136t-140 -210t-50.5 -266q0 -290 190.5 -475t489.5 -185q221 0 486 148l135 -234q-331 -178 -621 -178zM997 334
q53 0 86 38.5t33 96.5v74q0 59 -33 97t-86 38q-59 0 -97 -48t-38 -124t38 -124t97 -48z" />
    <glyph glyph-name="A" unicode="A" horiz-adv-x="1417" 
d="M-23 0l560 1376h346l557 -1376h-375l-102 279h-506l-103 -279h-377zM553 549h311l-155 420z" />
    <glyph glyph-name="B" unicode="B" horiz-adv-x="1370" 
d="M141 0v1376h641q206 0 335.5 -104.5t129.5 -270.5q0 -95 -46.5 -168.5t-123.5 -113.5q102 -41 160.5 -128.5t58.5 -199.5q0 -172 -135 -281.5t-346 -109.5h-674zM502 825h229q69 0 112.5 38.5t43.5 101.5t-43.5 102t-112.5 39h-229v-281zM502 270h254q78 0 126 43.5
t48 114.5q0 70 -48 113t-126 43h-254v-314z" />
    <glyph glyph-name="C" unicode="C" horiz-adv-x="1341" 
d="M793 -25q-214 0 -382 91t-261 253.5t-93 368.5q0 207 93 369.5t261 253t382 90.5q270 0 522 -162l-150 -248q-166 113 -321 113q-180 0 -292 -115.5t-112 -300.5t112 -300.5t292 -115.5q155 0 321 113l150 -248q-252 -162 -522 -162z" />
    <glyph glyph-name="D" unicode="D" horiz-adv-x="1515" 
d="M141 0v1376h600q321 0 520 -190.5t199 -497.5q0 -305 -199.5 -496.5t-519.5 -191.5h-600zM516 287h180q167 0 274 112t107 289t-107 289.5t-274 112.5h-180v-803z" />
    <glyph glyph-name="E" unicode="E" horiz-adv-x="1243" 
d="M141 0v1376h998v-278h-623v-258h557v-271h-557v-290h655v-279h-1030z" />
    <glyph glyph-name="F" unicode="F" horiz-adv-x="1210" 
d="M141 0v1376h998v-286h-623v-299h557v-285h-557v-506h-375z" />
    <glyph glyph-name="G" unicode="G" horiz-adv-x="1482" 
d="M825 -25q-223 0 -398 90.5t-272.5 253t-97.5 369.5q0 155 56 287.5t154.5 226t238.5 146.5t303 53q265 0 539 -146l-136 -249q-208 108 -358 108q-190 0 -310 -119t-120 -307q0 -191 119.5 -308.5t310.5 -117.5q95 0 180 31v239h-274v273h618v-709q-290 -121 -553 -121z
" />
    <glyph glyph-name="H" unicode="H" horiz-adv-x="1613" 
d="M141 0v1376h375v-528h582v528h375v-1376h-375v561h-582v-561h-375z" />
    <glyph glyph-name="I" unicode="I" horiz-adv-x="657" 
d="M141 0v1376h375v-1376h-375z" />
    <glyph glyph-name="J" unicode="J" horiz-adv-x="944" 
d="M334 -25q-154 0 -314 41l46 285q113 -25 178 -25q80 0 132 51.5t52 133.5v915h375v-952q0 -201 -130 -325t-339 -124z" />
    <glyph glyph-name="K" unicode="K" horiz-adv-x="1429" 
d="M141 0v1376h361v-581l508 581h430l-586 -643l610 -733h-436l-424 514l-102 -111v-403h-361z" />
    <glyph glyph-name="L" unicode="L" horiz-adv-x="1112" 
d="M141 0v1376h375v-1089h559v-287h-934z" />
    <glyph glyph-name="M" unicode="M" horiz-adv-x="1794" 
d="M141 0v1376h361l395 -547l395 547h361v-1376h-344v866l-310 -428h-204l-308 428v-866h-346z" />
    <glyph glyph-name="N" unicode="N" horiz-adv-x="1613" 
d="M141 0v1376h361l626 -866v866h345v-1376h-361l-625 866v-866h-346z" />
    <glyph glyph-name="O" unicode="O" horiz-adv-x="1613" 
d="M807 -25q-163 0 -302.5 53t-238 146.5t-154 226t-55.5 287.5t55.5 287.5t154 226t238 146.5t302.5 53t303 -53t238.5 -146.5t154.5 -226t56 -287.5t-56 -287.5t-154.5 -226t-238.5 -146.5t-303 -53zM807 268q163 0 266 117.5t103 302.5t-103 302.5t-266 117.5
q-162 0 -264.5 -117.5t-102.5 -302.5t102.5 -302.5t264.5 -117.5z" />
    <glyph glyph-name="P" unicode="P" horiz-adv-x="1304" 
d="M141 0v1376h609q226 0 370 -133t144 -342t-144 -343t-370 -134h-248v-424h-361zM502 711h188q92 0 149.5 52.5t57.5 137.5q0 82 -57.5 135.5t-149.5 53.5h-188v-379z" />
    <glyph glyph-name="Q" unicode="Q" horiz-adv-x="1613" 
d="M1380 -293l-391 289q-100 -21 -182 -21q-163 0 -302.5 53t-238 146.5t-154 226t-55.5 287.5t55.5 287.5t154 226t238 146.5t302.5 53t303 -53t238.5 -146.5t154.5 -226t56 -287.5q0 -177 -71 -321t-198 -240l271 -193zM807 268q163 0 266 117.5t103 302.5t-103 302.5
t-266 117.5q-162 0 -264.5 -117.5t-102.5 -302.5t102.5 -302.5t264.5 -117.5z" />
    <glyph glyph-name="R" unicode="R" horiz-adv-x="1370" 
d="M141 0v1376h623q220 0 360 -126.5t140 -325.5q0 -149 -78 -259.5t-211 -148.5l352 -516h-405l-293 457h-127v-457h-361zM502 743h203q84 0 137 48t53 127q0 76 -53 124t-137 48h-203v-347z" />
    <glyph glyph-name="S" unicode="S" horiz-adv-x="1222" 
d="M612 -25q-266 0 -549 115l84 279q265 -101 435 -101q98 0 153.5 35t55.5 98q0 36 -24.5 62.5t-66 43.5t-95.5 30.5t-114 29t-119.5 34.5t-113.5 50.5t-95.5 73.5t-66 108t-24.5 150q0 186 151 302t389 116q237 0 498 -98l-84 -279q-212 84 -385 84q-93 0 -147 -33
t-54 -92q0 -35 24.5 -60t66 -40.5t95.5 -28.5t114 -27.5t119.5 -33.5t113.5 -51t95.5 -75.5t66 -111.5t24.5 -154q0 -190 -152.5 -308t-394.5 -118z" />
    <glyph glyph-name="T" unicode="T" horiz-adv-x="1243" 
d="M434 0v1090h-399v286h1171v-286h-397v-1090h-375z" />
    <glyph glyph-name="U" unicode="U" horiz-adv-x="1613" 
d="M807 -25q-197 0 -352 72t-242.5 204t-87.5 302v823h375v-809q0 -133 86 -216t221 -83q137 0 222 83t85 216v809h375v-823q0 -170 -87.5 -302t-242.5 -204t-352 -72z" />
    <glyph glyph-name="V" unicode="V" horiz-adv-x="1417" 
d="M537 0l-560 1376h392l340 -925l342 925h389l-557 -1376h-346z" />
    <glyph glyph-name="W" unicode="W" horiz-adv-x="2105" 
d="M438 0l-436 1376h375l252 -925l252 925h346l250 -925l252 925h374l-434 -1376h-364l-252 926l-250 -926h-365z" />
    <glyph glyph-name="X" unicode="X" horiz-adv-x="1433" 
d="M-18 0l495 705l-471 671h412l299 -438l299 438h414l-474 -671l498 -705h-422l-315 471l-316 -471h-419z" />
    <glyph glyph-name="Y" unicode="Y" horiz-adv-x="1298" 
d="M461 0v532l-500 844h406l282 -512l283 512h405l-499 -844v-532h-377z" />
    <glyph glyph-name="Z" unicode="Z" horiz-adv-x="1320" 
d="M63 0v211l689 879h-664v286h1145v-211l-688 -878h712v-287h-1194z" />
    <glyph glyph-name="bracketleft" unicode="[" horiz-adv-x="745" 
d="M143 -293v1766h564v-287h-234v-1192h234v-287h-564z" />
    <glyph glyph-name="backslash" unicode="\" horiz-adv-x="786" 
d="M539 -276l-602 1718h315l602 -1718h-315z" />
    <glyph glyph-name="bracketright" unicode="]" horiz-adv-x="745" 
d="M39 -293v287h231v1192h-231v287h563v-1766h-563z" />
    <glyph glyph-name="asciicircum" unicode="^" horiz-adv-x="1179" 
d="M299 295l-285 104l426 977h299l426 -977l-284 -104l-291 676z" />
    <glyph glyph-name="underscore" unicode="_" horiz-adv-x="983" 
d="M0 -397v270h983v-270h-983z" />
    <glyph glyph-name="grave" unicode="`" horiz-adv-x="491" 
d="M342 1061l-432 256l158 225l409 -287z" />
    <glyph glyph-name="a" unicode="a" 
d="M526 -25q-207 0 -339 149t-132 382q0 235 132 383.5t337 148.5q87 0 167 -30t140 -82l41 88h287v-1014h-287l-45 94q-116 -119 -301 -119zM625 258q79 0 129.5 55t50.5 140v106q0 86 -50.5 141.5t-129.5 55.5q-89 0 -145 -70t-56 -180q0 -108 55.5 -178t145.5 -70z" />
    <glyph glyph-name="b" unicode="b" 
d="M739 -25q-185 0 -301 119l-45 -94h-287v1442h361v-500q116 96 272 96q207 0 339 -148.5t132 -383.5q0 -233 -132 -382t-339 -149zM643 258q88 0 144.5 69.5t56.5 178.5q0 110 -56.5 180t-144.5 70q-81 0 -131.5 -55t-50.5 -142v-106q0 -85 50.5 -140t131.5 -55z" />
    <glyph glyph-name="c" unicode="c" horiz-adv-x="1042" 
d="M618 -25q-247 0 -405 149.5t-158 381.5q0 233 158 382.5t405 149.5q219 0 416 -123l-143 -239q-120 76 -221 76q-109 0 -177.5 -68.5t-68.5 -177.5t68.5 -176.5t177.5 -67.5q101 0 221 76l143 -242q-198 -121 -416 -121z" />
    <glyph glyph-name="d" unicode="d" 
d="M526 -25q-207 0 -339 149t-132 382q0 235 132 383.5t339 148.5q157 0 273 -96v500h360v-1442h-287l-45 94q-116 -119 -301 -119zM623 258q81 0 131.5 55t50.5 140v106q0 87 -50.5 142t-131.5 55q-88 0 -143.5 -70t-55.5 -180q0 -109 55.5 -178.5t143.5 -69.5z" />
    <glyph glyph-name="e" unicode="e" horiz-adv-x="1155" 
d="M635 -25q-257 0 -418.5 148.5t-161.5 382.5q0 235 153 383.5t394 148.5q227 0 370.5 -143.5t143.5 -372.5q0 -56 -6 -108h-694q20 -80 91.5 -127t172.5 -47q123 0 281 82l106 -242q-225 -105 -432 -105zM416 625h354q-9 68 -55 108.5t-113 40.5q-70 0 -120.5 -40.5
t-65.5 -108.5z" />
    <glyph glyph-name="f" unicode="f" horiz-adv-x="811" 
d="M205 0v741h-170v273h170v94q0 161 105 259.5t276 98.5q127 0 252 -32l-45 -267q-70 13 -119 13q-50 0 -79.5 -29t-29.5 -80v-57h209v-273h-209v-741h-360z" />
    <glyph glyph-name="g" unicode="g" 
d="M569 -451q-225 0 -463 97l99 264q183 -82 334 -82q116 0 188 58.5t72 152.5v33q-118 -97 -273 -97q-207 0 -339 149t-132 382q0 235 132 383.5t339 148.5q183 0 301 -118l45 94h287v-961q0 -219 -167 -361.5t-423 -142.5zM623 258q81 0 131.5 55t50.5 140v106
q0 87 -50.5 142t-131.5 55q-88 0 -143.5 -70t-55.5 -180q0 -109 55.5 -178.5t143.5 -69.5z" />
    <glyph glyph-name="h" unicode="h" 
d="M106 0v1442h361v-516q121 112 303 112q180 0 293 -111t113 -286v-641h-361v582q0 70 -45.5 115.5t-114.5 45.5q-83 0 -135.5 -55.5t-52.5 -144.5v-543h-361z" />
    <glyph glyph-name="i" unicode="i" horiz-adv-x="575" 
d="M287 1075q-89 0 -147 58t-58 147q0 91 58 149t147 58q91 0 149 -58t58 -149q0 -89 -58 -147t-149 -58zM106 0v1014h361v-1014h-361z" />
    <glyph glyph-name="j" unicode="j" horiz-adv-x="591" 
d="M303 1075q-89 0 -147 58t-58 147q0 91 58 149t147 58q91 0 149 -58t58 -149q0 -89 -58 -147t-149 -58zM104 -451q-122 0 -254 33l46 266q68 -12 118 -12q51 0 80 29t29 80v1069h360v-1106q0 -161 -104.5 -260t-274.5 -99z" />
    <glyph glyph-name="k" unicode="k" horiz-adv-x="1132" 
d="M106 0v1442h347v-795l292 367h406l-416 -475l432 -539h-413l-250 328l-51 -56v-272h-347z" />
    <glyph glyph-name="l" unicode="l" horiz-adv-x="673" 
d="M459 -25q-162 0 -257.5 89.5t-95.5 240.5v1137h361v-1100q0 -37 22.5 -58.5t59.5 -21.5q26 0 84 8l37 -270q-116 -25 -211 -25z" />
    <glyph glyph-name="m" unicode="m" horiz-adv-x="1908" 
d="M106 0v1014h287l45 -103q136 127 316 127q101 0 183 -40t130 -111q168 151 360 151q172 0 281 -107t109 -274v-657h-361v598q0 65 -39.5 105t-103.5 40q-75 0 -122.5 -51t-47.5 -133v-559h-361v598q0 64 -40 104.5t-103 40.5q-76 0 -124 -51t-48 -133v-559h-361z" />
    <glyph glyph-name="n" unicode="n" 
d="M106 0v1014h287l45 -111q126 135 332 135q180 0 293 -111t113 -286v-641h-361v582q0 70 -45.5 115.5t-114.5 45.5q-83 0 -135.5 -55.5t-52.5 -144.5v-543h-361z" />
    <glyph glyph-name="o" unicode="o" 
d="M633 -25q-254 0 -416 149t-162 382q0 234 162 383t416 149q255 0 416 -148.5t161 -383.5q0 -234 -161 -382.5t-416 -148.5zM633 254q92 0 151.5 71t59.5 181q0 112 -59 183t-152 71q-92 0 -150.5 -71t-58.5 -183q0 -110 58.5 -181t150.5 -71z" />
    <glyph glyph-name="p" unicode="p" 
d="M106 -426v1440h287l45 -94q118 118 301 118q207 0 339 -148.5t132 -383.5q0 -233 -132 -382t-339 -149q-154 0 -272 97v-498h-361zM643 258q88 0 144.5 69.5t56.5 178.5q0 110 -56.5 180t-144.5 70q-81 0 -131.5 -55t-50.5 -142v-106q0 -85 50.5 -140t131.5 -55z" />
    <glyph glyph-name="q" unicode="q" 
d="M799 -426v498q-118 -97 -273 -97q-207 0 -339 149t-132 382q0 235 132 383.5t339 148.5q183 0 301 -118l45 94h287v-1440h-360zM623 258q81 0 131.5 55t50.5 140v106q0 87 -50.5 142t-131.5 55q-88 0 -143.5 -70t-55.5 -180q0 -109 55.5 -178.5t143.5 -69.5z" />
    <glyph glyph-name="r" unicode="r" horiz-adv-x="856" 
d="M106 0v1014h287l45 -127q46 68 120 105.5t163 37.5q49 0 117 -14l-31 -285q-66 12 -117 12q-102 0 -162.5 -67.5t-60.5 -177.5v-498h-361z" />
    <glyph glyph-name="s" unicode="s" horiz-adv-x="974" 
d="M487 -25q-205 0 -432 82l76 256q177 -73 326 -73q52 0 80 19t28 52q0 22 -21.5 37.5t-57 23.5t-80.5 18.5t-92 21.5t-92 34.5t-80.5 55t-57 85.5t-21.5 124q0 141 119 234t305 93q187 0 400 -73l-76 -256q-170 65 -295 65q-47 0 -73.5 -17t-26.5 -46q0 -24 28 -39t72 -24
t98 -19t108 -31.5t98 -53.5t72 -92t28 -141q0 -147 -121 -241.5t-312 -94.5z" />
    <glyph glyph-name="t" unicode="t" horiz-adv-x="876" 
d="M586 -25q-170 0 -275.5 99t-105.5 260v407h-170v273h170v295h360v-295h242v-273h-242v-370q0 -51 29.5 -80t79.5 -29q54 0 119 12l45 -266q-129 -33 -252 -33z" />
    <glyph glyph-name="u" unicode="u" 
d="M496 -25q-179 0 -292.5 110.5t-113.5 287.5v641h361v-582q0 -72 45 -118t116 -46q82 0 134.5 56t52.5 145v545h360v-1014h-287l-45 111q-124 -136 -331 -136z" />
    <glyph glyph-name="v" unicode="v" horiz-adv-x="1134" 
d="M401 0l-409 1014h377l198 -608l199 608h377l-410 -1014h-332z" />
    <glyph glyph-name="w" unicode="w" horiz-adv-x="1658" 
d="M336 0l-328 1014h361l147 -606l148 606h331l148 -606l147 606h361l-328 -1014h-346l-148 606l-147 -606h-346z" />
    <glyph glyph-name="x" unicode="x" horiz-adv-x="1134" 
d="M-20 0l354 518l-338 496h397l174 -273l174 273h398l-338 -496l354 -518h-405l-183 297l-182 -297h-405z" />
    <glyph glyph-name="y" unicode="y" horiz-adv-x="1134" 
d="M254 -451q-80 0 -174 21l45 278q53 -12 92 -12q60 0 100 31.5t68 101.5l18 45l-411 1000h377l198 -608l199 608h377l-432 -1092q-144 -373 -457 -373z" />
    <glyph glyph-name="z" unicode="z" horiz-adv-x="1040" 
d="M55 0v197l447 544h-430v273h897v-197l-449 -547h465v-270h-930z" />
    <glyph glyph-name="braceleft" unicode="{" horiz-adv-x="745" 
d="M584 -293q-184 0 -303 107.5t-119 273.5q0 43 8 121.5t8 120.5q0 50 -39.5 83t-97.5 33h-33v287h33q58 0 97.5 33.5t39.5 83.5q0 42 -8 120.5t-8 121.5q0 166 119 273.5t303 107.5h123v-287h-33q-76 0 -125 -48t-49 -120q0 -34 5 -99.5t5 -99.5q0 -84 -42.5 -144
t-121.5 -85q79 -25 121.5 -85.5t42.5 -144.5q0 -34 -5 -99t-5 -99q0 -72 49 -120t125 -48h33v-287h-123z" />
    <glyph glyph-name="bar" unicode="|" horiz-adv-x="491" 
d="M96 -459v1966h299v-1966h-299z" />
    <glyph glyph-name="braceright" unicode="}" horiz-adv-x="745" 
d="M39 -293v287h33q75 0 124.5 48t49.5 120q0 34 -5 99t-5 99q0 84 42 144.5t119 85.5q-77 25 -119 85t-42 144q0 34 5 99.5t5 99.5q0 72 -49.5 120t-124.5 48h-33v287h123q184 0 303 -107.5t119 -273.5q0 -43 -9.5 -121.5t-9.5 -120.5q0 -50 39.5 -83.5t97.5 -33.5h33v-287
h-33q-58 0 -97.5 -33t-39.5 -83q0 -42 9.5 -120.5t9.5 -121.5q0 -166 -119 -273.5t-303 -107.5h-123z" />
    <glyph glyph-name="asciitilde" unicode="~" horiz-adv-x="1179" 
d="M817 391q-66 0 -131 15.5t-109 33.5t-102.5 33.5t-112.5 15.5q-94 0 -192 -83l-158 256q169 126 350 126q65 0 130 -15.5t109 -33.5t103 -33.5t113 -15.5q51 0 95.5 19.5t97.5 64.5l157 -256q-171 -127 -350 -127z" />
    <glyph glyph-name="uni00A0" unicode="&#xa0;" horiz-adv-x="491" 
 />
    <glyph glyph-name="exclamdown" unicode="&#xa1;" horiz-adv-x="610" 
d="M305 627q-89 0 -147 57.5t-58 146.5t58 147t147 58q94 0 149.5 -57t55.5 -148q0 -89 -57 -146.5t-148 -57.5zM125 -362l31 892h299l30 -892h-360z" />
    <glyph glyph-name="cent" unicode="&#xa2;" horiz-adv-x="1179" 
d="M610 -131v293q-217 22 -352 167.5t-135 358.5t135 358.5t352 167.5v293h267v-313q113 -26 225 -96l-144 -234q-74 42 -98 51v-454q24 9 98 51l144 -233q-112 -70 -225 -99v-311h-267zM631 451v475q-74 -27 -113 -89t-39 -149t39 -148t113 -89z" />
    <glyph glyph-name="sterling" unicode="&#xa3;" horiz-adv-x="1179" 
d="M104 0v279h170v290h-137v271h137v121q0 193 136 316.5t344 123.5q156 0 366 -72l-90 -264q-108 43 -203 43q-78 0 -128 -49.5t-50 -126.5v-92h322v-271h-322v-290h459v-279h-1004z" />
    <glyph glyph-name="currency" unicode="&#xa4;" horiz-adv-x="1179" 
d="M236 123l-211 211l155 158q-39 89 -39 196q0 106 39 195l-155 159l211 211l157 -157q87 41 197 41q107 0 194 -41l160 157l211 -211l-158 -159q41 -87 41 -195q0 -109 -41 -196l158 -158l-211 -211l-160 156q-89 -39 -194 -39q-108 0 -197 39zM590 512q78 0 128 49
t50 127t-50 128t-128 50t-128 -50t-50 -128t50 -127t128 -49z" />
    <glyph glyph-name="yen" unicode="&#xa5;" horiz-adv-x="1179" 
d="M401 0v213h-264v242h264v84h-264v239h174l-360 598h391l248 -477l248 477h391l-361 -598h174v-239h-264v-84h264v-242h-264v-213h-377z" />
    <glyph glyph-name="brokenbar" unicode="&#xa6;" horiz-adv-x="491" 
d="M96 623v786h299v-786h-299zM96 -360v786h299v-786h-299z" />
    <glyph glyph-name="section" unicode="&#xa7;" horiz-adv-x="1138" 
d="M553 -352q-242 0 -490 94l82 278q221 -79 377 -79q74 0 113 25t39 71q0 27 -26 47t-68 31.5t-96.5 26.5t-110.5 30.5t-110.5 45t-96.5 67t-68 100t-26 141.5q0 158 125 254q-93 90 -93 240q0 168 134.5 274.5t347.5 106.5q207 0 448 -90l-82 -279q-183 76 -338 76
q-70 0 -106.5 -23.5t-36.5 -64.5q0 -28 33.5 -47.5t86.5 -32.5t117.5 -28.5t129 -42.5t117.5 -66.5t86.5 -109.5t33.5 -163q0 -154 -121 -256q88 -91 88 -237q0 -177 -136 -283t-353 -106zM645 416q28 15 45 41t17 55q0 22 -11 40t-26.5 30t-44.5 24t-51.5 18.5t-61.5 16.5
q-34 -14 -54 -39.5t-20 -56.5q0 -27 15 -47.5t48.5 -36t62.5 -24t81 -21.5z" />
    <glyph glyph-name="dieresis" unicode="&#xa8;" horiz-adv-x="491" 
d="M4 1098q-82 0 -132 50t-50 132t50 133t132 51t132 -51t50 -133t-50 -132t-132 -50zM487 1098q-82 0 -132 50t-50 132t50 133t132 51t132.5 -51t50.5 -133t-50.5 -132t-132.5 -50z" />
    <glyph glyph-name="copyright" unicode="&#xa9;" horiz-adv-x="1703" 
d="M852 -66q-218 0 -390 96t-268 268t-96 390t96 390t268 268t390 96t390 -96t268 -268t96 -390t-96 -390t-268 -268t-390 -96zM852 117q252 0 411.5 159.5t159.5 411.5t-159.5 412t-411.5 160t-411.5 -160t-159.5 -412t159.5 -411.5t411.5 -159.5zM877 246q-205 0 -333 124
t-128 318t128 318t333 124q181 0 337 -100l-110 -182q-92 63 -191 63t-161 -62t-62 -161t62 -161t161 -62t191 63l110 -182q-156 -100 -337 -100z" />
    <glyph glyph-name="ordfeminine" unicode="&#xaa;" horiz-adv-x="876" 
d="M362 705q-142 0 -227.5 97t-85.5 255q0 156 85.5 253t227.5 97q120 0 181 -74l28 58h211v-670h-211l-30 61q-53 -77 -179 -77zM426 891q50 0 75 35t25 94v70q0 60 -25 95.5t-75 35.5q-56 0 -83.5 -44t-27.5 -120q0 -77 27.5 -121.5t83.5 -44.5zM63 418v182h752v-182h-752
z" />
    <glyph glyph-name="guillemotleft" unicode="&#xab;" horiz-adv-x="1280" 
d="M459 -14l-408 456v152l408 459l211 -166l-273 -369l273 -366zM1030 -14l-407 456v152l407 459l211 -166l-272 -369l272 -366z" />
    <glyph glyph-name="logicalnot" unicode="&#xac;" horiz-adv-x="1179" 
d="M807 72v368h-735v299h1036v-667h-301z" />
    <glyph glyph-name="uni00AD" unicode="&#xad;" horiz-adv-x="655" 
d="M41 383v270h586v-270h-586z" />
    <glyph glyph-name="registered" unicode="&#xae;" horiz-adv-x="1703" 
d="M852 -66q-218 0 -390 96t-268 268t-96 390t96 390t268 268t390 96t390 -96t268 -268t96 -390t-96 -390t-268 -268t-390 -96zM852 117q252 0 411.5 159.5t159.5 411.5t-159.5 412t-411.5 160t-411.5 -160t-159.5 -412t159.5 -411.5t411.5 -159.5zM494 262v852h403
q140 0 228.5 -80t88.5 -207q0 -90 -44.5 -158t-118.5 -94l192 -313h-280l-150 273h-70v-273h-249zM743 727h119q45 0 72 25t27 69q0 42 -27 67t-72 25h-119v-186z" />
    <glyph glyph-name="macron" unicode="&#xaf;" horiz-adv-x="491" 
d="M-92 1161v240h676v-240h-676z" />
    <glyph glyph-name="degree" unicode="&#xb0;" horiz-adv-x="714" 
d="M358 811q-129 0 -212 83t-83 212q0 128 83 211.5t212 83.5q128 0 211.5 -83.5t83.5 -211.5q0 -129 -83.5 -212t-211.5 -83zM358 999q46 0 75.5 30t29.5 77q0 46 -29.5 75t-75.5 29q-47 0 -76.5 -29t-29.5 -75q0 -47 30 -77t76 -30z" />
    <glyph glyph-name="plusminus" unicode="&#xb1;" horiz-adv-x="1179" 
d="M440 379v366h-368v302h368v368h299v-368h369v-302h-369v-366h-299zM72 0v301h1036v-301h-1036z" />
    <glyph glyph-name="uni00B2" unicode="&#xb2;" horiz-adv-x="710" 
d="M39 786v162l256 258q82 82 82 135q0 43 -26 69t-70 26q-66 0 -168 -64l-97 191q164 92 318 92q133 0 216 -77t83 -196q0 -138 -121 -256l-135 -135h266v-205h-604z" />
    <glyph glyph-name="uni00B3" unicode="&#xb3;" horiz-adv-x="710" 
d="M346 770q-176 0 -340 74l80 180q116 -53 205 -53q43 0 70.5 21.5t27.5 56.5q0 38 -32 63t-83 25h-81v172h81q45 0 73 21.5t28 53.5q0 31 -21 50.5t-57 19.5q-84 0 -191 -49l-79 182q165 68 319 68q127 0 208 -68t81 -174q0 -63 -27 -111t-78 -73q56 -25 90.5 -81
t34.5 -126q0 -110 -87 -181t-222 -71z" />
    <glyph glyph-name="acute" unicode="&#xb4;" horiz-adv-x="491" 
d="M180 1061l-135 194l410 287l155 -225z" />
    <glyph glyph-name="uni00B5" unicode="&#xb5;" horiz-adv-x="1314" 
d="M106 -426v1440h361v-582q0 -72 45.5 -118t116.5 -46q82 0 134 56t52 145v545h361v-701q0 -23 14 -37t37 -14q15 0 43 4l26 -274q-90 -17 -170 -17q-85 0 -150 37t-99 103q-56 -65 -125 -98t-136 -33q-88 0 -149 24v-434h-361z" />
    <glyph glyph-name="paragraph" unicode="&#xb6;" 
d="M823 -328v1403h-198v-635h-70q-227 0 -370.5 131.5t-143.5 337.5q0 205 143.5 336t370.5 131h569v-1704h-301z" />
    <glyph glyph-name="periodcentered" unicode="&#xb7;" horiz-adv-x="577" 
d="M289 305q-92 0 -152.5 60.5t-60.5 152.5q0 93 60 153t153 60t153 -60t60 -153q0 -92 -60.5 -152.5t-152.5 -60.5z" />
    <glyph glyph-name="cedilla" unicode="&#xb8;" horiz-adv-x="491" 
d="M199 -487q-117 0 -224 41l58 196q83 -26 129 -26q29 0 47 13.5t18 35.5q0 21 -24 34t-64 13h-30l32 180h242l-12 -66q66 -20 104.5 -73t38.5 -125q0 -100 -87 -161.5t-228 -61.5z" />
    <glyph glyph-name="uni00B9" unicode="&#xb9;" horiz-adv-x="591" 
d="M227 786v603l-153 -84l-90 170l288 163h213v-852h-258z" />
    <glyph glyph-name="ordmasculine" unicode="&#xba;" horiz-adv-x="884" 
d="M442 705q-172 0 -282.5 98.5t-110.5 253.5q0 154 110.5 252t282.5 98q173 0 283.5 -98t110.5 -252q0 -155 -110.5 -253.5t-283.5 -98.5zM442 909q54 0 88.5 41t34.5 107q0 65 -34.5 106t-88.5 41t-87 -41t-33 -106q0 -66 33 -107t87 -41zM68 418v182h749v-182h-749z" />
    <glyph glyph-name="guillemotright" unicode="&#xbb;" horiz-adv-x="1280" 
d="M250 -14l-211 166l274 366l-274 369l211 166l407 -459v-152zM821 -14l-211 166l275 366l-275 369l211 166l408 -459v-152z" />
    <glyph glyph-name="onequarter" unicode="&#xbc;" horiz-adv-x="1966" 
d="M324 524v602l-154 -84l-90 170l289 164h213v-852h-258zM326 0l1034 1376h280l-1034 -1376h-280zM1567 0v158h-385v180l366 514h248v-510h86v-184h-86v-158h-229zM1401 342h166v236z" />
    <glyph glyph-name="onehalf" unicode="&#xbd;" horiz-adv-x="1966" 
d="M324 524v602l-154 -84l-90 170l289 164h213v-852h-258zM326 0l1034 1376h280l-1034 -1376h-280zM1255 0v162l256 258q82 82 82 135q0 43 -26 68.5t-70 25.5q-68 0 -168 -63l-96 190q164 92 317 92q133 0 216 -76.5t83 -195.5q0 -139 -120 -256l-136 -135h267v-205h-605z
" />
    <glyph glyph-name="threequarters" unicode="&#xbe;" horiz-adv-x="1966" 
d="M383 508q-176 0 -340 74l80 180q116 -53 205 -53q43 0 70.5 21t27.5 56q0 38 -32 63t-83 25h-82v173h82q45 0 73 21.5t28 53.5q0 31 -21 50.5t-57 19.5q-84 0 -191 -49l-80 182q165 68 320 68q127 0 208 -68t81 -174q0 -63 -27 -111t-78 -73q56 -25 90.5 -81t34.5 -126
q0 -110 -87 -181t-222 -71zM326 0l1034 1376h280l-1034 -1376h-280zM1567 0v158h-385v180l366 514h248v-510h86v-184h-86v-158h-229zM1401 342h166v236z" />
    <glyph glyph-name="questiondown" unicode="&#xbf;" horiz-adv-x="845" 
d="M506 627q-91 0 -149 57.5t-58 146.5t58 147t149 58q89 0 147 -58t58 -147t-58 -146.5t-147 -57.5zM504 -387q-198 0 -324.5 107.5t-126.5 273.5q0 82 27.5 152.5t69 118.5t83 88.5t75.5 81.5t42 79l4 16h301v-47q0 -64 -25 -119.5t-60.5 -94t-70.5 -73t-60 -72.5t-25 -77
q0 -61 42 -98t107 -37q33 0 73 13.5t69.5 28t82.5 44.5l136 -256q-196 -129 -420 -129z" />
    <glyph glyph-name="Agrave" unicode="&#xc0;" horiz-adv-x="1417" 
d="M805 1423l-432 256l157 226l410 -287zM-23 0l560 1376h346l557 -1376h-375l-102 279h-506l-103 -279h-377zM553 549h311l-155 420z" />
    <glyph glyph-name="Aacute" unicode="&#xc1;" horiz-adv-x="1417" 
d="M643 1423l-135 195l410 287l155 -226zM-23 0l560 1376h346l557 -1376h-375l-102 279h-506l-103 -279h-377zM553 549h311l-155 420z" />
    <glyph glyph-name="Acircumflex" unicode="&#xc2;" horiz-adv-x="1417" 
d="M494 1423l-152 166l260 246h213l260 -246l-151 -166l-215 170zM-23 0l560 1376h346l557 -1376h-375l-102 279h-506l-103 -279h-377zM553 549h311l-155 420z" />
    <glyph glyph-name="Atilde" unicode="&#xc3;" horiz-adv-x="1417" 
d="M539 1489l-211 61q15 113 83 180.5t167 67.5q49 0 95.5 -17t81 -33.5t54.5 -16.5q48 0 70 67l211 -61q-15 -113 -83 -180.5t-167 -67.5q-49 0 -96 16.5t-81.5 33.5t-54.5 17q-53 0 -69 -67zM-23 0l560 1376h346l557 -1376h-375l-102 279h-506l-103 -279h-377zM553 549
h311l-155 420z" />
    <glyph glyph-name="Adieresis" unicode="&#xc4;" horiz-adv-x="1417" 
d="M467 1460q-82 0 -132 50t-50 132t50.5 133.5t131.5 51.5t131.5 -51.5t50.5 -133.5t-50 -132t-132 -50zM950 1460q-82 0 -132 50t-50 132t50.5 133.5t131.5 51.5q82 0 132.5 -51.5t50.5 -133.5t-50.5 -132t-132.5 -50zM-23 0l560 1376h346l557 -1376h-375l-102 279h-506
l-103 -279h-377zM553 549h311l-155 420z" />
    <glyph glyph-name="Aring" unicode="&#xc5;" horiz-adv-x="1417" 
d="M709 1419q-106 0 -173 62.5t-67 160.5q0 100 67 163t173 63t172.5 -63t66.5 -163q0 -98 -66.5 -160.5t-172.5 -62.5zM709 1571q32 0 52.5 19.5t20.5 51.5q0 34 -20 54t-53 20t-53.5 -20.5t-20.5 -53.5q0 -32 20.5 -51.5t53.5 -19.5zM-23 0l560 1376h346l557 -1376h-375
l-102 279h-506l-103 -279h-377zM553 549h311l-155 420z" />
    <glyph glyph-name="AE" unicode="&#xc6;" horiz-adv-x="2025" 
d="M-86 0l860 1376h1147v-278h-621v-258h555v-271h-555v-290h654v-279h-1014v279h-442l-164 -279h-420zM653 549h287v498z" />
    <glyph glyph-name="Ccedilla" unicode="&#xc7;" horiz-adv-x="1341" 
d="M1315 137q-198 -129 -414 -153l-8 -50q66 -20 104.5 -73t38.5 -125q0 -100 -87 -161.5t-228 -61.5q-116 0 -223 41l57 196q83 -26 129 -26q29 0 47.5 13.5t18.5 35.5q0 21 -24 34t-64 13h-31l31 166q-273 40 -439 231.5t-166 470.5q0 207 93 369.5t261 253t382 90.5
q270 0 522 -162l-150 -248q-166 113 -321 113q-180 0 -292 -115.5t-112 -300.5t112 -300.5t292 -115.5q155 0 321 113z" />
    <glyph glyph-name="Egrave" unicode="&#xc8;" horiz-adv-x="1243" 
d="M737 1423l-432 256l158 226l409 -287zM141 0v1376h998v-278h-623v-258h557v-271h-557v-290h655v-279h-1030z" />
    <glyph glyph-name="Eacute" unicode="&#xc9;" horiz-adv-x="1243" 
d="M575 1423l-135 195l410 287l156 -226zM141 0v1376h998v-278h-623v-258h557v-271h-557v-290h655v-279h-1030z" />
    <glyph glyph-name="Ecircumflex" unicode="&#xca;" horiz-adv-x="1243" 
d="M426 1423l-152 166l261 246h213l260 -246l-152 -166l-215 170zM141 0v1376h998v-278h-623v-258h557v-271h-557v-290h655v-279h-1030z" />
    <glyph glyph-name="Edieresis" unicode="&#xcb;" horiz-adv-x="1243" 
d="M399 1460q-82 0 -132 50t-50 132t50.5 133.5t131.5 51.5q82 0 132.5 -51.5t50.5 -133.5t-50.5 -132t-132.5 -50zM883 1460q-82 0 -132.5 50t-50.5 132t50.5 133.5t132.5 51.5q81 0 131.5 -51.5t50.5 -133.5t-50 -132t-132 -50zM141 0v1376h998v-278h-623v-258h557v-271
h-557v-290h655v-279h-1030z" />
    <glyph glyph-name="Igrave" unicode="&#xcc;" horiz-adv-x="657" 
d="M426 1423l-432 256l158 226l409 -287zM141 0v1376h375v-1376h-375z" />
    <glyph glyph-name="Iacute" unicode="&#xcd;" horiz-adv-x="657" 
d="M264 1423l-135 195l410 287l155 -226zM141 0v1376h375v-1376h-375z" />
    <glyph glyph-name="Icircumflex" unicode="&#xce;" horiz-adv-x="657" 
d="M115 1423l-152 166l260 246h213l260 -246l-151 -166l-215 170zM141 0v1376h375v-1376h-375z" />
    <glyph glyph-name="Idieresis" unicode="&#xcf;" horiz-adv-x="657" 
d="M88 1460q-82 0 -132 50t-50 132t50.5 133.5t131.5 51.5t131.5 -51.5t50.5 -133.5t-50 -132t-132 -50zM571 1460q-82 0 -132 50t-50 132t50.5 133.5t131.5 51.5q82 0 132.5 -51.5t50.5 -133.5t-50.5 -132t-132.5 -50zM141 0v1376h375v-1376h-375z" />
    <glyph glyph-name="Eth" unicode="&#xd0;" horiz-adv-x="1548" 
d="M174 0v569h-139v271h139v536h600q321 0 520 -190.5t199 -497.5q0 -305 -199.5 -496.5t-519.5 -191.5h-600zM535 287h210q166 0 272.5 112t106.5 289t-106.5 289.5t-272.5 112.5h-210v-250h276v-271h-276v-282z" />
    <glyph glyph-name="Ntilde" unicode="&#xd1;" horiz-adv-x="1613" 
d="M637 1489l-211 61q15 113 83 180.5t167 67.5q49 0 95.5 -17t81 -33.5t54.5 -16.5q48 0 70 67l211 -61q-15 -113 -83 -180.5t-167 -67.5q-49 0 -95.5 16.5t-81 33.5t-54.5 17q-54 0 -70 -67zM141 0v1376h361l626 -866v866h345v-1376h-361l-625 866v-866h-346z" />
    <glyph glyph-name="Ograve" unicode="&#xd2;" horiz-adv-x="1613" 
d="M903 1423l-432 256l158 226l409 -287zM807 -25q-163 0 -302.5 53t-238 146.5t-154 226t-55.5 287.5t55.5 287.5t154 226t238 146.5t302.5 53t303 -53t238.5 -146.5t154.5 -226t56 -287.5t-56 -287.5t-154.5 -226t-238.5 -146.5t-303 -53zM807 268q163 0 266 117.5
t103 302.5t-103 302.5t-266 117.5q-162 0 -264.5 -117.5t-102.5 -302.5t102.5 -302.5t264.5 -117.5z" />
    <glyph glyph-name="Oacute" unicode="&#xd3;" horiz-adv-x="1613" 
d="M741 1423l-135 195l410 287l155 -226zM807 -25q-163 0 -302.5 53t-238 146.5t-154 226t-55.5 287.5t55.5 287.5t154 226t238 146.5t302.5 53t303 -53t238.5 -146.5t154.5 -226t56 -287.5t-56 -287.5t-154.5 -226t-238.5 -146.5t-303 -53zM807 268q163 0 266 117.5
t103 302.5t-103 302.5t-266 117.5q-162 0 -264.5 -117.5t-102.5 -302.5t102.5 -302.5t264.5 -117.5z" />
    <glyph glyph-name="Ocircumflex" unicode="&#xd4;" horiz-adv-x="1613" 
d="M592 1423l-152 166l260 246h213l261 -246l-152 -166l-215 170zM807 -25q-163 0 -302.5 53t-238 146.5t-154 226t-55.5 287.5t55.5 287.5t154 226t238 146.5t302.5 53t303 -53t238.5 -146.5t154.5 -226t56 -287.5t-56 -287.5t-154.5 -226t-238.5 -146.5t-303 -53zM807 268
q163 0 266 117.5t103 302.5t-103 302.5t-266 117.5q-162 0 -264.5 -117.5t-102.5 -302.5t102.5 -302.5t264.5 -117.5z" />
    <glyph glyph-name="Otilde" unicode="&#xd5;" horiz-adv-x="1613" 
d="M637 1489l-211 61q15 113 83 180.5t167 67.5q49 0 95.5 -17t81 -33.5t54.5 -16.5q48 0 70 67l211 -61q-15 -113 -83 -180.5t-167 -67.5q-49 0 -95.5 16.5t-81 33.5t-54.5 17q-54 0 -70 -67zM807 -25q-163 0 -302.5 53t-238 146.5t-154 226t-55.5 287.5t55.5 287.5
t154 226t238 146.5t302.5 53t303 -53t238.5 -146.5t154.5 -226t56 -287.5t-56 -287.5t-154.5 -226t-238.5 -146.5t-303 -53zM807 268q163 0 266 117.5t103 302.5t-103 302.5t-266 117.5q-162 0 -264.5 -117.5t-102.5 -302.5t102.5 -302.5t264.5 -117.5z" />
    <glyph glyph-name="Odieresis" unicode="&#xd6;" horiz-adv-x="1613" 
d="M565 1460q-82 0 -132 50t-50 132t50.5 133.5t131.5 51.5q82 0 132.5 -51.5t50.5 -133.5t-50.5 -132t-132.5 -50zM1049 1460q-82 0 -132.5 50t-50.5 132t50.5 133.5t132.5 51.5q81 0 131.5 -51.5t50.5 -133.5t-50 -132t-132 -50zM807 -25q-163 0 -302.5 53t-238 146.5
t-154 226t-55.5 287.5t55.5 287.5t154 226t238 146.5t302.5 53t303 -53t238.5 -146.5t154.5 -226t56 -287.5t-56 -287.5t-154.5 -226t-238.5 -146.5t-303 -53zM807 268q163 0 266 117.5t103 302.5t-103 302.5t-266 117.5q-162 0 -264.5 -117.5t-102.5 -302.5t102.5 -302.5
t264.5 -117.5z" />
    <glyph glyph-name="multiply" unicode="&#xd7;" horiz-adv-x="1179" 
d="M283 72l-211 211l305 307l-305 307l211 211l307 -305l307 305l211 -211l-305 -307l305 -307l-211 -211l-307 305z" />
    <glyph glyph-name="Oslash" unicode="&#xd8;" horiz-adv-x="1613" 
d="M141 -25l138 187q-107 96 -164.5 230.5t-57.5 295.5q0 155 55.5 287.5t153.5 226t237.5 146.5t303.5 53q189 0 346 -74l55 74h267l-142 -189q108 -96 167 -230t59 -294q0 -155 -55.5 -287.5t-154 -226t-238.5 -146.5t-304 -53q-187 0 -348 74l-53 -74h-265zM479 430
l494 655q-73 37 -166 37q-177 0 -287 -121t-110 -313q0 -151 69 -258zM807 254q177 0 287 121t110 313q0 144 -71 258l-492 -657q75 -35 166 -35z" />
    <glyph glyph-name="Ugrave" unicode="&#xd9;" horiz-adv-x="1613" 
d="M903 1423l-432 256l158 226l409 -287zM807 -25q-197 0 -352 72t-242.5 204t-87.5 302v823h375v-809q0 -133 86 -216t221 -83q137 0 222 83t85 216v809h375v-823q0 -170 -87.5 -302t-242.5 -204t-352 -72z" />
    <glyph glyph-name="Uacute" unicode="&#xda;" horiz-adv-x="1613" 
d="M741 1423l-135 195l410 287l155 -226zM807 -25q-197 0 -352 72t-242.5 204t-87.5 302v823h375v-809q0 -133 86 -216t221 -83q137 0 222 83t85 216v809h375v-823q0 -170 -87.5 -302t-242.5 -204t-352 -72z" />
    <glyph glyph-name="Ucircumflex" unicode="&#xdb;" horiz-adv-x="1613" 
d="M592 1423l-152 166l260 246h213l261 -246l-152 -166l-215 170zM807 -25q-197 0 -352 72t-242.5 204t-87.5 302v823h375v-809q0 -133 86 -216t221 -83q137 0 222 83t85 216v809h375v-823q0 -170 -87.5 -302t-242.5 -204t-352 -72z" />
    <glyph glyph-name="Udieresis" unicode="&#xdc;" horiz-adv-x="1613" 
d="M565 1460q-82 0 -132 50t-50 132t50.5 133.5t131.5 51.5q82 0 132.5 -51.5t50.5 -133.5t-50.5 -132t-132.5 -50zM1049 1460q-82 0 -132.5 50t-50.5 132t50.5 133.5t132.5 51.5q81 0 131.5 -51.5t50.5 -133.5t-50 -132t-132 -50zM807 -25q-197 0 -352 72t-242.5 204
t-87.5 302v823h375v-809q0 -133 86 -216t221 -83q137 0 222 83t85 216v809h375v-823q0 -170 -87.5 -302t-242.5 -204t-352 -72z" />
    <glyph glyph-name="Yacute" unicode="&#xdd;" horiz-adv-x="1298" 
d="M584 1423l-135 195l409 287l156 -226zM461 0v532l-500 844h406l282 -512l283 512h405l-499 -844v-532h-377z" />
    <glyph glyph-name="Thorn" unicode="&#xde;" horiz-adv-x="1304" 
d="M141 0v1376h361v-196h248q226 0 370 -133t144 -342t-144 -342.5t-370 -133.5h-248v-229h-361zM502 514h188q92 0 149.5 53.5t57.5 137.5q0 82 -57.5 136t-149.5 54h-188v-381z" />
    <glyph glyph-name="germandbls" unicode="&#xdf;" horiz-adv-x="1331" 
d="M877 -25q-175 0 -351 74l90 256q130 -59 232 -59q46 0 73 17t27 48q0 26 -26 49t-65 39.5t-85 44t-85 60t-65 89.5t-26 130q0 56 21.5 107.5t47 84.5t47 76t21.5 84q0 53 -36 87t-95 34q-65 0 -107 -44.5t-42 -113.5v-1038h-347v1053q0 183 141.5 298t368.5 115
q207 0 342.5 -106t135.5 -270q0 -62 -21.5 -116.5t-47.5 -86.5t-47.5 -68.5t-21.5 -66.5q0 -29 18.5 -52t48 -41t65.5 -37.5t72 -45.5t65.5 -59.5t48 -86.5t18.5 -119q0 -151 -115.5 -243.5t-299.5 -92.5z" />
    <glyph glyph-name="agrave" unicode="&#xe0;" 
d="M664 1081l-433 256l158 226l410 -287zM526 -25q-207 0 -339 149t-132 382q0 235 132 383.5t337 148.5q87 0 167 -30t140 -82l41 88h287v-1014h-287l-45 94q-116 -119 -301 -119zM625 258q79 0 129.5 55t50.5 140v106q0 86 -50.5 141.5t-129.5 55.5q-89 0 -145 -70
t-56 -180q0 -108 55.5 -178t145.5 -70z" />
    <glyph glyph-name="aacute" unicode="&#xe1;" 
d="M502 1081l-135 195l409 287l156 -226zM526 -25q-207 0 -339 149t-132 382q0 235 132 383.5t337 148.5q87 0 167 -30t140 -82l41 88h287v-1014h-287l-45 94q-116 -119 -301 -119zM625 258q79 0 129.5 55t50.5 140v106q0 86 -50.5 141.5t-129.5 55.5q-89 0 -145 -70
t-56 -180q0 -108 55.5 -178t145.5 -70z" />
    <glyph glyph-name="acircumflex" unicode="&#xe2;" 
d="M352 1081l-151 166l260 246h213l260 -246l-152 -166l-215 170zM526 -25q-207 0 -339 149t-132 382q0 235 132 383.5t337 148.5q87 0 167 -30t140 -82l41 88h287v-1014h-287l-45 94q-116 -119 -301 -119zM625 258q79 0 129.5 55t50.5 140v106q0 86 -50.5 141.5
t-129.5 55.5q-89 0 -145 -70t-56 -180q0 -108 55.5 -178t145.5 -70z" />
    <glyph glyph-name="atilde" unicode="&#xe3;" 
d="M397 1126l-211 62q15 113 83 180.5t167 67.5q49 0 96 -17t81.5 -34t54.5 -17q47 0 69 68l211 -62q-15 -113 -83 -180.5t-167 -67.5q-49 0 -95.5 17t-81 34t-54.5 17q-54 0 -70 -68zM526 -25q-207 0 -339 149t-132 382q0 235 132 383.5t337 148.5q87 0 167 -30t140 -82
l41 88h287v-1014h-287l-45 94q-116 -119 -301 -119zM625 258q79 0 129.5 55t50.5 140v106q0 86 -50.5 141.5t-129.5 55.5q-89 0 -145 -70t-56 -180q0 -108 55.5 -178t145.5 -70z" />
    <glyph glyph-name="adieresis" unicode="&#xe4;" 
d="M326 1118q-82 0 -132.5 50t-50.5 132t50.5 133.5t132.5 51.5q81 0 131.5 -51.5t50.5 -133.5t-50 -132t-132 -50zM809 1118q-82 0 -132 50t-50 132t50.5 133.5t131.5 51.5t131.5 -51.5t50.5 -133.5t-50 -132t-132 -50zM526 -25q-207 0 -339 149t-132 382q0 235 132 383.5
t337 148.5q87 0 167 -30t140 -82l41 88h287v-1014h-287l-45 94q-116 -119 -301 -119zM625 258q79 0 129.5 55t50.5 140v106q0 86 -50.5 141.5t-129.5 55.5q-89 0 -145 -70t-56 -180q0 -108 55.5 -178t145.5 -70z" />
    <glyph glyph-name="aring" unicode="&#xe5;" 
d="M567 1098q-106 0 -172.5 62.5t-66.5 160.5q0 100 66.5 162.5t172.5 62.5t173 -62.5t67 -162.5q0 -98 -67 -160.5t-173 -62.5zM567 1249q32 0 53 20t21 52q0 33 -20.5 53.5t-53.5 20.5t-53 -20.5t-20 -53.5q0 -32 20.5 -52t52.5 -20zM526 -25q-207 0 -339 149t-132 382
q0 235 132 383.5t337 148.5q87 0 167 -30t140 -82l41 88h287v-1014h-287l-45 94q-116 -119 -301 -119zM625 258q79 0 129.5 55t50.5 140v106q0 86 -50.5 141.5t-129.5 55.5q-89 0 -145 -70t-56 -180q0 -108 55.5 -178t145.5 -70z" />
    <glyph glyph-name="ae" unicode="&#xe6;" horiz-adv-x="1769" 
d="M457 -25q-177 0 -289.5 90.5t-112.5 233.5q0 164 124.5 256t346.5 92q80 0 174 -16v8q0 59 -49 97t-127 38q-146 0 -327 -74l-91 248q242 90 463 90q97 0 182 -29.5t132 -80.5q137 110 334 110q227 0 370.5 -143.5t143.5 -372.5q0 -47 -7 -108h-694q20 -80 91.5 -127
t172.5 -47q123 0 281 82l106 -242q-209 -105 -424 -105q-244 0 -421 142q-164 -142 -379 -142zM1030 625h354q-8 68 -53 108.5t-114 40.5q-70 0 -121 -40.5t-66 -108.5zM524 223q76 0 126 48t50 122v37q-72 14 -129 14q-80 0 -129 -31.5t-49 -84.5q0 -45 37 -75t94 -30z" />
    <glyph glyph-name="ccedilla" unicode="&#xe7;" horiz-adv-x="1042" 
d="M1034 96q-146 -89 -315 -114l-8 -48q66 -20 104.5 -73t38.5 -125q0 -100 -87 -161.5t-228 -61.5q-117 0 -224 41l58 196q83 -26 129 -26q29 0 47 13.5t18 35.5q0 21 -24 34t-64 13h-30l30 170q-192 40 -308 179.5t-116 336.5q0 233 158 382.5t405 149.5q219 0 416 -123
l-143 -239q-120 76 -221 76q-109 0 -177.5 -68.5t-68.5 -177.5t68.5 -176.5t177.5 -67.5q101 0 221 76z" />
    <glyph glyph-name="egrave" unicode="&#xe8;" horiz-adv-x="1155" 
d="M698 1081l-432 256l158 226l410 -287zM635 -25q-257 0 -418.5 148.5t-161.5 382.5q0 235 153 383.5t394 148.5q227 0 370.5 -143.5t143.5 -372.5q0 -56 -6 -108h-694q20 -80 91.5 -127t172.5 -47q123 0 281 82l106 -242q-225 -105 -432 -105zM416 625h354
q-9 68 -55 108.5t-113 40.5q-70 0 -120.5 -40.5t-65.5 -108.5z" />
    <glyph glyph-name="eacute" unicode="&#xe9;" horiz-adv-x="1155" 
d="M537 1081l-136 195l410 287l156 -226zM635 -25q-257 0 -418.5 148.5t-161.5 382.5q0 235 153 383.5t394 148.5q227 0 370.5 -143.5t143.5 -372.5q0 -56 -6 -108h-694q20 -80 91.5 -127t172.5 -47q123 0 281 82l106 -242q-225 -105 -432 -105zM416 625h354
q-9 68 -55 108.5t-113 40.5q-70 0 -120.5 -40.5t-65.5 -108.5z" />
    <glyph glyph-name="ecircumflex" unicode="&#xea;" horiz-adv-x="1155" 
d="M387 1081l-151 166l260 246h213l260 -246l-152 -166l-215 170zM635 -25q-257 0 -418.5 148.5t-161.5 382.5q0 235 153 383.5t394 148.5q227 0 370.5 -143.5t143.5 -372.5q0 -56 -6 -108h-694q20 -80 91.5 -127t172.5 -47q123 0 281 82l106 -242q-225 -105 -432 -105z
M416 625h354q-9 68 -55 108.5t-113 40.5q-70 0 -120.5 -40.5t-65.5 -108.5z" />
    <glyph glyph-name="edieresis" unicode="&#xeb;" horiz-adv-x="1155" 
d="M360 1118q-82 0 -132 50t-50 132t50.5 133.5t131.5 51.5q82 0 132.5 -51.5t50.5 -133.5t-50.5 -132t-132.5 -50zM844 1118q-82 0 -132 50t-50 132t50.5 133.5t131.5 51.5t131.5 -51.5t50.5 -133.5t-50 -132t-132 -50zM635 -25q-257 0 -418.5 148.5t-161.5 382.5
q0 235 153 383.5t394 148.5q227 0 370.5 -143.5t143.5 -372.5q0 -56 -6 -108h-694q20 -80 91.5 -127t172.5 -47q123 0 281 82l106 -242q-225 -105 -432 -105zM416 625h354q-9 68 -55 108.5t-113 40.5q-70 0 -120.5 -40.5t-65.5 -108.5z" />
    <glyph glyph-name="igrave" unicode="&#xec;" horiz-adv-x="575" 
d="M383 1081l-432 256l158 226l409 -287zM106 0v1014h361v-1014h-361z" />
    <glyph glyph-name="iacute" unicode="&#xed;" horiz-adv-x="575" 
d="M221 1081l-135 195l410 287l155 -226zM106 0v1014h361v-1014h-361z" />
    <glyph glyph-name="icircumflex" unicode="&#xee;" horiz-adv-x="575" 
d="M72 1081l-152 166l260 246h213l260 -246l-151 -166l-215 170zM106 0v1014h361v-1014h-361z" />
    <glyph glyph-name="idieresis" unicode="&#xef;" horiz-adv-x="575" 
d="M45 1118q-82 0 -132 50t-50 132t50.5 133.5t131.5 51.5t131.5 -51.5t50.5 -133.5t-50 -132t-132 -50zM528 1118q-82 0 -132 50t-50 132t50.5 133.5t131.5 51.5q82 0 132.5 -51.5t50.5 -133.5t-50.5 -132t-132.5 -50zM106 0v1014h361v-1014h-361z" />
    <glyph glyph-name="eth" unicode="&#xf0;" 
d="M602 -25q-239 0 -393 147.5t-154 377.5q0 222 140 357.5t362 135.5q102 0 199 -47q-44 103 -148 178l-252 -125l-92 183l111 53q-37 15 -78 27l76 241q176 -37 321 -108l215 108l92 -182l-108 -55q144 -123 222 -286.5t79 -354.5q0 -64 -10 -136q-37 -232 -195 -373
t-387 -141zM616 240q93 0 152 68.5t59 178.5q0 107 -59 174.5t-152 67.5q-92 0 -150 -68.5t-58 -177.5q0 -107 58 -175t150 -68z" />
    <glyph glyph-name="ntilde" unicode="&#xf1;" 
d="M510 1126l-211 62q15 113 83 180.5t167 67.5q49 0 95.5 -17t81 -34t54.5 -17q48 0 70 68l211 -62q-15 -113 -83 -180.5t-167 -67.5q-49 0 -95.5 17t-81 34t-54.5 17q-54 0 -70 -68zM106 0v1014h287l45 -111q126 135 332 135q180 0 293 -111t113 -286v-641h-361v582
q0 70 -45.5 115.5t-114.5 45.5q-83 0 -135.5 -55.5t-52.5 -144.5v-543h-361z" />
    <glyph glyph-name="ograve" unicode="&#xf2;" 
d="M729 1081l-432 256l158 226l409 -287zM633 -25q-254 0 -416 149t-162 382q0 234 162 383t416 149q255 0 416 -148.5t161 -383.5q0 -234 -161 -382.5t-416 -148.5zM633 254q92 0 151.5 71t59.5 181q0 112 -59 183t-152 71q-92 0 -150.5 -71t-58.5 -183q0 -110 58.5 -181
t150.5 -71z" />
    <glyph glyph-name="oacute" unicode="&#xf3;" 
d="M567 1081l-135 195l410 287l155 -226zM633 -25q-254 0 -416 149t-162 382q0 234 162 383t416 149q255 0 416 -148.5t161 -383.5q0 -234 -161 -382.5t-416 -148.5zM633 254q92 0 151.5 71t59.5 181q0 112 -59 183t-152 71q-92 0 -150.5 -71t-58.5 -183q0 -110 58.5 -181
t150.5 -71z" />
    <glyph glyph-name="ocircumflex" unicode="&#xf4;" 
d="M418 1081l-152 166l260 246h213l260 -246l-151 -166l-215 170zM633 -25q-254 0 -416 149t-162 382q0 234 162 383t416 149q255 0 416 -148.5t161 -383.5q0 -234 -161 -382.5t-416 -148.5zM633 254q92 0 151.5 71t59.5 181q0 112 -59 183t-152 71q-92 0 -150.5 -71
t-58.5 -183q0 -110 58.5 -181t150.5 -71z" />
    <glyph glyph-name="otilde" unicode="&#xf5;" 
d="M463 1126l-211 62q15 113 83 180.5t167 67.5q49 0 95.5 -17t81 -34t54.5 -17q48 0 70 68l211 -62q-15 -113 -83 -180.5t-167 -67.5q-49 0 -96 17t-81.5 34t-54.5 17q-53 0 -69 -68zM633 -25q-254 0 -416 149t-162 382q0 234 162 383t416 149q255 0 416 -148.5t161 -383.5
q0 -234 -161 -382.5t-416 -148.5zM633 254q92 0 151.5 71t59.5 181q0 112 -59 183t-152 71q-92 0 -150.5 -71t-58.5 -183q0 -110 58.5 -181t150.5 -71z" />
    <glyph glyph-name="odieresis" unicode="&#xf6;" 
d="M391 1118q-82 0 -132 50t-50 132t50.5 133.5t131.5 51.5t131.5 -51.5t50.5 -133.5t-50 -132t-132 -50zM874 1118q-82 0 -132 50t-50 132t50.5 133.5t131.5 51.5q82 0 132.5 -51.5t50.5 -133.5t-50.5 -132t-132.5 -50zM633 -25q-254 0 -416 149t-162 382q0 234 162 383
t416 149q255 0 416 -148.5t161 -383.5q0 -234 -161 -382.5t-416 -148.5zM633 254q92 0 151.5 71t59.5 181q0 112 -59 183t-152 71q-92 0 -150.5 -71t-58.5 -183q0 -110 58.5 -181t150.5 -71z" />
    <glyph glyph-name="divide" unicode="&#xf7;" horiz-adv-x="1179" 
d="M590 801q-80 0 -131 51.5t-51 130.5t51 130.5t131 51.5q81 0 131.5 -48.5t50.5 -133.5q0 -79 -51 -130.5t-131 -51.5zM72 455v270h1036v-270h-1036zM590 14q-79 0 -130.5 51.5t-51.5 131.5q0 79 51 130.5t131 51.5t131 -51.5t51 -130.5q0 -80 -51.5 -131.5t-130.5 -51.5z
" />
    <glyph glyph-name="oslash" unicode="&#xf8;" 
d="M119 -25l106 140q-170 147 -170 391q0 234 162 383t416 149q128 0 248 -47l34 47h232l-109 -143q172 -148 172 -389q0 -234 -161 -382.5t-416 -148.5q-137 0 -248 48l-35 -48h-231zM422 377l287 383q-44 14 -76 14q-105 0 -172.5 -75t-67.5 -193q0 -69 29 -129zM633 240
q105 0 172 74t67 192q0 71 -28 129l-285 -381q28 -14 74 -14z" />
    <glyph glyph-name="ugrave" unicode="&#xf9;" 
d="M721 1081l-432 256l157 226l410 -287zM496 -25q-179 0 -292.5 110.5t-113.5 287.5v641h361v-582q0 -72 45 -118t116 -46q82 0 134.5 56t52.5 145v545h360v-1014h-287l-45 111q-124 -136 -331 -136z" />
    <glyph glyph-name="uacute" unicode="&#xfa;" 
d="M559 1081l-135 195l410 287l155 -226zM496 -25q-179 0 -292.5 110.5t-113.5 287.5v641h361v-582q0 -72 45 -118t116 -46q82 0 134.5 56t52.5 145v545h360v-1014h-287l-45 111q-124 -136 -331 -136z" />
    <glyph glyph-name="ucircumflex" unicode="&#xfb;" 
d="M410 1081l-152 166l260 246h213l260 -246l-151 -166l-215 170zM496 -25q-179 0 -292.5 110.5t-113.5 287.5v641h361v-582q0 -72 45 -118t116 -46q82 0 134.5 56t52.5 145v545h360v-1014h-287l-45 111q-124 -136 -331 -136z" />
    <glyph glyph-name="udieresis" unicode="&#xfc;" 
d="M383 1118q-82 0 -132 50t-50 132t50.5 133.5t131.5 51.5t131.5 -51.5t50.5 -133.5t-50 -132t-132 -50zM866 1118q-82 0 -132 50t-50 132t50.5 133.5t131.5 51.5q82 0 132.5 -51.5t50.5 -133.5t-50.5 -132t-132.5 -50zM496 -25q-179 0 -292.5 110.5t-113.5 287.5v641h361
v-582q0 -72 45 -118t116 -46q82 0 134.5 56t52.5 145v545h360v-1014h-287l-45 111q-124 -136 -331 -136z" />
    <glyph glyph-name="yacute" unicode="&#xfd;" horiz-adv-x="1134" 
d="M502 1081l-135 195l409 287l156 -226zM254 -451q-80 0 -174 21l45 278q53 -12 92 -12q60 0 100 31.5t68 101.5l18 45l-411 1000h377l198 -608l199 608h377l-432 -1092q-144 -373 -457 -373z" />
    <glyph glyph-name="thorn" unicode="&#xfe;" 
d="M106 -426v1868h361v-500q116 96 272 96q207 0 339 -148.5t132 -383.5q0 -233 -132 -382t-339 -149q-154 0 -272 97v-498h-361zM643 258q88 0 144.5 69.5t56.5 178.5q0 110 -56.5 180t-144.5 70q-81 0 -131.5 -55t-50.5 -142v-106q0 -85 50.5 -140t131.5 -55z" />
    <glyph glyph-name="ydieresis" unicode="&#xff;" horiz-adv-x="1134" 
d="M326 1118q-82 0 -132.5 50t-50.5 132t50.5 133.5t132.5 51.5q81 0 131.5 -51.5t50.5 -133.5t-50 -132t-132 -50zM809 1118q-82 0 -132 50t-50 132t50.5 133.5t131.5 51.5t131.5 -51.5t50.5 -133.5t-50 -132t-132 -50zM254 -451q-80 0 -174 21l45 278q53 -12 92 -12
q60 0 100 31.5t68 101.5l18 45l-411 1000h377l198 -608l199 608h377l-432 -1092q-144 -373 -457 -373z" />
    <glyph glyph-name="Amacron" unicode="&#x100;" horiz-adv-x="1417" 
d="M371 1524v239h676v-239h-676zM-23 0l560 1376h346l557 -1376h-375l-102 279h-506l-103 -279h-377zM553 549h311l-155 420z" />
    <glyph glyph-name="amacron" unicode="&#x101;" 
d="M229 1161v240h676v-240h-676zM526 -25q-207 0 -339 149t-132 382q0 235 132 383.5t337 148.5q87 0 167 -30t140 -82l41 88h287v-1014h-287l-45 94q-116 -119 -301 -119zM625 258q79 0 129.5 55t50.5 140v106q0 86 -50.5 141.5t-129.5 55.5q-89 0 -145 -70t-56 -180
q0 -108 55.5 -178t145.5 -70z" />
    <glyph glyph-name="Abreve" unicode="&#x102;" horiz-adv-x="1417" 
d="M709 1436q-157 0 -259 98t-108 268h227q3 -58 42 -91.5t98 -33.5t97.5 33.5t41.5 91.5h227q-6 -170 -107.5 -268t-258.5 -98zM-23 0l560 1376h346l557 -1376h-375l-102 279h-506l-103 -279h-377zM553 549h311l-155 420z" />
    <glyph glyph-name="abreve" unicode="&#x103;" 
d="M567 1094q-157 0 -258.5 98t-107.5 268h227q3 -58 41.5 -91.5t97.5 -33.5t98 33.5t42 91.5h227q-6 -170 -108 -268t-259 -98zM526 -25q-207 0 -339 149t-132 382q0 235 132 383.5t337 148.5q87 0 167 -30t140 -82l41 88h287v-1014h-287l-45 94q-116 -119 -301 -119z
M625 258q79 0 129.5 55t50.5 140v106q0 86 -50.5 141.5t-129.5 55.5q-89 0 -145 -70t-56 -180q0 -108 55.5 -178t145.5 -70z" />
    <glyph glyph-name="Aogonek" unicode="&#x104;" horiz-adv-x="1419" 
d="M1282 -487q-115 0 -183.5 58t-68.5 157q0 146 168 272h-133l-102 279h-506l-103 -279h-377l560 1376h346l557 -1376q-146 -115 -146 -205q0 -33 22.5 -52t55.5 -19q16 0 62 8l36 -191q-85 -28 -188 -28zM553 549h311l-155 420z" />
    <glyph glyph-name="aogonek" unicode="&#x105;" 
d="M1001 -487q-115 0 -183 58t-68 157q0 149 147 272l-70 94q-116 -119 -301 -119q-207 0 -339 149t-132 382q0 235 132 383.5t337 148.5q87 0 167 -30t140 -82l41 88h287v-1014q-145 -114 -145 -205q0 -33 22.5 -52t55.5 -19q15 0 61 8l37 -191q-85 -28 -189 -28zM625 258
q79 0 129.5 55t50.5 140v106q0 86 -50.5 141.5t-129.5 55.5q-89 0 -145 -70t-56 -180q0 -108 55.5 -178t145.5 -70z" />
    <glyph glyph-name="Cacute" unicode="&#x106;" horiz-adv-x="1341" 
d="M702 1423l-135 195l410 287l156 -226zM793 -25q-214 0 -382 91t-261 253.5t-93 368.5q0 207 93 369.5t261 253t382 90.5q270 0 522 -162l-150 -248q-166 113 -321 113q-180 0 -292 -115.5t-112 -300.5t112 -300.5t292 -115.5q155 0 321 113l150 -248q-252 -162 -522 -162
z" />
    <glyph glyph-name="cacute" unicode="&#x107;" horiz-adv-x="1042" 
d="M522 1081l-135 195l410 287l155 -226zM618 -25q-247 0 -405 149.5t-158 381.5q0 233 158 382.5t405 149.5q219 0 416 -123l-143 -239q-120 76 -221 76q-109 0 -177.5 -68.5t-68.5 -177.5t68.5 -176.5t177.5 -67.5q101 0 221 76l143 -242q-198 -121 -416 -121z" />
    <glyph glyph-name="Ccircumflex" unicode="&#x108;" horiz-adv-x="1341" 
d="M553 1423l-152 166l261 246h212l261 -246l-152 -166l-215 170zM793 -25q-214 0 -382 91t-261 253.5t-93 368.5q0 207 93 369.5t261 253t382 90.5q270 0 522 -162l-150 -248q-166 113 -321 113q-180 0 -292 -115.5t-112 -300.5t112 -300.5t292 -115.5q155 0 321 113
l150 -248q-252 -162 -522 -162z" />
    <glyph glyph-name="ccircumflex" unicode="&#x109;" horiz-adv-x="1042" 
d="M373 1081l-152 166l260 246h213l260 -246l-151 -166l-215 170zM618 -25q-247 0 -405 149.5t-158 381.5q0 233 158 382.5t405 149.5q219 0 416 -123l-143 -239q-120 76 -221 76q-109 0 -177.5 -68.5t-68.5 -177.5t68.5 -176.5t177.5 -67.5q101 0 221 76l143 -242
q-198 -121 -416 -121z" />
    <glyph glyph-name="Cdotaccent" unicode="&#x10a;" horiz-adv-x="1341" 
d="M768 1446q-88 0 -143.5 55t-55.5 141q0 88 55.5 143.5t143.5 55.5t143.5 -55.5t55.5 -143.5q0 -86 -55.5 -141t-143.5 -55zM793 -25q-214 0 -382 91t-261 253.5t-93 368.5q0 207 93 369.5t261 253t382 90.5q270 0 522 -162l-150 -248q-166 113 -321 113
q-180 0 -292 -115.5t-112 -300.5t112 -300.5t292 -115.5q155 0 321 113l150 -248q-252 -162 -522 -162z" />
    <glyph glyph-name="cdotaccent" unicode="&#x10b;" horiz-adv-x="1042" 
d="M588 1104q-88 0 -143.5 55t-55.5 141q0 88 55.5 143.5t143.5 55.5t143 -55.5t55 -143.5q0 -86 -55 -141t-143 -55zM618 -25q-247 0 -405 149.5t-158 381.5q0 233 158 382.5t405 149.5q219 0 416 -123l-143 -239q-120 76 -221 76q-109 0 -177.5 -68.5t-68.5 -177.5
t68.5 -176.5t177.5 -67.5q101 0 221 76l143 -242q-198 -121 -416 -121z" />
    <glyph glyph-name="Ccaron" unicode="&#x10c;" horiz-adv-x="1341" 
d="M662 1452l-261 246l152 166l215 -170l215 170l152 -166l-261 -246h-212zM793 -25q-214 0 -382 91t-261 253.5t-93 368.5q0 207 93 369.5t261 253t382 90.5q270 0 522 -162l-150 -248q-166 113 -321 113q-180 0 -292 -115.5t-112 -300.5t112 -300.5t292 -115.5
q155 0 321 113l150 -248q-252 -162 -522 -162z" />
    <glyph glyph-name="ccaron" unicode="&#x10d;" horiz-adv-x="1042" 
d="M481 1110l-260 246l152 166l215 -170l215 170l151 -166l-260 -246h-213zM618 -25q-247 0 -405 149.5t-158 381.5q0 233 158 382.5t405 149.5q219 0 416 -123l-143 -239q-120 76 -221 76q-109 0 -177.5 -68.5t-68.5 -177.5t68.5 -176.5t177.5 -67.5q101 0 221 76l143 -242
q-198 -121 -416 -121z" />
    <glyph glyph-name="Dcaron" unicode="&#x10e;" horiz-adv-x="1515" 
d="M618 1452l-260 246l152 166l215 -170l215 170l152 -166l-261 -246h-213zM141 0v1376h600q321 0 520 -190.5t199 -497.5q0 -305 -199.5 -496.5t-519.5 -191.5h-600zM516 287h180q167 0 274 112t107 289t-107 289.5t-274 112.5h-180v-803z" />
    <glyph glyph-name="dcaron" unicode="&#x10f;" horiz-adv-x="1486" 
d="M1423 1069l-233 78l131 395l256 -88zM526 -25q-207 0 -339 149t-132 382q0 235 132 383.5t339 148.5q157 0 273 -96v500h360v-1442h-287l-45 94q-116 -119 -301 -119zM623 258q81 0 131.5 55t50.5 140v106q0 87 -50.5 142t-131.5 55q-88 0 -143.5 -70t-55.5 -180
q0 -109 55.5 -178.5t143.5 -69.5z" />
    <glyph glyph-name="Dcroat" unicode="&#x110;" horiz-adv-x="1548" 
d="M174 0v569h-139v271h139v536h600q321 0 520 -190.5t199 -497.5q0 -305 -199.5 -496.5t-519.5 -191.5h-600zM535 287h210q166 0 272.5 112t106.5 289t-106.5 289.5t-272.5 112.5h-210v-250h276v-271h-276v-282z" />
    <glyph glyph-name="dcroat" unicode="&#x111;" 
d="M526 -25q-207 0 -339 149t-132 382q0 235 132 383.5t339 148.5q157 0 273 -96v152h-305v241h305v107h360v-107h105v-241h-105v-1094h-287l-45 94q-116 -119 -301 -119zM623 258q81 0 131.5 55t50.5 140v106q0 87 -50.5 142t-131.5 55q-88 0 -143.5 -70t-55.5 -180
q0 -109 55.5 -178.5t143.5 -69.5z" />
    <glyph glyph-name="Emacron" unicode="&#x112;" horiz-adv-x="1243" 
d="M303 1524v239h676v-239h-676zM141 0v1376h998v-278h-623v-258h557v-271h-557v-290h655v-279h-1030z" />
    <glyph glyph-name="emacron" unicode="&#x113;" horiz-adv-x="1155" 
d="M264 1161v240h676v-240h-676zM635 -25q-257 0 -418.5 148.5t-161.5 382.5q0 235 153 383.5t394 148.5q227 0 370.5 -143.5t143.5 -372.5q0 -56 -6 -108h-694q20 -80 91.5 -127t172.5 -47q123 0 281 82l106 -242q-225 -105 -432 -105zM416 625h354q-9 68 -55 108.5
t-113 40.5q-70 0 -120.5 -40.5t-65.5 -108.5z" />
    <glyph glyph-name="Ebreve" unicode="&#x114;" horiz-adv-x="1243" 
d="M641 1436q-157 0 -259 98t-108 268h228q3 -58 41.5 -91.5t97.5 -33.5t97.5 33.5t41.5 91.5h228q-6 -170 -108 -268t-259 -98zM141 0v1376h998v-278h-623v-258h557v-271h-557v-290h655v-279h-1030z" />
    <glyph glyph-name="ebreve" unicode="&#x115;" horiz-adv-x="1155" 
d="M602 1094q-157 0 -258.5 98t-107.5 268h227q3 -58 41.5 -91.5t97.5 -33.5t97.5 33.5t41.5 91.5h228q-6 -170 -108 -268t-259 -98zM635 -25q-257 0 -418.5 148.5t-161.5 382.5q0 235 153 383.5t394 148.5q227 0 370.5 -143.5t143.5 -372.5q0 -56 -6 -108h-694
q20 -80 91.5 -127t172.5 -47q123 0 281 82l106 -242q-225 -105 -432 -105zM416 625h354q-9 68 -55 108.5t-113 40.5q-70 0 -120.5 -40.5t-65.5 -108.5z" />
    <glyph glyph-name="Edotaccent" unicode="&#x116;" horiz-adv-x="1243" 
d="M641 1446q-88 0 -143.5 55t-55.5 141q0 88 55.5 143.5t143.5 55.5t143.5 -55.5t55.5 -143.5q0 -86 -55.5 -141t-143.5 -55zM141 0v1376h998v-278h-623v-258h557v-271h-557v-290h655v-279h-1030z" />
    <glyph glyph-name="edotaccent" unicode="&#x117;" horiz-adv-x="1155" 
d="M602 1104q-88 0 -143.5 55t-55.5 141q0 88 55.5 143.5t143.5 55.5t143.5 -55.5t55.5 -143.5q0 -86 -55.5 -141t-143.5 -55zM635 -25q-257 0 -418.5 148.5t-161.5 382.5q0 235 153 383.5t394 148.5q227 0 370.5 -143.5t143.5 -372.5q0 -56 -6 -108h-694q20 -80 91.5 -127
t172.5 -47q123 0 281 82l106 -242q-225 -105 -432 -105zM416 625h354q-9 68 -55 108.5t-113 40.5q-70 0 -120.5 -40.5t-65.5 -108.5z" />
    <glyph glyph-name="Eogonek" unicode="&#x118;" horiz-adv-x="1243" 
d="M1014 -487q-115 0 -183.5 58t-68.5 157q0 146 168 272h-789v1376h998v-278h-623v-258h557v-271h-557v-290h655v-279q-145 -114 -145 -205q0 -33 22.5 -52t55.5 -19q15 0 61 8l37 -191q-85 -28 -188 -28z" />
    <glyph glyph-name="eogonek" unicode="&#x119;" horiz-adv-x="1155" 
d="M879 -487q-115 0 -184.5 60.5t-69.5 162.5q0 137 123 248q-88 -9 -113 -9q-257 0 -418.5 148.5t-161.5 382.5q0 235 153 383.5t394 148.5q227 0 370.5 -143.5t143.5 -372.5q0 -56 -6 -108h-694q20 -80 91.5 -127t172.5 -47q123 0 281 82l106 -242q-178 -146 -178 -268
q0 -40 22.5 -64t55.5 -24q21 0 53 8l47 -187q-85 -32 -188 -32zM416 625h354q-9 68 -55 108.5t-113 40.5q-70 0 -120.5 -40.5t-65.5 -108.5z" />
    <glyph glyph-name="Ecaron" unicode="&#x11a;" horiz-adv-x="1243" 
d="M535 1452l-261 246l152 166l215 -170l215 170l152 -166l-260 -246h-213zM141 0v1376h998v-278h-623v-258h557v-271h-557v-290h655v-279h-1030z" />
    <glyph glyph-name="ecaron" unicode="&#x11b;" horiz-adv-x="1155" 
d="M496 1110l-260 246l151 166l215 -170l215 170l152 -166l-260 -246h-213zM635 -25q-257 0 -418.5 148.5t-161.5 382.5q0 235 153 383.5t394 148.5q227 0 370.5 -143.5t143.5 -372.5q0 -56 -6 -108h-694q20 -80 91.5 -127t172.5 -47q123 0 281 82l106 -242
q-225 -105 -432 -105zM416 625h354q-9 68 -55 108.5t-113 40.5q-70 0 -120.5 -40.5t-65.5 -108.5z" />
    <glyph glyph-name="Gcircumflex" unicode="&#x11c;" horiz-adv-x="1482" 
d="M586 1423l-152 166l260 246h213l260 -246l-151 -166l-215 170zM825 -25q-223 0 -398 90.5t-272.5 253t-97.5 369.5q0 155 56 287.5t154.5 226t238.5 146.5t303 53q265 0 539 -146l-136 -249q-208 108 -358 108q-190 0 -310 -119t-120 -307q0 -191 119.5 -308.5
t310.5 -117.5q95 0 180 31v239h-274v273h618v-709q-290 -121 -553 -121z" />
    <glyph glyph-name="gcircumflex" unicode="&#x11d;" 
d="M418 1081l-152 166l260 246h213l260 -246l-151 -166l-215 170zM569 -451q-225 0 -463 97l99 264q183 -82 334 -82q116 0 188 58.5t72 152.5v33q-118 -97 -273 -97q-207 0 -339 149t-132 382q0 235 132 383.5t339 148.5q183 0 301 -118l45 94h287v-961q0 -219 -167 -361.5
t-423 -142.5zM623 258q81 0 131.5 55t50.5 140v106q0 87 -50.5 142t-131.5 55q-88 0 -143.5 -70t-55.5 -180q0 -109 55.5 -178.5t143.5 -69.5z" />
    <glyph glyph-name="Gbreve" unicode="&#x11e;" horiz-adv-x="1482" 
d="M801 1436q-157 0 -259 98t-108 268h228q3 -58 41.5 -91.5t97.5 -33.5t97.5 33.5t41.5 91.5h227q-6 -170 -107.5 -268t-258.5 -98zM825 -25q-223 0 -398 90.5t-272.5 253t-97.5 369.5q0 155 56 287.5t154.5 226t238.5 146.5t303 53q265 0 539 -146l-136 -249
q-208 108 -358 108q-190 0 -310 -119t-120 -307q0 -191 119.5 -308.5t310.5 -117.5q95 0 180 31v239h-274v273h618v-709q-290 -121 -553 -121z" />
    <glyph glyph-name="gbreve" unicode="&#x11f;" 
d="M633 1094q-157 0 -259 98t-108 268h228q3 -58 41.5 -91.5t97.5 -33.5t97.5 33.5t41.5 91.5h227q-6 -170 -107.5 -268t-258.5 -98zM569 -451q-225 0 -463 97l99 264q183 -82 334 -82q116 0 188 58.5t72 152.5v33q-118 -97 -273 -97q-207 0 -339 149t-132 382
q0 235 132 383.5t339 148.5q183 0 301 -118l45 94h287v-961q0 -219 -167 -361.5t-423 -142.5zM623 258q81 0 131.5 55t50.5 140v106q0 87 -50.5 142t-131.5 55q-88 0 -143.5 -70t-55.5 -180q0 -109 55.5 -178.5t143.5 -69.5z" />
    <glyph glyph-name="Gdotaccent" unicode="&#x120;" horiz-adv-x="1482" 
d="M801 1446q-88 0 -143.5 55t-55.5 141q0 88 55.5 143.5t143.5 55.5t143 -55.5t55 -143.5q0 -86 -55 -141t-143 -55zM825 -25q-223 0 -398 90.5t-272.5 253t-97.5 369.5q0 155 56 287.5t154.5 226t238.5 146.5t303 53q265 0 539 -146l-136 -249q-208 108 -358 108
q-190 0 -310 -119t-120 -307q0 -191 119.5 -308.5t310.5 -117.5q95 0 180 31v239h-274v273h618v-709q-290 -121 -553 -121z" />
    <glyph glyph-name="gdotaccent" unicode="&#x121;" 
d="M633 1104q-88 0 -143.5 55t-55.5 141q0 88 55.5 143.5t143.5 55.5t143 -55.5t55 -143.5q0 -86 -55 -141t-143 -55zM569 -451q-225 0 -463 97l99 264q183 -82 334 -82q116 0 188 58.5t72 152.5v33q-118 -97 -273 -97q-207 0 -339 149t-132 382q0 235 132 383.5t339 148.5
q183 0 301 -118l45 94h287v-961q0 -219 -167 -361.5t-423 -142.5zM623 258q81 0 131.5 55t50.5 140v106q0 87 -50.5 142t-131.5 55q-88 0 -143.5 -70t-55.5 -180q0 -109 55.5 -178.5t143.5 -69.5z" />
    <glyph glyph-name="Gcommaaccent" unicode="&#x122;" horiz-adv-x="1482" 
d="M825 -25q-223 0 -398 90.5t-272.5 253t-97.5 369.5q0 155 56 287.5t154.5 226t238.5 146.5t303 53q265 0 539 -146l-136 -249q-208 108 -358 108q-190 0 -310 -119t-120 -307q0 -191 119.5 -308.5t310.5 -117.5q95 0 180 31v239h-274v273h618v-709q-290 -121 -553 -121z
M733 -657l-92 120q81 72 117 142q-61 1 -100.5 46t-39.5 107q0 82 50.5 132.5t132.5 50.5q81 0 132.5 -58t51.5 -145q0 -119 -65.5 -222.5t-186.5 -172.5z" />
    <glyph glyph-name="gcommaaccent" unicode="&#x123;" 
d="M633 1073q-81 0 -132.5 57.5t-51.5 143.5q0 120 65 223.5t186 173.5l93 -121q-79 -70 -117 -141q61 -6 100 -50.5t39 -103.5q0 -82 -50 -132t-132 -50zM569 -451q-225 0 -463 97l99 264q183 -82 334 -82q116 0 188 58.5t72 152.5v33q-118 -97 -273 -97q-207 0 -339 149
t-132 382q0 235 132 383.5t339 148.5q183 0 301 -118l45 94h287v-961q0 -219 -167 -361.5t-423 -142.5zM623 258q81 0 131.5 55t50.5 140v106q0 87 -50.5 142t-131.5 55q-88 0 -143.5 -70t-55.5 -180q0 -109 55.5 -178.5t143.5 -69.5z" />
    <glyph glyph-name="Hcircumflex" unicode="&#x124;" horiz-adv-x="1613" 
d="M592 1423l-152 166l260 246h213l261 -246l-152 -166l-215 170zM141 0v1376h375v-528h582v528h375v-1376h-375v561h-582v-561h-375z" />
    <glyph glyph-name="hcircumflex" unicode="&#x125;" 
d="M72 1489l-152 166l260 246h213l260 -246l-151 -166l-215 170zM106 0v1442h361v-516q121 112 303 112q180 0 293 -111t113 -286v-641h-361v582q0 70 -45.5 115.5t-114.5 45.5q-83 0 -135.5 -55.5t-52.5 -144.5v-543h-361z" />
    <glyph glyph-name="Hbar" unicode="&#x126;" horiz-adv-x="1613" 
d="M141 0v995h-106v242h106v139h375v-139h582v139h375v-139h106v-242h-106v-995h-375v561h-582v-561h-375zM516 848h582v147h-582v-147z" />
    <glyph glyph-name="hbar" unicode="&#x127;" 
d="M106 0v1094h-104v241h104v107h361v-107h305v-241h-305v-168q121 112 303 112q180 0 293 -111t113 -286v-641h-361v582q0 70 -45.5 115.5t-114.5 45.5q-83 0 -135.5 -55.5t-52.5 -144.5v-543h-361z" />
    <glyph glyph-name="Itilde" unicode="&#x128;" horiz-adv-x="657" 
d="M160 1489l-211 61q15 113 83 180.5t167 67.5q49 0 95.5 -17t81 -33.5t54.5 -16.5q48 0 70 67l211 -61q-15 -113 -83 -180.5t-167 -67.5q-49 0 -96 16.5t-81.5 33.5t-54.5 17q-53 0 -69 -67zM141 0v1376h375v-1376h-375z" />
    <glyph glyph-name="itilde" unicode="&#x129;" horiz-adv-x="575" 
d="M117 1126l-211 62q15 113 83 180.5t167 67.5q49 0 95.5 -17t81 -34t54.5 -17q48 0 70 68l211 -62q-15 -113 -83 -180.5t-167 -67.5q-49 0 -96 17t-81.5 34t-54.5 17q-53 0 -69 -68zM106 0v1014h361v-1014h-361z" />
    <glyph glyph-name="Imacron" unicode="&#x12a;" horiz-adv-x="657" 
d="M-8 1524v239h676v-239h-676zM141 0v1376h375v-1376h-375z" />
    <glyph glyph-name="imacron" unicode="&#x12b;" horiz-adv-x="575" 
d="M-51 1161v240h676v-240h-676zM106 0v1014h361v-1014h-361z" />
    <glyph glyph-name="Ibreve" unicode="&#x12c;" horiz-adv-x="657" 
d="M330 1436q-157 0 -259 98t-108 268h227q3 -58 42 -91.5t98 -33.5t97.5 33.5t41.5 91.5h227q-6 -170 -107.5 -268t-258.5 -98zM141 0v1376h375v-1376h-375z" />
    <glyph glyph-name="ibreve" unicode="&#x12d;" horiz-adv-x="575" 
d="M287 1094q-157 0 -259 98t-108 268h227q3 -58 42 -91.5t98 -33.5t97.5 33.5t41.5 91.5h227q-6 -170 -107.5 -268t-258.5 -98zM106 0v1014h361v-1014h-361z" />
    <glyph glyph-name="Iogonek" unicode="&#x12e;" horiz-adv-x="657" 
d="M358 -487q-115 0 -183.5 58t-68.5 157q0 146 168 272h-133v1376h375v-1376q-145 -114 -145 -205q0 -33 22.5 -52t55.5 -19q15 0 61 8l37 -191q-85 -28 -189 -28z" />
    <glyph glyph-name="iogonek" unicode="&#x12f;" horiz-adv-x="575" 
d="M287 1075q-89 0 -147 58t-58 147q0 91 58 149t147 58q91 0 149 -58t58 -149q0 -89 -58 -147t-149 -58zM309 -487q-115 0 -183.5 58t-68.5 157q0 146 168 272h-119v1014h361v-1014q-145 -114 -145 -205q0 -33 22 -52t55 -19q16 0 62 8l37 -191q-85 -28 -189 -28z" />
    <glyph glyph-name="Idotaccent" unicode="&#x130;" horiz-adv-x="657" 
d="M330 1446q-88 0 -143.5 55t-55.5 141q0 88 55.5 143.5t143.5 55.5t143 -55.5t55 -143.5q0 -86 -55 -141t-143 -55zM141 0v1376h375v-1376h-375z" />
    <glyph glyph-name="dotlessi" unicode="&#x131;" horiz-adv-x="575" 
d="M106 0v1014h361v-1014h-361z" />
    <glyph glyph-name="IJ" unicode="&#x132;" horiz-adv-x="1601" 
d="M141 0v1376h375v-1376h-375zM991 -25q-153 0 -313 41l45 285q112 -25 178 -25q80 0 132 51.5t52 133.5v915h375v-952q0 -201 -130 -325t-339 -124z" />
    <glyph glyph-name="ij" unicode="&#x133;" horiz-adv-x="1167" 
d="M287 1075q-89 0 -147 58t-58 147q0 91 58 149t147 58q91 0 149 -58t58 -149q0 -89 -58 -147t-149 -58zM879 1075q-89 0 -147 58t-58 147q0 91 58 149t147 58q91 0 148.5 -58t57.5 -149q0 -90 -57.5 -147.5t-148.5 -57.5zM106 0v1014h361v-1014h-361zM680 -451
q-122 0 -254 33l45 266q67 -12 119 -12q51 0 79.5 29t28.5 80v1069h361v-1106q0 -161 -104.5 -260t-274.5 -99z" />
    <glyph glyph-name="Jcircumflex" unicode="&#x134;" horiz-adv-x="944" 
d="M399 1423l-151 166l260 246h213l260 -246l-152 -166l-215 170zM334 -25q-154 0 -314 41l46 285q113 -25 178 -25q80 0 132 51.5t52 133.5v915h375v-952q0 -201 -130 -325t-339 -124z" />
    <glyph glyph-name="jcircumflex" unicode="&#x135;" horiz-adv-x="591" 
d="M88 1081l-151 166l260 246h213l260 -246l-152 -166l-215 170zM104 -451q-122 0 -254 33l46 266q68 -12 118 -12q51 0 80 29t29 80v1069h360v-1106q0 -161 -104.5 -260t-274.5 -99z" />
    <glyph glyph-name="Kcommaaccent" unicode="&#x136;" horiz-adv-x="1429" 
d="M141 0v1376h361v-581l508 581h430l-586 -643l610 -733h-436l-424 514l-102 -111v-403h-361zM664 -657l-93 120q81 72 117 142q-60 1 -99.5 45.5t-39.5 107.5q0 82 50 132.5t132 50.5q81 0 132.5 -58t51.5 -145q0 -119 -65 -223t-186 -172z" />
    <glyph glyph-name="kcommaaccent" unicode="&#x137;" horiz-adv-x="1132" 
d="M106 0v1442h347v-795l292 367h406l-416 -475l432 -539h-413l-250 328l-51 -56v-272h-347zM498 -657l-92 120q79 70 116 142q-60 1 -99.5 45.5t-39.5 107.5q0 82 50 132.5t132 50.5q81 0 133 -58t52 -145q0 -119 -65.5 -222.5t-186.5 -172.5z" />
    <glyph glyph-name="kgreenlandic" unicode="&#x138;" horiz-adv-x="1132" 
d="M106 0v1014h347v-367l292 367h406l-416 -475l432 -539h-413l-250 328l-51 -56v-272h-347z" />
    <glyph glyph-name="Lacute" unicode="&#x139;" horiz-adv-x="1112" 
d="M264 1423l-135 195l410 287l155 -226zM141 0v1376h375v-1089h559v-287h-934z" />
    <glyph glyph-name="lacute" unicode="&#x13a;" horiz-adv-x="673" 
d="M221 1489l-135 194l410 287l155 -225zM459 -25q-162 0 -257.5 89.5t-95.5 240.5v1137h361v-1100q0 -37 22.5 -58.5t59.5 -21.5q26 0 84 8l37 -270q-116 -25 -211 -25z" />
    <glyph glyph-name="Lcommaaccent" unicode="&#x13b;" horiz-adv-x="1112" 
d="M141 0v1376h375v-1089h559v-287h-934zM553 -657l-92 120q81 72 117 142q-61 1 -100.5 46t-39.5 107q0 82 50.5 132.5t132.5 50.5q81 0 132.5 -58t51.5 -145q0 -119 -65.5 -222.5t-186.5 -172.5z" />
    <glyph glyph-name="lcommaaccent" unicode="&#x13c;" horiz-adv-x="673" 
d="M459 -25q-162 0 -257.5 89.5t-95.5 240.5v1137h361v-1100q0 -37 22.5 -58.5t59.5 -21.5q26 0 84 8l37 -270q-116 -25 -211 -25zM305 -657l-92 120q81 72 117 142q-61 1 -100.5 46t-39.5 107q0 82 50.5 132.5t132.5 50.5q81 0 132.5 -58t51.5 -145q0 -119 -65.5 -222.5
t-186.5 -172.5z" />
    <glyph glyph-name="Lcaron" unicode="&#x13d;" horiz-adv-x="1112" 
d="M831 1004l-233 77l131 396l256 -88zM141 0v1376h375v-1089h559v-287h-934z" />
    <glyph glyph-name="lcaron" unicode="&#x13e;" horiz-adv-x="643" 
d="M750 1069l-234 78l131 395l256 -88zM459 -25q-162 0 -257.5 89.5t-95.5 240.5v1137h361v-1100q0 -37 22.5 -58.5t59.5 -21.5q26 0 84 8l37 -270q-116 -25 -211 -25z" />
    <glyph glyph-name="Ldot" unicode="&#x13f;" horiz-adv-x="1144" 
d="M141 0v1376h375v-1089h559v-287h-934zM901 539q-88 0 -143.5 55t-55.5 141q0 88 55.5 143.5t143.5 55.5t143.5 -55.5t55.5 -143.5q0 -86 -55.5 -141t-143.5 -55z" />
    <glyph glyph-name="ldot" unicode="&#x140;" horiz-adv-x="886" 
d="M459 -25q-162 0 -257.5 89.5t-95.5 240.5v1137h361v-1100q0 -37 22.5 -58.5t59.5 -21.5q26 0 84 8l37 -270q-116 -25 -211 -25zM731 508q-88 0 -143.5 55.5t-55.5 141.5q0 88 55.5 143t143.5 55t143.5 -55t55.5 -143q0 -86 -55.5 -141.5t-143.5 -55.5z" />
    <glyph glyph-name="Lslash" unicode="&#x141;" horiz-adv-x="1144" 
d="M174 0v465l-78 -39l-112 215l190 96v639h375v-450l180 90l115 -215l-295 -148v-366h559v-287h-934z" />
    <glyph glyph-name="lslash" unicode="&#x142;" horiz-adv-x="739" 
d="M475 -25q-156 0 -254 92.5t-98 237.5v199l-90 -45l-113 213l203 102v668h360v-488l125 62l113 -213l-238 -119v-342q0 -37 22.5 -58.5t59.5 -21.5q26 0 84 8l37 -270q-116 -25 -211 -25z" />
    <glyph glyph-name="Nacute" unicode="&#x143;" horiz-adv-x="1613" 
d="M741 1423l-135 195l410 287l155 -226zM141 0v1376h361l626 -866v866h345v-1376h-361l-625 866v-866h-346z" />
    <glyph glyph-name="nacute" unicode="&#x144;" 
d="M614 1081l-135 195l410 287l155 -226zM106 0v1014h287l45 -111q126 135 332 135q180 0 293 -111t113 -286v-641h-361v582q0 70 -45.5 115.5t-114.5 45.5q-83 0 -135.5 -55.5t-52.5 -144.5v-543h-361z" />
    <glyph glyph-name="Ncommaaccent" unicode="&#x145;" horiz-adv-x="1613" 
d="M141 0v1376h361l626 -866v866h345v-1376h-361l-625 866v-866h-346zM737 -657l-92 120q81 72 117 142q-60 1 -99.5 45.5t-39.5 107.5q0 82 50 132.5t132 50.5q81 0 132.5 -58t51.5 -145q0 -119 -65.5 -222.5t-186.5 -172.5z" />
    <glyph glyph-name="ncommaaccent" unicode="&#x146;" 
d="M106 0v1014h287l45 -111q126 135 332 135q180 0 293 -111t113 -286v-641h-361v582q0 70 -45.5 115.5t-114.5 45.5q-83 0 -135.5 -55.5t-52.5 -144.5v-543h-361zM569 -657l-92 120q81 72 117 142q-60 1 -99.5 45.5t-39.5 107.5q0 82 50 132.5t132 50.5q81 0 132.5 -58
t51.5 -145q0 -119 -65.5 -222.5t-186.5 -172.5z" />
    <glyph glyph-name="Ncaron" unicode="&#x147;" horiz-adv-x="1613" 
d="M700 1452l-260 246l152 166l215 -170l215 170l152 -166l-261 -246h-213zM141 0v1376h361l626 -866v866h345v-1376h-361l-625 866v-866h-346z" />
    <glyph glyph-name="ncaron" unicode="&#x148;" 
d="M573 1110l-260 246l152 166l215 -170l215 170l152 -166l-261 -246h-213zM106 0v1014h287l45 -111q126 135 332 135q180 0 293 -111t113 -286v-641h-361v582q0 70 -45.5 115.5t-114.5 45.5q-83 0 -135.5 -55.5t-52.5 -144.5v-543h-361z" />
    <glyph glyph-name="Eng" unicode="&#x14a;" horiz-adv-x="1613" 
d="M1004 -451q-154 0 -314 41l47 285q125 -25 199 -25q75 0 125.5 38t50.5 94v18l-625 866v-866h-346v1376h361l626 -866v866h345v-1378q0 -201 -130 -325t-339 -124z" />
    <glyph glyph-name="eng" unicode="&#x14b;" 
d="M795 -451q-123 0 -252 33l45 266q64 -12 119 -12q51 0 79.5 29t28.5 80v635q0 72 -45.5 117.5t-114.5 45.5q-83 0 -135.5 -53.5t-52.5 -138.5v-551h-361v1014h287l45 -111q126 135 332 135q180 0 293 -111t113 -288v-731q0 -161 -105.5 -260t-275.5 -99z" />
    <glyph glyph-name="Omacron" unicode="&#x14c;" horiz-adv-x="1613" 
d="M469 1524v239h676v-239h-676zM807 -25q-163 0 -302.5 53t-238 146.5t-154 226t-55.5 287.5t55.5 287.5t154 226t238 146.5t302.5 53t303 -53t238.5 -146.5t154.5 -226t56 -287.5t-56 -287.5t-154.5 -226t-238.5 -146.5t-303 -53zM807 268q163 0 266 117.5t103 302.5
t-103 302.5t-266 117.5q-162 0 -264.5 -117.5t-102.5 -302.5t102.5 -302.5t264.5 -117.5z" />
    <glyph glyph-name="omacron" unicode="&#x14d;" 
d="M295 1161v240h676v-240h-676zM633 -25q-254 0 -416 149t-162 382q0 234 162 383t416 149q255 0 416 -148.5t161 -383.5q0 -234 -161 -382.5t-416 -148.5zM633 254q92 0 151.5 71t59.5 181q0 112 -59 183t-152 71q-92 0 -150.5 -71t-58.5 -183q0 -110 58.5 -181t150.5 -71
z" />
    <glyph glyph-name="Obreve" unicode="&#x14e;" horiz-adv-x="1613" 
d="M807 1436q-157 0 -259 98t-108 268h228q3 -58 41.5 -91.5t97.5 -33.5t97.5 33.5t41.5 91.5h228q-6 -170 -108 -268t-259 -98zM807 -25q-163 0 -302.5 53t-238 146.5t-154 226t-55.5 287.5t55.5 287.5t154 226t238 146.5t302.5 53t303 -53t238.5 -146.5t154.5 -226
t56 -287.5t-56 -287.5t-154.5 -226t-238.5 -146.5t-303 -53zM807 268q163 0 266 117.5t103 302.5t-103 302.5t-266 117.5q-162 0 -264.5 -117.5t-102.5 -302.5t102.5 -302.5t264.5 -117.5z" />
    <glyph glyph-name="obreve" unicode="&#x14f;" 
d="M633 1094q-157 0 -259 98t-108 268h228q3 -58 41.5 -91.5t97.5 -33.5t97.5 33.5t41.5 91.5h227q-6 -170 -107.5 -268t-258.5 -98zM633 -25q-254 0 -416 149t-162 382q0 234 162 383t416 149q255 0 416 -148.5t161 -383.5q0 -234 -161 -382.5t-416 -148.5zM633 254
q92 0 151.5 71t59.5 181q0 112 -59 183t-152 71q-92 0 -150.5 -71t-58.5 -183q0 -110 58.5 -181t150.5 -71z" />
    <glyph glyph-name="Ohungarumlaut" unicode="&#x150;" horiz-adv-x="1613" 
d="M537 1421l-181 181l330 352l203 -203zM1042 1421l-180 181l330 352l203 -203zM807 -25q-163 0 -302.5 53t-238 146.5t-154 226t-55.5 287.5t55.5 287.5t154 226t238 146.5t302.5 53t303 -53t238.5 -146.5t154.5 -226t56 -287.5t-56 -287.5t-154.5 -226t-238.5 -146.5
t-303 -53zM807 268q163 0 266 117.5t103 302.5t-103 302.5t-266 117.5q-162 0 -264.5 -117.5t-102.5 -302.5t102.5 -302.5t264.5 -117.5z" />
    <glyph glyph-name="ohungarumlaut" unicode="&#x151;" 
d="M362 1079l-180 181l330 352l203 -203zM868 1079l-180 181l330 352l203 -203zM633 -25q-254 0 -416 149t-162 382q0 234 162 383t416 149q255 0 416 -148.5t161 -383.5q0 -234 -161 -382.5t-416 -148.5zM633 254q92 0 151.5 71t59.5 181q0 112 -59 183t-152 71
q-92 0 -150.5 -71t-58.5 -183q0 -110 58.5 -181t150.5 -71z" />
    <glyph glyph-name="OE" unicode="&#x152;" horiz-adv-x="2064" 
d="M760 0q-156 0 -287 50t-222.5 140t-142.5 218t-51 280q0 305 194.5 496.5t508.5 191.5h1200v-278h-621v-258h555v-271h-555v-290h654v-279h-1233zM805 287h160v803h-160q-160 0 -262.5 -112.5t-102.5 -289.5t102.5 -289t262.5 -112z" />
    <glyph glyph-name="oe" unicode="&#x153;" horiz-adv-x="1949" 
d="M633 -25q-254 0 -416 149t-162 382q0 234 162 383t416 149q114 0 216 -37.5t177 -103.5q167 141 371 141q227 0 370.5 -144.5t143.5 -371.5q0 -56 -6 -108h-695q20 -80 92 -127t173 -47q122 0 280 82l107 -242q-225 -105 -432 -105q-237 0 -400 150q-163 -150 -397 -150z
M1210 625h355q-8 68 -53.5 108.5t-114.5 40.5q-70 0 -121 -40.5t-66 -108.5zM633 254q92 0 151.5 71t59.5 181q0 112 -59 183t-152 71q-92 0 -150.5 -71t-58.5 -183q0 -110 58.5 -181t150.5 -71z" />
    <glyph glyph-name="Racute" unicode="&#x154;" horiz-adv-x="1370" 
d="M637 1423l-135 195l409 287l156 -226zM141 0v1376h623q220 0 360 -126.5t140 -325.5q0 -149 -78 -259.5t-211 -148.5l352 -516h-405l-293 457h-127v-457h-361zM502 743h203q84 0 137 48t53 127q0 76 -53 124t-137 48h-203v-347z" />
    <glyph glyph-name="racute" unicode="&#x155;" horiz-adv-x="856" 
d="M389 1081l-135 195l410 287l155 -226zM106 0v1014h287l45 -127q46 68 120 105.5t163 37.5q49 0 117 -14l-31 -285q-66 12 -117 12q-102 0 -162.5 -67.5t-60.5 -177.5v-498h-361z" />
    <glyph glyph-name="Rcommaaccent" unicode="&#x156;" horiz-adv-x="1370" 
d="M141 0v1376h623q220 0 360 -126.5t140 -325.5q0 -149 -78 -259.5t-211 -148.5l352 -516h-405l-293 457h-127v-457h-361zM502 743h203q84 0 137 48t53 127q0 76 -53 124t-137 48h-203v-347zM635 -657l-92 120q79 70 116 142q-60 1 -99.5 45.5t-39.5 107.5q0 82 50 132.5
t132 50.5q81 0 133 -58t52 -145q0 -119 -65.5 -222.5t-186.5 -172.5z" />
    <glyph glyph-name="rcommaaccent" unicode="&#x157;" horiz-adv-x="856" 
d="M106 0v1014h287l45 -127q46 68 120 105.5t163 37.5q49 0 117 -14l-31 -285q-66 12 -117 12q-102 0 -162.5 -67.5t-60.5 -177.5v-498h-361zM217 -657l-92 120q81 72 117 142q-61 1 -100.5 46t-39.5 107q0 82 50.5 132.5t132.5 50.5q81 0 132.5 -58t51.5 -145
q0 -119 -65.5 -222.5t-186.5 -172.5z" />
    <glyph glyph-name="Rcaron" unicode="&#x158;" horiz-adv-x="1370" 
d="M596 1452l-260 246l151 166l215 -170l216 170l151 -166l-260 -246h-213zM141 0v1376h623q220 0 360 -126.5t140 -325.5q0 -149 -78 -259.5t-211 -148.5l352 -516h-405l-293 457h-127v-457h-361zM502 743h203q84 0 137 48t53 127q0 76 -53 124t-137 48h-203v-347z" />
    <glyph glyph-name="rcaron" unicode="&#x159;" horiz-adv-x="856" 
d="M348 1110l-260 246l152 166l215 -170l215 170l151 -166l-260 -246h-213zM106 0v1014h287l45 -127q46 68 120 105.5t163 37.5q49 0 117 -14l-31 -285q-66 12 -117 12q-102 0 -162.5 -67.5t-60.5 -177.5v-498h-361z" />
    <glyph glyph-name="Sacute" unicode="&#x15a;" horiz-adv-x="1222" 
d="M547 1423l-135 195l409 287l156 -226zM612 -25q-266 0 -549 115l84 279q265 -101 435 -101q98 0 153.5 35t55.5 98q0 36 -24.5 62.5t-66 43.5t-95.5 30.5t-114 29t-119.5 34.5t-113.5 50.5t-95.5 73.5t-66 108t-24.5 150q0 186 151 302t389 116q237 0 498 -98l-84 -279
q-212 84 -385 84q-93 0 -147 -33t-54 -92q0 -35 24.5 -60t66 -40.5t95.5 -28.5t114 -27.5t119.5 -33.5t113.5 -51t95.5 -75.5t66 -111.5t24.5 -154q0 -190 -152.5 -308t-394.5 -118z" />
    <glyph glyph-name="sacute" unicode="&#x15b;" horiz-adv-x="974" 
d="M422 1081l-135 195l409 287l156 -226zM487 -25q-205 0 -432 82l76 256q177 -73 326 -73q52 0 80 19t28 52q0 22 -21.5 37.5t-57 23.5t-80.5 18.5t-92 21.5t-92 34.5t-80.5 55t-57 85.5t-21.5 124q0 141 119 234t305 93q187 0 400 -73l-76 -256q-170 65 -295 65
q-47 0 -73.5 -17t-26.5 -46q0 -24 28 -39t72 -24t98 -19t108 -31.5t98 -53.5t72 -92t28 -141q0 -147 -121 -241.5t-312 -94.5z" />
    <glyph glyph-name="Scircumflex" unicode="&#x15c;" horiz-adv-x="1222" 
d="M397 1423l-151 166l260 246h213l260 -246l-152 -166l-215 170zM612 -25q-266 0 -549 115l84 279q265 -101 435 -101q98 0 153.5 35t55.5 98q0 36 -24.5 62.5t-66 43.5t-95.5 30.5t-114 29t-119.5 34.5t-113.5 50.5t-95.5 73.5t-66 108t-24.5 150q0 186 151 302t389 116
q237 0 498 -98l-84 -279q-212 84 -385 84q-93 0 -147 -33t-54 -92q0 -35 24.5 -60t66 -40.5t95.5 -28.5t114 -27.5t119.5 -33.5t113.5 -51t95.5 -75.5t66 -111.5t24.5 -154q0 -190 -152.5 -308t-394.5 -118z" />
    <glyph glyph-name="scircumflex" unicode="&#x15d;" horiz-adv-x="974" 
d="M272 1081l-151 166l260 246h213l260 -246l-152 -166l-215 170zM487 -25q-205 0 -432 82l76 256q177 -73 326 -73q52 0 80 19t28 52q0 22 -21.5 37.5t-57 23.5t-80.5 18.5t-92 21.5t-92 34.5t-80.5 55t-57 85.5t-21.5 124q0 141 119 234t305 93q187 0 400 -73l-76 -256
q-170 65 -295 65q-47 0 -73.5 -17t-26.5 -46q0 -24 28 -39t72 -24t98 -19t108 -31.5t98 -53.5t72 -92t28 -141q0 -147 -121 -241.5t-312 -94.5z" />
    <glyph glyph-name="Scedilla" unicode="&#x15e;" horiz-adv-x="1222" 
d="M1159 401q0 -161 -111.5 -272.5t-299.5 -142.5l-11 -52q66 -20 105 -73t39 -125q0 -100 -87.5 -161.5t-228.5 -61.5q-116 0 -223 41l57 196q83 -26 129 -26q29 0 47.5 13.5t18.5 35.5q0 21 -24 34t-64 13h-31l29 160q-215 19 -441 110l84 279q265 -101 435 -101
q98 0 153.5 35t55.5 98q0 36 -24.5 62.5t-66 43.5t-95.5 30.5t-114 29t-119.5 34.5t-113.5 50.5t-95.5 73.5t-66 108t-24.5 150q0 186 151 302t389 116q237 0 498 -98l-84 -279q-212 84 -385 84q-93 0 -147 -33t-54 -92q0 -35 24.5 -60t66 -40.5t95.5 -28.5t114 -27.5
t119.5 -33.5t113.5 -51t95.5 -75.5t66 -111.5t24.5 -154z" />
    <glyph glyph-name="scedilla" unicode="&#x15f;" horiz-adv-x="974" 
d="M920 311q0 -118 -80.5 -204t-216.5 -117l-11 -56q66 -20 105 -73t39 -125q0 -100 -87.5 -161.5t-228.5 -61.5q-116 0 -223 41l57 196q83 -26 129 -26q29 0 47.5 13.5t18.5 35.5q0 21 -24 34t-64 13h-31l29 162q-161 16 -324 75l76 256q177 -73 326 -73q52 0 80 19t28 52
q0 22 -21.5 37.5t-57 23.5t-80.5 18.5t-92 21.5t-92 34.5t-80.5 55t-57 85.5t-21.5 124q0 141 119 234t305 93q187 0 400 -73l-76 -256q-170 65 -295 65q-47 0 -73.5 -17t-26.5 -46q0 -24 28 -39t72 -24t98 -19t108 -31.5t98 -53.5t72 -92t28 -141z" />
    <glyph glyph-name="Scaron" unicode="&#x160;" horiz-adv-x="1222" 
d="M506 1452l-260 246l151 166l215 -170l215 170l152 -166l-260 -246h-213zM612 -25q-266 0 -549 115l84 279q265 -101 435 -101q98 0 153.5 35t55.5 98q0 36 -24.5 62.5t-66 43.5t-95.5 30.5t-114 29t-119.5 34.5t-113.5 50.5t-95.5 73.5t-66 108t-24.5 150q0 186 151 302
t389 116q237 0 498 -98l-84 -279q-212 84 -385 84q-93 0 -147 -33t-54 -92q0 -35 24.5 -60t66 -40.5t95.5 -28.5t114 -27.5t119.5 -33.5t113.5 -51t95.5 -75.5t66 -111.5t24.5 -154q0 -190 -152.5 -308t-394.5 -118z" />
    <glyph glyph-name="scaron" unicode="&#x161;" horiz-adv-x="974" 
d="M381 1110l-260 246l151 166l215 -170l215 170l152 -166l-260 -246h-213zM487 -25q-205 0 -432 82l76 256q177 -73 326 -73q52 0 80 19t28 52q0 22 -21.5 37.5t-57 23.5t-80.5 18.5t-92 21.5t-92 34.5t-80.5 55t-57 85.5t-21.5 124q0 141 119 234t305 93q187 0 400 -73
l-76 -256q-170 65 -295 65q-47 0 -73.5 -17t-26.5 -46q0 -24 28 -39t72 -24t98 -19t108 -31.5t98 -53.5t72 -92t28 -141q0 -147 -121 -241.5t-312 -94.5z" />
    <glyph glyph-name="uni0162" unicode="&#x162;" horiz-adv-x="1243" 
d="M434 0v1090h-399v286h1171v-286h-397v-1090h-375zM553 -657l-92 120q81 72 117 142q-61 1 -100.5 46t-39.5 107q0 82 50.5 132.5t132.5 50.5q81 0 132.5 -58t51.5 -145q0 -119 -65.5 -222.5t-186.5 -172.5z" />
    <glyph glyph-name="uni0163" unicode="&#x163;" horiz-adv-x="876" 
d="M586 -25q-170 0 -275.5 99t-105.5 260v407h-170v273h170v295h360v-295h242v-273h-242v-370q0 -51 29.5 -80t79.5 -29q54 0 119 12l45 -266q-129 -33 -252 -33zM438 -657l-92 120q81 72 117 142q-60 1 -99.5 45.5t-39.5 107.5q0 82 50 132.5t132 50.5q81 0 132.5 -58
t51.5 -145q0 -119 -65.5 -222.5t-186.5 -172.5z" />
    <glyph glyph-name="Tcaron" unicode="&#x164;" horiz-adv-x="1243" 
d="M516 1452l-260 246l152 166l215 -170l215 170l151 -166l-260 -246h-213zM434 0v1090h-399v286h1171v-286h-397v-1090h-375z" />
    <glyph glyph-name="tcaron" unicode="&#x165;" horiz-adv-x="876" 
d="M831 1069l-233 78l131 395l256 -88zM586 -25q-170 0 -275.5 99t-105.5 260v407h-170v273h170v295h360v-295h242v-273h-242v-370q0 -51 29.5 -80t79.5 -29q54 0 119 12l45 -266q-129 -33 -252 -33z" />
    <glyph glyph-name="Tbar" unicode="&#x166;" horiz-adv-x="1243" 
d="M434 0v512h-231v272h231v306h-399v286h1171v-286h-397v-306h231v-272h-231v-512h-375z" />
    <glyph glyph-name="tbar" unicode="&#x167;" horiz-adv-x="876" 
d="M586 -25q-171 0 -276 98.5t-105 260.5v57h-154v242h154v108h-170v273h170v295h360v-295h242v-273h-242v-108h209v-242h-209v-29q0 -45 30.5 -72.5t78.5 -27.5q54 0 119 12l45 -266q-129 -33 -252 -33z" />
    <glyph glyph-name="Utilde" unicode="&#x168;" horiz-adv-x="1613" 
d="M637 1489l-211 61q15 113 83 180.5t167 67.5q49 0 95.5 -17t81 -33.5t54.5 -16.5q48 0 70 67l211 -61q-15 -113 -83 -180.5t-167 -67.5q-49 0 -95.5 16.5t-81 33.5t-54.5 17q-54 0 -70 -67zM807 -25q-197 0 -352 72t-242.5 204t-87.5 302v823h375v-809q0 -133 86 -216
t221 -83q137 0 222 83t85 216v809h375v-823q0 -170 -87.5 -302t-242.5 -204t-352 -72z" />
    <glyph glyph-name="utilde" unicode="&#x169;" 
d="M455 1126l-211 62q15 113 83 180.5t167 67.5q49 0 95.5 -17t81 -34t54.5 -17q48 0 70 68l211 -62q-15 -113 -83 -180.5t-167 -67.5q-49 0 -96 17t-81.5 34t-54.5 17q-53 0 -69 -68zM496 -25q-179 0 -292.5 110.5t-113.5 287.5v641h361v-582q0 -72 45 -118t116 -46
q82 0 134.5 56t52.5 145v545h360v-1014h-287l-45 111q-124 -136 -331 -136z" />
    <glyph glyph-name="Umacron" unicode="&#x16a;" horiz-adv-x="1613" 
d="M469 1524v239h676v-239h-676zM807 -25q-197 0 -352 72t-242.5 204t-87.5 302v823h375v-809q0 -133 86 -216t221 -83q137 0 222 83t85 216v809h375v-823q0 -170 -87.5 -302t-242.5 -204t-352 -72z" />
    <glyph glyph-name="umacron" unicode="&#x16b;" 
d="M287 1161v240h676v-240h-676zM496 -25q-179 0 -292.5 110.5t-113.5 287.5v641h361v-582q0 -72 45 -118t116 -46q82 0 134.5 56t52.5 145v545h360v-1014h-287l-45 111q-124 -136 -331 -136z" />
    <glyph glyph-name="Ubreve" unicode="&#x16c;" horiz-adv-x="1613" 
d="M807 1436q-157 0 -259 98t-108 268h228q3 -58 41.5 -91.5t97.5 -33.5t97.5 33.5t41.5 91.5h228q-6 -170 -108 -268t-259 -98zM807 -25q-197 0 -352 72t-242.5 204t-87.5 302v823h375v-809q0 -133 86 -216t221 -83q137 0 222 83t85 216v809h375v-823q0 -170 -87.5 -302
t-242.5 -204t-352 -72z" />
    <glyph glyph-name="ubreve" unicode="&#x16d;" 
d="M625 1094q-157 0 -259 98t-108 268h227q3 -58 42 -91.5t98 -33.5t97.5 33.5t41.5 91.5h227q-6 -170 -107.5 -268t-258.5 -98zM496 -25q-179 0 -292.5 110.5t-113.5 287.5v641h361v-582q0 -72 45 -118t116 -46q82 0 134.5 56t52.5 145v545h360v-1014h-287l-45 111
q-124 -136 -331 -136z" />
    <glyph glyph-name="Uring" unicode="&#x16e;" horiz-adv-x="1613" 
d="M807 1419q-106 0 -173 62.5t-67 160.5q0 100 67 163t173 63t173 -63t67 -163q0 -98 -67 -160.5t-173 -62.5zM807 1571q33 0 53.5 19.5t20.5 51.5q0 33 -20.5 53.5t-53.5 20.5t-53.5 -20.5t-20.5 -53.5q0 -32 20.5 -51.5t53.5 -19.5zM807 -25q-197 0 -352 72t-242.5 204
t-87.5 302v823h375v-809q0 -133 86 -216t221 -83q137 0 222 83t85 216v809h375v-823q0 -170 -87.5 -302t-242.5 -204t-352 -72z" />
    <glyph glyph-name="uring" unicode="&#x16f;" 
d="M625 1098q-106 0 -173 62.5t-67 160.5q0 100 67 162.5t173 62.5t172.5 -62.5t66.5 -162.5q0 -98 -66.5 -160.5t-172.5 -62.5zM625 1249q32 0 52.5 20t20.5 52q0 33 -20 53.5t-53 20.5t-53.5 -20.5t-20.5 -53.5q0 -32 21 -52t53 -20zM496 -25q-179 0 -292.5 110.5
t-113.5 287.5v641h361v-582q0 -72 45 -118t116 -46q82 0 134.5 56t52.5 145v545h360v-1014h-287l-45 111q-124 -136 -331 -136z" />
    <glyph glyph-name="Uhungarumlaut" unicode="&#x170;" horiz-adv-x="1613" 
d="M537 1421l-181 181l330 352l203 -203zM1042 1421l-180 181l330 352l203 -203zM807 -25q-197 0 -352 72t-242.5 204t-87.5 302v823h375v-809q0 -133 86 -216t221 -83q137 0 222 83t85 216v809h375v-823q0 -170 -87.5 -302t-242.5 -204t-352 -72z" />
    <glyph glyph-name="uhungarumlaut" unicode="&#x171;" 
d="M354 1079l-180 181l330 352l203 -203zM860 1079l-180 181l330 352l202 -203zM496 -25q-179 0 -292.5 110.5t-113.5 287.5v641h361v-582q0 -72 45 -118t116 -46q82 0 134.5 56t52.5 145v545h360v-1014h-287l-45 111q-124 -136 -331 -136z" />
    <glyph glyph-name="Uogonek" unicode="&#x172;" horiz-adv-x="1613" 
d="M864 -487q-114 0 -183 57.5t-69 157.5q0 135 154 247q-26 0 -100 9q-144 20 -266 95t-198.5 200.5t-76.5 273.5v823h375v-809q0 -132 86.5 -215.5t220.5 -83.5q135 0 221 84t86 215v809h375v-794q0 -182 -97 -319.5t-290 -246.5q-127 -72 -176 -125t-49 -96q0 -33 22 -52
t55 -19q18 0 54 8l45 -187q-85 -32 -189 -32z" />
    <glyph glyph-name="uogonek" unicode="&#x173;" 
d="M1001 -487q-115 0 -183 58t-68 157q0 146 168 272h-46l-45 111q-124 -136 -331 -136q-179 0 -292.5 110.5t-113.5 287.5v641h361v-582q0 -72 45 -118t116 -46q82 0 134.5 56t52.5 145v545h360v-1014q-145 -114 -145 -205q0 -33 22.5 -52t55.5 -19q15 0 61 8l37 -191
q-85 -28 -189 -28z" />
    <glyph glyph-name="Wcircumflex" unicode="&#x174;" horiz-adv-x="2105" 
d="M838 1423l-152 166l260 246h213l260 -246l-151 -166l-215 170zM438 0l-436 1376h375l252 -925l252 925h346l250 -925l252 925h374l-434 -1376h-364l-252 926l-250 -926h-365z" />
    <glyph glyph-name="wcircumflex" unicode="&#x175;" horiz-adv-x="1658" 
d="M614 1081l-151 166l260 246h213l260 -246l-152 -166l-215 170zM336 0l-328 1014h361l147 -606l148 606h331l148 -606l147 606h361l-328 -1014h-346l-148 606l-147 -606h-346z" />
    <glyph glyph-name="Ycircumflex" unicode="&#x176;" horiz-adv-x="1298" 
d="M434 1423l-151 166l260 246h213l260 -246l-152 -166l-215 170zM461 0v532l-500 844h406l282 -512l283 512h405l-499 -844v-532h-377z" />
    <glyph glyph-name="ycircumflex" unicode="&#x177;" horiz-adv-x="1134" 
d="M352 1081l-151 166l260 246h213l260 -246l-152 -166l-215 170zM254 -451q-80 0 -174 21l45 278q53 -12 92 -12q60 0 100 31.5t68 101.5l18 45l-411 1000h377l198 -608l199 608h377l-432 -1092q-144 -373 -457 -373z" />
    <glyph glyph-name="Ydieresis" unicode="&#x178;" horiz-adv-x="1298" 
d="M408 1460q-82 0 -132.5 50t-50.5 132t50.5 133.5t132.5 51.5q81 0 131.5 -51.5t50.5 -133.5t-50 -132t-132 -50zM891 1460q-82 0 -132 50t-50 132t50.5 133.5t131.5 51.5t131.5 -51.5t50.5 -133.5t-50 -132t-132 -50zM461 0v532l-500 844h406l282 -512l283 512h405
l-499 -844v-532h-377z" />
    <glyph glyph-name="Zacute" unicode="&#x179;" horiz-adv-x="1320" 
d="M596 1423l-135 195l409 287l156 -226zM63 0v211l689 879h-664v286h1145v-211l-688 -878h712v-287h-1194z" />
    <glyph glyph-name="zacute" unicode="&#x17a;" horiz-adv-x="1040" 
d="M455 1081l-136 195l410 287l156 -226zM55 0v197l447 544h-430v273h897v-197l-449 -547h465v-270h-930z" />
    <glyph glyph-name="Zdotaccent" unicode="&#x17b;" horiz-adv-x="1320" 
d="M662 1446q-88 0 -143.5 55t-55.5 141q0 88 55.5 143.5t143.5 55.5t143 -55.5t55 -143.5q0 -86 -55 -141t-143 -55zM63 0v211l689 879h-664v286h1145v-211l-688 -878h712v-287h-1194z" />
    <glyph glyph-name="zdotaccent" unicode="&#x17c;" horiz-adv-x="1040" 
d="M520 1104q-88 0 -143 55t-55 141q0 88 55 143.5t143 55.5t143.5 -55.5t55.5 -143.5q0 -86 -55.5 -141t-143.5 -55zM55 0v197l447 544h-430v273h897v-197l-449 -547h465v-270h-930z" />
    <glyph glyph-name="Zcaron" unicode="&#x17d;" horiz-adv-x="1320" 
d="M555 1452l-260 246l151 166l216 -170l215 170l151 -166l-260 -246h-213zM63 0v211l689 879h-664v286h1145v-211l-688 -878h712v-287h-1194z" />
    <glyph glyph-name="zcaron" unicode="&#x17e;" horiz-adv-x="1040" 
d="M414 1110l-260 246l151 166l215 -170l215 170l152 -166l-260 -246h-213zM55 0v197l447 544h-430v273h897v-197l-449 -547h465v-270h-930z" />
    <glyph glyph-name="florin" unicode="&#x192;" horiz-adv-x="1179" 
d="M393 -25q-121 0 -237 29l45 279q59 -15 102 -15q40 0 65 25t25 65v283h-155v270h155v136q0 156 106 255t271 99q119 0 238 -29l-47 -278q-49 14 -95 14q-43 0 -70.5 -25t-27.5 -65v-107h176v-270h-176v-311q0 -156 -105 -255.5t-270 -99.5z" />
    <glyph glyph-name="uni01CD" unicode="&#x1cd;" horiz-adv-x="1417" 
d="M602 1452l-260 246l152 166l215 -170l215 170l151 -166l-260 -246h-213zM-23 0l560 1376h346l557 -1376h-375l-102 279h-506l-103 -279h-377zM553 549h311l-155 420z" />
    <glyph glyph-name="uni01CE" unicode="&#x1ce;" 
d="M461 1110l-260 246l151 166l215 -170l215 170l152 -166l-260 -246h-213zM526 -25q-207 0 -339 149t-132 382q0 235 132 383.5t337 148.5q87 0 167 -30t140 -82l41 88h287v-1014h-287l-45 94q-116 -119 -301 -119zM625 258q79 0 129.5 55t50.5 140v106q0 86 -50.5 141.5
t-129.5 55.5q-89 0 -145 -70t-56 -180q0 -108 55.5 -178t145.5 -70z" />
    <glyph glyph-name="AEacute" unicode="&#x1fc;" horiz-adv-x="2025" 
d="M1128 1423l-135 195l410 287l156 -226zM-86 0l860 1376h1147v-278h-621v-258h555v-271h-555v-290h654v-279h-1014v279h-442l-164 -279h-420zM653 549h287v498z" />
    <glyph glyph-name="aeacute" unicode="&#x1fd;" horiz-adv-x="1769" 
d="M819 1081l-135 195l410 287l155 -226zM457 -25q-177 0 -289.5 90.5t-112.5 233.5q0 164 124.5 256t346.5 92q80 0 174 -16v8q0 59 -49 97t-127 38q-146 0 -327 -74l-91 248q242 90 463 90q97 0 182 -29.5t132 -80.5q137 110 334 110q227 0 370.5 -143.5t143.5 -372.5
q0 -47 -7 -108h-694q20 -80 91.5 -127t172.5 -47q123 0 281 82l106 -242q-209 -105 -424 -105q-244 0 -421 142q-164 -142 -379 -142zM1030 625h354q-8 68 -53 108.5t-114 40.5q-70 0 -121 -40.5t-66 -108.5zM524 223q76 0 126 48t50 122v37q-72 14 -129 14
q-80 0 -129 -31.5t-49 -84.5q0 -45 37 -75t94 -30z" />
    <glyph glyph-name="Oslashacute" unicode="&#x1fe;" horiz-adv-x="1613" 
d="M741 1423l-135 195l410 287l155 -226zM141 -25l138 187q-107 96 -164.5 230.5t-57.5 295.5q0 155 55.5 287.5t153.5 226t237.5 146.5t303.5 53q189 0 346 -74l55 74h267l-142 -189q108 -96 167 -230t59 -294q0 -155 -55.5 -287.5t-154 -226t-238.5 -146.5t-304 -53
q-187 0 -348 74l-53 -74h-265zM479 430l494 655q-73 37 -166 37q-177 0 -287 -121t-110 -313q0 -151 69 -258zM807 254q177 0 287 121t110 313q0 144 -71 258l-492 -657q75 -35 166 -35z" />
    <glyph glyph-name="oslashacute" unicode="&#x1ff;" 
d="M567 1081l-135 195l410 287l155 -226zM119 -25l106 140q-170 147 -170 391q0 234 162 383t416 149q128 0 248 -47l34 47h232l-109 -143q172 -148 172 -389q0 -234 -161 -382.5t-416 -148.5q-137 0 -248 48l-35 -48h-231zM422 377l287 383q-44 14 -76 14
q-105 0 -172.5 -75t-67.5 -193q0 -69 29 -129zM633 240q105 0 172 74t67 192q0 71 -28 129l-285 -381q28 -14 74 -14z" />
    <glyph glyph-name="Scommaaccent" unicode="&#x218;" horiz-adv-x="1222" 
d="M612 -25q-266 0 -549 115l84 279q265 -101 435 -101q98 0 153.5 35t55.5 98q0 36 -24.5 62.5t-66 43.5t-95.5 30.5t-114 29t-119.5 34.5t-113.5 50.5t-95.5 73.5t-66 108t-24.5 150q0 186 151 302t389 116q237 0 498 -98l-84 -279q-212 84 -385 84q-93 0 -147 -33
t-54 -92q0 -35 24.5 -60t66 -40.5t95.5 -28.5t114 -27.5t119.5 -33.5t113.5 -51t95.5 -75.5t66 -111.5t24.5 -154q0 -190 -152.5 -308t-394.5 -118zM543 -657l-92 120q79 70 116 142q-60 1 -99.5 45.5t-39.5 107.5q0 82 50 132.5t132 50.5q81 0 133 -58t52 -145
q0 -119 -65.5 -222.5t-186.5 -172.5z" />
    <glyph glyph-name="scommaaccent" unicode="&#x219;" horiz-adv-x="974" 
d="M487 -25q-205 0 -432 82l76 256q177 -73 326 -73q52 0 80 19t28 52q0 22 -21.5 37.5t-57 23.5t-80.5 18.5t-92 21.5t-92 34.5t-80.5 55t-57 85.5t-21.5 124q0 141 119 234t305 93q187 0 400 -73l-76 -256q-170 65 -295 65q-47 0 -73.5 -17t-26.5 -46q0 -24 28 -39t72 -24
t98 -19t108 -31.5t98 -53.5t72 -92t28 -141q0 -147 -121 -241.5t-312 -94.5zM418 -657l-92 120q79 70 116 142q-60 1 -99.5 45.5t-39.5 107.5q0 82 50 132.5t132 50.5q81 0 133 -58t52 -145q0 -119 -65.5 -222.5t-186.5 -172.5z" />
    <glyph glyph-name="uni021A" unicode="&#x21a;" horiz-adv-x="1243" 
d="M434 0v1090h-399v286h1171v-286h-397v-1090h-375zM553 -657l-92 120q81 72 117 142q-61 1 -100.5 46t-39.5 107q0 82 50.5 132.5t132.5 50.5q81 0 132.5 -58t51.5 -145q0 -119 -65.5 -222.5t-186.5 -172.5z" />
    <glyph glyph-name="uni021B" unicode="&#x21b;" horiz-adv-x="876" 
d="M586 -25q-170 0 -275.5 99t-105.5 260v407h-170v273h170v295h360v-295h242v-273h-242v-370q0 -51 29.5 -80t79.5 -29q54 0 119 12l45 -266q-129 -33 -252 -33zM438 -657l-92 120q81 72 117 142q-60 1 -99.5 45.5t-39.5 107.5q0 82 50 132.5t132 50.5q81 0 132.5 -58
t51.5 -145q0 -119 -65.5 -222.5t-186.5 -172.5z" />
    <glyph glyph-name="uni0237" unicode="&#x237;" horiz-adv-x="591" 
d="M104 -451q-122 0 -254 33l46 266q68 -12 118 -12q51 0 80 29t29 80v1069h360v-1106q0 -161 -104.5 -260t-274.5 -99z" />
    <glyph glyph-name="circumflex" unicode="&#x2c6;" horiz-adv-x="491" 
d="M31 1061l-152 166l260 246h213l260 -246l-151 -166l-215 170z" />
    <glyph glyph-name="caron" unicode="&#x2c7;" horiz-adv-x="491" 
d="M139 1090l-260 245l152 166l215 -170l215 170l151 -166l-260 -245h-213z" />
    <glyph glyph-name="breve" unicode="&#x2d8;" horiz-adv-x="491" 
d="M246 1073q-157 0 -259 98.5t-108 268.5h227q3 -58 42 -91.5t98 -33.5t97.5 33.5t41.5 91.5h227q-6 -170 -107.5 -268.5t-258.5 -98.5z" />
    <glyph glyph-name="dotaccent" unicode="&#x2d9;" horiz-adv-x="491" 
d="M246 1083q-88 0 -143.5 55.5t-55.5 141.5q0 88 55.5 143.5t143.5 55.5t143 -55.5t55 -143.5q0 -86 -55 -141.5t-143 -55.5z" />
    <glyph glyph-name="ring" unicode="&#x2da;" horiz-adv-x="491" 
d="M246 1057q-106 0 -173 62.5t-67 160.5q0 100 67 162.5t173 62.5t172.5 -62.5t66.5 -162.5q0 -98 -66.5 -160.5t-172.5 -62.5zM246 1208q32 0 52.5 20t20.5 52q0 34 -20.5 54t-52.5 20q-33 0 -53.5 -20.5t-20.5 -53.5q0 -32 21 -52t53 -20z" />
    <glyph glyph-name="ogonek" unicode="&#x2db;" horiz-adv-x="491" 
d="M268 -487q-115 0 -183.5 58t-68.5 157q0 80 56 159.5t159 145.5l195 -33q-145 -114 -145 -205q0 -33 22 -52t55 -19q16 0 62 8l37 -191q-85 -28 -189 -28z" />
    <glyph glyph-name="tilde" unicode="&#x2dc;" horiz-adv-x="491" 
d="M76 1126l-211 62q15 113 83 180.5t167 67.5q49 0 95.5 -17t81 -34t54.5 -17q48 0 70 68l211 -62q-15 -113 -83 -180.5t-167 -67.5q-49 0 -96 17t-81.5 34t-54.5 17q-53 0 -69 -68z" />
    <glyph glyph-name="hungarumlaut" unicode="&#x2dd;" horiz-adv-x="491" 
d="M-25 1059l-180 180l330 352l203 -202zM481 1059l-180 180l330 352l203 -202z" />
    <glyph glyph-name="gravecomb" unicode="&#x300;" horiz-adv-x="0" 
d="M-150 1081l-432 256l158 226l410 -287z" />
    <glyph glyph-name="acutecomb" unicode="&#x301;" horiz-adv-x="0" 
d="M-311 1081l-135 195l409 287l156 -226z" />
    <glyph glyph-name="uni0302" unicode="&#x302;" horiz-adv-x="0" 
d="M-461 1081l-151 166l260 246h213l260 -246l-152 -166l-215 170z" />
    <glyph glyph-name="tildecomb" unicode="&#x303;" horiz-adv-x="0" 
d="M-416 1126l-211 62q15 113 83 180.5t167 67.5q49 0 96 -17t81.5 -34t54.5 -17q47 0 69 68l211 -62q-15 -113 -83 -180.5t-167 -67.5q-49 0 -95.5 17t-81 34t-54.5 17q-54 0 -70 -68z" />
    <glyph glyph-name="uni0304" unicode="&#x304;" horiz-adv-x="0" 
d="M-584 1161v240h676v-240h-676z" />
    <glyph glyph-name="uni0306" unicode="&#x306;" horiz-adv-x="0" 
d="M-246 1094q-157 0 -258.5 98t-107.5 268h227q3 -58 41.5 -91.5t97.5 -33.5t98 33.5t42 91.5h227q-6 -170 -108 -268t-259 -98z" />
    <glyph glyph-name="uni0307" unicode="&#x307;" horiz-adv-x="0" 
d="M-246 1104q-88 0 -143 55t-55 141q0 88 55 143.5t143 55.5t143.5 -55.5t55.5 -143.5q0 -86 -55.5 -141t-143.5 -55z" />
    <glyph glyph-name="uni0308" unicode="&#x308;" horiz-adv-x="0" 
d="M-487 1118q-82 0 -132.5 50t-50.5 132t50.5 133.5t132.5 51.5q81 0 131.5 -51.5t50.5 -133.5t-50 -132t-132 -50zM-4 1118q-82 0 -132 50t-50 132t50.5 133.5t131.5 51.5t131.5 -51.5t50.5 -133.5t-50 -132t-132 -50z" />
    <glyph glyph-name="uni030A" unicode="&#x30a;" horiz-adv-x="0" 
d="M-246 1098q-106 0 -172.5 62.5t-66.5 160.5q0 100 66.5 162.5t172.5 62.5t173 -62.5t67 -162.5q0 -98 -67 -160.5t-173 -62.5zM-246 1249q32 0 53 20t21 52q0 33 -20.5 53.5t-53.5 20.5q-32 0 -52.5 -20.5t-20.5 -53.5q0 -32 20.5 -52t52.5 -20z" />
    <glyph glyph-name="uni030B" unicode="&#x30b;" horiz-adv-x="0" 
d="M-516 1079l-180 181l329 352l203 -203zM-10 1079l-180 181l329 352l203 -203z" />
    <glyph glyph-name="uni030C" unicode="&#x30c;" horiz-adv-x="0" 
d="M-352 1110l-260 246l151 166l215 -170l215 170l152 -166l-260 -246h-213z" />
    <glyph glyph-name="uni0326" unicode="&#x326;" horiz-adv-x="0" 
d="M-313 -657l-93 120q81 72 117 142q-60 1 -99.5 45.5t-39.5 107.5q0 82 50 132.5t132 50.5q81 0 133 -58t52 -145q0 -119 -65.5 -222.5t-186.5 -172.5z" />
    <glyph glyph-name="uni0327" unicode="&#x327;" horiz-adv-x="0" 
d="M-293 -487q-116 0 -223 41l57 196q83 -26 129 -26q29 0 47.5 13.5t18.5 35.5q0 21 -24 34t-64 13h-31l33 180h241l-12 -66q66 -20 105 -73t39 -125q0 -100 -87.5 -161.5t-228.5 -61.5z" />
    <glyph glyph-name="uni0328" unicode="&#x328;" horiz-adv-x="0" 
d="M-223 -487q-115 0 -183.5 58t-68.5 157q0 80 56 159.5t159 145.5l194 -33q-145 -114 -145 -205q0 -33 22.5 -52t55.5 -19q15 0 61 8l37 -191q-85 -28 -188 -28z" />
    <glyph glyph-name="uni0394" unicode="&#x394;" horiz-adv-x="1417" 
d="M39 0v211l498 1165h346l497 -1165v-211h-1341zM428 287h561l-280 682z" />
    <glyph glyph-name="uni03A9" unicode="&#x3a9;" horiz-adv-x="1662" 
d="M72 0v287h247q-200 194 -200 465q0 188 90 336t252.5 230.5t369.5 82.5q206 0 368.5 -82.5t252.5 -230.5t90 -336q0 -273 -201 -465h250v-287h-671v242q247 203 247 481q0 172 -91 278.5t-245 106.5t-245.5 -106.5t-91.5 -278.5q0 -277 249 -481v-242h-671z" />
    <glyph glyph-name="uni03BC" unicode="&#x3bc;" horiz-adv-x="1314" 
d="M106 -426v1440h361v-582q0 -72 45.5 -118t116.5 -46q82 0 134 56t52 145v545h361v-701q0 -23 14 -37t37 -14q15 0 43 4l26 -274q-90 -17 -170 -17q-85 0 -150 37t-99 103q-56 -65 -125 -98t-136 -33q-88 0 -149 24v-434h-361z" />
    <glyph glyph-name="pi" unicode="&#x3c0;" horiz-adv-x="1396" 
d="M1126 -25q-141 0 -227 84t-86 222v460h-262v-741h-346v741h-170v273h1294v-273h-170v-424q0 -25 13 -40t36 -15q24 0 52 4l36 -274q-104 -17 -170 -17z" />
    <glyph glyph-name="Wgrave" unicode="&#x1e80;" horiz-adv-x="2105" 
d="M1149 1423l-432 256l157 226l410 -287zM438 0l-436 1376h375l252 -925l252 925h346l250 -925l252 925h374l-434 -1376h-364l-252 926l-250 -926h-365z" />
    <glyph glyph-name="wgrave" unicode="&#x1e81;" horiz-adv-x="1658" 
d="M926 1081l-432 256l157 226l410 -287zM336 0l-328 1014h361l147 -606l148 606h331l148 -606l147 606h361l-328 -1014h-346l-148 606l-147 -606h-346z" />
    <glyph glyph-name="Wacute" unicode="&#x1e82;" horiz-adv-x="2105" 
d="M987 1423l-135 195l410 287l155 -226zM438 0l-436 1376h375l252 -925l252 925h346l250 -925l252 925h374l-434 -1376h-364l-252 926l-250 -926h-365z" />
    <glyph glyph-name="wacute" unicode="&#x1e83;" horiz-adv-x="1658" 
d="M764 1081l-135 195l409 287l156 -226zM336 0l-328 1014h361l147 -606l148 606h331l148 -606l147 606h361l-328 -1014h-346l-148 606l-147 -606h-346z" />
    <glyph glyph-name="Wdieresis" unicode="&#x1e84;" horiz-adv-x="2105" 
d="M811 1460q-82 0 -132 50t-50 132t50.5 133.5t131.5 51.5t131.5 -51.5t50.5 -133.5t-50 -132t-132 -50zM1294 1460q-82 0 -132 50t-50 132t50.5 133.5t131.5 51.5q82 0 132.5 -51.5t50.5 -133.5t-50.5 -132t-132.5 -50zM438 0l-436 1376h375l252 -925l252 925h346
l250 -925l252 925h374l-434 -1376h-364l-252 926l-250 -926h-365z" />
    <glyph glyph-name="wdieresis" unicode="&#x1e85;" horiz-adv-x="1658" 
d="M588 1118q-82 0 -132 50t-50 132t50.5 133.5t131.5 51.5t131.5 -51.5t50.5 -133.5t-50 -132t-132 -50zM1071 1118q-82 0 -132 50t-50 132t50.5 133.5t131.5 51.5t131.5 -51.5t50.5 -133.5t-50 -132t-132 -50zM336 0l-328 1014h361l147 -606l148 606h331l148 -606l147 606
h361l-328 -1014h-346l-148 606l-147 -606h-346z" />
    <glyph glyph-name="uni1E9E" unicode="&#x1e9e;" horiz-adv-x="1613" 
d="M1012 -25q-215 0 -422 121l129 273q164 -101 262 -101q86 0 139.5 46.5t53.5 121.5q0 81 -63.5 133t-162.5 52h-47l-53 165l223 304h-569v-1090h-361v1376h1352v-211l-231 -311q132 -57 206 -167.5t74 -250.5q0 -203 -148.5 -332t-381.5 -129z" />
    <glyph glyph-name="Ygrave" unicode="&#x1ef2;" horiz-adv-x="1298" 
d="M745 1423l-432 256l158 226l410 -287zM461 0v532l-500 844h406l282 -512l283 512h405l-499 -844v-532h-377z" />
    <glyph glyph-name="ygrave" unicode="&#x1ef3;" horiz-adv-x="1134" 
d="M664 1081l-433 256l158 226l410 -287zM254 -451q-80 0 -174 21l45 278q53 -12 92 -12q60 0 100 31.5t68 101.5l18 45l-411 1000h377l198 -608l199 608h377l-432 -1092q-144 -373 -457 -373z" />
    <glyph glyph-name="uni2002" unicode="&#x2002;" horiz-adv-x="983" 
 />
    <glyph glyph-name="uni2003" unicode="&#x2003;" horiz-adv-x="1966" 
 />
    <glyph glyph-name="uni2009" unicode="&#x2009;" horiz-adv-x="393" 
 />
    <glyph glyph-name="uni200A" unicode="&#x200a;" horiz-adv-x="122" 
 />
    <glyph glyph-name="endash" unicode="&#x2013;" horiz-adv-x="983" 
d="M35 383v270h913v-270h-913z" />
    <glyph glyph-name="emdash" unicode="&#x2014;" horiz-adv-x="1966" 
d="M35 383v270h1896v-270h-1896z" />
    <glyph glyph-name="quoteleft" unicode="&#x2018;" horiz-adv-x="577" 
d="M289 692q-95 0 -154 69.5t-59 178.5q0 142 78 268.5t221 214.5l104 -137q-101 -84 -147 -182q77 -12 123.5 -66.5t46.5 -132.5q0 -91 -60 -152t-153 -61z" />
    <glyph glyph-name="quoteright" unicode="&#x2019;" horiz-adv-x="577" 
d="M205 678l-107 137q105 88 148 182q-76 10 -123 65t-47 132q0 93 60 153t153 60q95 0 155 -68.5t60 -177.5q0 -142 -79 -269.5t-220 -213.5z" />
    <glyph glyph-name="quotesinglbase" unicode="&#x201a;" horiz-adv-x="512" 
d="M205 -328l-107 138q105 88 148 182q-76 10 -123 64.5t-47 131.5q0 93 60 153t153 60q95 0 155 -68t60 -177q0 -142 -79 -270t-220 -214z" />
    <glyph glyph-name="quotedblleft" unicode="&#x201c;" horiz-adv-x="1083" 
d="M289 692q-95 0 -154 69.5t-59 178.5q0 142 78 268.5t221 214.5l104 -137q-101 -84 -147 -182q77 -12 123.5 -66.5t46.5 -132.5q0 -91 -60 -152t-153 -61zM797 692q-95 0 -154 69.5t-59 178.5q0 142 78 268.5t221 214.5l104 -137q-101 -84 -147 -182q77 -12 123.5 -66.5
t46.5 -132.5q0 -91 -60 -152t-153 -61z" />
    <glyph glyph-name="quotedblright" unicode="&#x201d;" horiz-adv-x="1083" 
d="M205 678l-107 137q105 88 148 182q-76 10 -123 65t-47 132q0 93 60 153t153 60q95 0 155 -68.5t60 -177.5q0 -142 -79 -269.5t-220 -213.5zM711 678l-107 137q105 88 148 182q-76 10 -123 65t-47 132q0 93 60 153t153 60q95 0 155 -68.5t60 -177.5q0 -142 -79 -269.5
t-220 -213.5z" />
    <glyph glyph-name="quotedblbase" unicode="&#x201e;" horiz-adv-x="1083" 
d="M205 -328l-107 138q105 88 148 182q-76 10 -123 64.5t-47 131.5q0 93 60 153t153 60q95 0 155 -68t60 -177q0 -142 -79 -270t-220 -214zM711 -328l-107 138q105 88 148 182q-76 10 -123 64.5t-47 131.5q0 93 60 153t153 60q95 0 155 -68t60 -177q0 -142 -79 -270
t-220 -214z" />
    <glyph glyph-name="dagger" unicode="&#x2020;" horiz-adv-x="1042" 
d="M385 0v788h-317v271h317v317h272v-317h318v-271h-318v-788h-272z" />
    <glyph glyph-name="daggerdbl" unicode="&#x2021;" horiz-adv-x="1042" 
d="M385 0v317h-317v271h317v200h-317v271h317v317h272v-317h318v-271h-318v-200h318v-271h-318v-317h-272z" />
    <glyph glyph-name="bullet" unicode="&#x2022;" horiz-adv-x="983" 
d="M492 295q-123 0 -209 86t-86 209t86 209t209 86t208.5 -86t85.5 -209t-85.5 -209t-208.5 -86z" />
    <glyph glyph-name="ellipsis" unicode="&#x2026;" horiz-adv-x="1966" 
d="M328 -25q-92 0 -152.5 60.5t-60.5 152.5q0 93 60 153t153 60t153 -60t60 -153q0 -92 -60.5 -152.5t-152.5 -60.5zM983 -25q-92 0 -152.5 60.5t-60.5 152.5q0 93 60 153t153 60t153 -60t60 -153q0 -92 -60.5 -152.5t-152.5 -60.5zM1638 -25q-92 0 -152.5 60.5t-60.5 152.5
q0 93 60 153t153 60t153 -60t60 -153q0 -92 -60.5 -152.5t-152.5 -60.5z" />
    <glyph glyph-name="perthousand" unicode="&#x2030;" horiz-adv-x="2613" 
d="M440 664q-169 0 -277 103.5t-108 264.5t108 265t277 104q168 0 277.5 -104t109.5 -265t-109.5 -264.5t-277.5 -103.5zM227 0l1035 1376h280l-1034 -1376h-281zM440 868q55 0 89 45t34 119t-34 119t-89 45q-54 0 -87.5 -45.5t-33.5 -118.5t33.5 -118.5t87.5 -45.5z
M1329 -25q-169 0 -278 104t-109 265t109 265t278 104q167 0 276 -104t109 -265t-109 -265t-276 -104zM2171 -25q-169 0 -277 104t-108 265t108 265t277 104q168 0 277.5 -104t109.5 -265t-109.5 -265t-277.5 -104zM1329 180q54 0 87.5 45.5t33.5 118.5t-33.5 118.5
t-87.5 45.5q-55 0 -89 -45t-34 -119t34 -119t89 -45zM2171 180q55 0 89 45t34 119t-34 119t-89 45q-54 0 -87.5 -45.5t-33.5 -118.5t33.5 -118.5t87.5 -45.5z" />
    <glyph glyph-name="guilsinglleft" unicode="&#x2039;" horiz-adv-x="708" 
d="M459 -14l-408 456v152l408 459l211 -166l-273 -369l273 -366z" />
    <glyph glyph-name="guilsinglright" unicode="&#x203a;" horiz-adv-x="708" 
d="M250 -14l-211 166l274 366l-274 369l211 166l407 -459v-152z" />
    <glyph glyph-name="fraction" unicode="&#x2044;" horiz-adv-x="393" 
d="M-461 0l1034 1376h281l-1034 -1376h-281z" />
    <glyph glyph-name="Euro" unicode="&#x20ac;" horiz-adv-x="1179" 
d="M786 -25q-215 0 -374.5 126.5t-225.5 349.5h-135v213h107q-2 8 -2 24q0 39 2 57h-107v213h148q68 208 223 325.5t364 117.5q220 0 402 -105l-127 -241q-112 67 -230 67q-88 0 -159.5 -45t-104.5 -119h391v-213h-454q-2 -18 -2 -57v-24h456v-213h-407q34 -91 108 -144
t172 -53q116 0 230 68l127 -242q-182 -105 -402 -105z" />
    <glyph glyph-name="uni2105" unicode="&#x2105;" horiz-adv-x="1763" 
d="M446 -68l-182 136l1032 1376l183 -135zM432 690q-166 0 -274.5 98.5t-108.5 251.5q0 155 108.5 254t274.5 99q133 0 279 -84l-107 -174q-79 51 -139 51q-64 0 -106 -41.5t-42 -104.5t41.5 -103t106.5 -40t139 51l107 -174q-141 -84 -279 -84zM1321 -16q-173 0 -283 98.5
t-110 253.5q0 154 110 252t283 98t283 -98t110 -252q0 -155 -110 -253.5t-283 -98.5zM1321 188q54 0 88.5 41t34.5 107q0 65 -34.5 106t-88.5 41t-88.5 -41t-34.5 -106q0 -66 34.5 -107t88.5 -41z" />
    <glyph glyph-name="uni2113" unicode="&#x2113;" horiz-adv-x="870" 
d="M487 -25q-165 0 -273 101t-108 258v756q0 170 106.5 273t272.5 103q152 0 250.5 -100t98.5 -254q0 -169 -100 -330.5t-296 -298.5v-121q0 -45 30 -72.5t79 -27.5q33 0 133 17l45 -271q-121 -33 -238 -33zM438 799q125 128 125 266q0 51 -16.5 82t-46.5 31q-28 0 -45 -30
t-17 -77v-272z" />
    <glyph glyph-name="uni2116" unicode="&#x2116;" horiz-adv-x="2500" 
d="M2056 705q-172 0 -281.5 98.5t-109.5 253.5q0 154 109.5 252t281.5 98q173 0 283 -98t110 -252q0 -155 -110 -253.5t-283 -98.5zM141 0v1376h361l626 -866v866h345v-1376h-361l-625 866v-866h-346zM2056 909q55 0 89 41t34 107q0 65 -34 106t-89 41q-54 0 -87.5 -41
t-33.5 -106q0 -66 33.5 -107t87.5 -41zM1683 418v182h748v-182h-748z" />
    <glyph glyph-name="uni2117" unicode="&#x2117;" horiz-adv-x="1703" 
d="M852 -66q-218 0 -390 96t-268 268t-96 390t96 390t268 268t390 96t390 -96t268 -268t96 -390t-96 -390t-268 -268t-390 -96zM852 117q252 0 411.5 159.5t159.5 411.5t-159.5 412t-411.5 160t-411.5 -160t-159.5 -412t159.5 -411.5t411.5 -159.5zM532 262v852h392
q146 0 237.5 -84.5t91.5 -218.5q0 -132 -91.5 -216.5t-237.5 -84.5h-142v-248h-250zM782 711h109q49 0 79.5 28t30.5 72q0 46 -30 73t-80 27h-109v-200z" />
    <glyph glyph-name="uni2120" unicode="&#x2120;" horiz-adv-x="1959" 
d="M401 508q-173 0 -348 72l66 196q150 -59 262 -59q50 0 76 18t26 49q0 22 -23.5 36.5t-60.5 23t-82 18t-90 27t-82 44.5t-60.5 76t-23.5 115q0 120 93.5 194.5t246.5 74.5q156 0 324 -64l-66 -196q-130 49 -237 49q-44 0 -69 -15.5t-25 -42.5q0 -21 23.5 -34t60.5 -20.5
t82 -16.5t90 -27t82 -45.5t60.5 -78t23.5 -118.5q0 -124 -95.5 -200t-253.5 -76zM899 524v852h262l221 -311l222 311h260v-852h-246v490l-160 -232h-151l-166 232v-490h-242z" />
    <glyph glyph-name="trademark" unicode="&#x2122;" horiz-adv-x="1972" 
d="M270 524v647h-231v205h735v-205h-231v-647h-273zM911 524v852h260l222 -311l221 311h260v-852h-246v490l-160 -232h-151l-166 232v-490h-240z" />
    <glyph glyph-name="uni2126" unicode="&#x2126;" horiz-adv-x="1662" 
d="M72 0v287h247q-200 194 -200 465q0 188 90 336t252.5 230.5t369.5 82.5q206 0 368.5 -82.5t252.5 -230.5t90 -336q0 -273 -201 -465h250v-287h-671v242q247 203 247 481q0 172 -91 278.5t-245 106.5t-245.5 -106.5t-91.5 -278.5q0 -277 249 -481v-242h-671z" />
    <glyph glyph-name="estimated" unicode="&#x212e;" horiz-adv-x="1966" 
d="M983 -33q-160 0 -305.5 57.5t-250.5 154t-167.5 230t-62.5 279.5t62.5 279.5t167.5 230t250.5 154t305.5 57.5t305.5 -57.5t250.5 -154t167.5 -230t62.5 -279.5q0 -23 -2 -33h-1275v-401q91 -104 218 -162.5t273 -58.5q147 0 276.5 60.5t221.5 168.5h135
q-110 -136 -276 -215.5t-357 -79.5zM492 721h983v401q-93 103 -221 162t-271 59q-145 0 -272.5 -59t-218.5 -162v-401z" />
    <glyph glyph-name="uni2153" unicode="&#x2153;" horiz-adv-x="1966" 
d="M324 524v602l-154 -84l-90 170l289 164h213v-852h-258zM326 0l1034 1376h280l-1034 -1376h-280zM1563 -16q-178 0 -340 73l80 181q118 -54 204 -54q43 0 71 21.5t28 56.5q0 38 -32 63t-83 25h-82v172h82q45 0 72.5 22t27.5 54q0 31 -21 50.5t-57 19.5q-80 0 -190 -50
l-80 183q162 67 320 67q127 0 207.5 -67.5t80.5 -173.5q0 -64 -27 -112.5t-77 -72.5q56 -25 90.5 -80.5t34.5 -125.5q0 -110 -87 -181t-222 -71z" />
    <glyph glyph-name="uni2154" unicode="&#x2154;" horiz-adv-x="1966" 
d="M76 524v162l256 258q82 82 82 135q0 43 -26.5 69t-70.5 26q-65 0 -167 -64l-97 190q166 93 318 93q133 0 216 -77t83 -196q0 -138 -121 -256l-135 -135h266v-205h-604zM326 0l1034 1376h280l-1034 -1376h-280zM1563 -16q-178 0 -340 73l80 181q118 -54 204 -54
q43 0 71 21.5t28 56.5q0 38 -32 63t-83 25h-82v172h82q45 0 72.5 22t27.5 54q0 31 -21 50.5t-57 19.5q-80 0 -190 -50l-80 183q162 67 320 67q127 0 207.5 -67.5t80.5 -173.5q0 -64 -27 -112.5t-77 -72.5q56 -25 90.5 -80.5t34.5 -125.5q0 -110 -87 -181t-222 -71z" />
    <glyph glyph-name="uni2155" unicode="&#x2155;" horiz-adv-x="1966" 
d="M324 524v602l-154 -84l-90 170l289 164h213v-852h-258zM326 0l1034 1376h280l-1034 -1376h-280zM1532 -16q-153 0 -289 84l94 178q94 -58 170 -58q48 0 77.5 23.5t29.5 64.5q0 46 -34.5 71.5t-94.5 25.5q-83 0 -182 -21v500h538v-197h-309v-108h45q128 0 210.5 -75.5
t82.5 -199.5q0 -125 -95.5 -206.5t-242.5 -81.5z" />
    <glyph glyph-name="uni2156" unicode="&#x2156;" horiz-adv-x="1966" 
d="M76 524v162l256 258q82 82 82 135q0 43 -26.5 69t-70.5 26q-65 0 -167 -64l-97 190q166 93 318 93q133 0 216 -77t83 -196q0 -138 -121 -256l-135 -135h266v-205h-604zM326 0l1034 1376h280l-1034 -1376h-280zM1532 -16q-153 0 -289 84l94 178q94 -58 170 -58
q48 0 77.5 23.5t29.5 64.5q0 46 -34.5 71.5t-94.5 25.5q-83 0 -182 -21v500h538v-197h-309v-108h45q128 0 210.5 -75.5t82.5 -199.5q0 -125 -95.5 -206.5t-242.5 -81.5z" />
    <glyph glyph-name="uni2157" unicode="&#x2157;" horiz-adv-x="1966" 
d="M383 508q-176 0 -340 74l80 180q116 -53 205 -53q43 0 70.5 21t27.5 56q0 38 -32 63t-83 25h-82v173h82q45 0 73 21.5t28 53.5q0 31 -21 50.5t-57 19.5q-84 0 -191 -49l-80 182q165 68 320 68q127 0 208 -68t81 -174q0 -63 -27 -111t-78 -73q56 -25 90.5 -81t34.5 -126
q0 -110 -87 -181t-222 -71zM326 0l1034 1376h280l-1034 -1376h-280zM1532 -16q-153 0 -289 84l94 178q94 -58 170 -58q48 0 77.5 23.5t29.5 64.5q0 46 -34.5 71.5t-94.5 25.5q-83 0 -182 -21v500h538v-197h-309v-108h45q128 0 210.5 -75.5t82.5 -199.5q0 -125 -95.5 -206.5
t-242.5 -81.5z" />
    <glyph glyph-name="uni2158" unicode="&#x2158;" horiz-adv-x="1966" 
d="M428 524v158h-385v180l367 514h247v-510h86v-184h-86v-158h-229zM326 0l1034 1376h280l-1034 -1376h-280zM262 866h166v236zM1532 -16q-153 0 -289 84l94 178q94 -58 170 -58q48 0 77.5 23.5t29.5 64.5q0 46 -34.5 71.5t-94.5 25.5q-83 0 -182 -21v500h538v-197h-309
v-108h45q128 0 210.5 -75.5t82.5 -199.5q0 -125 -95.5 -206.5t-242.5 -81.5z" />
    <glyph glyph-name="uni2159" unicode="&#x2159;" horiz-adv-x="1966" 
d="M324 524v602l-154 -84l-90 170l289 164h213v-852h-258zM326 0l1034 1376h280l-1034 -1376h-280zM1587 -16q-166 0 -260 110.5t-94 304.5q0 212 109.5 340.5t289.5 128.5q126 0 258 -63l-84 -178q-85 45 -159 45q-72 0 -116.5 -36t-55.5 -101q73 43 161 43
q124 0 205.5 -78.5t81.5 -202.5q0 -138 -94.5 -225.5t-241.5 -87.5zM1583 180q47 0 78 29.5t31 75.5q0 44 -30.5 73t-76.5 29q-49 0 -78.5 -27t-29.5 -73q0 -47 30 -77t76 -30z" />
    <glyph glyph-name="uni215A" unicode="&#x215a;" horiz-adv-x="1966" 
d="M352 508q-153 0 -289 84l95 178q93 -57 170 -57q48 0 77 23.5t29 64.5q0 45 -34.5 70.5t-94.5 25.5q-88 0 -182 -20v499h539v-196h-310v-109h45q128 0 210.5 -75t82.5 -199q0 -125 -95.5 -207t-242.5 -82zM326 0l1034 1376h280l-1034 -1376h-280zM1587 -16
q-166 0 -260 110.5t-94 304.5q0 212 109.5 340.5t289.5 128.5q126 0 258 -63l-84 -178q-85 45 -159 45q-72 0 -116.5 -36t-55.5 -101q73 43 161 43q124 0 205.5 -78.5t81.5 -202.5q0 -138 -94.5 -225.5t-241.5 -87.5zM1583 180q47 0 78 29.5t31 75.5q0 44 -30.5 73t-76.5 29
q-49 0 -78.5 -27t-29.5 -73q0 -47 30 -77t76 -30z" />
    <glyph glyph-name="oneeighth" unicode="&#x215b;" horiz-adv-x="1966" 
d="M324 524v602l-154 -84l-90 170l289 164h213v-852h-258zM326 0l1034 1376h280l-1034 -1376h-280zM1571 -16q-156 0 -252 70.5t-96 187.5q0 132 137 194q-117 58 -117 185q0 110 91 178.5t239 68.5t239 -68.5t91 -178.5q0 -64 -28 -112t-81 -73q61 -27 95 -77t34 -117
q0 -116 -97.5 -187t-254.5 -71zM1573 514q43 11 68.5 35t25.5 55q0 36 -26 58t-68 22q-41 0 -67.5 -22.5t-26.5 -57.5q0 -31 25.5 -55t68.5 -35zM1573 166q47 0 77.5 25.5t30.5 68.5q0 34 -30.5 60.5t-77.5 37.5q-47 -11 -78 -37.5t-31 -60.5q0 -43 31 -68.5t78 -25.5z" />
    <glyph glyph-name="threeeighths" unicode="&#x215c;" horiz-adv-x="1966" 
d="M383 508q-176 0 -340 74l80 180q116 -53 205 -53q43 0 70.5 21t27.5 56q0 38 -32 63t-83 25h-82v173h82q45 0 73 21.5t28 53.5q0 31 -21 50.5t-57 19.5q-84 0 -191 -49l-80 182q165 68 320 68q127 0 208 -68t81 -174q0 -63 -27 -111t-78 -73q56 -25 90.5 -81t34.5 -126
q0 -110 -87 -181t-222 -71zM326 0l1034 1376h280l-1034 -1376h-280zM1571 -16q-156 0 -252 70.5t-96 187.5q0 132 137 194q-117 58 -117 185q0 110 91 178.5t239 68.5t239 -68.5t91 -178.5q0 -64 -28 -112t-81 -73q61 -27 95 -77t34 -117q0 -116 -97.5 -187t-254.5 -71z
M1573 514q43 11 68.5 35t25.5 55q0 36 -26 58t-68 22q-41 0 -67.5 -22.5t-26.5 -57.5q0 -31 25.5 -55t68.5 -35zM1573 166q47 0 77.5 25.5t30.5 68.5q0 34 -30.5 60.5t-77.5 37.5q-47 -11 -78 -37.5t-31 -60.5q0 -43 31 -68.5t78 -25.5z" />
    <glyph glyph-name="fiveeighths" unicode="&#x215d;" horiz-adv-x="1966" 
d="M352 508q-153 0 -289 84l95 178q93 -57 170 -57q48 0 77 23.5t29 64.5q0 45 -34.5 70.5t-94.5 25.5q-88 0 -182 -20v499h539v-196h-310v-109h45q128 0 210.5 -75t82.5 -199q0 -125 -95.5 -207t-242.5 -82zM326 0l1034 1376h280l-1034 -1376h-280zM1571 -16
q-156 0 -252 70.5t-96 187.5q0 132 137 194q-117 58 -117 185q0 110 91 178.5t239 68.5t239 -68.5t91 -178.5q0 -64 -28 -112t-81 -73q61 -27 95 -77t34 -117q0 -116 -97.5 -187t-254.5 -71zM1573 514q43 11 68.5 35t25.5 55q0 36 -26 58t-68 22q-41 0 -67.5 -22.5
t-26.5 -57.5q0 -31 25.5 -55t68.5 -35zM1573 166q47 0 77.5 25.5t30.5 68.5q0 34 -30.5 60.5t-77.5 37.5q-47 -11 -78 -37.5t-31 -60.5q0 -43 31 -68.5t78 -25.5z" />
    <glyph glyph-name="seveneighths" unicode="&#x215e;" horiz-adv-x="1966" 
d="M215 524l279 647h-338v205h616v-162l-289 -690h-268zM326 0l1034 1376h280l-1034 -1376h-280zM1571 -16q-156 0 -252 70.5t-96 187.5q0 132 137 194q-117 58 -117 185q0 110 91 178.5t239 68.5t239 -68.5t91 -178.5q0 -64 -28 -112t-81 -73q61 -27 95 -77t34 -117
q0 -116 -97.5 -187t-254.5 -71zM1573 514q43 11 68.5 35t25.5 55q0 36 -26 58t-68 22q-41 0 -67.5 -22.5t-26.5 -57.5q0 -31 25.5 -55t68.5 -35zM1573 166q47 0 77.5 25.5t30.5 68.5q0 34 -30.5 60.5t-77.5 37.5q-47 -11 -78 -37.5t-31 -60.5q0 -43 31 -68.5t78 -25.5z" />
    <glyph glyph-name="uni215F" unicode="&#x215f;" horiz-adv-x="1179" 
d="M324 524v602l-154 -84l-90 170l289 164h213v-852h-258zM326 0l1034 1376h280l-1034 -1376h-280z" />
    <glyph glyph-name="arrowleft" unicode="&#x2190;" horiz-adv-x="1966" 
d="M778 -123l-712 713l712 713l240 -228l-336 -319h1219v-332h-1219l336 -320z" />
    <glyph glyph-name="arrowup" unicode="&#x2191;" horiz-adv-x="1966" 
d="M817 -328v1219l-319 -336l-228 240l713 712l713 -712l-228 -240l-319 336v-1219h-332z" />
    <glyph glyph-name="arrowright" unicode="&#x2192;" horiz-adv-x="1966" 
d="M1188 -123l-240 227l336 320h-1218v332h1218l-336 319l240 228l713 -713z" />
    <glyph glyph-name="arrowdown" unicode="&#x2193;" horiz-adv-x="1966" 
d="M983 -328l-713 713l228 240l319 -336v1218h332v-1218l319 336l228 -240z" />
    <glyph glyph-name="partialdiff" unicode="&#x2202;" 
d="M602 -25q-243 0 -395 156.5t-152 407.5q0 212 136 355.5t337 143.5q168 0 297 -92q-13 115 -87.5 178.5t-182.5 63.5q-112 0 -266 -74l-121 256q196 96 416 96q285 0 447.5 -200.5t162.5 -554.5q0 -342 -161 -539t-431 -197zM616 268q91 0 154.5 73.5t63.5 180.5
q0 98 -61 159.5t-157 61.5q-94 0 -154.5 -63t-60.5 -164q0 -110 60.5 -179t154.5 -69z" />
    <glyph glyph-name="uni2206" unicode="&#x2206;" horiz-adv-x="1417" 
d="M39 0v211l498 1165h346l497 -1165v-211h-1341zM428 287h561l-280 682z" />
    <glyph glyph-name="product" unicode="&#x220f;" horiz-adv-x="1662" 
d="M141 -426v1868h1381v-1868h-377v1581h-629v-1581h-375z" />
    <glyph glyph-name="summation" unicode="&#x2211;" horiz-adv-x="1308" 
d="M41 -426v219l586 731l-553 699v219h1179v-287h-692l426 -547v-168l-459 -579h758v-287h-1245z" />
    <glyph glyph-name="minus" unicode="&#x2212;" horiz-adv-x="1179" 
d="M72 440v299h1036v-299h-1036z" />
    <glyph glyph-name="radical" unicode="&#x221a;" horiz-adv-x="1429" 
d="M559 -426l-197 563l-282 -96l-94 281l573 190l172 -516l399 1491l293 -76l-497 -1837h-367z" />
    <glyph glyph-name="infinity" unicode="&#x221e;" horiz-adv-x="1662" 
d="M455 147q-184 0 -300 124t-116 319q0 194 116 318t300 124q118 0 205.5 -46.5t170.5 -154.5q83 108 170.5 154.5t206.5 46.5q183 0 299.5 -123.5t116.5 -318.5q0 -193 -117 -318t-299 -125q-119 0 -206.5 46.5t-170.5 154.5q-83 -108 -170.5 -154.5t-205.5 -46.5z
M506 426q54 0 94 39.5t80 124.5q-40 85 -80 124.5t-94 39.5q-60 0 -98.5 -46t-38.5 -118q0 -73 38.5 -118.5t98.5 -45.5zM1155 426q61 0 99 46t38 118q0 74 -38 119t-99 45q-53 0 -94 -40t-80 -124q39 -84 80 -124t94 -40z" />
    <glyph glyph-name="integral" unicode="&#x222b;" horiz-adv-x="876" 
d="M330 -451q-112 0 -221 33l61 279q52 -19 98 -19q57 0 93 40.5t36 103.5q0 67 -29.5 165.5t-71.5 203t-84 213t-71.5 225t-29.5 208.5q0 205 121.5 335t314.5 130q112 0 221 -32l-61 -279q-52 19 -101 19q-56 0 -92.5 -40.5t-36.5 -103.5q0 -67 30 -165.5t72.5 -203.5
t84.5 -213.5t72 -225t30 -208.5q0 -204 -122 -334.5t-314 -130.5z" />
    <glyph glyph-name="approxequal" unicode="&#x2248;" horiz-adv-x="1179" 
d="M817 647q-66 0 -131 15.5t-109 33.5t-102.5 33.5t-112.5 15.5q-94 0 -192 -83l-158 256q174 129 350 129q65 0 130 -15.5t109 -34t103 -34t113 -15.5q96 0 193 82l157 -256q-171 -127 -350 -127zM817 133q-66 0 -131 15.5t-109 33.5t-102.5 33.5t-112.5 15.5
q-51 0 -95.5 -18.5t-96.5 -62.5l-158 256q169 126 350 126q65 0 130 -15.5t109 -33.5t103 -33.5t113 -15.5q51 0 95.5 19.5t97.5 64.5l157 -256q-174 -129 -350 -129z" />
    <glyph glyph-name="notequal" unicode="&#x2260;" horiz-adv-x="1179" 
d="M434 -57l-272 131l63 125h-153v301h303l92 180h-395v301h544l129 260l273 -131l-66 -129h156v-301h-305l-90 -180h395v-301h-547z" />
    <glyph glyph-name="lessequal" unicode="&#x2264;" horiz-adv-x="1179" 
d="M1018 319l-946 426v302l946 426l121 -285l-662 -291l662 -291zM72 0v301h1036v-301h-1036z" />
    <glyph glyph-name="greaterequal" unicode="&#x2265;" horiz-adv-x="1179" 
d="M162 319l-121 287l661 291l-661 291l121 285l946 -426v-302zM72 0v301h1036v-301h-1036z" />
    <glyph glyph-name="dotmath" unicode="&#x22c5;" horiz-adv-x="577" 
d="M289 305q-92 0 -152.5 60.5t-60.5 152.5q0 93 60 153t153 60t153 -60t60 -153q0 -92 -60.5 -152.5t-152.5 -60.5z" />
    <glyph glyph-name="lozenge" unicode="&#x25ca;" horiz-adv-x="1179" 
d="M440 0l-428 688l428 688h299l428 -688l-428 -688h-299zM590 330l217 358l-217 356l-217 -356z" />
    <glyph glyph-name="uniF8FF" unicode="&#xf8ff;" horiz-adv-x="1210" 
d="M205 0v1350h801v-133h-668v-1084h149v-133h-282zM471 414v133h401v135h-401v399h535v-133h-402v-133h402v-401h-535z" />
    <glyph glyph-name="Jacute" horiz-adv-x="944" 
d="M549 1423l-135 195l409 287l156 -226zM334 -25q-154 0 -314 41l46 285q113 -25 178 -25q80 0 132 51.5t52 133.5v915h375v-952q0 -201 -130 -325t-339 -124z" />
    <glyph glyph-name="Cacute.loclPLK" horiz-adv-x="1341" 
d="M852 1423l-236 80l115 369l273 -94zM793 -25q-214 0 -382 91t-261 253.5t-93 368.5q0 207 93 369.5t261 253t382 90.5q270 0 522 -162l-150 -248q-166 113 -321 113q-180 0 -292 -115.5t-112 -300.5t112 -300.5t292 -115.5q155 0 321 113l150 -248q-252 -162 -522 -162z
" />
    <glyph glyph-name="Nacute.loclPLK" horiz-adv-x="1613" 
d="M891 1423l-236 80l115 369l272 -94zM141 0v1376h361l626 -866v866h345v-1376h-361l-625 866v-866h-346z" />
    <glyph glyph-name="Oacute.loclPLK" horiz-adv-x="1613" 
d="M891 1423l-236 80l115 369l272 -94zM807 -25q-163 0 -302.5 53t-238 146.5t-154 226t-55.5 287.5t55.5 287.5t154 226t238 146.5t302.5 53t303 -53t238.5 -146.5t154.5 -226t56 -287.5t-56 -287.5t-154.5 -226t-238.5 -146.5t-303 -53zM807 268q163 0 266 117.5
t103 302.5t-103 302.5t-266 117.5q-162 0 -264.5 -117.5t-102.5 -302.5t102.5 -302.5t264.5 -117.5z" />
    <glyph glyph-name="Sacute.loclPLK" horiz-adv-x="1222" 
d="M696 1423l-235 80l114 369l273 -94zM612 -25q-266 0 -549 115l84 279q265 -101 435 -101q98 0 153.5 35t55.5 98q0 36 -24.5 62.5t-66 43.5t-95.5 30.5t-114 29t-119.5 34.5t-113.5 50.5t-95.5 73.5t-66 108t-24.5 150q0 186 151 302t389 116q237 0 498 -98l-84 -279
q-212 84 -385 84q-93 0 -147 -33t-54 -92q0 -35 24.5 -60t66 -40.5t95.5 -28.5t114 -27.5t119.5 -33.5t113.5 -51t95.5 -75.5t66 -111.5t24.5 -154q0 -190 -152.5 -308t-394.5 -118z" />
    <glyph glyph-name="Zacute.loclPLK" horiz-adv-x="1320" 
d="M745 1423l-235 80l115 369l272 -94zM63 0v211l689 879h-664v286h1145v-211l-688 -878h712v-287h-1194z" />
    <glyph glyph-name="i.loclTRK" horiz-adv-x="575" 
d="M287 1104q-88 0 -143.5 55t-55.5 141q0 88 55.5 143.5t143.5 55.5t143 -55.5t55 -143.5q0 -86 -55 -141t-143 -55zM106 0v1014h361v-1014h-361z" />
    <glyph glyph-name="jacute" horiz-adv-x="591" 
d="M238 1081l-136 195l410 287l156 -226zM104 -451q-122 0 -254 33l46 266q68 -12 118 -12q51 0 80 29t29 80v1069h360v-1106q0 -161 -104.5 -260t-274.5 -99z" />
    <glyph glyph-name="germandbls.calt" horiz-adv-x="1613" 
d="M1012 -25q-215 0 -422 121l129 273q164 -101 262 -101q86 0 139.5 46.5t53.5 121.5q0 81 -63.5 133t-162.5 52h-47l-53 165l223 304h-569v-1090h-361v1376h1352v-211l-231 -311q132 -57 206 -167.5t74 -250.5q0 -203 -148.5 -332t-381.5 -129z" />
    <glyph glyph-name="cacute.loclPLK" horiz-adv-x="1042" 
d="M672 1067l-236 80l115 369l272 -95zM618 -25q-247 0 -405 149.5t-158 381.5q0 233 158 382.5t405 149.5q219 0 416 -123l-143 -239q-120 76 -221 76q-109 0 -177.5 -68.5t-68.5 -177.5t68.5 -176.5t177.5 -67.5q101 0 221 76l143 -242q-198 -121 -416 -121z" />
    <glyph glyph-name="nacute.loclPLK" 
d="M764 1067l-236 80l115 369l272 -95zM106 0v1014h287l45 -111q126 135 332 135q180 0 293 -111t113 -286v-641h-361v582q0 70 -45.5 115.5t-114.5 45.5q-83 0 -135.5 -55.5t-52.5 -144.5v-543h-361z" />
    <glyph glyph-name="oacute.loclPLK" 
d="M717 1067l-236 80l115 369l272 -95zM633 -25q-254 0 -416 149t-162 382q0 234 162 383t416 149q255 0 416 -148.5t161 -383.5q0 -234 -161 -382.5t-416 -148.5zM633 254q92 0 151.5 71t59.5 181q0 112 -59 183t-152 71q-92 0 -150.5 -71t-58.5 -183q0 -110 58.5 -181
t150.5 -71z" />
    <glyph glyph-name="sacute.loclPLK" horiz-adv-x="974" 
d="M571 1067l-235 80l115 369l272 -95zM487 -25q-205 0 -432 82l76 256q177 -73 326 -73q52 0 80 19t28 52q0 22 -21.5 37.5t-57 23.5t-80.5 18.5t-92 21.5t-92 34.5t-80.5 55t-57 85.5t-21.5 124q0 141 119 234t305 93q187 0 400 -73l-76 -256q-170 65 -295 65
q-47 0 -73.5 -17t-26.5 -46q0 -24 28 -39t72 -24t98 -19t108 -31.5t98 -53.5t72 -92t28 -141q0 -147 -121 -241.5t-312 -94.5z" />
    <glyph glyph-name="zacute.loclPLK" horiz-adv-x="1040" 
d="M604 1067l-235 80l114 369l273 -95zM55 0v197l447 544h-430v273h897v-197l-449 -547h465v-270h-930z" />
    <glyph glyph-name="zero.lf" horiz-adv-x="1370" 
d="M686 -25q-273 0 -434.5 192t-161.5 521t161.5 521t434.5 192q271 0 432.5 -192t161.5 -521t-161.5 -521t-432.5 -192zM686 254q110 0 168.5 111.5t58.5 322.5t-58.5 322.5t-168.5 111.5q-112 0 -170.5 -111.5t-58.5 -322.5t58.5 -322.5t170.5 -111.5z" />
    <glyph glyph-name="one.lf" horiz-adv-x="876" 
d="M358 0v1030l-276 -156l-121 242l457 260h301v-1376h-361z" />
    <glyph glyph-name="two.lf" horiz-adv-x="1079" 
d="M35 0v225l442 443q144 144 144 252q0 79 -53 129.5t-136 50.5q-48 0 -100 -16.5t-87.5 -35t-101.5 -57.5l-135 264q259 146 498 146q207 0 337 -120.5t130 -309.5q0 -221 -203 -424l-260 -260h479v-287h-954z" />
    <glyph glyph-name="three.lf" horiz-adv-x="1079" 
d="M520 -25q-280 0 -528 113l112 264q188 -90 351 -90q79 0 130.5 41.5t51.5 108.5q0 73 -62.5 118t-164.5 45h-109v259h109q90 0 146 41t56 106q0 60 -41 96.5t-110 36.5q-142 0 -324 -82l-112 264q241 105 495 105q200 0 326.5 -106.5t126.5 -276.5q0 -105 -51 -185.5
t-140 -119.5q98 -37 161 -130t63 -208q0 -178 -136.5 -289t-349.5 -111z" />
    <glyph glyph-name="four.lf" horiz-adv-x="1206" 
d="M668 0v270h-617v242l600 864h346v-833h156v-273h-156v-270h-329zM383 543h285v411z" />
    <glyph glyph-name="five.lf" horiz-adv-x="1079" 
d="M475 -25q-242 0 -452 129l137 265q153 -101 286 -101q96 0 152.5 45t56.5 123q0 88 -66.5 136.5t-187.5 48.5q-131 0 -280 -33v788h837v-286h-522v-224q27 2 84 2q221 0 354.5 -119.5t133.5 -318.5q0 -197 -150 -326t-383 -129z" />
    <glyph glyph-name="six.lf" horiz-adv-x="1239" 
d="M653 -25q-264 0 -413.5 175.5t-149.5 484.5q0 361 168 563.5t461 202.5q217 0 399 -96l-121 -256q-143 73 -264 73q-130 0 -212.5 -78.5t-92.5 -218.5q126 95 285 95q201 0 328.5 -126.5t127.5 -324.5q0 -217 -145 -355.5t-371 -138.5zM639 254q86 0 142.5 57.5
t56.5 143.5q0 85 -54 138.5t-139 53.5q-88 0 -144.5 -50.5t-56.5 -129.5q0 -93 55 -153t140 -60z" />
    <glyph glyph-name="seven.lf" horiz-adv-x="1009" 
d="M111 0l471 1090h-576v286h967v-225l-486 -1151h-376z" />
    <glyph glyph-name="eight.lf" horiz-adv-x="1239" 
d="M621 -25q-246 0 -396.5 111.5t-150.5 294.5q0 107 59.5 192t167.5 132q-90 45 -142.5 126t-52.5 181q0 175 142 282t373 107q230 0 372 -107t142 -282q0 -100 -52.5 -181t-142.5 -126q108 -50 167.5 -134t59.5 -190q0 -183 -150 -294.5t-396 -111.5zM621 834
q81 22 124 58.5t43 96.5q0 62 -47 101.5t-120 39.5t-120.5 -39.5t-47.5 -101.5q0 -110 168 -155zM621 246q82 0 134 43.5t52 113.5q0 121 -186 172q-187 -51 -187 -172q0 -70 52.5 -113.5t134.5 -43.5z" />
    <glyph glyph-name="nine.lf" horiz-adv-x="1239" 
d="M522 -25q-215 0 -399 97l121 256q145 -74 264 -74q130 0 212.5 78.5t92.5 218.5q-124 -94 -285 -94q-201 0 -328.5 126t-127.5 324q0 217 145 355.5t371 138.5q264 0 413.5 -175.5t149.5 -484.5q0 -361 -168 -563.5t-461 -202.5zM596 729q88 0 144.5 50.5t56.5 129.5
q0 93 -55 153t-140 60q-86 0 -142.5 -57t-56.5 -143q0 -85 54 -139t139 -54z" />
    <glyph glyph-name="cent.lf" horiz-adv-x="1140" 
d="M592 -131v293q-217 22 -352.5 167.5t-135.5 358.5t135.5 358.5t352.5 167.5v293h266v-313q113 -26 225 -96l-143 -234q-74 42 -98 51v-454q24 9 98 51l143 -233q-112 -70 -225 -99v-311h-266zM612 451v475q-74 -27 -112.5 -89t-38.5 -149t38.5 -148.5t112.5 -88.5z" />
    <glyph glyph-name="dollar.lf" horiz-adv-x="1089" 
d="M379 -262v348q-176 24 -320 82l84 254q131 -53 254 -78v252q-58 15 -104.5 32t-94 45.5t-79.5 63t-52 86t-20 113.5q0 82 35.5 149.5t96.5 111t136.5 69.5t159.5 32v340h266v-354q112 -19 256 -72l-84 -254q-102 44 -190 64v-234q56 -16 100.5 -33t90.5 -45t76.5 -62
t49.5 -83.5t19 -109.5q0 -155 -108.5 -254t-305.5 -121v-342h-266zM494 844v196q-144 -18 -144 -94q0 -36 37 -59.5t107 -42.5zM627 342q67 13 98 42t31 65q0 33 -33 54t-96 38v-199z" />
    <glyph glyph-name="Euro.lf" horiz-adv-x="1177" 
d="M784 -25q-215 0 -374.5 126.5t-225.5 349.5h-135v213h107q-2 8 -2 24q0 39 2 57h-107v213h148q68 208 223 325.5t364 117.5q220 0 402 -105l-127 -241q-112 67 -230 67q-88 0 -159.5 -45t-104.5 -119h391v-213h-454q-2 -18 -2 -57v-24h456v-213h-407q34 -91 108 -144
t172 -53q116 0 230 68l127 -242q-182 -105 -402 -105z" />
    <glyph glyph-name="sterling.lf" horiz-adv-x="1177" 
d="M102 0v279h170v290h-137v271h137v121q0 193 136 316.5t344 123.5q156 0 366 -72l-90 -264q-108 43 -203 43q-78 0 -128 -49.5t-50 -126.5v-92h322v-271h-322v-290h459v-279h-1004z" />
    <glyph glyph-name="yen.lf" 
d="M444 0v213h-264v242h264v84h-264v239h174l-360 598h391l248 -477l248 477h391l-361 -598h174v-239h-264v-84h264v-242h-264v-213h-377z" />
    <glyph glyph-name="uni0308.case" horiz-adv-x="0" 
d="M-487 1460q-82 0 -132.5 50t-50.5 132t50.5 133.5t132.5 51.5q81 0 131.5 -51.5t50.5 -133.5t-50 -132t-132 -50zM-4 1460q-82 0 -132 50t-50 132t50.5 133.5t131.5 51.5t131.5 -51.5t50.5 -133.5t-50 -132t-132 -50z" />
    <glyph glyph-name="uni0307.case" horiz-adv-x="0" 
d="M-246 1446q-88 0 -143 55t-55 141q0 88 55 143.5t143 55.5t143.5 -55.5t55.5 -143.5q0 -86 -55.5 -141t-143.5 -55z" />
    <glyph glyph-name="gravecomb.case" horiz-adv-x="0" 
d="M-150 1423l-432 256l158 226l410 -287z" />
    <glyph glyph-name="acutecomb.case" horiz-adv-x="0" 
d="M-311 1423l-135 195l409 287l156 -226z" />
    <glyph glyph-name="uni030B.case" horiz-adv-x="0" 
d="M-516 1421l-180 181l329 352l203 -203zM-10 1421l-180 181l329 352l203 -203z" />
    <glyph glyph-name="uni0302.case" horiz-adv-x="0" 
d="M-461 1423l-151 166l260 246h213l260 -246l-152 -166l-215 170z" />
    <glyph glyph-name="uni030C.case" horiz-adv-x="0" 
d="M-352 1452l-260 246l151 166l215 -170l215 170l152 -166l-260 -246h-213z" />
    <glyph glyph-name="uni0306.case" horiz-adv-x="0" 
d="M-246 1436q-157 0 -258.5 98t-107.5 268h227q3 -58 41.5 -91.5t97.5 -33.5t98 33.5t42 91.5h227q-6 -170 -108 -268t-259 -98z" />
    <glyph glyph-name="uni030A.case" horiz-adv-x="0" 
d="M-246 1419q-106 0 -172.5 62.5t-66.5 160.5q0 100 66.5 163t172.5 63t173 -63t67 -163q0 -98 -67 -160.5t-173 -62.5zM-246 1571q33 0 53.5 19.5t20.5 51.5q0 33 -20.5 53.5t-53.5 20.5q-32 0 -52.5 -20t-20.5 -54q0 -32 20.5 -51.5t52.5 -19.5z" />
    <glyph glyph-name="tildecomb.case" horiz-adv-x="0" 
d="M-416 1489l-211 61q15 113 83 180.5t167 67.5q49 0 96 -17t81.5 -33.5t54.5 -16.5q47 0 69 67l211 -61q-15 -113 -83 -180.5t-167 -67.5q-49 0 -95.5 16.5t-81 33.5t-54.5 17q-54 0 -70 -67z" />
    <glyph glyph-name="uni0304.case" horiz-adv-x="0" 
d="M-584 1524v239h676v-239h-676z" />
    <glyph glyph-name="acutecomb.loclPLK" horiz-adv-x="0" 
d="M-162 1067l-235 80l114 369l273 -95z" />
    <glyph glyph-name="acutecomb.case.loclPLK" horiz-adv-x="0" 
d="M-162 1423l-235 80l114 369l273 -94z" />
    <glyph glyph-name="acute.case" horiz-adv-x="491" 
d="M180 1423l-135 195l410 287l155 -226z" />
    <glyph glyph-name="breve.case" horiz-adv-x="491" 
d="M246 1436q-157 0 -259 98t-108 268h227q3 -58 42 -91.5t98 -33.5t97.5 33.5t41.5 91.5h227q-6 -170 -107.5 -268t-258.5 -98z" />
    <glyph glyph-name="caron.case" horiz-adv-x="491" 
d="M139 1452l-260 246l152 166l215 -170l215 170l151 -166l-260 -246h-213z" />
    <glyph glyph-name="circumflex.case" horiz-adv-x="491" 
d="M31 1423l-152 166l260 246h213l260 -246l-151 -166l-215 170z" />
    <glyph glyph-name="dieresis.case" horiz-adv-x="491" 
d="M4 1460q-82 0 -132 50t-50 132t50.5 133.5t131.5 51.5t131.5 -51.5t50.5 -133.5t-50 -132t-132 -50zM487 1460q-82 0 -132 50t-50 132t50.5 133.5t131.5 51.5q82 0 132.5 -51.5t50.5 -133.5t-50.5 -132t-132.5 -50z" />
    <glyph glyph-name="dotaccent.case" horiz-adv-x="491" 
d="M246 1446q-88 0 -143.5 55t-55.5 141q0 88 55.5 143.5t143.5 55.5t143 -55.5t55 -143.5q0 -86 -55 -141t-143 -55z" />
    <glyph glyph-name="grave.case" horiz-adv-x="491" 
d="M342 1423l-432 256l158 226l409 -287z" />
    <glyph glyph-name="hungarumlaut.case" horiz-adv-x="491" 
d="M-25 1421l-180 181l330 352l203 -203zM481 1421l-180 181l330 352l203 -203z" />
    <glyph glyph-name="macron.case" horiz-adv-x="491" 
d="M-92 1524v239h676v-239h-676z" />
    <glyph glyph-name="ring.case" horiz-adv-x="491" 
d="M246 1419q-106 0 -173 62.5t-67 160.5q0 100 67 163t173 63t172.5 -63t66.5 -163q0 -98 -66.5 -160.5t-172.5 -62.5zM246 1571q32 0 52.5 19.5t20.5 51.5q0 34 -20.5 54t-52.5 20q-33 0 -53.5 -20.5t-20.5 -53.5q0 -32 20.5 -51.5t53.5 -19.5z" />
    <glyph glyph-name="tilde.case" horiz-adv-x="491" 
d="M76 1489l-211 61q15 113 83 180.5t167 67.5q49 0 95.5 -17t81 -33.5t54.5 -16.5q48 0 70 67l211 -61q-15 -113 -83 -180.5t-167 -67.5q-49 0 -96 16.5t-81.5 33.5t-54.5 17q-53 0 -69 -67z" />
    </font>
</defs>
</svg>
